ISO-10303-21;
HEADER;
/* Generated by software containing ST-Developer
 * from STEP Tools, Inc. (www.steptools.com) 
 */

FILE_DESCRIPTION(
/* description */ (''),
/* implementation_level */ '2;1');

FILE_NAME(
/* name */ 'Lead screw double support.step',
/* time_stamp */ '2026-08-04T21:52:42+02:00',
/* author */ (''),
/* organization */ (''),
/* preprocessor_version */ 'ST-DEVELOPER v20.1',
/* originating_system */ 'Autodesk Translation Framework v15.8.0.0',
/* authorisation */ '');

FILE_SCHEMA (('AUTOMOTIVE_DESIGN { 1 0 10303 214 3 1 1 }'));
ENDSEC;

DATA;
#10=MECHANICAL_DESIGN_GEOMETRIC_PRESENTATION_REPRESENTATION('',(#13),#922);
#11=SHAPE_REPRESENTATION_RELATIONSHIP('SRR','None',#929,#12);
#12=ADVANCED_BREP_SHAPE_REPRESENTATION('',(#14),#921);
#13=STYLED_ITEM('',(#938),#14);
#14=MANIFOLD_SOLID_BREP('Body2',#552);
#15=FACE_BOUND('',#81,.T.);
#16=FACE_BOUND('',#82,.T.);
#17=FACE_BOUND('',#98,.T.);
#18=FACE_BOUND('',#99,.T.);
#19=FACE_BOUND('',#103,.T.);
#20=FACE_BOUND('',#104,.T.);
#21=FACE_BOUND('',#108,.T.);
#22=FACE_BOUND('',#109,.T.);
#23=PLANE('',#585);
#24=PLANE('',#593);
#25=PLANE('',#594);
#26=PLANE('',#595);
#27=PLANE('',#596);
#28=PLANE('',#597);
#29=PLANE('',#598);
#30=PLANE('',#599);
#31=PLANE('',#600);
#32=PLANE('',#601);
#33=PLANE('',#602);
#34=PLANE('',#603);
#35=PLANE('',#604);
#36=PLANE('',#605);
#37=PLANE('',#608);
#38=PLANE('',#611);
#39=PLANE('',#612);
#40=CONICAL_SURFACE('',#572,10.,0.785398163397449);
#41=CONICAL_SURFACE('',#577,10.,0.785398163397449);
#42=CONICAL_SURFACE('',#582,12.,0.785398163397448);
#43=CONICAL_SURFACE('',#590,12.,0.785398163397448);
#44=FACE_OUTER_BOUND('',#73,.T.);
#45=FACE_OUTER_BOUND('',#74,.T.);
#46=FACE_OUTER_BOUND('',#75,.T.);
#47=FACE_OUTER_BOUND('',#76,.T.);
#48=FACE_OUTER_BOUND('',#77,.T.);
#49=FACE_OUTER_BOUND('',#78,.T.);
#50=FACE_OUTER_BOUND('',#79,.T.);
#51=FACE_OUTER_BOUND('',#80,.T.);
#52=FACE_OUTER_BOUND('',#83,.T.);
#53=FACE_OUTER_BOUND('',#84,.T.);
#54=FACE_OUTER_BOUND('',#85,.T.);
#55=FACE_OUTER_BOUND('',#86,.T.);
#56=FACE_OUTER_BOUND('',#87,.T.);
#57=FACE_OUTER_BOUND('',#88,.T.);
#58=FACE_OUTER_BOUND('',#89,.T.);
#59=FACE_OUTER_BOUND('',#90,.T.);
#60=FACE_OUTER_BOUND('',#91,.T.);
#61=FACE_OUTER_BOUND('',#92,.T.);
#62=FACE_OUTER_BOUND('',#93,.T.);
#63=FACE_OUTER_BOUND('',#94,.T.);
#64=FACE_OUTER_BOUND('',#95,.T.);
#65=FACE_OUTER_BOUND('',#96,.T.);
#66=FACE_OUTER_BOUND('',#97,.T.);
#67=FACE_OUTER_BOUND('',#100,.T.);
#68=FACE_OUTER_BOUND('',#101,.T.);
#69=FACE_OUTER_BOUND('',#102,.T.);
#70=FACE_OUTER_BOUND('',#105,.T.);
#71=FACE_OUTER_BOUND('',#106,.T.);
#72=FACE_OUTER_BOUND('',#107,.T.);
#73=EDGE_LOOP('',(#365,#366,#367,#368));
#74=EDGE_LOOP('',(#369,#370,#371,#372));
#75=EDGE_LOOP('',(#373,#374,#375,#376));
#76=EDGE_LOOP('',(#377,#378,#379,#380));
#77=EDGE_LOOP('',(#381,#382,#383,#384));
#78=EDGE_LOOP('',(#385,#386,#387,#388));
#79=EDGE_LOOP('',(#389,#390,#391,#392));
#80=EDGE_LOOP('',(#393,#394,#395,#396,#397,#398,#399,#400,#401));
#81=EDGE_LOOP('',(#402));
#82=EDGE_LOOP('',(#403));
#83=EDGE_LOOP('',(#404,#405,#406,#407));
#84=EDGE_LOOP('',(#408,#409,#410,#411));
#85=EDGE_LOOP('',(#412,#413,#414,#415));
#86=EDGE_LOOP('',(#416,#417,#418,#419));
#87=EDGE_LOOP('',(#420,#421,#422,#423));
#88=EDGE_LOOP('',(#424,#425,#426,#427));
#89=EDGE_LOOP('',(#428,#429,#430,#431,#432));
#90=EDGE_LOOP('',(#433,#434,#435,#436));
#91=EDGE_LOOP('',(#437,#438,#439,#440));
#92=EDGE_LOOP('',(#441,#442,#443,#444));
#93=EDGE_LOOP('',(#445,#446,#447,#448,#449));
#94=EDGE_LOOP('',(#450,#451,#452,#453,#454,#455));
#95=EDGE_LOOP('',(#456,#457,#458,#459,#460,#461));
#96=EDGE_LOOP('',(#462,#463,#464,#465));
#97=EDGE_LOOP('',(#466,#467,#468,#469));
#98=EDGE_LOOP('',(#470));
#99=EDGE_LOOP('',(#471));
#100=EDGE_LOOP('',(#472,#473,#474,#475));
#101=EDGE_LOOP('',(#476,#477,#478,#479));
#102=EDGE_LOOP('',(#480,#481,#482,#483,#484,#485,#486,#487));
#103=EDGE_LOOP('',(#488));
#104=EDGE_LOOP('',(#489));
#105=EDGE_LOOP('',(#490,#491,#492,#493));
#106=EDGE_LOOP('',(#494,#495,#496,#497));
#107=EDGE_LOOP('',(#498,#499,#500,#501,#502,#503,#504,#505,#506,#507,#508,
#509,#510,#511,#512));
#108=EDGE_LOOP('',(#513));
#109=EDGE_LOOP('',(#514));
#110=LINE('',#771,#167);
#111=LINE('',#777,#168);
#112=LINE('',#783,#169);
#113=LINE('',#787,#170);
#114=LINE('',#793,#171);
#115=LINE('',#797,#172);
#116=LINE('',#803,#173);
#117=LINE('',#808,#174);
#118=LINE('',#812,#175);
#119=LINE('',#814,#176);
#120=LINE('',#816,#177);
#121=LINE('',#820,#178);
#122=LINE('',#822,#179);
#123=LINE('',#823,#180);
#124=LINE('',#827,#181);
#125=LINE('',#830,#182);
#126=LINE('',#833,#183);
#127=LINE('',#837,#184);
#128=LINE('',#839,#185);
#129=LINE('',#841,#186);
#130=LINE('',#842,#187);
#131=LINE('',#846,#188);
#132=LINE('',#848,#189);
#133=LINE('',#850,#190);
#134=LINE('',#851,#191);
#135=LINE('',#853,#192);
#136=LINE('',#854,#193);
#137=LINE('',#857,#194);
#138=LINE('',#858,#195);
#139=LINE('',#862,#196);
#140=LINE('',#864,#197);
#141=LINE('',#866,#198);
#142=LINE('',#867,#199);
#143=LINE('',#870,#200);
#144=LINE('',#872,#201);
#145=LINE('',#873,#202);
#146=LINE('',#876,#203);
#147=LINE('',#878,#204);
#148=LINE('',#879,#205);
#149=LINE('',#882,#206);
#150=LINE('',#883,#207);
#151=LINE('',#885,#208);
#152=LINE('',#887,#209);
#153=LINE('',#888,#210);
#154=LINE('',#891,#211);
#155=LINE('',#892,#212);
#156=LINE('',#893,#213);
#157=LINE('',#897,#214);
#158=LINE('',#898,#215);
#159=LINE('',#899,#216);
#160=LINE('',#902,#217);
#161=LINE('',#903,#218);
#162=LINE('',#906,#219);
#163=LINE('',#907,#220);
#164=LINE('',#911,#221);
#165=LINE('',#915,#222);
#166=LINE('',#917,#223);
#167=VECTOR('',#619,3.);
#168=VECTOR('',#626,3.);
#169=VECTOR('',#633,10.);
#170=VECTOR('',#638,9.);
#171=VECTOR('',#645,10.);
#172=VECTOR('',#650,9.);
#173=VECTOR('',#657,12.);
#174=VECTOR('',#662,10.);
#175=VECTOR('',#665,10.);
#176=VECTOR('',#666,10.);
#177=VECTOR('',#667,10.);
#178=VECTOR('',#670,10.);
#179=VECTOR('',#671,10.);
#180=VECTOR('',#672,10.);
#181=VECTOR('',#677,11.);
#182=VECTOR('',#680,12.);
#183=VECTOR('',#685,11.);
#184=VECTOR('',#688,10.);
#185=VECTOR('',#689,10.);
#186=VECTOR('',#690,10.);
#187=VECTOR('',#691,10.);
#188=VECTOR('',#694,10.);
#189=VECTOR('',#695,10.);
#190=VECTOR('',#696,10.);
#191=VECTOR('',#697,10.);
#192=VECTOR('',#700,10.);
#193=VECTOR('',#701,10.);
#194=VECTOR('',#704,10.);
#195=VECTOR('',#705,10.);
#196=VECTOR('',#708,10.);
#197=VECTOR('',#709,10.);
#198=VECTOR('',#710,10.);
#199=VECTOR('',#711,10.);
#200=VECTOR('',#714,10.);
#201=VECTOR('',#715,10.);
#202=VECTOR('',#716,10.);
#203=VECTOR('',#719,10.);
#204=VECTOR('',#720,10.);
#205=VECTOR('',#721,10.);
#206=VECTOR('',#724,10.);
#207=VECTOR('',#725,10.);
#208=VECTOR('',#728,10.);
#209=VECTOR('',#729,10.);
#210=VECTOR('',#730,10.);
#211=VECTOR('',#733,10.);
#212=VECTOR('',#734,10.);
#213=VECTOR('',#735,10.);
#214=VECTOR('',#738,10.);
#215=VECTOR('',#739,10.);
#216=VECTOR('',#740,10.);
#217=VECTOR('',#743,10.);
#218=VECTOR('',#744,10.);
#219=VECTOR('',#747,10.);
#220=VECTOR('',#748,10.);
#221=VECTOR('',#755,10.);
#222=VECTOR('',#760,10.);
#223=VECTOR('',#763,10.);
#224=CIRCLE('',#567,3.);
#225=CIRCLE('',#568,3.);
#226=CIRCLE('',#570,3.);
#227=CIRCLE('',#571,3.);
#228=CIRCLE('',#573,11.);
#229=CIRCLE('',#574,9.);
#230=CIRCLE('',#576,9.);
#231=CIRCLE('',#578,11.);
#232=CIRCLE('',#579,9.);
#233=CIRCLE('',#581,9.);
#234=CIRCLE('',#583,13.);
#235=CIRCLE('',#584,11.);
#236=CIRCLE('',#586,15.);
#237=CIRCLE('',#587,15.);
#238=CIRCLE('',#588,13.);
#239=CIRCLE('',#591,11.);
#240=CIRCLE('',#607,15.);
#241=CIRCLE('',#610,15.);
#242=VERTEX_POINT('',#768);
#243=VERTEX_POINT('',#770);
#244=VERTEX_POINT('',#774);
#245=VERTEX_POINT('',#776);
#246=VERTEX_POINT('',#780);
#247=VERTEX_POINT('',#782);
#248=VERTEX_POINT('',#786);
#249=VERTEX_POINT('',#790);
#250=VERTEX_POINT('',#792);
#251=VERTEX_POINT('',#796);
#252=VERTEX_POINT('',#800);
#253=VERTEX_POINT('',#802);
#254=VERTEX_POINT('',#806);
#255=VERTEX_POINT('',#807);
#256=VERTEX_POINT('',#809);
#257=VERTEX_POINT('',#811);
#258=VERTEX_POINT('',#813);
#259=VERTEX_POINT('',#815);
#260=VERTEX_POINT('',#817);
#261=VERTEX_POINT('',#819);
#262=VERTEX_POINT('',#821);
#263=VERTEX_POINT('',#824);
#264=VERTEX_POINT('',#829);
#265=VERTEX_POINT('',#835);
#266=VERTEX_POINT('',#836);
#267=VERTEX_POINT('',#838);
#268=VERTEX_POINT('',#840);
#269=VERTEX_POINT('',#844);
#270=VERTEX_POINT('',#845);
#271=VERTEX_POINT('',#847);
#272=VERTEX_POINT('',#849);
#273=VERTEX_POINT('',#856);
#274=VERTEX_POINT('',#860);
#275=VERTEX_POINT('',#861);
#276=VERTEX_POINT('',#863);
#277=VERTEX_POINT('',#865);
#278=VERTEX_POINT('',#869);
#279=VERTEX_POINT('',#871);
#280=VERTEX_POINT('',#875);
#281=VERTEX_POINT('',#877);
#282=VERTEX_POINT('',#881);
#283=VERTEX_POINT('',#886);
#284=VERTEX_POINT('',#890);
#285=VERTEX_POINT('',#895);
#286=VERTEX_POINT('',#896);
#287=VERTEX_POINT('',#901);
#288=VERTEX_POINT('',#905);
#289=VERTEX_POINT('',#913);
#290=EDGE_CURVE('',#242,#242,#224,.T.);
#291=EDGE_CURVE('',#242,#243,#110,.T.);
#292=EDGE_CURVE('',#243,#243,#225,.T.);
#293=EDGE_CURVE('',#244,#244,#226,.T.);
#294=EDGE_CURVE('',#244,#245,#111,.T.);
#295=EDGE_CURVE('',#245,#245,#227,.T.);
#296=EDGE_CURVE('',#246,#246,#228,.T.);
#297=EDGE_CURVE('',#246,#247,#112,.T.);
#298=EDGE_CURVE('',#247,#247,#229,.T.);
#299=EDGE_CURVE('',#247,#248,#113,.T.);
#300=EDGE_CURVE('',#248,#248,#230,.T.);
#301=EDGE_CURVE('',#249,#249,#231,.T.);
#302=EDGE_CURVE('',#249,#250,#114,.T.);
#303=EDGE_CURVE('',#250,#250,#232,.T.);
#304=EDGE_CURVE('',#250,#251,#115,.T.);
#305=EDGE_CURVE('',#251,#251,#233,.T.);
#306=EDGE_CURVE('',#252,#252,#234,.T.);
#307=EDGE_CURVE('',#252,#253,#116,.T.);
#308=EDGE_CURVE('',#253,#253,#235,.T.);
#309=EDGE_CURVE('',#254,#255,#117,.T.);
#310=EDGE_CURVE('',#255,#256,#236,.T.);
#311=EDGE_CURVE('',#256,#257,#118,.T.);
#312=EDGE_CURVE('',#257,#258,#119,.T.);
#313=EDGE_CURVE('',#258,#259,#120,.T.);
#314=EDGE_CURVE('',#259,#260,#237,.T.);
#315=EDGE_CURVE('',#260,#261,#121,.T.);
#316=EDGE_CURVE('',#261,#262,#122,.T.);
#317=EDGE_CURVE('',#262,#254,#123,.T.);
#318=EDGE_CURVE('',#263,#263,#238,.T.);
#319=EDGE_CURVE('',#253,#249,#124,.T.);
#320=EDGE_CURVE('',#263,#264,#125,.T.);
#321=EDGE_CURVE('',#264,#264,#239,.T.);
#322=EDGE_CURVE('',#264,#246,#126,.T.);
#323=EDGE_CURVE('',#265,#266,#127,.T.);
#324=EDGE_CURVE('',#267,#265,#128,.T.);
#325=EDGE_CURVE('',#267,#268,#129,.T.);
#326=EDGE_CURVE('',#266,#268,#130,.T.);
#327=EDGE_CURVE('',#269,#270,#131,.T.);
#328=EDGE_CURVE('',#269,#271,#132,.T.);
#329=EDGE_CURVE('',#271,#272,#133,.T.);
#330=EDGE_CURVE('',#270,#272,#134,.T.);
#331=EDGE_CURVE('',#266,#269,#135,.T.);
#332=EDGE_CURVE('',#268,#271,#136,.T.);
#333=EDGE_CURVE('',#273,#267,#137,.T.);
#334=EDGE_CURVE('',#272,#273,#138,.T.);
#335=EDGE_CURVE('',#274,#275,#139,.T.);
#336=EDGE_CURVE('',#274,#276,#140,.T.);
#337=EDGE_CURVE('',#276,#277,#141,.T.);
#338=EDGE_CURVE('',#275,#277,#142,.T.);
#339=EDGE_CURVE('',#278,#274,#143,.T.);
#340=EDGE_CURVE('',#278,#279,#144,.T.);
#341=EDGE_CURVE('',#279,#276,#145,.T.);
#342=EDGE_CURVE('',#280,#278,#146,.T.);
#343=EDGE_CURVE('',#281,#280,#147,.T.);
#344=EDGE_CURVE('',#281,#279,#148,.T.);
#345=EDGE_CURVE('',#282,#281,#149,.T.);
#346=EDGE_CURVE('',#277,#282,#150,.T.);
#347=EDGE_CURVE('',#273,#257,#151,.T.);
#348=EDGE_CURVE('',#283,#256,#152,.T.);
#349=EDGE_CURVE('',#270,#283,#153,.T.);
#350=EDGE_CURVE('',#280,#284,#154,.T.);
#351=EDGE_CURVE('',#284,#259,#155,.T.);
#352=EDGE_CURVE('',#282,#258,#156,.T.);
#353=EDGE_CURVE('',#285,#286,#157,.T.);
#354=EDGE_CURVE('',#285,#254,#158,.T.);
#355=EDGE_CURVE('',#286,#262,#159,.T.);
#356=EDGE_CURVE('',#287,#286,#160,.T.);
#357=EDGE_CURVE('',#287,#261,#161,.T.);
#358=EDGE_CURVE('',#287,#288,#162,.T.);
#359=EDGE_CURVE('',#288,#260,#163,.T.);
#360=EDGE_CURVE('',#284,#288,#240,.T.);
#361=EDGE_CURVE('',#275,#265,#164,.T.);
#362=EDGE_CURVE('',#289,#283,#241,.T.);
#363=EDGE_CURVE('',#289,#255,#165,.T.);
#364=EDGE_CURVE('',#285,#289,#166,.T.);
#365=ORIENTED_EDGE('',*,*,#290,.F.);
#366=ORIENTED_EDGE('',*,*,#291,.T.);
#367=ORIENTED_EDGE('',*,*,#292,.F.);
#368=ORIENTED_EDGE('',*,*,#291,.F.);
#369=ORIENTED_EDGE('',*,*,#293,.F.);
#370=ORIENTED_EDGE('',*,*,#294,.T.);
#371=ORIENTED_EDGE('',*,*,#295,.F.);
#372=ORIENTED_EDGE('',*,*,#294,.F.);
#373=ORIENTED_EDGE('',*,*,#296,.F.);
#374=ORIENTED_EDGE('',*,*,#297,.T.);
#375=ORIENTED_EDGE('',*,*,#298,.T.);
#376=ORIENTED_EDGE('',*,*,#297,.F.);
#377=ORIENTED_EDGE('',*,*,#298,.F.);
#378=ORIENTED_EDGE('',*,*,#299,.T.);
#379=ORIENTED_EDGE('',*,*,#300,.T.);
#380=ORIENTED_EDGE('',*,*,#299,.F.);
#381=ORIENTED_EDGE('',*,*,#301,.F.);
#382=ORIENTED_EDGE('',*,*,#302,.T.);
#383=ORIENTED_EDGE('',*,*,#303,.T.);
#384=ORIENTED_EDGE('',*,*,#302,.F.);
#385=ORIENTED_EDGE('',*,*,#303,.F.);
#386=ORIENTED_EDGE('',*,*,#304,.T.);
#387=ORIENTED_EDGE('',*,*,#305,.T.);
#388=ORIENTED_EDGE('',*,*,#304,.F.);
#389=ORIENTED_EDGE('',*,*,#306,.T.);
#390=ORIENTED_EDGE('',*,*,#307,.T.);
#391=ORIENTED_EDGE('',*,*,#308,.T.);
#392=ORIENTED_EDGE('',*,*,#307,.F.);
#393=ORIENTED_EDGE('',*,*,#309,.T.);
#394=ORIENTED_EDGE('',*,*,#310,.T.);
#395=ORIENTED_EDGE('',*,*,#311,.T.);
#396=ORIENTED_EDGE('',*,*,#312,.T.);
#397=ORIENTED_EDGE('',*,*,#313,.T.);
#398=ORIENTED_EDGE('',*,*,#314,.T.);
#399=ORIENTED_EDGE('',*,*,#315,.T.);
#400=ORIENTED_EDGE('',*,*,#316,.T.);
#401=ORIENTED_EDGE('',*,*,#317,.T.);
#402=ORIENTED_EDGE('',*,*,#318,.F.);
#403=ORIENTED_EDGE('',*,*,#306,.F.);
#404=ORIENTED_EDGE('',*,*,#308,.F.);
#405=ORIENTED_EDGE('',*,*,#319,.T.);
#406=ORIENTED_EDGE('',*,*,#301,.T.);
#407=ORIENTED_EDGE('',*,*,#319,.F.);
#408=ORIENTED_EDGE('',*,*,#318,.T.);
#409=ORIENTED_EDGE('',*,*,#320,.T.);
#410=ORIENTED_EDGE('',*,*,#321,.T.);
#411=ORIENTED_EDGE('',*,*,#320,.F.);
#412=ORIENTED_EDGE('',*,*,#321,.F.);
#413=ORIENTED_EDGE('',*,*,#322,.T.);
#414=ORIENTED_EDGE('',*,*,#296,.T.);
#415=ORIENTED_EDGE('',*,*,#322,.F.);
#416=ORIENTED_EDGE('',*,*,#323,.F.);
#417=ORIENTED_EDGE('',*,*,#324,.F.);
#418=ORIENTED_EDGE('',*,*,#325,.T.);
#419=ORIENTED_EDGE('',*,*,#326,.F.);
#420=ORIENTED_EDGE('',*,*,#327,.F.);
#421=ORIENTED_EDGE('',*,*,#328,.T.);
#422=ORIENTED_EDGE('',*,*,#329,.T.);
#423=ORIENTED_EDGE('',*,*,#330,.F.);
#424=ORIENTED_EDGE('',*,*,#331,.F.);
#425=ORIENTED_EDGE('',*,*,#326,.T.);
#426=ORIENTED_EDGE('',*,*,#332,.T.);
#427=ORIENTED_EDGE('',*,*,#328,.F.);
#428=ORIENTED_EDGE('',*,*,#332,.F.);
#429=ORIENTED_EDGE('',*,*,#325,.F.);
#430=ORIENTED_EDGE('',*,*,#333,.F.);
#431=ORIENTED_EDGE('',*,*,#334,.F.);
#432=ORIENTED_EDGE('',*,*,#329,.F.);
#433=ORIENTED_EDGE('',*,*,#335,.F.);
#434=ORIENTED_EDGE('',*,*,#336,.T.);
#435=ORIENTED_EDGE('',*,*,#337,.T.);
#436=ORIENTED_EDGE('',*,*,#338,.F.);
#437=ORIENTED_EDGE('',*,*,#339,.F.);
#438=ORIENTED_EDGE('',*,*,#340,.T.);
#439=ORIENTED_EDGE('',*,*,#341,.T.);
#440=ORIENTED_EDGE('',*,*,#336,.F.);
#441=ORIENTED_EDGE('',*,*,#342,.F.);
#442=ORIENTED_EDGE('',*,*,#343,.F.);
#443=ORIENTED_EDGE('',*,*,#344,.T.);
#444=ORIENTED_EDGE('',*,*,#340,.F.);
#445=ORIENTED_EDGE('',*,*,#345,.F.);
#446=ORIENTED_EDGE('',*,*,#346,.F.);
#447=ORIENTED_EDGE('',*,*,#337,.F.);
#448=ORIENTED_EDGE('',*,*,#341,.F.);
#449=ORIENTED_EDGE('',*,*,#344,.F.);
#450=ORIENTED_EDGE('',*,*,#330,.T.);
#451=ORIENTED_EDGE('',*,*,#334,.T.);
#452=ORIENTED_EDGE('',*,*,#347,.T.);
#453=ORIENTED_EDGE('',*,*,#311,.F.);
#454=ORIENTED_EDGE('',*,*,#348,.F.);
#455=ORIENTED_EDGE('',*,*,#349,.F.);
#456=ORIENTED_EDGE('',*,*,#345,.T.);
#457=ORIENTED_EDGE('',*,*,#343,.T.);
#458=ORIENTED_EDGE('',*,*,#350,.T.);
#459=ORIENTED_EDGE('',*,*,#351,.T.);
#460=ORIENTED_EDGE('',*,*,#313,.F.);
#461=ORIENTED_EDGE('',*,*,#352,.F.);
#462=ORIENTED_EDGE('',*,*,#353,.F.);
#463=ORIENTED_EDGE('',*,*,#354,.T.);
#464=ORIENTED_EDGE('',*,*,#317,.F.);
#465=ORIENTED_EDGE('',*,*,#355,.F.);
#466=ORIENTED_EDGE('',*,*,#356,.T.);
#467=ORIENTED_EDGE('',*,*,#355,.T.);
#468=ORIENTED_EDGE('',*,*,#316,.F.);
#469=ORIENTED_EDGE('',*,*,#357,.F.);
#470=ORIENTED_EDGE('',*,*,#292,.T.);
#471=ORIENTED_EDGE('',*,*,#295,.T.);
#472=ORIENTED_EDGE('',*,*,#358,.F.);
#473=ORIENTED_EDGE('',*,*,#357,.T.);
#474=ORIENTED_EDGE('',*,*,#315,.F.);
#475=ORIENTED_EDGE('',*,*,#359,.F.);
#476=ORIENTED_EDGE('',*,*,#360,.T.);
#477=ORIENTED_EDGE('',*,*,#359,.T.);
#478=ORIENTED_EDGE('',*,*,#314,.F.);
#479=ORIENTED_EDGE('',*,*,#351,.F.);
#480=ORIENTED_EDGE('',*,*,#324,.T.);
#481=ORIENTED_EDGE('',*,*,#361,.F.);
#482=ORIENTED_EDGE('',*,*,#338,.T.);
#483=ORIENTED_EDGE('',*,*,#346,.T.);
#484=ORIENTED_EDGE('',*,*,#352,.T.);
#485=ORIENTED_EDGE('',*,*,#312,.F.);
#486=ORIENTED_EDGE('',*,*,#347,.F.);
#487=ORIENTED_EDGE('',*,*,#333,.T.);
#488=ORIENTED_EDGE('',*,*,#290,.T.);
#489=ORIENTED_EDGE('',*,*,#293,.T.);
#490=ORIENTED_EDGE('',*,*,#362,.T.);
#491=ORIENTED_EDGE('',*,*,#348,.T.);
#492=ORIENTED_EDGE('',*,*,#310,.F.);
#493=ORIENTED_EDGE('',*,*,#363,.F.);
#494=ORIENTED_EDGE('',*,*,#364,.T.);
#495=ORIENTED_EDGE('',*,*,#363,.T.);
#496=ORIENTED_EDGE('',*,*,#309,.F.);
#497=ORIENTED_EDGE('',*,*,#354,.F.);
#498=ORIENTED_EDGE('',*,*,#327,.T.);
#499=ORIENTED_EDGE('',*,*,#349,.T.);
#500=ORIENTED_EDGE('',*,*,#362,.F.);
#501=ORIENTED_EDGE('',*,*,#364,.F.);
#502=ORIENTED_EDGE('',*,*,#353,.T.);
#503=ORIENTED_EDGE('',*,*,#356,.F.);
#504=ORIENTED_EDGE('',*,*,#358,.T.);
#505=ORIENTED_EDGE('',*,*,#360,.F.);
#506=ORIENTED_EDGE('',*,*,#350,.F.);
#507=ORIENTED_EDGE('',*,*,#342,.T.);
#508=ORIENTED_EDGE('',*,*,#339,.T.);
#509=ORIENTED_EDGE('',*,*,#335,.T.);
#510=ORIENTED_EDGE('',*,*,#361,.T.);
#511=ORIENTED_EDGE('',*,*,#323,.T.);
#512=ORIENTED_EDGE('',*,*,#331,.T.);
#513=ORIENTED_EDGE('',*,*,#300,.F.);
#514=ORIENTED_EDGE('',*,*,#305,.F.);
#515=CYLINDRICAL_SURFACE('',#566,3.);
#516=CYLINDRICAL_SURFACE('',#569,3.);
#517=CYLINDRICAL_SURFACE('',#575,9.);
#518=CYLINDRICAL_SURFACE('',#580,9.);
#519=CYLINDRICAL_SURFACE('',#589,11.);
#520=CYLINDRICAL_SURFACE('',#592,11.);
#521=CYLINDRICAL_SURFACE('',#606,15.);
#522=CYLINDRICAL_SURFACE('',#609,15.);
#523=ADVANCED_FACE('',(#44),#515,.F.);
#524=ADVANCED_FACE('',(#45),#516,.F.);
#525=ADVANCED_FACE('',(#46),#40,.F.);
#526=ADVANCED_FACE('',(#47),#517,.F.);
#527=ADVANCED_FACE('',(#48),#41,.F.);
#528=ADVANCED_FACE('',(#49),#518,.F.);
#529=ADVANCED_FACE('',(#50),#42,.F.);
#530=ADVANCED_FACE('',(#51,#15,#16),#23,.T.);
#531=ADVANCED_FACE('',(#52),#519,.F.);
#532=ADVANCED_FACE('',(#53),#43,.F.);
#533=ADVANCED_FACE('',(#54),#520,.F.);
#534=ADVANCED_FACE('',(#55),#24,.F.);
#535=ADVANCED_FACE('',(#56),#25,.F.);
#536=ADVANCED_FACE('',(#57),#26,.F.);
#537=ADVANCED_FACE('',(#58),#27,.F.);
#538=ADVANCED_FACE('',(#59),#28,.F.);
#539=ADVANCED_FACE('',(#60),#29,.F.);
#540=ADVANCED_FACE('',(#61),#30,.F.);
#541=ADVANCED_FACE('',(#62),#31,.F.);
#542=ADVANCED_FACE('',(#63),#32,.T.);
#543=ADVANCED_FACE('',(#64),#33,.T.);
#544=ADVANCED_FACE('',(#65),#34,.T.);
#545=ADVANCED_FACE('',(#66,#17,#18),#35,.T.);
#546=ADVANCED_FACE('',(#67),#36,.T.);
#547=ADVANCED_FACE('',(#68),#521,.T.);
#548=ADVANCED_FACE('',(#69,#19,#20),#37,.T.);
#549=ADVANCED_FACE('',(#70),#522,.T.);
#550=ADVANCED_FACE('',(#71),#38,.T.);
#551=ADVANCED_FACE('',(#72,#21,#22),#39,.F.);
#552=CLOSED_SHELL('',(#523,#524,#525,#526,#527,#528,#529,#530,#531,#532,
#533,#534,#535,#536,#537,#538,#539,#540,#541,#542,#543,#544,#545,#546,#547,
#548,#549,#550,#551));
#553=DERIVED_UNIT_ELEMENT(#555,1.);
#554=DERIVED_UNIT_ELEMENT(#924,-3.);
#555=(
MASS_UNIT()
NAMED_UNIT(*)
SI_UNIT(.KILO.,.GRAM.)
);
#556=DERIVED_UNIT((#553,#554));
#557=MEASURE_REPRESENTATION_ITEM('density measure',
POSITIVE_RATIO_MEASURE(7850.),#556);
#558=PROPERTY_DEFINITION_REPRESENTATION(#563,#560);
#559=PROPERTY_DEFINITION_REPRESENTATION(#564,#561);
#560=REPRESENTATION('material name',(#562),#921);
#561=REPRESENTATION('density',(#557),#921);
#562=DESCRIPTIVE_REPRESENTATION_ITEM('Steel','Steel');
#563=PROPERTY_DEFINITION('material property','material name',#931);
#564=PROPERTY_DEFINITION('material property','density of part',#931);
#565=AXIS2_PLACEMENT_3D('',#766,#613,#614);
#566=AXIS2_PLACEMENT_3D('',#767,#615,#616);
#567=AXIS2_PLACEMENT_3D('',#769,#617,#618);
#568=AXIS2_PLACEMENT_3D('',#772,#620,#621);
#569=AXIS2_PLACEMENT_3D('',#773,#622,#623);
#570=AXIS2_PLACEMENT_3D('',#775,#624,#625);
#571=AXIS2_PLACEMENT_3D('',#778,#627,#628);
#572=AXIS2_PLACEMENT_3D('',#779,#629,#630);
#573=AXIS2_PLACEMENT_3D('',#781,#631,#632);
#574=AXIS2_PLACEMENT_3D('',#784,#634,#635);
#575=AXIS2_PLACEMENT_3D('',#785,#636,#637);
#576=AXIS2_PLACEMENT_3D('',#788,#639,#640);
#577=AXIS2_PLACEMENT_3D('',#789,#641,#642);
#578=AXIS2_PLACEMENT_3D('',#791,#643,#644);
#579=AXIS2_PLACEMENT_3D('',#794,#646,#647);
#580=AXIS2_PLACEMENT_3D('',#795,#648,#649);
#581=AXIS2_PLACEMENT_3D('',#798,#651,#652);
#582=AXIS2_PLACEMENT_3D('',#799,#653,#654);
#583=AXIS2_PLACEMENT_3D('',#801,#655,#656);
#584=AXIS2_PLACEMENT_3D('',#804,#658,#659);
#585=AXIS2_PLACEMENT_3D('',#805,#660,#661);
#586=AXIS2_PLACEMENT_3D('',#810,#663,#664);
#587=AXIS2_PLACEMENT_3D('',#818,#668,#669);
#588=AXIS2_PLACEMENT_3D('',#825,#673,#674);
#589=AXIS2_PLACEMENT_3D('',#826,#675,#676);
#590=AXIS2_PLACEMENT_3D('',#828,#678,#679);
#591=AXIS2_PLACEMENT_3D('',#831,#681,#682);
#592=AXIS2_PLACEMENT_3D('',#832,#683,#684);
#593=AXIS2_PLACEMENT_3D('',#834,#686,#687);
#594=AXIS2_PLACEMENT_3D('',#843,#692,#693);
#595=AXIS2_PLACEMENT_3D('',#852,#698,#699);
#596=AXIS2_PLACEMENT_3D('',#855,#702,#703);
#597=AXIS2_PLACEMENT_3D('',#859,#706,#707);
#598=AXIS2_PLACEMENT_3D('',#868,#712,#713);
#599=AXIS2_PLACEMENT_3D('',#874,#717,#718);
#600=AXIS2_PLACEMENT_3D('',#880,#722,#723);
#601=AXIS2_PLACEMENT_3D('',#884,#726,#727);
#602=AXIS2_PLACEMENT_3D('',#889,#731,#732);
#603=AXIS2_PLACEMENT_3D('',#894,#736,#737);
#604=AXIS2_PLACEMENT_3D('',#900,#741,#742);
#605=AXIS2_PLACEMENT_3D('',#904,#745,#746);
#606=AXIS2_PLACEMENT_3D('',#908,#749,#750);
#607=AXIS2_PLACEMENT_3D('',#909,#751,#752);
#608=AXIS2_PLACEMENT_3D('',#910,#753,#754);
#609=AXIS2_PLACEMENT_3D('',#912,#756,#757);
#610=AXIS2_PLACEMENT_3D('',#914,#758,#759);
#611=AXIS2_PLACEMENT_3D('',#916,#761,#762);
#612=AXIS2_PLACEMENT_3D('',#918,#764,#765);
#613=DIRECTION('axis',(0.,0.,1.));
#614=DIRECTION('refdir',(1.,0.,0.));
#615=DIRECTION('center_axis',(0.,0.,1.));
#616=DIRECTION('ref_axis',(-1.,0.,0.));
#617=DIRECTION('center_axis',(0.,0.,1.));
#618=DIRECTION('ref_axis',(-1.,0.,0.));
#619=DIRECTION('',(0.,0.,1.));
#620=DIRECTION('center_axis',(0.,0.,-1.));
#621=DIRECTION('ref_axis',(-1.,0.,0.));
#622=DIRECTION('center_axis',(0.,0.,1.));
#623=DIRECTION('ref_axis',(-1.,0.,0.));
#624=DIRECTION('center_axis',(0.,0.,1.));
#625=DIRECTION('ref_axis',(-1.,0.,0.));
#626=DIRECTION('',(0.,0.,1.));
#627=DIRECTION('center_axis',(0.,0.,-1.));
#628=DIRECTION('ref_axis',(-1.,0.,0.));
#629=DIRECTION('center_axis',(0.,1.,0.));
#630=DIRECTION('ref_axis',(1.,0.,0.));
#631=DIRECTION('center_axis',(0.,-1.,0.));
#632=DIRECTION('ref_axis',(1.,0.,0.));
#633=DIRECTION('',(0.707106781186548,-0.707106781186547,-8.65956056235494E-17));
#634=DIRECTION('center_axis',(0.,-1.,0.));
#635=DIRECTION('ref_axis',(1.,0.,0.));
#636=DIRECTION('center_axis',(0.,1.,0.));
#637=DIRECTION('ref_axis',(1.,0.,0.));
#638=DIRECTION('',(0.,-1.,0.));
#639=DIRECTION('center_axis',(0.,-1.,0.));
#640=DIRECTION('ref_axis',(1.,0.,0.));
#641=DIRECTION('center_axis',(0.,1.,0.));
#642=DIRECTION('ref_axis',(1.,0.,0.));
#643=DIRECTION('center_axis',(0.,-1.,0.));
#644=DIRECTION('ref_axis',(1.,0.,0.));
#645=DIRECTION('',(0.707106781186548,-0.707106781186547,-8.65956056235494E-17));
#646=DIRECTION('center_axis',(0.,-1.,0.));
#647=DIRECTION('ref_axis',(1.,0.,0.));
#648=DIRECTION('center_axis',(0.,1.,0.));
#649=DIRECTION('ref_axis',(1.,0.,0.));
#650=DIRECTION('',(0.,-1.,0.));
#651=DIRECTION('center_axis',(0.,-1.,0.));
#652=DIRECTION('ref_axis',(1.,0.,0.));
#653=DIRECTION('center_axis',(0.,1.,0.));
#654=DIRECTION('ref_axis',(1.,0.,0.));
#655=DIRECTION('center_axis',(0.,1.,0.));
#656=DIRECTION('ref_axis',(1.,0.,0.));
#657=DIRECTION('',(0.707106781186548,-0.707106781186548,-8.65956056235493E-17));
#658=DIRECTION('center_axis',(0.,-1.,0.));
#659=DIRECTION('ref_axis',(1.,0.,0.));
#660=DIRECTION('center_axis',(0.,1.,0.));
#661=DIRECTION('ref_axis',(1.,0.,0.));
#662=DIRECTION('',(0.857342232492615,0.,-0.514746827464316));
#663=DIRECTION('center_axis',(0.,1.,0.));
#664=DIRECTION('ref_axis',(1.,0.,0.));
#665=DIRECTION('',(-0.866025403784439,0.,0.5));
#666=DIRECTION('',(-1.,0.,0.));
#667=DIRECTION('',(-0.866025403784439,0.,-0.5));
#668=DIRECTION('center_axis',(0.,1.,0.));
#669=DIRECTION('ref_axis',(1.,0.,0.));
#670=DIRECTION('',(0.866025403784439,0.,0.5));
#671=DIRECTION('',(1.,0.,0.));
#672=DIRECTION('',(0.866025403784439,0.,-0.5));
#673=DIRECTION('center_axis',(0.,1.,0.));
#674=DIRECTION('ref_axis',(1.,0.,0.));
#675=DIRECTION('center_axis',(0.,1.,0.));
#676=DIRECTION('ref_axis',(1.,0.,0.));
#677=DIRECTION('',(0.,-1.,0.));
#678=DIRECTION('center_axis',(0.,1.,0.));
#679=DIRECTION('ref_axis',(1.,0.,0.));
#680=DIRECTION('',(0.707106781186548,-0.707106781186548,-8.65956056235493E-17));
#681=DIRECTION('center_axis',(0.,-1.,0.));
#682=DIRECTION('ref_axis',(1.,0.,0.));
#683=DIRECTION('center_axis',(0.,1.,0.));
#684=DIRECTION('ref_axis',(1.,0.,0.));
#685=DIRECTION('',(0.,-1.,0.));
#686=DIRECTION('center_axis',(-0.866025403784439,0.,0.5));
#687=DIRECTION('ref_axis',(0.5,0.,0.866025403784439));
#688=DIRECTION('',(0.5,0.,0.866025403784439));
#689=DIRECTION('',(0.,-1.,0.));
#690=DIRECTION('',(0.5,0.,0.866025403784439));
#691=DIRECTION('',(0.,1.,0.));
#692=DIRECTION('center_axis',(0.866025403784439,0.,-0.5));
#693=DIRECTION('ref_axis',(-0.5,0.,-0.866025403784439));
#694=DIRECTION('',(-0.5,0.,-0.866025403784439));
#695=DIRECTION('',(0.,1.,0.));
#696=DIRECTION('',(-0.5,0.,-0.866025403784439));
#697=DIRECTION('',(0.,1.,0.));
#698=DIRECTION('center_axis',(0.5,0.,0.866025403784439));
#699=DIRECTION('ref_axis',(0.866025403784439,0.,-0.5));
#700=DIRECTION('',(0.866025403784439,0.,-0.5));
#701=DIRECTION('',(0.866025403784439,0.,-0.5));
#702=DIRECTION('center_axis',(0.,1.,0.));
#703=DIRECTION('ref_axis',(0.,0.,1.));
#704=DIRECTION('',(-1.,0.,0.));
#705=DIRECTION('',(-0.866025403784439,0.,0.5));
#706=DIRECTION('center_axis',(0.866025403784439,0.,0.5));
#707=DIRECTION('ref_axis',(0.5,0.,-0.866025403784439));
#708=DIRECTION('',(0.5,0.,-0.866025403784439));
#709=DIRECTION('',(0.,1.,0.));
#710=DIRECTION('',(0.5,0.,-0.866025403784439));
#711=DIRECTION('',(0.,1.,0.));
#712=DIRECTION('center_axis',(-0.5,0.,0.866025403784439));
#713=DIRECTION('ref_axis',(0.866025403784439,0.,0.5));
#714=DIRECTION('',(0.866025403784439,0.,0.5));
#715=DIRECTION('',(0.,1.,0.));
#716=DIRECTION('',(0.866025403784439,0.,0.5));
#717=DIRECTION('center_axis',(-0.866025403784439,0.,-0.5));
#718=DIRECTION('ref_axis',(-0.5,0.,0.866025403784439));
#719=DIRECTION('',(-0.5,0.,0.866025403784439));
#720=DIRECTION('',(0.,-1.,0.));
#721=DIRECTION('',(-0.5,0.,0.866025403784439));
#722=DIRECTION('center_axis',(0.,1.,0.));
#723=DIRECTION('ref_axis',(0.,0.,1.));
#724=DIRECTION('',(-0.866025403784439,0.,-0.5));
#725=DIRECTION('',(-1.,0.,0.));
#726=DIRECTION('center_axis',(-0.5,0.,-0.866025403784439));
#727=DIRECTION('ref_axis',(-0.866025403784439,0.,0.5));
#728=DIRECTION('',(0.,1.,0.));
#729=DIRECTION('',(0.,1.,0.));
#730=DIRECTION('',(0.866025403784439,0.,-0.5));
#731=DIRECTION('center_axis',(0.5,0.,-0.866025403784439));
#732=DIRECTION('ref_axis',(-0.866025403784439,0.,-0.5));
#733=DIRECTION('',(-0.866025403784439,0.,-0.5));
#734=DIRECTION('',(0.,1.,0.));
#735=DIRECTION('',(0.,1.,0.));
#736=DIRECTION('center_axis',(0.5,0.,0.866025403784439));
#737=DIRECTION('ref_axis',(0.866025403784439,0.,-0.5));
#738=DIRECTION('',(-0.866025403784439,0.,0.5));
#739=DIRECTION('',(0.,1.,0.));
#740=DIRECTION('',(0.,1.,0.));
#741=DIRECTION('center_axis',(0.,0.,1.));
#742=DIRECTION('ref_axis',(1.,0.,0.));
#743=DIRECTION('',(1.,0.,0.));
#744=DIRECTION('',(0.,1.,0.));
#745=DIRECTION('center_axis',(-0.5,0.,0.866025403784439));
#746=DIRECTION('ref_axis',(0.866025403784439,0.,0.5));
#747=DIRECTION('',(-0.866025403784439,0.,-0.5));
#748=DIRECTION('',(0.,1.,0.));
#749=DIRECTION('center_axis',(0.,1.,0.));
#750=DIRECTION('ref_axis',(-0.866025403784439,0.,-0.5));
#751=DIRECTION('center_axis',(0.,1.,0.));
#752=DIRECTION('ref_axis',(1.,0.,0.));
#753=DIRECTION('center_axis',(0.,0.,-1.));
#754=DIRECTION('ref_axis',(-1.,0.,0.));
#755=DIRECTION('',(1.,0.,0.));
#756=DIRECTION('center_axis',(0.,1.,0.));
#757=DIRECTION('ref_axis',(1.,0.,0.));
#758=DIRECTION('center_axis',(0.,1.,0.));
#759=DIRECTION('ref_axis',(1.,0.,0.));
#760=DIRECTION('',(0.,1.,0.));
#761=DIRECTION('center_axis',(0.514746827464316,0.,0.857342232492615));
#762=DIRECTION('ref_axis',(0.857342232492615,0.,-0.514746827464316));
#763=DIRECTION('',(0.857342232492615,0.,-0.514746827464316));
#764=DIRECTION('center_axis',(0.,1.,0.));
#765=DIRECTION('ref_axis',(1.,0.,0.));
#766=CARTESIAN_POINT('',(0.,0.,0.));
#767=CARTESIAN_POINT('Origin',(0.,23.,-4.44089209850063E-15));
#768=CARTESIAN_POINT('',(3.,23.,-4.44089209850063E-15));
#769=CARTESIAN_POINT('Origin',(0.,23.,-4.44089209850063E-15));
#770=CARTESIAN_POINT('',(3.,23.,30.));
#771=CARTESIAN_POINT('',(3.,23.,-4.44089209850063E-15));
#772=CARTESIAN_POINT('Origin',(0.,23.,30.));
#773=CARTESIAN_POINT('Origin',(0.,7.,-4.44089209850063E-15));
#774=CARTESIAN_POINT('',(3.,7.,-4.44089209850063E-15));
#775=CARTESIAN_POINT('Origin',(0.,7.,-4.44089209850063E-15));
#776=CARTESIAN_POINT('',(3.,7.,30.));
#777=CARTESIAN_POINT('',(3.,7.,-4.44089209850063E-15));
#778=CARTESIAN_POINT('Origin',(0.,7.,30.));
#779=CARTESIAN_POINT('Origin',(45.,4.,0.));
#780=CARTESIAN_POINT('',(34.,5.,1.34711147906209E-15));
#781=CARTESIAN_POINT('Origin',(45.,5.,0.));
#782=CARTESIAN_POINT('',(36.,3.,-1.10218211923262E-15));
#783=CARTESIAN_POINT('',(35.,4.,1.22464679914735E-15));
#784=CARTESIAN_POINT('Origin',(45.,3.,0.));
#785=CARTESIAN_POINT('Origin',(45.,0.,0.));
#786=CARTESIAN_POINT('',(36.,0.,1.10218211923262E-15));
#787=CARTESIAN_POINT('',(36.,0.,1.10218211923262E-15));
#788=CARTESIAN_POINT('Origin',(45.,0.,0.));
#789=CARTESIAN_POINT('Origin',(-45.,4.,0.));
#790=CARTESIAN_POINT('',(-56.,5.,1.34711147906209E-15));
#791=CARTESIAN_POINT('Origin',(-45.,5.,0.));
#792=CARTESIAN_POINT('',(-54.,3.,-1.10218211923262E-15));
#793=CARTESIAN_POINT('',(-55.,4.,1.22464679914735E-15));
#794=CARTESIAN_POINT('Origin',(-45.,3.,0.));
#795=CARTESIAN_POINT('Origin',(-45.,0.,0.));
#796=CARTESIAN_POINT('',(-54.,0.,1.10218211923262E-15));
#797=CARTESIAN_POINT('',(-54.,0.,1.10218211923262E-15));
#798=CARTESIAN_POINT('Origin',(-45.,0.,0.));
#799=CARTESIAN_POINT('Origin',(-45.,29.,0.));
#800=CARTESIAN_POINT('',(-58.,30.,1.59204083889156E-15));
#801=CARTESIAN_POINT('Origin',(-45.,30.,0.));
#802=CARTESIAN_POINT('',(-56.,28.,-1.34711147906209E-15));
#803=CARTESIAN_POINT('',(-57.,29.,1.46957615897682E-15));
#804=CARTESIAN_POINT('Origin',(-45.,28.,0.));
#805=CARTESIAN_POINT('Origin',(0.,30.,7.5));
#806=CARTESIAN_POINT('',(30.,30.,25.9807621135332));
#807=CARTESIAN_POINT('',(55.6066017177982,30.,10.6066017177982));
#808=CARTESIAN_POINT('',(30.,30.,25.9807621135332));
#809=CARTESIAN_POINT('',(37.5,30.,-12.9903810567666));
#810=CARTESIAN_POINT('Origin',(45.,30.,0.));
#811=CARTESIAN_POINT('',(15.,30.,-4.44089209850063E-15));
#812=CARTESIAN_POINT('',(15.,30.,-4.44089209850063E-15));
#813=CARTESIAN_POINT('',(-15.,30.,-4.44089209850063E-15));
#814=CARTESIAN_POINT('',(-15.,30.,-4.44089209850063E-15));
#815=CARTESIAN_POINT('',(-37.5,30.,-12.9903810567666));
#816=CARTESIAN_POINT('',(-15.,30.,-4.44089209850063E-15));
#817=CARTESIAN_POINT('',(-52.5,30.,12.9903810567666));
#818=CARTESIAN_POINT('Origin',(-45.,30.,0.));
#819=CARTESIAN_POINT('',(-23.0384757729337,30.,30.));
#820=CARTESIAN_POINT('',(-30.,30.,25.9807621135332));
#821=CARTESIAN_POINT('',(23.0384757729337,30.,30.));
#822=CARTESIAN_POINT('',(-75.,30.,30.));
#823=CARTESIAN_POINT('',(30.,30.,25.9807621135332));
#824=CARTESIAN_POINT('',(32.,30.,1.59204083889156E-15));
#825=CARTESIAN_POINT('Origin',(45.,30.,0.));
#826=CARTESIAN_POINT('Origin',(-45.,0.,0.));
#827=CARTESIAN_POINT('',(-56.,0.,1.34711147906209E-15));
#828=CARTESIAN_POINT('Origin',(45.,29.,0.));
#829=CARTESIAN_POINT('',(34.,28.,-1.34711147906209E-15));
#830=CARTESIAN_POINT('',(33.,29.,1.46957615897682E-15));
#831=CARTESIAN_POINT('Origin',(45.,28.,0.));
#832=CARTESIAN_POINT('Origin',(45.,0.,0.));
#833=CARTESIAN_POINT('',(34.,0.,1.34711147906209E-15));
#834=CARTESIAN_POINT('Origin',(9.20428331024319,0.,0.));
#835=CARTESIAN_POINT('',(9.20428331024319,0.,0.));
#836=CARTESIAN_POINT('',(14.1532124826824,0.,8.57179676972449));
#837=CARTESIAN_POINT('',(9.67754552855862,0.,0.819714207425065));
#838=CARTESIAN_POINT('',(9.2042833102432,21.,0.));
#839=CARTESIAN_POINT('',(9.20428331024319,0.,-4.44089209850063E-15));
#840=CARTESIAN_POINT('',(14.1532124826824,21.,8.57179676972449));
#841=CARTESIAN_POINT('',(14.1532124826824,21.,8.57179676972449));
#842=CARTESIAN_POINT('',(14.1532124826824,0.,8.57179676972449));
#843=CARTESIAN_POINT('Origin',(33.2057713659401,0.,-2.42820323027551));
#844=CARTESIAN_POINT('',(33.2057713659401,0.,-2.42820323027551));
#845=CARTESIAN_POINT('',(29.7057713659401,0.,-8.49038105676658));
#846=CARTESIAN_POINT('',(31.2045689980359,0.,-5.89438740771269));
#847=CARTESIAN_POINT('',(33.2057713659401,21.,-2.42820323027551));
#848=CARTESIAN_POINT('',(33.2057713659401,0.,-2.42820323027551));
#849=CARTESIAN_POINT('',(29.7057713659401,21.,-8.49038105676658));
#850=CARTESIAN_POINT('',(29.7057713659401,21.,-8.49038105676658));
#851=CARTESIAN_POINT('',(29.7057713659401,0.,-8.49038105676658));
#852=CARTESIAN_POINT('Origin',(14.1532124826824,0.,8.57179676972449));
#853=CARTESIAN_POINT('',(9.07780860924538,0.,11.5020825622994));
#854=CARTESIAN_POINT('',(33.2057713659401,21.,-2.42820323027551));
#855=CARTESIAN_POINT('Origin',(21.2050273380916,21.,0.0407078564789565));
#856=CARTESIAN_POINT('',(15.,21.,-4.44089209850063E-15));
#857=CARTESIAN_POINT('',(18.1025136690458,21.,-4.44089209850063E-15));
#858=CARTESIAN_POINT('',(28.5680717423233,21.,-7.83352987281449));
#859=CARTESIAN_POINT('Origin',(-14.1532124826824,0.,8.57179676972449));
#860=CARTESIAN_POINT('',(-14.1532124826824,0.,8.57179676972449));
#861=CARTESIAN_POINT('',(-9.2042833102432,0.,0.));
#862=CARTESIAN_POINT('',(-12.1520101147782,0.,5.10561259228731));
#863=CARTESIAN_POINT('',(-14.1532124826824,21.,8.57179676972449));
#864=CARTESIAN_POINT('',(-14.1532124826824,0.,8.57179676972449));
#865=CARTESIAN_POINT('',(-9.2042833102432,21.,0.));
#866=CARTESIAN_POINT('',(-14.1532124826824,21.,8.57179676972449));
#867=CARTESIAN_POINT('',(-9.2042833102432,0.,-4.44089209850063E-15));
#868=CARTESIAN_POINT('Origin',(-33.2057713659401,0.,-2.42820323027551));
#869=CARTESIAN_POINT('',(-33.2057713659401,0.,-2.42820323027551));
#870=CARTESIAN_POINT('',(-18.6040880508742,0.,6.00208256229942));
#871=CARTESIAN_POINT('',(-33.2057713659401,21.,-2.42820323027551));
#872=CARTESIAN_POINT('',(-33.2057713659401,0.,-2.42820323027551));
#873=CARTESIAN_POINT('',(-33.2057713659401,21.,-2.42820323027551));
#874=CARTESIAN_POINT('Origin',(-29.7057713659401,0.,-8.49038105676658));
#875=CARTESIAN_POINT('',(-29.7057713659401,0.,-8.49038105676658));
#876=CARTESIAN_POINT('',(-29.4545689980359,0.,-8.92547632095823));
#877=CARTESIAN_POINT('',(-29.7057713659401,21.,-8.49038105676658));
#878=CARTESIAN_POINT('',(-29.7057713659401,0.,-8.49038105676658));
#879=CARTESIAN_POINT('',(-29.7057713659401,21.,-8.49038105676658));
#880=CARTESIAN_POINT('Origin',(-21.2050273380916,21.,0.0407078564789531));
#881=CARTESIAN_POINT('',(-15.,21.,-4.44089209850063E-15));
#882=CARTESIAN_POINT('',(-17.3180717423233,21.,-1.33833934443121));
#883=CARTESIAN_POINT('',(-3.10251366904581,21.,-4.44089209850063E-15));
#884=CARTESIAN_POINT('Origin',(37.5,0.,-12.9903810567666));
#885=CARTESIAN_POINT('',(15.,0.,-4.44089209850063E-15));
#886=CARTESIAN_POINT('',(37.5,0.,-12.9903810567666));
#887=CARTESIAN_POINT('',(37.5,0.,-12.9903810567666));
#888=CARTESIAN_POINT('',(15.,0.,-4.44089209850063E-15));
#889=CARTESIAN_POINT('Origin',(-15.,0.,-4.44089209850063E-15));
#890=CARTESIAN_POINT('',(-37.5,0.,-12.9903810567666));
#891=CARTESIAN_POINT('',(-15.,0.,-4.44089209850063E-15));
#892=CARTESIAN_POINT('',(-37.5,0.,-12.9903810567666));
#893=CARTESIAN_POINT('',(-15.,0.,-4.44089209850063E-15));
#894=CARTESIAN_POINT('Origin',(23.0384757729337,0.,30.));
#895=CARTESIAN_POINT('',(30.,0.,25.9807621135332));
#896=CARTESIAN_POINT('',(23.0384757729337,0.,30.));
#897=CARTESIAN_POINT('',(30.,0.,25.9807621135332));
#898=CARTESIAN_POINT('',(30.,0.,25.9807621135332));
#899=CARTESIAN_POINT('',(23.0384757729337,0.,30.));
#900=CARTESIAN_POINT('Origin',(-23.0384757729337,0.,30.));
#901=CARTESIAN_POINT('',(-23.0384757729337,0.,30.));
#902=CARTESIAN_POINT('',(-75.,0.,30.));
#903=CARTESIAN_POINT('',(-23.0384757729337,0.,30.));
#904=CARTESIAN_POINT('Origin',(-52.5,0.,12.9903810567666));
#905=CARTESIAN_POINT('',(-52.5,0.,12.9903810567666));
#906=CARTESIAN_POINT('',(-30.,0.,25.9807621135332));
#907=CARTESIAN_POINT('',(-52.5,0.,12.9903810567666));
#908=CARTESIAN_POINT('Origin',(-45.,0.,0.));
#909=CARTESIAN_POINT('Origin',(-45.,0.,0.));
#910=CARTESIAN_POINT('Origin',(15.,0.,-4.44089209850063E-15));
#911=CARTESIAN_POINT('',(-15.,0.,-4.44089209850063E-15));
#912=CARTESIAN_POINT('Origin',(45.,0.,0.));
#913=CARTESIAN_POINT('',(55.6066017177982,0.,10.6066017177982));
#914=CARTESIAN_POINT('Origin',(45.,0.,0.));
#915=CARTESIAN_POINT('',(55.6066017177982,0.,10.6066017177982));
#916=CARTESIAN_POINT('Origin',(30.,0.,25.9807621135332));
#917=CARTESIAN_POINT('',(30.,0.,25.9807621135332));
#918=CARTESIAN_POINT('Origin',(0.,0.,7.5));
#919=UNCERTAINTY_MEASURE_WITH_UNIT(LENGTH_MEASURE(0.01),#923,
'DISTANCE_ACCURACY_VALUE',
'Maximum model space distance between geometric entities at asserted c
onnectivities');
#920=UNCERTAINTY_MEASURE_WITH_UNIT(LENGTH_MEASURE(0.01),#923,
'DISTANCE_ACCURACY_VALUE',
'Maximum model space distance between geometric entities at asserted c
onnectivities');
#921=(
GEOMETRIC_REPRESENTATION_CONTEXT(3)
GLOBAL_UNCERTAINTY_ASSIGNED_CONTEXT((#919))
GLOBAL_UNIT_ASSIGNED_CONTEXT((#923,#925,#926))
REPRESENTATION_CONTEXT('','3D')
);
#922=(
GEOMETRIC_REPRESENTATION_CONTEXT(3)
GLOBAL_UNCERTAINTY_ASSIGNED_CONTEXT((#920))
GLOBAL_UNIT_ASSIGNED_CONTEXT((#923,#925,#926))
REPRESENTATION_CONTEXT('','3D')
);
#923=(
LENGTH_UNIT()
NAMED_UNIT(*)
SI_UNIT(.MILLI.,.METRE.)
);
#924=(
LENGTH_UNIT()
NAMED_UNIT(*)
SI_UNIT($,.METRE.)
);
#925=(
NAMED_UNIT(*)
PLANE_ANGLE_UNIT()
SI_UNIT($,.RADIAN.)
);
#926=(
NAMED_UNIT(*)
SI_UNIT($,.STERADIAN.)
SOLID_ANGLE_UNIT()
);
#927=SHAPE_DEFINITION_REPRESENTATION(#928,#929);
#928=PRODUCT_DEFINITION_SHAPE('',$,#931);
#929=SHAPE_REPRESENTATION('',(#565),#921);
#930=PRODUCT_DEFINITION_CONTEXT('part definition',#935,'design');
#931=PRODUCT_DEFINITION('Lead scrrw double support',
'Lead scrrw double support v6',#932,#930);
#932=PRODUCT_DEFINITION_FORMATION('',$,#937);
#933=PRODUCT_RELATED_PRODUCT_CATEGORY('Lead scrrw double support v6',
'Lead scrrw double support v6',(#937));
#934=APPLICATION_PROTOCOL_DEFINITION('international standard',
'automotive_design',2009,#935);
#935=APPLICATION_CONTEXT(
'Core Data for Automotive Mechanical Design Process');
#936=PRODUCT_CONTEXT('part definition',#935,'mechanical');
#937=PRODUCT('Lead scrrw double support','Lead scrrw double support v6',
$,(#936));
#938=PRESENTATION_STYLE_ASSIGNMENT((#939));
#939=SURFACE_STYLE_USAGE(.BOTH.,#940);
#940=SURFACE_SIDE_STYLE('',(#941));
#941=SURFACE_STYLE_FILL_AREA(#942);
#942=FILL_AREA_STYLE('Steel - Satin',(#943));
#943=FILL_AREA_STYLE_COLOUR('Steel - Satin',#944);
#944=COLOUR_RGB('Steel - Satin',0.627450980392157,0.627450980392157,0.627450980392157);
ENDSEC;
END-ISO-10303-21;
