ISO-10303-21;
HEADER;
/* Generated by software containing ST-Developer
 * from STEP Tools, Inc. (www.steptools.com) 
 */

FILE_DESCRIPTION(
/* description */ (''),
/* implementation_level */ '2;1');

FILE_NAME(
/* name */ 'tool changer head.step',
/* time_stamp */ '2026-08-04T21:51:59+02:00',
/* author */ (''),
/* organization */ (''),
/* preprocessor_version */ 'ST-DEVELOPER v20.1',
/* originating_system */ 'Autodesk Translation Framework v15.8.0.0',
/* authorisation */ '');

FILE_SCHEMA (('AUTOMOTIVE_DESIGN { 1 0 10303 214 3 1 1 }'));
ENDSEC;

DATA;
#10=MECHANICAL_DESIGN_GEOMETRIC_PRESENTATION_REPRESENTATION('',(#13),#1552);
#11=SHAPE_REPRESENTATION_RELATIONSHIP('SRR','None',#1559,#12);
#12=ADVANCED_BREP_SHAPE_REPRESENTATION('',(#14),#1551);
#13=STYLED_ITEM('',(#1568),#14);
#14=MANIFOLD_SOLID_BREP('Body4',#896);
#15=FACE_BOUND('',#154,.T.);
#16=FACE_BOUND('',#165,.T.);
#17=FACE_BOUND('',#168,.T.);
#18=FACE_BOUND('',#171,.T.);
#19=FACE_BOUND('',#174,.T.);
#20=FACE_BOUND('',#182,.T.);
#21=FACE_BOUND('',#183,.T.);
#22=FACE_BOUND('',#184,.T.);
#23=FACE_BOUND('',#185,.T.);
#24=FACE_BOUND('',#186,.T.);
#25=FACE_BOUND('',#187,.T.);
#26=FACE_BOUND('',#188,.T.);
#27=FACE_BOUND('',#191,.T.);
#28=FACE_BOUND('',#192,.T.);
#29=FACE_BOUND('',#193,.T.);
#30=FACE_BOUND('',#198,.T.);
#31=FACE_BOUND('',#199,.T.);
#32=FACE_BOUND('',#201,.T.);
#33=FACE_BOUND('',#202,.T.);
#34=FACE_BOUND('',#203,.T.);
#35=FACE_BOUND('',#204,.T.);
#36=FACE_BOUND('',#205,.T.);
#37=FACE_BOUND('',#206,.T.);
#38=FACE_BOUND('',#207,.T.);
#39=FACE_BOUND('',#208,.T.);
#40=FACE_BOUND('',#209,.T.);
#41=FACE_BOUND('',#210,.T.);
#42=FACE_BOUND('',#211,.T.);
#43=PLANE('',#959);
#44=PLANE('',#960);
#45=PLANE('',#965);
#46=PLANE('',#970);
#47=PLANE('',#973);
#48=PLANE('',#976);
#49=PLANE('',#977);
#50=PLANE('',#978);
#51=PLANE('',#983);
#52=PLANE('',#988);
#53=PLANE('',#993);
#54=PLANE('',#1006);
#55=PLANE('',#1007);
#56=PLANE('',#1010);
#57=PLANE('',#1011);
#58=PLANE('',#1016);
#59=PLANE('',#1017);
#60=PLANE('',#1018);
#61=CYLINDRICAL_SURFACE('',#916,2.);
#62=CYLINDRICAL_SURFACE('',#923,2.);
#63=CYLINDRICAL_SURFACE('',#931,2.);
#64=CYLINDRICAL_SURFACE('',#940,2.);
#65=CYLINDRICAL_SURFACE('',#947,2.1);
#66=CYLINDRICAL_SURFACE('',#954,2.1);
#67=CYLINDRICAL_SURFACE('',#956,4.);
#68=CYLINDRICAL_SURFACE('',#966,4.49999999999999);
#69=CYLINDRICAL_SURFACE('',#968,4.5);
#70=CYLINDRICAL_SURFACE('',#971,3.50000000000001);
#71=CYLINDRICAL_SURFACE('',#974,3.50000000000001);
#72=CYLINDRICAL_SURFACE('',#981,1.25);
#73=CYLINDRICAL_SURFACE('',#986,1.25);
#74=CYLINDRICAL_SURFACE('',#991,1.25);
#75=CYLINDRICAL_SURFACE('',#996,1.25);
#76=CYLINDRICAL_SURFACE('',#998,0.499999999999998);
#77=CYLINDRICAL_SURFACE('',#1000,0.5);
#78=CYLINDRICAL_SURFACE('',#1002,0.500000000000003);
#79=CYLINDRICAL_SURFACE('',#1004,0.5);
#80=CYLINDRICAL_SURFACE('',#1012,1.95);
#81=CYLINDRICAL_SURFACE('',#1014,1.95);
#82=FACE_OUTER_BOUND('',#133,.T.);
#83=FACE_OUTER_BOUND('',#134,.T.);
#84=FACE_OUTER_BOUND('',#135,.T.);
#85=FACE_OUTER_BOUND('',#136,.T.);
#86=FACE_OUTER_BOUND('',#137,.T.);
#87=FACE_OUTER_BOUND('',#138,.T.);
#88=FACE_OUTER_BOUND('',#139,.T.);
#89=FACE_OUTER_BOUND('',#140,.T.);
#90=FACE_OUTER_BOUND('',#141,.T.);
#91=FACE_OUTER_BOUND('',#142,.T.);
#92=FACE_OUTER_BOUND('',#143,.T.);
#93=FACE_OUTER_BOUND('',#144,.T.);
#94=FACE_OUTER_BOUND('',#145,.T.);
#95=FACE_OUTER_BOUND('',#146,.T.);
#96=FACE_OUTER_BOUND('',#147,.T.);
#97=FACE_OUTER_BOUND('',#148,.T.);
#98=FACE_OUTER_BOUND('',#149,.T.);
#99=FACE_OUTER_BOUND('',#150,.T.);
#100=FACE_OUTER_BOUND('',#151,.T.);
#101=FACE_OUTER_BOUND('',#152,.T.);
#102=FACE_OUTER_BOUND('',#153,.T.);
#103=FACE_OUTER_BOUND('',#155,.T.);
#104=FACE_OUTER_BOUND('',#156,.T.);
#105=FACE_OUTER_BOUND('',#157,.T.);
#106=FACE_OUTER_BOUND('',#158,.T.);
#107=FACE_OUTER_BOUND('',#159,.T.);
#108=FACE_OUTER_BOUND('',#160,.T.);
#109=FACE_OUTER_BOUND('',#161,.T.);
#110=FACE_OUTER_BOUND('',#162,.T.);
#111=FACE_OUTER_BOUND('',#163,.T.);
#112=FACE_OUTER_BOUND('',#164,.T.);
#113=FACE_OUTER_BOUND('',#166,.T.);
#114=FACE_OUTER_BOUND('',#167,.T.);
#115=FACE_OUTER_BOUND('',#169,.T.);
#116=FACE_OUTER_BOUND('',#170,.T.);
#117=FACE_OUTER_BOUND('',#172,.T.);
#118=FACE_OUTER_BOUND('',#173,.T.);
#119=FACE_OUTER_BOUND('',#175,.T.);
#120=FACE_OUTER_BOUND('',#176,.T.);
#121=FACE_OUTER_BOUND('',#177,.T.);
#122=FACE_OUTER_BOUND('',#178,.T.);
#123=FACE_OUTER_BOUND('',#179,.T.);
#124=FACE_OUTER_BOUND('',#180,.T.);
#125=FACE_OUTER_BOUND('',#181,.T.);
#126=FACE_OUTER_BOUND('',#189,.T.);
#127=FACE_OUTER_BOUND('',#190,.T.);
#128=FACE_OUTER_BOUND('',#194,.T.);
#129=FACE_OUTER_BOUND('',#195,.T.);
#130=FACE_OUTER_BOUND('',#196,.T.);
#131=FACE_OUTER_BOUND('',#197,.T.);
#132=FACE_OUTER_BOUND('',#200,.T.);
#133=EDGE_LOOP('',(#591,#592,#593,#594));
#134=EDGE_LOOP('',(#595,#596,#597,#598,#599));
#135=EDGE_LOOP('',(#600,#601,#602,#603));
#136=EDGE_LOOP('',(#604,#605,#606,#607));
#137=EDGE_LOOP('',(#608,#609,#610,#611));
#138=EDGE_LOOP('',(#612,#613,#614,#615));
#139=EDGE_LOOP('',(#616,#617,#618,#619));
#140=EDGE_LOOP('',(#620,#621,#622,#623,#624));
#141=EDGE_LOOP('',(#625,#626,#627,#628));
#142=EDGE_LOOP('',(#629,#630,#631,#632));
#143=EDGE_LOOP('',(#633,#634,#635,#636,#637,#638));
#144=EDGE_LOOP('',(#639,#640,#641,#642));
#145=EDGE_LOOP('',(#643,#644,#645,#646));
#146=EDGE_LOOP('',(#647,#648,#649,#650));
#147=EDGE_LOOP('',(#651,#652,#653,#654));
#148=EDGE_LOOP('',(#655,#656,#657,#658));
#149=EDGE_LOOP('',(#659,#660,#661,#662));
#150=EDGE_LOOP('',(#663,#664,#665,#666));
#151=EDGE_LOOP('',(#667,#668,#669,#670));
#152=EDGE_LOOP('',(#671));
#153=EDGE_LOOP('',(#672,#673,#674,#675));
#154=EDGE_LOOP('',(#676,#677,#678,#679));
#155=EDGE_LOOP('',(#680,#681,#682,#683));
#156=EDGE_LOOP('',(#684,#685,#686,#687));
#157=EDGE_LOOP('',(#688,#689,#690,#691));
#158=EDGE_LOOP('',(#692,#693,#694,#695));
#159=EDGE_LOOP('',(#696,#697,#698,#699));
#160=EDGE_LOOP('',(#700,#701,#702,#703));
#161=EDGE_LOOP('',(#704,#705,#706,#707));
#162=EDGE_LOOP('',(#708,#709,#710,#711));
#163=EDGE_LOOP('',(#712,#713,#714,#715));
#164=EDGE_LOOP('',(#716));
#165=EDGE_LOOP('',(#717));
#166=EDGE_LOOP('',(#718,#719,#720,#721));
#167=EDGE_LOOP('',(#722));
#168=EDGE_LOOP('',(#723));
#169=EDGE_LOOP('',(#724,#725,#726,#727));
#170=EDGE_LOOP('',(#728));
#171=EDGE_LOOP('',(#729));
#172=EDGE_LOOP('',(#730,#731,#732,#733));
#173=EDGE_LOOP('',(#734));
#174=EDGE_LOOP('',(#735));
#175=EDGE_LOOP('',(#736,#737,#738,#739));
#176=EDGE_LOOP('',(#740,#741,#742,#743));
#177=EDGE_LOOP('',(#744,#745,#746,#747));
#178=EDGE_LOOP('',(#748,#749,#750,#751));
#179=EDGE_LOOP('',(#752,#753,#754,#755));
#180=EDGE_LOOP('',(#756,#757,#758));
#181=EDGE_LOOP('',(#759,#760,#761,#762,#763,#764,#765,#766,#767,#768,#769,
#770));
#182=EDGE_LOOP('',(#771,#772,#773,#774));
#183=EDGE_LOOP('',(#775));
#184=EDGE_LOOP('',(#776));
#185=EDGE_LOOP('',(#777));
#186=EDGE_LOOP('',(#778));
#187=EDGE_LOOP('',(#779));
#188=EDGE_LOOP('',(#780));
#189=EDGE_LOOP('',(#781,#782,#783));
#190=EDGE_LOOP('',(#784,#785,#786,#787,#788,#789));
#191=EDGE_LOOP('',(#790));
#192=EDGE_LOOP('',(#791));
#193=EDGE_LOOP('',(#792));
#194=EDGE_LOOP('',(#793,#794,#795,#796));
#195=EDGE_LOOP('',(#797,#798,#799,#800));
#196=EDGE_LOOP('',(#801,#802,#803,#804,#805,#806));
#197=EDGE_LOOP('',(#807,#808,#809,#810,#811,#812));
#198=EDGE_LOOP('',(#813));
#199=EDGE_LOOP('',(#814));
#200=EDGE_LOOP('',(#815,#816,#817,#818));
#201=EDGE_LOOP('',(#819));
#202=EDGE_LOOP('',(#820));
#203=EDGE_LOOP('',(#821));
#204=EDGE_LOOP('',(#822));
#205=EDGE_LOOP('',(#823));
#206=EDGE_LOOP('',(#824));
#207=EDGE_LOOP('',(#825));
#208=EDGE_LOOP('',(#826));
#209=EDGE_LOOP('',(#827));
#210=EDGE_LOOP('',(#828));
#211=EDGE_LOOP('',(#829,#830,#831,#832));
#212=LINE('',#1307,#275);
#213=LINE('',#1314,#276);
#214=LINE('',#1317,#277);
#215=LINE('',#1323,#278);
#216=LINE('',#1328,#279);
#217=LINE('',#1331,#280);
#218=LINE('',#1337,#281);
#219=LINE('',#1344,#282);
#220=LINE('',#1347,#283);
#221=LINE('',#1353,#284);
#222=LINE('',#1362,#285);
#223=LINE('',#1365,#286);
#224=LINE('',#1371,#287);
#225=LINE('',#1376,#288);
#226=LINE('',#1379,#289);
#227=LINE('',#1385,#290);
#228=LINE('',#1390,#291);
#229=LINE('',#1393,#292);
#230=LINE('',#1399,#293);
#231=LINE('',#1407,#294);
#232=LINE('',#1410,#295);
#233=LINE('',#1413,#296);
#234=LINE('',#1417,#297);
#235=LINE('',#1421,#298);
#236=LINE('',#1423,#299);
#237=LINE('',#1424,#300);
#238=LINE('',#1427,#301);
#239=LINE('',#1432,#302);
#240=LINE('',#1434,#303);
#241=LINE('',#1437,#304);
#242=LINE('',#1440,#305);
#243=LINE('',#1443,#306);
#244=LINE('',#1444,#307);
#245=LINE('',#1448,#308);
#246=LINE('',#1450,#309);
#247=LINE('',#1454,#310);
#248=LINE('',#1456,#311);
#249=LINE('',#1458,#312);
#250=LINE('',#1459,#313);
#251=LINE('',#1467,#314);
#252=LINE('',#1476,#315);
#253=LINE('',#1485,#316);
#254=LINE('',#1494,#317);
#255=LINE('',#1499,#318);
#256=LINE('',#1503,#319);
#257=LINE('',#1507,#320);
#258=LINE('',#1511,#321);
#259=LINE('',#1514,#322);
#260=LINE('',#1515,#323);
#261=LINE('',#1517,#324);
#262=LINE('',#1518,#325);
#263=LINE('',#1519,#326);
#264=LINE('',#1520,#327);
#265=LINE('',#1521,#328);
#266=LINE('',#1528,#329);
#267=LINE('',#1529,#330);
#268=LINE('',#1532,#331);
#269=LINE('',#1533,#332);
#270=LINE('',#1536,#333);
#271=LINE('',#1540,#334);
#272=LINE('',#1544,#335);
#273=LINE('',#1545,#336);
#274=LINE('',#1547,#337);
#275=VECTOR('',#1025,2.53033008588991);
#276=VECTOR('',#1034,3.);
#277=VECTOR('',#1037,2.);
#278=VECTOR('',#1044,2.53033008588991);
#279=VECTOR('',#1051,3.);
#280=VECTOR('',#1054,2.);
#281=VECTOR('',#1061,2.53033008588991);
#282=VECTOR('',#1070,3.);
#283=VECTOR('',#1073,2.);
#284=VECTOR('',#1080,2.53033008588991);
#285=VECTOR('',#1091,3.);
#286=VECTOR('',#1094,2.);
#287=VECTOR('',#1101,2.63033008588992);
#288=VECTOR('',#1108,3.1);
#289=VECTOR('',#1111,2.1);
#290=VECTOR('',#1118,2.63033008588994);
#291=VECTOR('',#1125,3.1);
#292=VECTOR('',#1128,2.1);
#293=VECTOR('',#1135,4.);
#294=VECTOR('',#1144,10.);
#295=VECTOR('',#1147,10.);
#296=VECTOR('',#1148,10.);
#297=VECTOR('',#1151,10.);
#298=VECTOR('',#1156,10.);
#299=VECTOR('',#1157,10.);
#300=VECTOR('',#1158,10.);
#301=VECTOR('',#1161,10.);
#302=VECTOR('',#1168,10.);
#303=VECTOR('',#1171,10.);
#304=VECTOR('',#1174,10.);
#305=VECTOR('',#1177,10.);
#306=VECTOR('',#1180,10.);
#307=VECTOR('',#1181,10.);
#308=VECTOR('',#1186,10.);
#309=VECTOR('',#1189,10.);
#310=VECTOR('',#1192,10.);
#311=VECTOR('',#1193,10.);
#312=VECTOR('',#1194,10.);
#313=VECTOR('',#1195,10.);
#314=VECTOR('',#1204,1.25);
#315=VECTOR('',#1215,1.25);
#316=VECTOR('',#1226,1.25);
#317=VECTOR('',#1237,1.25);
#318=VECTOR('',#1244,0.499999999999998);
#319=VECTOR('',#1249,0.5);
#320=VECTOR('',#1254,0.500000000000003);
#321=VECTOR('',#1259,0.5);
#322=VECTOR('',#1262,10.);
#323=VECTOR('',#1263,10.);
#324=VECTOR('',#1266,10.);
#325=VECTOR('',#1267,10.);
#326=VECTOR('',#1268,10.);
#327=VECTOR('',#1269,10.);
#328=VECTOR('',#1270,10.);
#329=VECTOR('',#1277,10.);
#330=VECTOR('',#1278,10.);
#331=VECTOR('',#1281,10.);
#332=VECTOR('',#1282,10.);
#333=VECTOR('',#1285,1.95);
#334=VECTOR('',#1290,1.95);
#335=VECTOR('',#1295,10.);
#336=VECTOR('',#1296,10.);
#337=VECTOR('',#1299,10.);
#338=CIRCLE('',#911,3.06066017177982);
#339=CIRCLE('',#912,2.);
#340=CIRCLE('',#914,4.);
#341=CIRCLE('',#915,4.);
#342=CIRCLE('',#917,2.);
#343=CIRCLE('',#919,3.06066017177982);
#344=CIRCLE('',#920,2.);
#345=CIRCLE('',#922,4.);
#346=CIRCLE('',#924,2.);
#347=CIRCLE('',#926,3.06066017177982);
#348=CIRCLE('',#927,2.);
#349=CIRCLE('',#929,4.);
#350=CIRCLE('',#930,4.);
#351=CIRCLE('',#932,2.);
#352=CIRCLE('',#934,3.06066017177982);
#353=CIRCLE('',#935,2.);
#354=CIRCLE('',#937,4.);
#355=CIRCLE('',#938,4.);
#356=CIRCLE('',#939,4.);
#357=CIRCLE('',#941,2.);
#358=CIRCLE('',#943,3.16066017177984);
#359=CIRCLE('',#944,2.1);
#360=CIRCLE('',#946,4.1);
#361=CIRCLE('',#948,2.1);
#362=CIRCLE('',#950,3.16066017177988);
#363=CIRCLE('',#951,2.1);
#364=CIRCLE('',#953,4.1);
#365=CIRCLE('',#955,2.1);
#366=CIRCLE('',#957,4.);
#367=CIRCLE('',#958,4.);
#368=CIRCLE('',#961,4.49999999999999);
#369=CIRCLE('',#962,4.5);
#370=CIRCLE('',#963,3.50000000000001);
#371=CIRCLE('',#964,3.50000000000001);
#372=CIRCLE('',#967,4.49999999999999);
#373=CIRCLE('',#969,4.5);
#374=CIRCLE('',#972,3.50000000000001);
#375=CIRCLE('',#975,3.50000000000001);
#376=CIRCLE('',#979,1.25);
#377=CIRCLE('',#980,0.5);
#378=CIRCLE('',#982,1.25);
#379=CIRCLE('',#984,1.25);
#380=CIRCLE('',#985,0.499999999999998);
#381=CIRCLE('',#987,1.25);
#382=CIRCLE('',#989,1.25);
#383=CIRCLE('',#990,0.5);
#384=CIRCLE('',#992,1.25);
#385=CIRCLE('',#994,1.25);
#386=CIRCLE('',#995,0.500000000000003);
#387=CIRCLE('',#997,1.25);
#388=CIRCLE('',#999,0.499999999999998);
#389=CIRCLE('',#1001,0.5);
#390=CIRCLE('',#1003,0.500000000000003);
#391=CIRCLE('',#1005,0.5);
#392=CIRCLE('',#1008,1.95);
#393=CIRCLE('',#1009,1.95);
#394=CIRCLE('',#1013,1.95);
#395=CIRCLE('',#1015,1.95);
#396=VERTEX_POINT('',#1304);
#397=VERTEX_POINT('',#1306);
#398=VERTEX_POINT('',#1310);
#399=VERTEX_POINT('',#1311);
#400=VERTEX_POINT('',#1316);
#401=VERTEX_POINT('',#1320);
#402=VERTEX_POINT('',#1322);
#403=VERTEX_POINT('',#1326);
#404=VERTEX_POINT('',#1330);
#405=VERTEX_POINT('',#1334);
#406=VERTEX_POINT('',#1336);
#407=VERTEX_POINT('',#1340);
#408=VERTEX_POINT('',#1341);
#409=VERTEX_POINT('',#1346);
#410=VERTEX_POINT('',#1350);
#411=VERTEX_POINT('',#1352);
#412=VERTEX_POINT('',#1356);
#413=VERTEX_POINT('',#1357);
#414=VERTEX_POINT('',#1359);
#415=VERTEX_POINT('',#1364);
#416=VERTEX_POINT('',#1368);
#417=VERTEX_POINT('',#1370);
#418=VERTEX_POINT('',#1374);
#419=VERTEX_POINT('',#1378);
#420=VERTEX_POINT('',#1382);
#421=VERTEX_POINT('',#1384);
#422=VERTEX_POINT('',#1388);
#423=VERTEX_POINT('',#1392);
#424=VERTEX_POINT('',#1396);
#425=VERTEX_POINT('',#1398);
#426=VERTEX_POINT('',#1403);
#427=VERTEX_POINT('',#1404);
#428=VERTEX_POINT('',#1406);
#429=VERTEX_POINT('',#1408);
#430=VERTEX_POINT('',#1411);
#431=VERTEX_POINT('',#1412);
#432=VERTEX_POINT('',#1414);
#433=VERTEX_POINT('',#1416);
#434=VERTEX_POINT('',#1420);
#435=VERTEX_POINT('',#1422);
#436=VERTEX_POINT('',#1426);
#437=VERTEX_POINT('',#1430);
#438=VERTEX_POINT('',#1436);
#439=VERTEX_POINT('',#1438);
#440=VERTEX_POINT('',#1442);
#441=VERTEX_POINT('',#1446);
#442=VERTEX_POINT('',#1452);
#443=VERTEX_POINT('',#1453);
#444=VERTEX_POINT('',#1455);
#445=VERTEX_POINT('',#1457);
#446=VERTEX_POINT('',#1461);
#447=VERTEX_POINT('',#1463);
#448=VERTEX_POINT('',#1466);
#449=VERTEX_POINT('',#1470);
#450=VERTEX_POINT('',#1472);
#451=VERTEX_POINT('',#1475);
#452=VERTEX_POINT('',#1479);
#453=VERTEX_POINT('',#1481);
#454=VERTEX_POINT('',#1484);
#455=VERTEX_POINT('',#1488);
#456=VERTEX_POINT('',#1490);
#457=VERTEX_POINT('',#1493);
#458=VERTEX_POINT('',#1497);
#459=VERTEX_POINT('',#1501);
#460=VERTEX_POINT('',#1505);
#461=VERTEX_POINT('',#1509);
#462=VERTEX_POINT('',#1513);
#463=VERTEX_POINT('',#1522);
#464=VERTEX_POINT('',#1524);
#465=VERTEX_POINT('',#1527);
#466=VERTEX_POINT('',#1531);
#467=VERTEX_POINT('',#1535);
#468=VERTEX_POINT('',#1539);
#469=VERTEX_POINT('',#1543);
#470=EDGE_CURVE('',#396,#396,#338,.T.);
#471=EDGE_CURVE('',#396,#397,#212,.T.);
#472=EDGE_CURVE('',#397,#397,#339,.T.);
#473=EDGE_CURVE('',#398,#399,#340,.T.);
#474=EDGE_CURVE('',#399,#398,#341,.T.);
#475=EDGE_CURVE('',#399,#396,#213,.T.);
#476=EDGE_CURVE('',#397,#400,#214,.T.);
#477=EDGE_CURVE('',#400,#400,#342,.T.);
#478=EDGE_CURVE('',#401,#401,#343,.T.);
#479=EDGE_CURVE('',#401,#402,#215,.T.);
#480=EDGE_CURVE('',#402,#402,#344,.T.);
#481=EDGE_CURVE('',#403,#403,#345,.T.);
#482=EDGE_CURVE('',#403,#401,#216,.T.);
#483=EDGE_CURVE('',#402,#404,#217,.T.);
#484=EDGE_CURVE('',#404,#404,#346,.T.);
#485=EDGE_CURVE('',#405,#405,#347,.T.);
#486=EDGE_CURVE('',#405,#406,#218,.T.);
#487=EDGE_CURVE('',#406,#406,#348,.T.);
#488=EDGE_CURVE('',#407,#408,#349,.T.);
#489=EDGE_CURVE('',#408,#407,#350,.T.);
#490=EDGE_CURVE('',#408,#405,#219,.T.);
#491=EDGE_CURVE('',#406,#409,#220,.T.);
#492=EDGE_CURVE('',#409,#409,#351,.T.);
#493=EDGE_CURVE('',#410,#410,#352,.T.);
#494=EDGE_CURVE('',#410,#411,#221,.T.);
#495=EDGE_CURVE('',#411,#411,#353,.T.);
#496=EDGE_CURVE('',#412,#413,#354,.T.);
#497=EDGE_CURVE('',#414,#412,#355,.T.);
#498=EDGE_CURVE('',#413,#414,#356,.T.);
#499=EDGE_CURVE('',#413,#410,#222,.T.);
#500=EDGE_CURVE('',#411,#415,#223,.T.);
#501=EDGE_CURVE('',#415,#415,#357,.T.);
#502=EDGE_CURVE('',#416,#416,#358,.T.);
#503=EDGE_CURVE('',#416,#417,#224,.T.);
#504=EDGE_CURVE('',#417,#417,#359,.T.);
#505=EDGE_CURVE('',#418,#418,#360,.T.);
#506=EDGE_CURVE('',#418,#416,#225,.T.);
#507=EDGE_CURVE('',#417,#419,#226,.T.);
#508=EDGE_CURVE('',#419,#419,#361,.T.);
#509=EDGE_CURVE('',#420,#420,#362,.T.);
#510=EDGE_CURVE('',#420,#421,#227,.T.);
#511=EDGE_CURVE('',#421,#421,#363,.T.);
#512=EDGE_CURVE('',#422,#422,#364,.T.);
#513=EDGE_CURVE('',#422,#420,#228,.T.);
#514=EDGE_CURVE('',#421,#423,#229,.T.);
#515=EDGE_CURVE('',#423,#423,#365,.T.);
#516=EDGE_CURVE('',#424,#424,#366,.T.);
#517=EDGE_CURVE('',#424,#425,#230,.T.);
#518=EDGE_CURVE('',#425,#425,#367,.T.);
#519=EDGE_CURVE('',#426,#427,#368,.T.);
#520=EDGE_CURVE('',#428,#426,#231,.T.);
#521=EDGE_CURVE('',#429,#428,#369,.T.);
#522=EDGE_CURVE('',#427,#429,#232,.T.);
#523=EDGE_CURVE('',#430,#431,#233,.T.);
#524=EDGE_CURVE('',#431,#432,#370,.T.);
#525=EDGE_CURVE('',#432,#433,#234,.T.);
#526=EDGE_CURVE('',#433,#430,#371,.T.);
#527=EDGE_CURVE('',#426,#434,#235,.T.);
#528=EDGE_CURVE('',#434,#435,#236,.T.);
#529=EDGE_CURVE('',#428,#435,#237,.T.);
#530=EDGE_CURVE('',#427,#436,#238,.T.);
#531=EDGE_CURVE('',#436,#434,#372,.T.);
#532=EDGE_CURVE('',#435,#437,#373,.T.);
#533=EDGE_CURVE('',#429,#437,#239,.T.);
#534=EDGE_CURVE('',#437,#436,#240,.T.);
#535=EDGE_CURVE('',#438,#431,#241,.T.);
#536=EDGE_CURVE('',#438,#439,#374,.T.);
#537=EDGE_CURVE('',#439,#432,#242,.T.);
#538=EDGE_CURVE('',#439,#440,#243,.T.);
#539=EDGE_CURVE('',#440,#433,#244,.T.);
#540=EDGE_CURVE('',#440,#441,#375,.T.);
#541=EDGE_CURVE('',#441,#430,#245,.T.);
#542=EDGE_CURVE('',#441,#438,#246,.T.);
#543=EDGE_CURVE('',#442,#443,#247,.T.);
#544=EDGE_CURVE('',#444,#442,#248,.T.);
#545=EDGE_CURVE('',#445,#444,#249,.T.);
#546=EDGE_CURVE('',#443,#445,#250,.T.);
#547=EDGE_CURVE('',#446,#446,#376,.T.);
#548=EDGE_CURVE('',#447,#447,#377,.T.);
#549=EDGE_CURVE('',#446,#448,#251,.T.);
#550=EDGE_CURVE('',#448,#448,#378,.T.);
#551=EDGE_CURVE('',#449,#449,#379,.T.);
#552=EDGE_CURVE('',#450,#450,#380,.T.);
#553=EDGE_CURVE('',#449,#451,#252,.T.);
#554=EDGE_CURVE('',#451,#451,#381,.T.);
#555=EDGE_CURVE('',#452,#452,#382,.T.);
#556=EDGE_CURVE('',#453,#453,#383,.T.);
#557=EDGE_CURVE('',#452,#454,#253,.T.);
#558=EDGE_CURVE('',#454,#454,#384,.T.);
#559=EDGE_CURVE('',#455,#455,#385,.T.);
#560=EDGE_CURVE('',#456,#456,#386,.T.);
#561=EDGE_CURVE('',#455,#457,#254,.T.);
#562=EDGE_CURVE('',#457,#457,#387,.T.);
#563=EDGE_CURVE('',#458,#458,#388,.T.);
#564=EDGE_CURVE('',#458,#450,#255,.T.);
#565=EDGE_CURVE('',#459,#459,#389,.T.);
#566=EDGE_CURVE('',#459,#453,#256,.T.);
#567=EDGE_CURVE('',#460,#460,#390,.T.);
#568=EDGE_CURVE('',#460,#456,#257,.T.);
#569=EDGE_CURVE('',#461,#461,#391,.T.);
#570=EDGE_CURVE('',#461,#447,#258,.T.);
#571=EDGE_CURVE('',#462,#407,#259,.T.);
#572=EDGE_CURVE('',#408,#462,#260,.T.);
#573=EDGE_CURVE('',#403,#445,#261,.T.);
#574=EDGE_CURVE('',#398,#444,#262,.T.);
#575=EDGE_CURVE('',#412,#398,#263,.T.);
#576=EDGE_CURVE('',#407,#414,#264,.T.);
#577=EDGE_CURVE('',#403,#408,#265,.T.);
#578=EDGE_CURVE('',#463,#463,#392,.T.);
#579=EDGE_CURVE('',#464,#464,#393,.T.);
#580=EDGE_CURVE('',#465,#412,#266,.T.);
#581=EDGE_CURVE('',#414,#465,#267,.T.);
#582=EDGE_CURVE('',#442,#466,#268,.T.);
#583=EDGE_CURVE('',#466,#465,#269,.T.);
#584=EDGE_CURVE('',#463,#467,#270,.T.);
#585=EDGE_CURVE('',#467,#467,#394,.T.);
#586=EDGE_CURVE('',#464,#468,#271,.T.);
#587=EDGE_CURVE('',#468,#468,#395,.T.);
#588=EDGE_CURVE('',#469,#466,#272,.T.);
#589=EDGE_CURVE('',#469,#462,#273,.T.);
#590=EDGE_CURVE('',#469,#443,#274,.T.);
#591=ORIENTED_EDGE('',*,*,#470,.F.);
#592=ORIENTED_EDGE('',*,*,#471,.T.);
#593=ORIENTED_EDGE('',*,*,#472,.F.);
#594=ORIENTED_EDGE('',*,*,#471,.F.);
#595=ORIENTED_EDGE('',*,*,#473,.F.);
#596=ORIENTED_EDGE('',*,*,#474,.F.);
#597=ORIENTED_EDGE('',*,*,#475,.T.);
#598=ORIENTED_EDGE('',*,*,#470,.T.);
#599=ORIENTED_EDGE('',*,*,#475,.F.);
#600=ORIENTED_EDGE('',*,*,#472,.T.);
#601=ORIENTED_EDGE('',*,*,#476,.T.);
#602=ORIENTED_EDGE('',*,*,#477,.F.);
#603=ORIENTED_EDGE('',*,*,#476,.F.);
#604=ORIENTED_EDGE('',*,*,#478,.F.);
#605=ORIENTED_EDGE('',*,*,#479,.T.);
#606=ORIENTED_EDGE('',*,*,#480,.F.);
#607=ORIENTED_EDGE('',*,*,#479,.F.);
#608=ORIENTED_EDGE('',*,*,#481,.F.);
#609=ORIENTED_EDGE('',*,*,#482,.T.);
#610=ORIENTED_EDGE('',*,*,#478,.T.);
#611=ORIENTED_EDGE('',*,*,#482,.F.);
#612=ORIENTED_EDGE('',*,*,#480,.T.);
#613=ORIENTED_EDGE('',*,*,#483,.T.);
#614=ORIENTED_EDGE('',*,*,#484,.F.);
#615=ORIENTED_EDGE('',*,*,#483,.F.);
#616=ORIENTED_EDGE('',*,*,#485,.F.);
#617=ORIENTED_EDGE('',*,*,#486,.T.);
#618=ORIENTED_EDGE('',*,*,#487,.F.);
#619=ORIENTED_EDGE('',*,*,#486,.F.);
#620=ORIENTED_EDGE('',*,*,#488,.F.);
#621=ORIENTED_EDGE('',*,*,#489,.F.);
#622=ORIENTED_EDGE('',*,*,#490,.T.);
#623=ORIENTED_EDGE('',*,*,#485,.T.);
#624=ORIENTED_EDGE('',*,*,#490,.F.);
#625=ORIENTED_EDGE('',*,*,#487,.T.);
#626=ORIENTED_EDGE('',*,*,#491,.T.);
#627=ORIENTED_EDGE('',*,*,#492,.F.);
#628=ORIENTED_EDGE('',*,*,#491,.F.);
#629=ORIENTED_EDGE('',*,*,#493,.F.);
#630=ORIENTED_EDGE('',*,*,#494,.T.);
#631=ORIENTED_EDGE('',*,*,#495,.F.);
#632=ORIENTED_EDGE('',*,*,#494,.F.);
#633=ORIENTED_EDGE('',*,*,#496,.F.);
#634=ORIENTED_EDGE('',*,*,#497,.F.);
#635=ORIENTED_EDGE('',*,*,#498,.F.);
#636=ORIENTED_EDGE('',*,*,#499,.T.);
#637=ORIENTED_EDGE('',*,*,#493,.T.);
#638=ORIENTED_EDGE('',*,*,#499,.F.);
#639=ORIENTED_EDGE('',*,*,#495,.T.);
#640=ORIENTED_EDGE('',*,*,#500,.T.);
#641=ORIENTED_EDGE('',*,*,#501,.F.);
#642=ORIENTED_EDGE('',*,*,#500,.F.);
#643=ORIENTED_EDGE('',*,*,#502,.F.);
#644=ORIENTED_EDGE('',*,*,#503,.T.);
#645=ORIENTED_EDGE('',*,*,#504,.F.);
#646=ORIENTED_EDGE('',*,*,#503,.F.);
#647=ORIENTED_EDGE('',*,*,#505,.F.);
#648=ORIENTED_EDGE('',*,*,#506,.T.);
#649=ORIENTED_EDGE('',*,*,#502,.T.);
#650=ORIENTED_EDGE('',*,*,#506,.F.);
#651=ORIENTED_EDGE('',*,*,#504,.T.);
#652=ORIENTED_EDGE('',*,*,#507,.T.);
#653=ORIENTED_EDGE('',*,*,#508,.T.);
#654=ORIENTED_EDGE('',*,*,#507,.F.);
#655=ORIENTED_EDGE('',*,*,#509,.F.);
#656=ORIENTED_EDGE('',*,*,#510,.T.);
#657=ORIENTED_EDGE('',*,*,#511,.F.);
#658=ORIENTED_EDGE('',*,*,#510,.F.);
#659=ORIENTED_EDGE('',*,*,#512,.F.);
#660=ORIENTED_EDGE('',*,*,#513,.T.);
#661=ORIENTED_EDGE('',*,*,#509,.T.);
#662=ORIENTED_EDGE('',*,*,#513,.F.);
#663=ORIENTED_EDGE('',*,*,#511,.T.);
#664=ORIENTED_EDGE('',*,*,#514,.T.);
#665=ORIENTED_EDGE('',*,*,#515,.T.);
#666=ORIENTED_EDGE('',*,*,#514,.F.);
#667=ORIENTED_EDGE('',*,*,#516,.T.);
#668=ORIENTED_EDGE('',*,*,#517,.T.);
#669=ORIENTED_EDGE('',*,*,#518,.F.);
#670=ORIENTED_EDGE('',*,*,#517,.F.);
#671=ORIENTED_EDGE('',*,*,#518,.T.);
#672=ORIENTED_EDGE('',*,*,#519,.F.);
#673=ORIENTED_EDGE('',*,*,#520,.F.);
#674=ORIENTED_EDGE('',*,*,#521,.F.);
#675=ORIENTED_EDGE('',*,*,#522,.F.);
#676=ORIENTED_EDGE('',*,*,#523,.T.);
#677=ORIENTED_EDGE('',*,*,#524,.T.);
#678=ORIENTED_EDGE('',*,*,#525,.T.);
#679=ORIENTED_EDGE('',*,*,#526,.T.);
#680=ORIENTED_EDGE('',*,*,#520,.T.);
#681=ORIENTED_EDGE('',*,*,#527,.T.);
#682=ORIENTED_EDGE('',*,*,#528,.T.);
#683=ORIENTED_EDGE('',*,*,#529,.F.);
#684=ORIENTED_EDGE('',*,*,#519,.T.);
#685=ORIENTED_EDGE('',*,*,#530,.T.);
#686=ORIENTED_EDGE('',*,*,#531,.T.);
#687=ORIENTED_EDGE('',*,*,#527,.F.);
#688=ORIENTED_EDGE('',*,*,#521,.T.);
#689=ORIENTED_EDGE('',*,*,#529,.T.);
#690=ORIENTED_EDGE('',*,*,#532,.T.);
#691=ORIENTED_EDGE('',*,*,#533,.F.);
#692=ORIENTED_EDGE('',*,*,#522,.T.);
#693=ORIENTED_EDGE('',*,*,#533,.T.);
#694=ORIENTED_EDGE('',*,*,#534,.T.);
#695=ORIENTED_EDGE('',*,*,#530,.F.);
#696=ORIENTED_EDGE('',*,*,#524,.F.);
#697=ORIENTED_EDGE('',*,*,#535,.F.);
#698=ORIENTED_EDGE('',*,*,#536,.T.);
#699=ORIENTED_EDGE('',*,*,#537,.T.);
#700=ORIENTED_EDGE('',*,*,#525,.F.);
#701=ORIENTED_EDGE('',*,*,#537,.F.);
#702=ORIENTED_EDGE('',*,*,#538,.T.);
#703=ORIENTED_EDGE('',*,*,#539,.T.);
#704=ORIENTED_EDGE('',*,*,#526,.F.);
#705=ORIENTED_EDGE('',*,*,#539,.F.);
#706=ORIENTED_EDGE('',*,*,#540,.T.);
#707=ORIENTED_EDGE('',*,*,#541,.T.);
#708=ORIENTED_EDGE('',*,*,#523,.F.);
#709=ORIENTED_EDGE('',*,*,#541,.F.);
#710=ORIENTED_EDGE('',*,*,#542,.T.);
#711=ORIENTED_EDGE('',*,*,#535,.T.);
#712=ORIENTED_EDGE('',*,*,#543,.F.);
#713=ORIENTED_EDGE('',*,*,#544,.F.);
#714=ORIENTED_EDGE('',*,*,#545,.F.);
#715=ORIENTED_EDGE('',*,*,#546,.F.);
#716=ORIENTED_EDGE('',*,*,#547,.F.);
#717=ORIENTED_EDGE('',*,*,#548,.T.);
#718=ORIENTED_EDGE('',*,*,#547,.T.);
#719=ORIENTED_EDGE('',*,*,#549,.T.);
#720=ORIENTED_EDGE('',*,*,#550,.T.);
#721=ORIENTED_EDGE('',*,*,#549,.F.);
#722=ORIENTED_EDGE('',*,*,#551,.F.);
#723=ORIENTED_EDGE('',*,*,#552,.T.);
#724=ORIENTED_EDGE('',*,*,#551,.T.);
#725=ORIENTED_EDGE('',*,*,#553,.T.);
#726=ORIENTED_EDGE('',*,*,#554,.T.);
#727=ORIENTED_EDGE('',*,*,#553,.F.);
#728=ORIENTED_EDGE('',*,*,#555,.F.);
#729=ORIENTED_EDGE('',*,*,#556,.T.);
#730=ORIENTED_EDGE('',*,*,#555,.T.);
#731=ORIENTED_EDGE('',*,*,#557,.T.);
#732=ORIENTED_EDGE('',*,*,#558,.T.);
#733=ORIENTED_EDGE('',*,*,#557,.F.);
#734=ORIENTED_EDGE('',*,*,#559,.F.);
#735=ORIENTED_EDGE('',*,*,#560,.T.);
#736=ORIENTED_EDGE('',*,*,#559,.T.);
#737=ORIENTED_EDGE('',*,*,#561,.T.);
#738=ORIENTED_EDGE('',*,*,#562,.T.);
#739=ORIENTED_EDGE('',*,*,#561,.F.);
#740=ORIENTED_EDGE('',*,*,#563,.T.);
#741=ORIENTED_EDGE('',*,*,#564,.T.);
#742=ORIENTED_EDGE('',*,*,#552,.F.);
#743=ORIENTED_EDGE('',*,*,#564,.F.);
#744=ORIENTED_EDGE('',*,*,#565,.T.);
#745=ORIENTED_EDGE('',*,*,#566,.T.);
#746=ORIENTED_EDGE('',*,*,#556,.F.);
#747=ORIENTED_EDGE('',*,*,#566,.F.);
#748=ORIENTED_EDGE('',*,*,#567,.T.);
#749=ORIENTED_EDGE('',*,*,#568,.T.);
#750=ORIENTED_EDGE('',*,*,#560,.F.);
#751=ORIENTED_EDGE('',*,*,#568,.F.);
#752=ORIENTED_EDGE('',*,*,#569,.T.);
#753=ORIENTED_EDGE('',*,*,#570,.T.);
#754=ORIENTED_EDGE('',*,*,#548,.F.);
#755=ORIENTED_EDGE('',*,*,#570,.F.);
#756=ORIENTED_EDGE('',*,*,#489,.T.);
#757=ORIENTED_EDGE('',*,*,#571,.F.);
#758=ORIENTED_EDGE('',*,*,#572,.F.);
#759=ORIENTED_EDGE('',*,*,#481,.T.);
#760=ORIENTED_EDGE('',*,*,#573,.T.);
#761=ORIENTED_EDGE('',*,*,#545,.T.);
#762=ORIENTED_EDGE('',*,*,#574,.F.);
#763=ORIENTED_EDGE('',*,*,#473,.T.);
#764=ORIENTED_EDGE('',*,*,#474,.T.);
#765=ORIENTED_EDGE('',*,*,#575,.F.);
#766=ORIENTED_EDGE('',*,*,#496,.T.);
#767=ORIENTED_EDGE('',*,*,#498,.T.);
#768=ORIENTED_EDGE('',*,*,#576,.F.);
#769=ORIENTED_EDGE('',*,*,#488,.T.);
#770=ORIENTED_EDGE('',*,*,#577,.F.);
#771=ORIENTED_EDGE('',*,*,#540,.F.);
#772=ORIENTED_EDGE('',*,*,#538,.F.);
#773=ORIENTED_EDGE('',*,*,#536,.F.);
#774=ORIENTED_EDGE('',*,*,#542,.F.);
#775=ORIENTED_EDGE('',*,*,#550,.F.);
#776=ORIENTED_EDGE('',*,*,#554,.F.);
#777=ORIENTED_EDGE('',*,*,#558,.F.);
#778=ORIENTED_EDGE('',*,*,#562,.F.);
#779=ORIENTED_EDGE('',*,*,#578,.F.);
#780=ORIENTED_EDGE('',*,*,#579,.F.);
#781=ORIENTED_EDGE('',*,*,#497,.T.);
#782=ORIENTED_EDGE('',*,*,#580,.F.);
#783=ORIENTED_EDGE('',*,*,#581,.F.);
#784=ORIENTED_EDGE('',*,*,#582,.T.);
#785=ORIENTED_EDGE('',*,*,#583,.T.);
#786=ORIENTED_EDGE('',*,*,#580,.T.);
#787=ORIENTED_EDGE('',*,*,#575,.T.);
#788=ORIENTED_EDGE('',*,*,#574,.T.);
#789=ORIENTED_EDGE('',*,*,#544,.T.);
#790=ORIENTED_EDGE('',*,*,#516,.F.);
#791=ORIENTED_EDGE('',*,*,#512,.T.);
#792=ORIENTED_EDGE('',*,*,#505,.T.);
#793=ORIENTED_EDGE('',*,*,#578,.T.);
#794=ORIENTED_EDGE('',*,*,#584,.T.);
#795=ORIENTED_EDGE('',*,*,#585,.F.);
#796=ORIENTED_EDGE('',*,*,#584,.F.);
#797=ORIENTED_EDGE('',*,*,#579,.T.);
#798=ORIENTED_EDGE('',*,*,#586,.T.);
#799=ORIENTED_EDGE('',*,*,#587,.F.);
#800=ORIENTED_EDGE('',*,*,#586,.F.);
#801=ORIENTED_EDGE('',*,*,#588,.F.);
#802=ORIENTED_EDGE('',*,*,#589,.T.);
#803=ORIENTED_EDGE('',*,*,#571,.T.);
#804=ORIENTED_EDGE('',*,*,#576,.T.);
#805=ORIENTED_EDGE('',*,*,#581,.T.);
#806=ORIENTED_EDGE('',*,*,#583,.F.);
#807=ORIENTED_EDGE('',*,*,#590,.T.);
#808=ORIENTED_EDGE('',*,*,#546,.T.);
#809=ORIENTED_EDGE('',*,*,#573,.F.);
#810=ORIENTED_EDGE('',*,*,#577,.T.);
#811=ORIENTED_EDGE('',*,*,#572,.T.);
#812=ORIENTED_EDGE('',*,*,#589,.F.);
#813=ORIENTED_EDGE('',*,*,#508,.F.);
#814=ORIENTED_EDGE('',*,*,#515,.F.);
#815=ORIENTED_EDGE('',*,*,#590,.F.);
#816=ORIENTED_EDGE('',*,*,#588,.T.);
#817=ORIENTED_EDGE('',*,*,#582,.F.);
#818=ORIENTED_EDGE('',*,*,#543,.T.);
#819=ORIENTED_EDGE('',*,*,#563,.F.);
#820=ORIENTED_EDGE('',*,*,#565,.F.);
#821=ORIENTED_EDGE('',*,*,#567,.F.);
#822=ORIENTED_EDGE('',*,*,#569,.F.);
#823=ORIENTED_EDGE('',*,*,#587,.T.);
#824=ORIENTED_EDGE('',*,*,#492,.T.);
#825=ORIENTED_EDGE('',*,*,#501,.T.);
#826=ORIENTED_EDGE('',*,*,#484,.T.);
#827=ORIENTED_EDGE('',*,*,#585,.T.);
#828=ORIENTED_EDGE('',*,*,#477,.T.);
#829=ORIENTED_EDGE('',*,*,#528,.F.);
#830=ORIENTED_EDGE('',*,*,#531,.F.);
#831=ORIENTED_EDGE('',*,*,#534,.F.);
#832=ORIENTED_EDGE('',*,*,#532,.F.);
#833=CONICAL_SURFACE('',#910,2.53033008588991,0.475353056574993);
#834=CONICAL_SURFACE('',#913,3.,0.785398163397449);
#835=CONICAL_SURFACE('',#918,2.53033008588991,0.475353056574992);
#836=CONICAL_SURFACE('',#921,3.,0.785398163397448);
#837=CONICAL_SURFACE('',#925,2.53033008588991,0.475353056574991);
#838=CONICAL_SURFACE('',#928,3.,0.785398163397448);
#839=CONICAL_SURFACE('',#933,2.53033008588991,0.475353056574993);
#840=CONICAL_SURFACE('',#936,3.,0.785398163397449);
#841=CONICAL_SURFACE('',#942,2.63033008588992,0.475353056575005);
#842=CONICAL_SURFACE('',#945,3.1,0.78539816339747);
#843=CONICAL_SURFACE('',#949,2.63033008588994,0.475353056575029);
#844=CONICAL_SURFACE('',#952,3.1,0.785398163397508);
#845=ADVANCED_FACE('',(#82),#833,.F.);
#846=ADVANCED_FACE('',(#83),#834,.F.);
#847=ADVANCED_FACE('',(#84),#61,.F.);
#848=ADVANCED_FACE('',(#85),#835,.F.);
#849=ADVANCED_FACE('',(#86),#836,.F.);
#850=ADVANCED_FACE('',(#87),#62,.F.);
#851=ADVANCED_FACE('',(#88),#837,.F.);
#852=ADVANCED_FACE('',(#89),#838,.F.);
#853=ADVANCED_FACE('',(#90),#63,.F.);
#854=ADVANCED_FACE('',(#91),#839,.F.);
#855=ADVANCED_FACE('',(#92),#840,.F.);
#856=ADVANCED_FACE('',(#93),#64,.F.);
#857=ADVANCED_FACE('',(#94),#841,.F.);
#858=ADVANCED_FACE('',(#95),#842,.F.);
#859=ADVANCED_FACE('',(#96),#65,.F.);
#860=ADVANCED_FACE('',(#97),#843,.F.);
#861=ADVANCED_FACE('',(#98),#844,.F.);
#862=ADVANCED_FACE('',(#99),#66,.F.);
#863=ADVANCED_FACE('',(#100),#67,.F.);
#864=ADVANCED_FACE('',(#101),#43,.F.);
#865=ADVANCED_FACE('',(#102,#15),#44,.T.);
#866=ADVANCED_FACE('',(#103),#45,.T.);
#867=ADVANCED_FACE('',(#104),#68,.F.);
#868=ADVANCED_FACE('',(#105),#69,.F.);
#869=ADVANCED_FACE('',(#106),#46,.T.);
#870=ADVANCED_FACE('',(#107),#70,.F.);
#871=ADVANCED_FACE('',(#108),#47,.T.);
#872=ADVANCED_FACE('',(#109),#71,.F.);
#873=ADVANCED_FACE('',(#110),#48,.T.);
#874=ADVANCED_FACE('',(#111),#49,.F.);
#875=ADVANCED_FACE('',(#112,#16),#50,.F.);
#876=ADVANCED_FACE('',(#113),#72,.F.);
#877=ADVANCED_FACE('',(#114,#17),#51,.F.);
#878=ADVANCED_FACE('',(#115),#73,.F.);
#879=ADVANCED_FACE('',(#116,#18),#52,.F.);
#880=ADVANCED_FACE('',(#117),#74,.F.);
#881=ADVANCED_FACE('',(#118,#19),#53,.F.);
#882=ADVANCED_FACE('',(#119),#75,.F.);
#883=ADVANCED_FACE('',(#120),#76,.F.);
#884=ADVANCED_FACE('',(#121),#77,.F.);
#885=ADVANCED_FACE('',(#122),#78,.F.);
#886=ADVANCED_FACE('',(#123),#79,.F.);
#887=ADVANCED_FACE('',(#124),#54,.F.);
#888=ADVANCED_FACE('',(#125,#20,#21,#22,#23,#24,#25,#26),#55,.F.);
#889=ADVANCED_FACE('',(#126),#56,.F.);
#890=ADVANCED_FACE('',(#127,#27,#28,#29),#57,.F.);
#891=ADVANCED_FACE('',(#128),#80,.F.);
#892=ADVANCED_FACE('',(#129),#81,.F.);
#893=ADVANCED_FACE('',(#130),#58,.F.);
#894=ADVANCED_FACE('',(#131,#30,#31),#59,.F.);
#895=ADVANCED_FACE('',(#132,#32,#33,#34,#35,#36,#37,#38,#39,#40,#41,#42),
#60,.T.);
#896=CLOSED_SHELL('',(#845,#846,#847,#848,#849,#850,#851,#852,#853,#854,
#855,#856,#857,#858,#859,#860,#861,#862,#863,#864,#865,#866,#867,#868,#869,
#870,#871,#872,#873,#874,#875,#876,#877,#878,#879,#880,#881,#882,#883,#884,
#885,#886,#887,#888,#889,#890,#891,#892,#893,#894,#895));
#897=DERIVED_UNIT_ELEMENT(#899,1.);
#898=DERIVED_UNIT_ELEMENT(#1554,-3.);
#899=(
MASS_UNIT()
NAMED_UNIT(*)
SI_UNIT(.KILO.,.GRAM.)
);
#900=DERIVED_UNIT((#897,#898));
#901=MEASURE_REPRESENTATION_ITEM('density measure',
POSITIVE_RATIO_MEASURE(7850.),#900);
#902=PROPERTY_DEFINITION_REPRESENTATION(#907,#904);
#903=PROPERTY_DEFINITION_REPRESENTATION(#908,#905);
#904=REPRESENTATION('material name',(#906),#1551);
#905=REPRESENTATION('density',(#901),#1551);
#906=DESCRIPTIVE_REPRESENTATION_ITEM('Steel','Steel');
#907=PROPERTY_DEFINITION('material property','material name',#1561);
#908=PROPERTY_DEFINITION('material property','density of part',#1561);
#909=AXIS2_PLACEMENT_3D('',#1302,#1019,#1020);
#910=AXIS2_PLACEMENT_3D('',#1303,#1021,#1022);
#911=AXIS2_PLACEMENT_3D('',#1305,#1023,#1024);
#912=AXIS2_PLACEMENT_3D('',#1308,#1026,#1027);
#913=AXIS2_PLACEMENT_3D('',#1309,#1028,#1029);
#914=AXIS2_PLACEMENT_3D('',#1312,#1030,#1031);
#915=AXIS2_PLACEMENT_3D('',#1313,#1032,#1033);
#916=AXIS2_PLACEMENT_3D('',#1315,#1035,#1036);
#917=AXIS2_PLACEMENT_3D('',#1318,#1038,#1039);
#918=AXIS2_PLACEMENT_3D('',#1319,#1040,#1041);
#919=AXIS2_PLACEMENT_3D('',#1321,#1042,#1043);
#920=AXIS2_PLACEMENT_3D('',#1324,#1045,#1046);
#921=AXIS2_PLACEMENT_3D('',#1325,#1047,#1048);
#922=AXIS2_PLACEMENT_3D('',#1327,#1049,#1050);
#923=AXIS2_PLACEMENT_3D('',#1329,#1052,#1053);
#924=AXIS2_PLACEMENT_3D('',#1332,#1055,#1056);
#925=AXIS2_PLACEMENT_3D('',#1333,#1057,#1058);
#926=AXIS2_PLACEMENT_3D('',#1335,#1059,#1060);
#927=AXIS2_PLACEMENT_3D('',#1338,#1062,#1063);
#928=AXIS2_PLACEMENT_3D('',#1339,#1064,#1065);
#929=AXIS2_PLACEMENT_3D('',#1342,#1066,#1067);
#930=AXIS2_PLACEMENT_3D('',#1343,#1068,#1069);
#931=AXIS2_PLACEMENT_3D('',#1345,#1071,#1072);
#932=AXIS2_PLACEMENT_3D('',#1348,#1074,#1075);
#933=AXIS2_PLACEMENT_3D('',#1349,#1076,#1077);
#934=AXIS2_PLACEMENT_3D('',#1351,#1078,#1079);
#935=AXIS2_PLACEMENT_3D('',#1354,#1081,#1082);
#936=AXIS2_PLACEMENT_3D('',#1355,#1083,#1084);
#937=AXIS2_PLACEMENT_3D('',#1358,#1085,#1086);
#938=AXIS2_PLACEMENT_3D('',#1360,#1087,#1088);
#939=AXIS2_PLACEMENT_3D('',#1361,#1089,#1090);
#940=AXIS2_PLACEMENT_3D('',#1363,#1092,#1093);
#941=AXIS2_PLACEMENT_3D('',#1366,#1095,#1096);
#942=AXIS2_PLACEMENT_3D('',#1367,#1097,#1098);
#943=AXIS2_PLACEMENT_3D('',#1369,#1099,#1100);
#944=AXIS2_PLACEMENT_3D('',#1372,#1102,#1103);
#945=AXIS2_PLACEMENT_3D('',#1373,#1104,#1105);
#946=AXIS2_PLACEMENT_3D('',#1375,#1106,#1107);
#947=AXIS2_PLACEMENT_3D('',#1377,#1109,#1110);
#948=AXIS2_PLACEMENT_3D('',#1380,#1112,#1113);
#949=AXIS2_PLACEMENT_3D('',#1381,#1114,#1115);
#950=AXIS2_PLACEMENT_3D('',#1383,#1116,#1117);
#951=AXIS2_PLACEMENT_3D('',#1386,#1119,#1120);
#952=AXIS2_PLACEMENT_3D('',#1387,#1121,#1122);
#953=AXIS2_PLACEMENT_3D('',#1389,#1123,#1124);
#954=AXIS2_PLACEMENT_3D('',#1391,#1126,#1127);
#955=AXIS2_PLACEMENT_3D('',#1394,#1129,#1130);
#956=AXIS2_PLACEMENT_3D('',#1395,#1131,#1132);
#957=AXIS2_PLACEMENT_3D('',#1397,#1133,#1134);
#958=AXIS2_PLACEMENT_3D('',#1400,#1136,#1137);
#959=AXIS2_PLACEMENT_3D('',#1401,#1138,#1139);
#960=AXIS2_PLACEMENT_3D('',#1402,#1140,#1141);
#961=AXIS2_PLACEMENT_3D('',#1405,#1142,#1143);
#962=AXIS2_PLACEMENT_3D('',#1409,#1145,#1146);
#963=AXIS2_PLACEMENT_3D('',#1415,#1149,#1150);
#964=AXIS2_PLACEMENT_3D('',#1418,#1152,#1153);
#965=AXIS2_PLACEMENT_3D('',#1419,#1154,#1155);
#966=AXIS2_PLACEMENT_3D('',#1425,#1159,#1160);
#967=AXIS2_PLACEMENT_3D('',#1428,#1162,#1163);
#968=AXIS2_PLACEMENT_3D('',#1429,#1164,#1165);
#969=AXIS2_PLACEMENT_3D('',#1431,#1166,#1167);
#970=AXIS2_PLACEMENT_3D('',#1433,#1169,#1170);
#971=AXIS2_PLACEMENT_3D('',#1435,#1172,#1173);
#972=AXIS2_PLACEMENT_3D('',#1439,#1175,#1176);
#973=AXIS2_PLACEMENT_3D('',#1441,#1178,#1179);
#974=AXIS2_PLACEMENT_3D('',#1445,#1182,#1183);
#975=AXIS2_PLACEMENT_3D('',#1447,#1184,#1185);
#976=AXIS2_PLACEMENT_3D('',#1449,#1187,#1188);
#977=AXIS2_PLACEMENT_3D('',#1451,#1190,#1191);
#978=AXIS2_PLACEMENT_3D('',#1460,#1196,#1197);
#979=AXIS2_PLACEMENT_3D('',#1462,#1198,#1199);
#980=AXIS2_PLACEMENT_3D('',#1464,#1200,#1201);
#981=AXIS2_PLACEMENT_3D('',#1465,#1202,#1203);
#982=AXIS2_PLACEMENT_3D('',#1468,#1205,#1206);
#983=AXIS2_PLACEMENT_3D('',#1469,#1207,#1208);
#984=AXIS2_PLACEMENT_3D('',#1471,#1209,#1210);
#985=AXIS2_PLACEMENT_3D('',#1473,#1211,#1212);
#986=AXIS2_PLACEMENT_3D('',#1474,#1213,#1214);
#987=AXIS2_PLACEMENT_3D('',#1477,#1216,#1217);
#988=AXIS2_PLACEMENT_3D('',#1478,#1218,#1219);
#989=AXIS2_PLACEMENT_3D('',#1480,#1220,#1221);
#990=AXIS2_PLACEMENT_3D('',#1482,#1222,#1223);
#991=AXIS2_PLACEMENT_3D('',#1483,#1224,#1225);
#992=AXIS2_PLACEMENT_3D('',#1486,#1227,#1228);
#993=AXIS2_PLACEMENT_3D('',#1487,#1229,#1230);
#994=AXIS2_PLACEMENT_3D('',#1489,#1231,#1232);
#995=AXIS2_PLACEMENT_3D('',#1491,#1233,#1234);
#996=AXIS2_PLACEMENT_3D('',#1492,#1235,#1236);
#997=AXIS2_PLACEMENT_3D('',#1495,#1238,#1239);
#998=AXIS2_PLACEMENT_3D('',#1496,#1240,#1241);
#999=AXIS2_PLACEMENT_3D('',#1498,#1242,#1243);
#1000=AXIS2_PLACEMENT_3D('',#1500,#1245,#1246);
#1001=AXIS2_PLACEMENT_3D('',#1502,#1247,#1248);
#1002=AXIS2_PLACEMENT_3D('',#1504,#1250,#1251);
#1003=AXIS2_PLACEMENT_3D('',#1506,#1252,#1253);
#1004=AXIS2_PLACEMENT_3D('',#1508,#1255,#1256);
#1005=AXIS2_PLACEMENT_3D('',#1510,#1257,#1258);
#1006=AXIS2_PLACEMENT_3D('',#1512,#1260,#1261);
#1007=AXIS2_PLACEMENT_3D('',#1516,#1264,#1265);
#1008=AXIS2_PLACEMENT_3D('',#1523,#1271,#1272);
#1009=AXIS2_PLACEMENT_3D('',#1525,#1273,#1274);
#1010=AXIS2_PLACEMENT_3D('',#1526,#1275,#1276);
#1011=AXIS2_PLACEMENT_3D('',#1530,#1279,#1280);
#1012=AXIS2_PLACEMENT_3D('',#1534,#1283,#1284);
#1013=AXIS2_PLACEMENT_3D('',#1537,#1286,#1287);
#1014=AXIS2_PLACEMENT_3D('',#1538,#1288,#1289);
#1015=AXIS2_PLACEMENT_3D('',#1541,#1291,#1292);
#1016=AXIS2_PLACEMENT_3D('',#1542,#1293,#1294);
#1017=AXIS2_PLACEMENT_3D('',#1546,#1297,#1298);
#1018=AXIS2_PLACEMENT_3D('',#1548,#1300,#1301);
#1019=DIRECTION('axis',(0.,0.,1.));
#1020=DIRECTION('refdir',(1.,0.,0.));
#1021=DIRECTION('center_axis',(0.,0.,1.));
#1022=DIRECTION('ref_axis',(-1.,-4.44089209850063E-15,0.));
#1023=DIRECTION('center_axis',(-3.22177594434747E-30,7.25479447121725E-16,
-1.));
#1024=DIRECTION('ref_axis',(-1.,-4.44089209850063E-15,0.));
#1025=DIRECTION('',(-0.457652389311518,-1.9763386261842E-15,-0.88913119985605));
#1026=DIRECTION('center_axis',(0.,0.,1.));
#1027=DIRECTION('ref_axis',(-1.,-4.44089209850063E-15,0.));
#1028=DIRECTION('center_axis',(0.,0.,1.));
#1029=DIRECTION('ref_axis',(-1.,-4.44089209850063E-15,0.));
#1030=DIRECTION('center_axis',(0.,0.,-1.));
#1031=DIRECTION('ref_axis',(-1.,-4.44089209850063E-15,0.));
#1032=DIRECTION('center_axis',(0.,0.,-1.));
#1033=DIRECTION('ref_axis',(-1.,-4.44089209850063E-15,0.));
#1034=DIRECTION('',(-0.707106781186548,-3.053589311744E-15,-0.707106781186547));
#1035=DIRECTION('center_axis',(0.,0.,-1.));
#1036=DIRECTION('ref_axis',(-1.,-4.44089209850063E-15,0.));
#1037=DIRECTION('',(0.,0.,-1.));
#1038=DIRECTION('center_axis',(0.,0.,1.));
#1039=DIRECTION('ref_axis',(-1.,-4.44089209850063E-15,0.));
#1040=DIRECTION('center_axis',(1.0775411102028E-15,4.78524380210919E-30,
1.));
#1041=DIRECTION('ref_axis',(-1.,-4.44089209850063E-15,0.));
#1042=DIRECTION('center_axis',(0.,0.,-1.));
#1043=DIRECTION('ref_axis',(-1.,-4.44089209850063E-15,0.));
#1044=DIRECTION('',(-0.457652389311518,-1.97633862618421E-15,-0.88913119985605));
#1045=DIRECTION('center_axis',(0.,0.,1.));
#1046=DIRECTION('ref_axis',(-1.,-4.44089209850063E-15,0.));
#1047=DIRECTION('center_axis',(0.,0.,1.));
#1048=DIRECTION('ref_axis',(-1.,-4.44089209850063E-15,0.));
#1049=DIRECTION('center_axis',(0.,0.,-1.));
#1050=DIRECTION('ref_axis',(-1.,-4.44089209850063E-15,0.));
#1051=DIRECTION('',(-0.707106781186548,-3.053589311744E-15,-0.707106781186548));
#1052=DIRECTION('center_axis',(0.,0.,-1.));
#1053=DIRECTION('ref_axis',(-1.,-4.44089209850063E-15,0.));
#1054=DIRECTION('',(0.,0.,-1.));
#1055=DIRECTION('center_axis',(0.,0.,1.));
#1056=DIRECTION('ref_axis',(-1.,-4.44089209850063E-15,0.));
#1057=DIRECTION('center_axis',(0.,0.,1.));
#1058=DIRECTION('ref_axis',(-1.,-4.44089209850063E-15,0.));
#1059=DIRECTION('center_axis',(0.,0.,-1.));
#1060=DIRECTION('ref_axis',(-1.,-4.44089209850063E-15,0.));
#1061=DIRECTION('',(-0.457652389311517,-1.9763386261842E-15,-0.88913119985605));
#1062=DIRECTION('center_axis',(0.,0.,1.));
#1063=DIRECTION('ref_axis',(-1.,-4.44089209850063E-15,0.));
#1064=DIRECTION('center_axis',(0.,0.,1.));
#1065=DIRECTION('ref_axis',(-1.,-4.44089209850063E-15,0.));
#1066=DIRECTION('center_axis',(0.,0.,-1.));
#1067=DIRECTION('ref_axis',(-1.,-4.44089209850063E-15,0.));
#1068=DIRECTION('center_axis',(0.,0.,-1.));
#1069=DIRECTION('ref_axis',(-1.,-4.44089209850063E-15,0.));
#1070=DIRECTION('',(-0.707106781186548,-3.053589311744E-15,-0.707106781186548));
#1071=DIRECTION('center_axis',(0.,0.,-1.));
#1072=DIRECTION('ref_axis',(-1.,-4.44089209850063E-15,0.));
#1073=DIRECTION('',(0.,0.,-1.));
#1074=DIRECTION('center_axis',(0.,0.,1.));
#1075=DIRECTION('ref_axis',(-1.,-4.44089209850063E-15,0.));
#1076=DIRECTION('center_axis',(0.,0.,1.));
#1077=DIRECTION('ref_axis',(-1.,-4.44089209850063E-15,0.));
#1078=DIRECTION('center_axis',(-3.22177594434747E-30,7.25479447121725E-16,
-1.));
#1079=DIRECTION('ref_axis',(-1.,-4.44089209850063E-15,0.));
#1080=DIRECTION('',(-0.457652389311518,-1.9763386261842E-15,-0.88913119985605));
#1081=DIRECTION('center_axis',(0.,0.,1.));
#1082=DIRECTION('ref_axis',(-1.,-4.44089209850063E-15,0.));
#1083=DIRECTION('center_axis',(0.,0.,1.));
#1084=DIRECTION('ref_axis',(-1.,-4.44089209850063E-15,0.));
#1085=DIRECTION('center_axis',(0.,0.,-1.));
#1086=DIRECTION('ref_axis',(-1.,-4.44089209850063E-15,0.));
#1087=DIRECTION('center_axis',(0.,0.,-1.));
#1088=DIRECTION('ref_axis',(-1.,-4.44089209850063E-15,0.));
#1089=DIRECTION('center_axis',(0.,0.,-1.));
#1090=DIRECTION('ref_axis',(-1.,-4.44089209850063E-15,0.));
#1091=DIRECTION('',(-0.707106781186548,-3.053589311744E-15,-0.707106781186547));
#1092=DIRECTION('center_axis',(0.,0.,-1.));
#1093=DIRECTION('ref_axis',(-1.,-4.44089209850063E-15,0.));
#1094=DIRECTION('',(0.,0.,-1.));
#1095=DIRECTION('center_axis',(0.,0.,1.));
#1096=DIRECTION('ref_axis',(-1.,-4.44089209850063E-15,0.));
#1097=DIRECTION('center_axis',(-1.,-3.36335098829782E-15,0.));
#1098=DIRECTION('ref_axis',(-1.87443419519084E-30,4.22085057149599E-16,
-1.));
#1099=DIRECTION('center_axis',(1.,4.44089209850063E-15,0.));
#1100=DIRECTION('ref_axis',(-3.11984230487829E-30,7.02526032085229E-16,
-1.));
#1101=DIRECTION('',(0.889131199856044,3.23967478802871E-15,-0.457652389311529));
#1102=DIRECTION('center_axis',(-1.,-4.44089209850063E-15,0.));
#1103=DIRECTION('ref_axis',(0.,0.,-1.));
#1104=DIRECTION('center_axis',(-1.,-2.22044604925022E-15,0.));
#1105=DIRECTION('ref_axis',(0.,0.,-1.));
#1106=DIRECTION('center_axis',(1.,2.22044604925031E-15,0.));
#1107=DIRECTION('ref_axis',(0.,0.,-1.));
#1108=DIRECTION('',(0.707106781186532,1.65668806430722E-15,-0.707106781186563));
#1109=DIRECTION('center_axis',(-1.,-4.44089209850063E-15,0.));
#1110=DIRECTION('ref_axis',(0.,0.,-1.));
#1111=DIRECTION('',(1.,4.44089209850063E-15,0.));
#1112=DIRECTION('center_axis',(1.,4.68257330114012E-15,0.));
#1113=DIRECTION('ref_axis',(0.,0.,-1.));
#1114=DIRECTION('center_axis',(-1.,-3.3633509882978E-15,-5.38770555101415E-16));
#1115=DIRECTION('ref_axis',(-1.87443419519082E-30,4.22085057149596E-16,
-1.));
#1116=DIRECTION('center_axis',(1.,4.44089209850063E-15,0.));
#1117=DIRECTION('ref_axis',(-3.11984230487825E-30,7.02526032085221E-16,
-1.));
#1118=DIRECTION('',(0.889131199856034,3.23967478802866E-15,-0.457652389311549));
#1119=DIRECTION('center_axis',(-1.,-4.44089209850063E-15,0.));
#1120=DIRECTION('ref_axis',(0.,0.,-1.));
#1121=DIRECTION('center_axis',(-1.,-2.22044604925005E-15,0.));
#1122=DIRECTION('ref_axis',(0.,0.,-1.));
#1123=DIRECTION('center_axis',(1.,2.22044604925031E-15,0.));
#1124=DIRECTION('ref_axis',(0.,0.,-1.));
#1125=DIRECTION('',(0.707106781186505,1.65668806430705E-15,-0.70710678118659));
#1126=DIRECTION('center_axis',(-1.,-4.44089209850063E-15,0.));
#1127=DIRECTION('ref_axis',(0.,0.,-1.));
#1128=DIRECTION('',(1.,4.44089209850063E-15,0.));
#1129=DIRECTION('center_axis',(1.,4.68257330114012E-15,0.));
#1130=DIRECTION('ref_axis',(0.,0.,-1.));
#1131=DIRECTION('center_axis',(-1.,-4.44089209850063E-15,0.));
#1132=DIRECTION('ref_axis',(0.,0.,-1.));
#1133=DIRECTION('center_axis',(-1.,-2.22044604925031E-15,0.));
#1134=DIRECTION('ref_axis',(0.,0.,-1.));
#1135=DIRECTION('',(1.,4.44089209850063E-15,0.));
#1136=DIRECTION('center_axis',(-1.,-4.44089209850063E-15,0.));
#1137=DIRECTION('ref_axis',(0.,0.,-1.));
#1138=DIRECTION('center_axis',(1.,4.44089209850063E-15,0.));
#1139=DIRECTION('ref_axis',(0.,0.,-1.));
#1140=DIRECTION('center_axis',(0.,0.,-1.));
#1141=DIRECTION('ref_axis',(-1.,-4.44089209850063E-15,0.));
#1142=DIRECTION('center_axis',(0.,0.,1.));
#1143=DIRECTION('ref_axis',(-1.,-4.44089209850063E-15,0.));
#1144=DIRECTION('',(-1.,-5.24832702550074E-15,0.));
#1145=DIRECTION('center_axis',(0.,0.,1.));
#1146=DIRECTION('ref_axis',(-1.,-4.44089209850063E-15,0.));
#1147=DIRECTION('',(1.,4.2390333667506E-15,0.));
#1148=DIRECTION('',(-1.,-3.22973970800046E-15,0.));
#1149=DIRECTION('center_axis',(0.,0.,1.));
#1150=DIRECTION('ref_axis',(-1.,-4.44089209850063E-15,0.));
#1151=DIRECTION('',(1.,4.44089209850063E-15,0.));
#1152=DIRECTION('center_axis',(0.,0.,1.));
#1153=DIRECTION('ref_axis',(-1.,-4.44089209850063E-15,0.));
#1154=DIRECTION('center_axis',(5.24832702550074E-15,-1.,0.));
#1155=DIRECTION('ref_axis',(-1.,-5.24832702550074E-15,0.));
#1156=DIRECTION('',(0.,0.,-1.));
#1157=DIRECTION('',(1.,5.24832702550074E-15,0.));
#1158=DIRECTION('',(0.,0.,-1.));
#1159=DIRECTION('center_axis',(0.,0.,1.));
#1160=DIRECTION('ref_axis',(-1.,-4.44089209850063E-15,0.));
#1161=DIRECTION('',(0.,0.,-1.));
#1162=DIRECTION('center_axis',(0.,0.,-1.));
#1163=DIRECTION('ref_axis',(-1.,-4.44089209850063E-15,0.));
#1164=DIRECTION('center_axis',(0.,0.,1.));
#1165=DIRECTION('ref_axis',(1.,5.20660583828602E-15,0.));
#1166=DIRECTION('center_axis',(0.,0.,-1.));
#1167=DIRECTION('ref_axis',(-1.,-4.44089209850063E-15,0.));
#1168=DIRECTION('',(0.,0.,-1.));
#1169=DIRECTION('center_axis',(-4.2390333667506E-15,1.,0.));
#1170=DIRECTION('ref_axis',(1.,4.2390333667506E-15,0.));
#1171=DIRECTION('',(-1.,-4.2390333667506E-15,0.));
#1172=DIRECTION('center_axis',(0.,0.,1.));
#1173=DIRECTION('ref_axis',(-1.,-4.44089209850063E-15,0.));
#1174=DIRECTION('',(0.,0.,-1.));
#1175=DIRECTION('center_axis',(0.,0.,1.));
#1176=DIRECTION('ref_axis',(-1.,-4.44089209850063E-15,0.));
#1177=DIRECTION('',(0.,0.,-1.));
#1178=DIRECTION('center_axis',(-4.44089209850063E-15,1.,0.));
#1179=DIRECTION('ref_axis',(1.,4.44089209850063E-15,0.));
#1180=DIRECTION('',(1.,4.44089209850063E-15,0.));
#1181=DIRECTION('',(0.,0.,-1.));
#1182=DIRECTION('center_axis',(0.,0.,1.));
#1183=DIRECTION('ref_axis',(1.,2.63730511759137E-8,0.));
#1184=DIRECTION('center_axis',(0.,0.,1.));
#1185=DIRECTION('ref_axis',(-1.,-4.44089209850063E-15,0.));
#1186=DIRECTION('',(0.,0.,-1.));
#1187=DIRECTION('center_axis',(3.22973970800046E-15,-1.,0.));
#1188=DIRECTION('ref_axis',(-1.,-3.22973970800046E-15,0.));
#1189=DIRECTION('',(-1.,-3.22973970800046E-15,0.));
#1190=DIRECTION('center_axis',(4.44089209850063E-15,-1.,0.));
#1191=DIRECTION('ref_axis',(0.,0.,1.));
#1192=DIRECTION('',(1.,4.44089209850063E-15,0.));
#1193=DIRECTION('',(0.,0.,-1.));
#1194=DIRECTION('',(-1.,-4.44089209850063E-15,0.));
#1195=DIRECTION('',(0.,0.,1.));
#1196=DIRECTION('center_axis',(0.,0.,-1.));
#1197=DIRECTION('ref_axis',(-1.,-4.44089209850063E-15,0.));
#1198=DIRECTION('center_axis',(0.,0.,-1.));
#1199=DIRECTION('ref_axis',(-1.,-4.44089209850063E-15,0.));
#1200=DIRECTION('center_axis',(0.,0.,-1.));
#1201=DIRECTION('ref_axis',(-1.,-4.44089209850063E-15,0.));
#1202=DIRECTION('center_axis',(0.,0.,-1.));
#1203=DIRECTION('ref_axis',(-1.,-4.44089209850063E-15,0.));
#1204=DIRECTION('',(0.,0.,1.));
#1205=DIRECTION('center_axis',(0.,0.,1.));
#1206=DIRECTION('ref_axis',(-1.,-4.44089209850063E-15,0.));
#1207=DIRECTION('center_axis',(0.,0.,-1.));
#1208=DIRECTION('ref_axis',(-1.,-4.44089209850063E-15,0.));
#1209=DIRECTION('center_axis',(0.,0.,-1.));
#1210=DIRECTION('ref_axis',(-1.,-4.44089209850063E-15,0.));
#1211=DIRECTION('center_axis',(0.,0.,-1.));
#1212=DIRECTION('ref_axis',(-1.,-4.44089209850063E-15,0.));
#1213=DIRECTION('center_axis',(0.,0.,-1.));
#1214=DIRECTION('ref_axis',(-1.,-4.44089209850063E-15,0.));
#1215=DIRECTION('',(0.,0.,1.));
#1216=DIRECTION('center_axis',(0.,0.,1.));
#1217=DIRECTION('ref_axis',(-1.,-4.44089209850063E-15,0.));
#1218=DIRECTION('center_axis',(0.,0.,-1.));
#1219=DIRECTION('ref_axis',(-1.,-4.44089209850063E-15,0.));
#1220=DIRECTION('center_axis',(0.,0.,-1.));
#1221=DIRECTION('ref_axis',(-1.,-4.44089209850063E-15,0.));
#1222=DIRECTION('center_axis',(0.,0.,-1.));
#1223=DIRECTION('ref_axis',(-1.,-4.44089209850063E-15,0.));
#1224=DIRECTION('center_axis',(0.,0.,-1.));
#1225=DIRECTION('ref_axis',(-1.,-4.44089209850063E-15,0.));
#1226=DIRECTION('',(0.,0.,1.));
#1227=DIRECTION('center_axis',(0.,0.,1.));
#1228=DIRECTION('ref_axis',(-1.,-4.44089209850063E-15,0.));
#1229=DIRECTION('center_axis',(0.,0.,-1.));
#1230=DIRECTION('ref_axis',(-1.,-4.44089209850063E-15,0.));
#1231=DIRECTION('center_axis',(0.,0.,-1.));
#1232=DIRECTION('ref_axis',(-1.,-4.44089209850063E-15,0.));
#1233=DIRECTION('center_axis',(0.,0.,-1.));
#1234=DIRECTION('ref_axis',(-1.,-4.44089209850063E-15,0.));
#1235=DIRECTION('center_axis',(0.,0.,-1.));
#1236=DIRECTION('ref_axis',(-1.,-4.44089209850063E-15,0.));
#1237=DIRECTION('',(0.,0.,1.));
#1238=DIRECTION('center_axis',(0.,0.,1.));
#1239=DIRECTION('ref_axis',(-1.,-4.44089209850063E-15,0.));
#1240=DIRECTION('center_axis',(0.,0.,-1.));
#1241=DIRECTION('ref_axis',(-1.,-4.44089209850063E-15,0.));
#1242=DIRECTION('center_axis',(0.,0.,-1.));
#1243=DIRECTION('ref_axis',(-1.,-4.44089209850063E-15,0.));
#1244=DIRECTION('',(0.,0.,1.));
#1245=DIRECTION('center_axis',(0.,0.,-1.));
#1246=DIRECTION('ref_axis',(-1.,-4.44089209850063E-15,0.));
#1247=DIRECTION('center_axis',(0.,0.,-1.));
#1248=DIRECTION('ref_axis',(-1.,-4.44089209850063E-15,0.));
#1249=DIRECTION('',(0.,0.,1.));
#1250=DIRECTION('center_axis',(0.,0.,-1.));
#1251=DIRECTION('ref_axis',(-1.,-4.44089209850063E-15,0.));
#1252=DIRECTION('center_axis',(0.,0.,-1.));
#1253=DIRECTION('ref_axis',(-1.,-4.44089209850063E-15,0.));
#1254=DIRECTION('',(0.,0.,1.));
#1255=DIRECTION('center_axis',(0.,0.,-1.));
#1256=DIRECTION('ref_axis',(-1.,-4.44089209850063E-15,0.));
#1257=DIRECTION('center_axis',(0.,0.,-1.));
#1258=DIRECTION('ref_axis',(-1.,-4.44089209850063E-15,0.));
#1259=DIRECTION('',(0.,0.,1.));
#1260=DIRECTION('center_axis',(0.,0.,-1.));
#1261=DIRECTION('ref_axis',(-1.,-4.44089209850063E-15,0.));
#1262=DIRECTION('',(-1.,-4.44089209850063E-15,0.));
#1263=DIRECTION('',(4.68257330114012E-15,-1.,0.));
#1264=DIRECTION('center_axis',(0.,0.,-1.));
#1265=DIRECTION('ref_axis',(-1.,-4.44089209850063E-15,0.));
#1266=DIRECTION('',(-4.44089209850063E-15,1.,0.));
#1267=DIRECTION('',(-2.22044604925031E-15,1.,0.));
#1268=DIRECTION('',(-2.22044604925031E-15,1.,0.));
#1269=DIRECTION('',(-1.,-4.44089209850063E-15,0.));
#1270=DIRECTION('',(4.68257330114012E-15,-1.,0.));
#1271=DIRECTION('center_axis',(0.,0.,1.));
#1272=DIRECTION('ref_axis',(-1.,-4.44089209850063E-15,0.));
#1273=DIRECTION('center_axis',(0.,0.,1.));
#1274=DIRECTION('ref_axis',(-1.,-4.44089209850063E-15,0.));
#1275=DIRECTION('center_axis',(0.,0.,-1.));
#1276=DIRECTION('ref_axis',(-1.,-4.44089209850063E-15,0.));
#1277=DIRECTION('',(-2.22044604925031E-15,1.,0.));
#1278=DIRECTION('',(-1.,-4.44089209850063E-15,0.));
#1279=DIRECTION('center_axis',(1.,2.22044604925031E-15,0.));
#1280=DIRECTION('ref_axis',(-2.22044604925031E-15,1.,0.));
#1281=DIRECTION('',(2.22044604925031E-15,-1.,0.));
#1282=DIRECTION('',(0.,0.,1.));
#1283=DIRECTION('center_axis',(0.,0.,-1.));
#1284=DIRECTION('ref_axis',(-1.,-4.44089209850063E-15,0.));
#1285=DIRECTION('',(0.,0.,-1.));
#1286=DIRECTION('center_axis',(0.,0.,1.));
#1287=DIRECTION('ref_axis',(-1.,-4.44089209850063E-15,0.));
#1288=DIRECTION('center_axis',(0.,0.,-1.));
#1289=DIRECTION('ref_axis',(-1.,-4.44089209850063E-15,0.));
#1290=DIRECTION('',(0.,0.,-1.));
#1291=DIRECTION('center_axis',(0.,0.,1.));
#1292=DIRECTION('ref_axis',(-1.,-4.44089209850063E-15,0.));
#1293=DIRECTION('center_axis',(-4.44089209850063E-15,1.,0.));
#1294=DIRECTION('ref_axis',(-1.,-4.44089209850063E-15,0.));
#1295=DIRECTION('',(-1.,-4.44089209850063E-15,0.));
#1296=DIRECTION('',(0.,0.,1.));
#1297=DIRECTION('center_axis',(-1.,-4.68257330114012E-15,0.));
#1298=DIRECTION('ref_axis',(4.68257330114012E-15,-1.,0.));
#1299=DIRECTION('',(-4.44089209850063E-15,1.,0.));
#1300=DIRECTION('center_axis',(0.,0.,-1.));
#1301=DIRECTION('ref_axis',(-1.,-4.44089209850063E-15,0.));
#1302=CARTESIAN_POINT('',(0.,0.,0.));
#1303=CARTESIAN_POINT('Origin',(-20.0000000000003,32.75,8.03033008588991));
#1304=CARTESIAN_POINT('',(-16.9393398282205,32.75,9.06066017177982));
#1305=CARTESIAN_POINT('Origin',(-20.0000000000003,32.75,9.06066017177982));
#1306=CARTESIAN_POINT('',(-18.0000000000003,32.75,7.));
#1307=CARTESIAN_POINT('',(-17.4696699141104,32.75,8.03033008588991));
#1308=CARTESIAN_POINT('Origin',(-20.0000000000003,32.75,7.));
#1309=CARTESIAN_POINT('Origin',(-20.0000000000003,32.75,9.));
#1310=CARTESIAN_POINT('',(-24.0000000000002,32.75,10.));
#1311=CARTESIAN_POINT('',(-16.0000000000003,32.75,10.));
#1312=CARTESIAN_POINT('Origin',(-20.0000000000003,32.75,10.));
#1313=CARTESIAN_POINT('Origin',(-20.0000000000003,32.75,10.));
#1314=CARTESIAN_POINT('',(-17.0000000000003,32.75,9.));
#1315=CARTESIAN_POINT('Origin',(-20.0000000000003,32.75,0.));
#1316=CARTESIAN_POINT('',(-18.0000000000003,32.75,0.));
#1317=CARTESIAN_POINT('',(-18.0000000000003,32.75,0.));
#1318=CARTESIAN_POINT('Origin',(-20.0000000000003,32.75,0.));
#1319=CARTESIAN_POINT('Origin',(19.9999999999997,32.7500000000002,8.03033008588991));
#1320=CARTESIAN_POINT('',(23.0606601717795,32.7500000000002,9.06066017177982));
#1321=CARTESIAN_POINT('Origin',(19.9999999999997,32.7500000000002,9.06066017177982));
#1322=CARTESIAN_POINT('',(21.9999999999997,32.7500000000002,7.));
#1323=CARTESIAN_POINT('',(22.5303300858896,32.7500000000002,8.03033008588991));
#1324=CARTESIAN_POINT('Origin',(19.9999999999997,32.7500000000002,7.));
#1325=CARTESIAN_POINT('Origin',(19.9999999999997,32.7500000000002,9.));
#1326=CARTESIAN_POINT('',(23.9999999999997,32.7500000000002,10.));
#1327=CARTESIAN_POINT('Origin',(19.9999999999997,32.7500000000002,10.));
#1328=CARTESIAN_POINT('',(22.9999999999997,32.7500000000002,9.));
#1329=CARTESIAN_POINT('Origin',(19.9999999999997,32.7500000000002,0.));
#1330=CARTESIAN_POINT('',(21.9999999999997,32.7500000000002,0.));
#1331=CARTESIAN_POINT('',(21.9999999999997,32.7500000000002,0.));
#1332=CARTESIAN_POINT('Origin',(19.9999999999997,32.7500000000002,0.));
#1333=CARTESIAN_POINT('Origin',(20.,-32.7499999999998,8.03033008588991));
#1334=CARTESIAN_POINT('',(23.0606601717798,-32.7499999999998,9.06066017177982));
#1335=CARTESIAN_POINT('Origin',(20.,-32.7499999999998,9.06066017177982));
#1336=CARTESIAN_POINT('',(22.,-32.7499999999998,7.));
#1337=CARTESIAN_POINT('',(22.5303300858899,-32.7499999999998,8.03033008588991));
#1338=CARTESIAN_POINT('Origin',(20.,-32.7499999999998,7.));
#1339=CARTESIAN_POINT('Origin',(20.,-32.7499999999998,9.));
#1340=CARTESIAN_POINT('',(20.,-36.7499999999998,10.));
#1341=CARTESIAN_POINT('',(24.,-32.7499999999998,10.));
#1342=CARTESIAN_POINT('Origin',(20.,-32.7499999999998,10.));
#1343=CARTESIAN_POINT('Origin',(20.,-32.7499999999998,10.));
#1344=CARTESIAN_POINT('',(23.,-32.7499999999998,9.));
#1345=CARTESIAN_POINT('Origin',(20.,-32.7499999999998,0.));
#1346=CARTESIAN_POINT('',(22.,-32.7499999999998,0.));
#1347=CARTESIAN_POINT('',(22.,-32.7499999999998,0.));
#1348=CARTESIAN_POINT('Origin',(20.,-32.7499999999998,0.));
#1349=CARTESIAN_POINT('Origin',(-20.,-32.75,8.03033008588991));
#1350=CARTESIAN_POINT('',(-16.9393398282202,-32.75,9.06066017177982));
#1351=CARTESIAN_POINT('Origin',(-20.,-32.75,9.06066017177982));
#1352=CARTESIAN_POINT('',(-18.,-32.75,7.));
#1353=CARTESIAN_POINT('',(-17.4696699141101,-32.75,8.03033008588991));
#1354=CARTESIAN_POINT('Origin',(-20.,-32.75,7.));
#1355=CARTESIAN_POINT('Origin',(-20.,-32.75,9.));
#1356=CARTESIAN_POINT('',(-24.,-32.75,10.));
#1357=CARTESIAN_POINT('',(-16.,-32.75,10.));
#1358=CARTESIAN_POINT('Origin',(-20.,-32.75,10.));
#1359=CARTESIAN_POINT('',(-20.,-36.75,10.));
#1360=CARTESIAN_POINT('Origin',(-20.,-32.75,10.));
#1361=CARTESIAN_POINT('Origin',(-20.,-32.75,10.));
#1362=CARTESIAN_POINT('',(-17.,-32.75,9.));
#1363=CARTESIAN_POINT('Origin',(-20.,-32.75,0.));
#1364=CARTESIAN_POINT('',(-18.,-32.75,0.));
#1365=CARTESIAN_POINT('',(-18.,-32.75,0.));
#1366=CARTESIAN_POINT('Origin',(-20.,-32.75,0.));
#1367=CARTESIAN_POINT('Origin',(-22.03033008589,-17.75,5.));
#1368=CARTESIAN_POINT('',(-23.0606601717799,-17.75,8.16066017177984));
#1369=CARTESIAN_POINT('Origin',(-23.0606601717799,-17.75,5.));
#1370=CARTESIAN_POINT('',(-21.0000000000001,-17.75,7.1));
#1371=CARTESIAN_POINT('',(-22.03033008589,-17.75,7.63033008588992));
#1372=CARTESIAN_POINT('Origin',(-21.0000000000001,-17.75,5.));
#1373=CARTESIAN_POINT('Origin',(-23.0000000000001,-17.75,5.));
#1374=CARTESIAN_POINT('',(-24.,-17.75,9.1));
#1375=CARTESIAN_POINT('Origin',(-24.,-17.75,5.));
#1376=CARTESIAN_POINT('',(-23.0000000000001,-17.75,8.1));
#1377=CARTESIAN_POINT('Origin',(-24.0000000000001,-17.75,5.));
#1378=CARTESIAN_POINT('',(23.9999999999999,-17.7499999999998,7.1));
#1379=CARTESIAN_POINT('',(-24.0000000000001,-17.75,7.1));
#1380=CARTESIAN_POINT('Origin',(23.9999999999999,-17.7499999999998,5.));
#1381=CARTESIAN_POINT('Origin',(-22.0303300858902,17.75,5.));
#1382=CARTESIAN_POINT('',(-23.0606601717801,17.75,8.16066017177988));
#1383=CARTESIAN_POINT('Origin',(-23.0606601717801,17.75,5.));
#1384=CARTESIAN_POINT('',(-21.0000000000004,17.75,7.1));
#1385=CARTESIAN_POINT('',(-22.0303300858902,17.75,7.63033008588994));
#1386=CARTESIAN_POINT('Origin',(-21.0000000000004,17.75,5.));
#1387=CARTESIAN_POINT('Origin',(-23.0000000000003,17.75,5.));
#1388=CARTESIAN_POINT('',(-24.0000000000001,17.75,9.1));
#1389=CARTESIAN_POINT('Origin',(-24.0000000000001,17.75,5.));
#1390=CARTESIAN_POINT('',(-23.0000000000003,17.75,8.1));
#1391=CARTESIAN_POINT('Origin',(-24.0000000000003,17.75,5.));
#1392=CARTESIAN_POINT('',(23.9999999999998,17.7500000000002,7.1));
#1393=CARTESIAN_POINT('',(-24.0000000000003,17.75,7.1));
#1394=CARTESIAN_POINT('Origin',(23.9999999999997,17.7500000000002,5.));
#1395=CARTESIAN_POINT('Origin',(-24.0000000000004,41.,5.));
#1396=CARTESIAN_POINT('',(-24.0000000000004,41.,9.));
#1397=CARTESIAN_POINT('Origin',(-24.0000000000004,41.,5.));
#1398=CARTESIAN_POINT('',(-17.5000000000004,41.,9.));
#1399=CARTESIAN_POINT('',(-24.0000000000004,41.,9.));
#1400=CARTESIAN_POINT('Origin',(-17.5000000000004,41.,5.));
#1401=CARTESIAN_POINT('Origin',(-17.5000000000004,41.,5.));
#1402=CARTESIAN_POINT('Origin',(-3.46389583683049E-13,41.0000000000001,
9.));
#1403=CARTESIAN_POINT('',(-11.0000000000004,45.5,9.));
#1404=CARTESIAN_POINT('',(-10.9999998702946,36.5,9.));
#1405=CARTESIAN_POINT('Origin',(-11.0000000000004,41.,9.));
#1406=CARTESIAN_POINT('',(10.9999999999996,45.5000000000001,9.));
#1407=CARTESIAN_POINT('',(5.49999999999963,45.5000000000001,9.));
#1408=CARTESIAN_POINT('',(10.9999999999997,36.5000000000001,9.));
#1409=CARTESIAN_POINT('Origin',(10.9999999999997,41.0000000000001,9.));
#1410=CARTESIAN_POINT('',(-5.49999993514747,36.5000000000001,9.));
#1411=CARTESIAN_POINT('',(10.9999998153883,44.5000000000001,9.));
#1412=CARTESIAN_POINT('',(-11.0000000000004,44.5000000000001,9.));
#1413=CARTESIAN_POINT('',(5.49999990769398,44.5000000000001,9.));
#1414=CARTESIAN_POINT('',(-11.0000000000003,37.5,9.));
#1415=CARTESIAN_POINT('Origin',(-11.0000000000004,41.,9.));
#1416=CARTESIAN_POINT('',(10.9999999999997,37.5000000000001,9.));
#1417=CARTESIAN_POINT('',(-5.50000000000034,37.5000000000001,9.));
#1418=CARTESIAN_POINT('Origin',(10.9999999999997,41.0000000000001,9.));
#1419=CARTESIAN_POINT('Origin',(10.9999999999996,45.5000000000001,10.));
#1420=CARTESIAN_POINT('',(-11.0000000000004,45.5,0.));
#1421=CARTESIAN_POINT('',(-11.0000000000004,45.5,10.));
#1422=CARTESIAN_POINT('',(10.9999999999996,45.5000000000001,0.));
#1423=CARTESIAN_POINT('',(5.49999999999961,45.5000000000001,0.));
#1424=CARTESIAN_POINT('',(10.9999999999996,45.5000000000001,10.));
#1425=CARTESIAN_POINT('Origin',(-11.0000000000004,41.,10.));
#1426=CARTESIAN_POINT('',(-10.9999998702946,36.5,0.));
#1427=CARTESIAN_POINT('',(-10.9999998702946,36.5,10.));
#1428=CARTESIAN_POINT('Origin',(-11.0000000000004,41.,0.));
#1429=CARTESIAN_POINT('Origin',(10.9999999999997,41.0000000000001,10.));
#1430=CARTESIAN_POINT('',(10.9999999999997,36.5000000000001,0.));
#1431=CARTESIAN_POINT('Origin',(10.9999999999997,41.0000000000001,0.));
#1432=CARTESIAN_POINT('',(10.9999999999997,36.5000000000001,10.));
#1433=CARTESIAN_POINT('Origin',(-10.9999998702946,36.5,10.));
#1434=CARTESIAN_POINT('',(-5.49999993514747,36.5000000000001,0.));
#1435=CARTESIAN_POINT('Origin',(-11.0000000000004,41.,10.));
#1436=CARTESIAN_POINT('',(-11.0000000000004,44.5000000000001,10.));
#1437=CARTESIAN_POINT('',(-11.0000000000004,44.5000000000001,10.));
#1438=CARTESIAN_POINT('',(-11.0000000000003,37.5,10.));
#1439=CARTESIAN_POINT('Origin',(-11.0000000000004,41.,10.));
#1440=CARTESIAN_POINT('',(-11.0000000000003,37.5,10.));
#1441=CARTESIAN_POINT('Origin',(-11.0000000000003,37.5,10.));
#1442=CARTESIAN_POINT('',(10.9999999999997,37.5000000000001,10.));
#1443=CARTESIAN_POINT('',(-5.50000000000034,37.5000000000001,10.));
#1444=CARTESIAN_POINT('',(10.9999999999997,37.5000000000001,10.));
#1445=CARTESIAN_POINT('Origin',(10.9999999999997,41.0000000000001,10.));
#1446=CARTESIAN_POINT('',(10.9999998153883,44.5000000000001,10.));
#1447=CARTESIAN_POINT('Origin',(10.9999999999997,41.0000000000001,10.));
#1448=CARTESIAN_POINT('',(10.9999998153883,44.5000000000001,10.));
#1449=CARTESIAN_POINT('Origin',(10.9999998153883,44.5000000000001,10.));
#1450=CARTESIAN_POINT('',(5.499999907694,44.5000000000001,10.));
#1451=CARTESIAN_POINT('Origin',(-24.0000000000004,48.75,0.));
#1452=CARTESIAN_POINT('',(-24.0000000000004,48.75,0.));
#1453=CARTESIAN_POINT('',(23.9999999999996,48.7500000000002,0.));
#1454=CARTESIAN_POINT('',(-24.0000000000004,48.75,0.));
#1455=CARTESIAN_POINT('',(-24.0000000000004,48.75,10.));
#1456=CARTESIAN_POINT('',(-24.0000000000004,48.75,0.));
#1457=CARTESIAN_POINT('',(23.9999999999996,48.7500000000002,10.));
#1458=CARTESIAN_POINT('',(-24.0000000000004,48.75,10.));
#1459=CARTESIAN_POINT('',(23.9999999999996,48.7500000000002,0.));
#1460=CARTESIAN_POINT('Origin',(9.9999999999997,22.7500000000001,9.));
#1461=CARTESIAN_POINT('',(11.2499999999997,22.7500000000001,9.));
#1462=CARTESIAN_POINT('Origin',(9.9999999999997,22.7500000000001,9.));
#1463=CARTESIAN_POINT('',(10.4999999999997,22.7500000000001,9.));
#1464=CARTESIAN_POINT('Origin',(9.9999999999997,22.7500000000001,9.));
#1465=CARTESIAN_POINT('Origin',(9.9999999999997,22.7500000000001,0.));
#1466=CARTESIAN_POINT('',(11.2499999999997,22.7500000000001,10.));
#1467=CARTESIAN_POINT('',(11.2499999999997,22.7500000000001,0.));
#1468=CARTESIAN_POINT('Origin',(9.9999999999997,22.7500000000001,10.));
#1469=CARTESIAN_POINT('Origin',(9.99999999999993,-22.7499999999999,9.));
#1470=CARTESIAN_POINT('',(11.2499999999999,-22.7499999999999,9.));
#1471=CARTESIAN_POINT('Origin',(9.99999999999993,-22.7499999999999,9.));
#1472=CARTESIAN_POINT('',(10.4999999999999,-22.7499999999999,9.));
#1473=CARTESIAN_POINT('Origin',(9.99999999999993,-22.7499999999999,9.));
#1474=CARTESIAN_POINT('Origin',(9.99999999999993,-22.7499999999999,0.));
#1475=CARTESIAN_POINT('',(11.2499999999999,-22.7499999999999,10.));
#1476=CARTESIAN_POINT('',(11.2499999999999,-22.7499999999999,0.));
#1477=CARTESIAN_POINT('Origin',(9.99999999999993,-22.7499999999999,10.));
#1478=CARTESIAN_POINT('Origin',(-10.0000000000003,22.75,9.));
#1479=CARTESIAN_POINT('',(-8.75000000000028,22.75,9.));
#1480=CARTESIAN_POINT('Origin',(-10.0000000000003,22.75,9.));
#1481=CARTESIAN_POINT('',(-9.50000000000027,22.75,9.));
#1482=CARTESIAN_POINT('Origin',(-10.0000000000003,22.75,9.));
#1483=CARTESIAN_POINT('Origin',(-10.0000000000003,22.75,0.));
#1484=CARTESIAN_POINT('',(-8.75000000000028,22.75,10.));
#1485=CARTESIAN_POINT('',(-8.75000000000028,22.75,0.));
#1486=CARTESIAN_POINT('Origin',(-10.0000000000003,22.75,10.));
#1487=CARTESIAN_POINT('Origin',(-10.0000000000001,-22.75,9.));
#1488=CARTESIAN_POINT('',(-8.75000000000007,-22.75,9.));
#1489=CARTESIAN_POINT('Origin',(-10.0000000000001,-22.75,9.));
#1490=CARTESIAN_POINT('',(-9.50000000000007,-22.75,9.));
#1491=CARTESIAN_POINT('Origin',(-10.0000000000001,-22.75,9.));
#1492=CARTESIAN_POINT('Origin',(-10.0000000000001,-22.75,0.));
#1493=CARTESIAN_POINT('',(-8.75000000000007,-22.75,10.));
#1494=CARTESIAN_POINT('',(-8.75000000000007,-22.75,0.));
#1495=CARTESIAN_POINT('Origin',(-10.0000000000001,-22.75,10.));
#1496=CARTESIAN_POINT('Origin',(9.99999999999993,-22.7499999999999,0.));
#1497=CARTESIAN_POINT('',(10.4999999999999,-22.7499999999999,0.));
#1498=CARTESIAN_POINT('Origin',(9.99999999999993,-22.7499999999999,0.));
#1499=CARTESIAN_POINT('',(10.4999999999999,-22.7499999999999,0.));
#1500=CARTESIAN_POINT('Origin',(-10.0000000000003,22.75,0.));
#1501=CARTESIAN_POINT('',(-9.50000000000027,22.75,0.));
#1502=CARTESIAN_POINT('Origin',(-10.0000000000003,22.75,0.));
#1503=CARTESIAN_POINT('',(-9.50000000000028,22.75,0.));
#1504=CARTESIAN_POINT('Origin',(-10.0000000000001,-22.75,0.));
#1505=CARTESIAN_POINT('',(-9.50000000000007,-22.75,0.));
#1506=CARTESIAN_POINT('Origin',(-10.0000000000001,-22.75,0.));
#1507=CARTESIAN_POINT('',(-9.50000000000007,-22.75,0.));
#1508=CARTESIAN_POINT('Origin',(9.9999999999997,22.7500000000001,0.));
#1509=CARTESIAN_POINT('',(10.4999999999997,22.7500000000001,0.));
#1510=CARTESIAN_POINT('Origin',(9.9999999999997,22.7500000000001,0.));
#1511=CARTESIAN_POINT('',(10.4999999999997,22.7500000000001,0.));
#1512=CARTESIAN_POINT('Origin',(-1.68753899743024E-13,9.76996261670138E-14,
10.));
#1513=CARTESIAN_POINT('',(24.,-36.7499999999998,10.));
#1514=CARTESIAN_POINT('',(24.,-36.7499999999998,10.));
#1515=CARTESIAN_POINT('',(23.9999999999996,36.7500000000002,10.));
#1516=CARTESIAN_POINT('Origin',(-1.68753899743024E-13,9.76996261670138E-14,
10.));
#1517=CARTESIAN_POINT('',(23.9999999999996,36.7500000000002,10.));
#1518=CARTESIAN_POINT('',(-24.,-32.75,10.));
#1519=CARTESIAN_POINT('',(-24.,-32.75,10.));
#1520=CARTESIAN_POINT('',(24.,-36.7499999999998,10.));
#1521=CARTESIAN_POINT('',(23.9999999999996,36.7500000000002,10.));
#1522=CARTESIAN_POINT('',(1.94999999999972,22.7500000000001,10.));
#1523=CARTESIAN_POINT('Origin',(-2.8421709430404E-13,22.7500000000001,10.));
#1524=CARTESIAN_POINT('',(1.94999999999993,-22.7499999999999,10.));
#1525=CARTESIAN_POINT('Origin',(-7.105427357601E-14,-22.7499999999999,10.));
#1526=CARTESIAN_POINT('Origin',(-1.68753899743024E-13,9.76996261670138E-14,
10.));
#1527=CARTESIAN_POINT('',(-24.,-36.75,10.));
#1528=CARTESIAN_POINT('',(-24.,-32.75,10.));
#1529=CARTESIAN_POINT('',(24.,-36.7499999999998,10.));
#1530=CARTESIAN_POINT('Origin',(-24.,-36.75,0.));
#1531=CARTESIAN_POINT('',(-24.,-36.75,0.));
#1532=CARTESIAN_POINT('',(-24.,-32.75,0.));
#1533=CARTESIAN_POINT('',(-24.,-36.75,0.));
#1534=CARTESIAN_POINT('Origin',(-2.8421709430404E-13,22.7500000000001,0.));
#1535=CARTESIAN_POINT('',(1.94999999999972,22.7500000000001,0.));
#1536=CARTESIAN_POINT('',(1.94999999999972,22.7500000000001,0.));
#1537=CARTESIAN_POINT('Origin',(-2.8421709430404E-13,22.7500000000001,0.));
#1538=CARTESIAN_POINT('Origin',(-7.105427357601E-14,-22.7499999999999,0.));
#1539=CARTESIAN_POINT('',(1.94999999999993,-22.7499999999999,0.));
#1540=CARTESIAN_POINT('',(1.94999999999993,-22.7499999999999,0.));
#1541=CARTESIAN_POINT('Origin',(-7.105427357601E-14,-22.7499999999999,0.));
#1542=CARTESIAN_POINT('Origin',(24.,-36.7499999999998,0.));
#1543=CARTESIAN_POINT('',(24.,-36.7499999999998,0.));
#1544=CARTESIAN_POINT('',(24.,-36.7499999999998,0.));
#1545=CARTESIAN_POINT('',(24.,-36.7499999999998,0.));
#1546=CARTESIAN_POINT('Origin',(23.9999999999996,36.7500000000002,0.));
#1547=CARTESIAN_POINT('',(23.9999999999996,36.7500000000002,0.));
#1548=CARTESIAN_POINT('Origin',(-1.68753899743024E-13,9.76996261670138E-14,
0.));
#1549=UNCERTAINTY_MEASURE_WITH_UNIT(LENGTH_MEASURE(0.01),#1553,
'DISTANCE_ACCURACY_VALUE',
'Maximum model space distance between geometric entities at asserted c
onnectivities');
#1550=UNCERTAINTY_MEASURE_WITH_UNIT(LENGTH_MEASURE(0.01),#1553,
'DISTANCE_ACCURACY_VALUE',
'Maximum model space distance between geometric entities at asserted c
onnectivities');
#1551=(
GEOMETRIC_REPRESENTATION_CONTEXT(3)
GLOBAL_UNCERTAINTY_ASSIGNED_CONTEXT((#1549))
GLOBAL_UNIT_ASSIGNED_CONTEXT((#1553,#1555,#1556))
REPRESENTATION_CONTEXT('','3D')
);
#1552=(
GEOMETRIC_REPRESENTATION_CONTEXT(3)
GLOBAL_UNCERTAINTY_ASSIGNED_CONTEXT((#1550))
GLOBAL_UNIT_ASSIGNED_CONTEXT((#1553,#1555,#1556))
REPRESENTATION_CONTEXT('','3D')
);
#1553=(
LENGTH_UNIT()
NAMED_UNIT(*)
SI_UNIT(.MILLI.,.METRE.)
);
#1554=(
LENGTH_UNIT()
NAMED_UNIT(*)
SI_UNIT($,.METRE.)
);
#1555=(
NAMED_UNIT(*)
PLANE_ANGLE_UNIT()
SI_UNIT($,.RADIAN.)
);
#1556=(
NAMED_UNIT(*)
SI_UNIT($,.STERADIAN.)
SOLID_ANGLE_UNIT()
);
#1557=SHAPE_DEFINITION_REPRESENTATION(#1558,#1559);
#1558=PRODUCT_DEFINITION_SHAPE('',$,#1561);
#1559=SHAPE_REPRESENTATION('',(#909),#1551);
#1560=PRODUCT_DEFINITION_CONTEXT('part definition',#1565,'design');
#1561=PRODUCT_DEFINITION('tool changer head','tool changer head v23',#1562,
#1560);
#1562=PRODUCT_DEFINITION_FORMATION('',$,#1567);
#1563=PRODUCT_RELATED_PRODUCT_CATEGORY('tool changer head v23',
'tool changer head v23',(#1567));
#1564=APPLICATION_PROTOCOL_DEFINITION('international standard',
'automotive_design',2009,#1565);
#1565=APPLICATION_CONTEXT(
'Core Data for Automotive Mechanical Design Process');
#1566=PRODUCT_CONTEXT('part definition',#1565,'mechanical');
#1567=PRODUCT('tool changer head','tool changer head v23',$,(#1566));
#1568=PRESENTATION_STYLE_ASSIGNMENT((#1569));
#1569=SURFACE_STYLE_USAGE(.BOTH.,#1570);
#1570=SURFACE_SIDE_STYLE('',(#1571));
#1571=SURFACE_STYLE_FILL_AREA(#1572);
#1572=FILL_AREA_STYLE('Steel - Satin',(#1573));
#1573=FILL_AREA_STYLE_COLOUR('Steel - Satin',#1574);
#1574=COLOUR_RGB('Steel - Satin',0.627450980392157,0.627450980392157,0.627450980392157);
ENDSEC;
END-ISO-10303-21;
