ISO-10303-21;
HEADER;
/* Generated by software containing ST-Developer
 * from STEP Tools, Inc. (www.steptools.com) 
 */

FILE_DESCRIPTION(
/* description */ (''),
/* implementation_level */ '2;1');

FILE_NAME(
/* name */ '7syringe holder 2.step',
/* time_stamp */ '2026-08-04T21:56:00+02:00',
/* author */ (''),
/* organization */ (''),
/* preprocessor_version */ 'ST-DEVELOPER v20.1',
/* originating_system */ 'Autodesk Translation Framework v15.8.0.0',
/* authorisation */ '');

FILE_SCHEMA (('AUTOMOTIVE_DESIGN { 1 0 10303 214 3 1 1 }'));
ENDSEC;

DATA;
#10=MECHANICAL_DESIGN_GEOMETRIC_PRESENTATION_REPRESENTATION('',(#13),#1677);
#11=SHAPE_REPRESENTATION_RELATIONSHIP('SRR','None',#1684,#12);
#12=ADVANCED_BREP_SHAPE_REPRESENTATION('',(#14),#1676);
#13=STYLED_ITEM('',(#1693),#14);
#14=MANIFOLD_SOLID_BREP('Body53',#883);
#15=FACE_BOUND('',#118,.T.);
#16=FACE_BOUND('',#120,.T.);
#17=FACE_BOUND('',#128,.T.);
#18=FACE_BOUND('',#135,.T.);
#19=FACE_BOUND('',#143,.T.);
#20=FACE_BOUND('',#146,.T.);
#21=FACE_BOUND('',#149,.T.);
#22=FACE_BOUND('',#158,.T.);
#23=FACE_BOUND('',#166,.T.);
#24=FACE_BOUND('',#168,.T.);
#25=FACE_BOUND('',#169,.T.);
#26=FACE_BOUND('',#170,.T.);
#27=FACE_BOUND('',#171,.T.);
#28=FACE_BOUND('',#172,.T.);
#29=FACE_BOUND('',#173,.T.);
#30=FACE_BOUND('',#174,.T.);
#31=B_SPLINE_CURVE_WITH_KNOTS('',3,(#1383,#1384,#1385,#1386,#1387,#1388,
#1389,#1390,#1391,#1392),.UNSPECIFIED.,.F.,.F.,(4,2,2,2,4),(1.12997052807807,
1.18816303549831,1.26036459718795,1.33256615887759,1.39075866629782),
 .UNSPECIFIED.);
#32=B_SPLINE_CURVE_WITH_KNOTS('',3,(#1487,#1488,#1489,#1490,#1491,#1492),
 .UNSPECIFIED.,.F.,.F.,(4,2,4),(1.27011678910711,1.28544404657891,1.35939730131659),
 .UNSPECIFIED.);
#33=B_SPLINE_CURVE_WITH_KNOTS('',3,(#1500,#1501,#1502,#1503,#1504,#1505),
 .UNSPECIFIED.,.F.,.F.,(4,2,4),(1.92039819309544,1.99688253056227,2.01013208461132),
 .UNSPECIFIED.);
#34=B_SPLINE_CURVE_WITH_KNOTS('',3,(#1528,#1529,#1530,#1531,#1532,#1533),
 .UNSPECIFIED.,.F.,.F.,(4,2,4),(1.26036459718795,1.33256615887759,1.39075866629782),
 .UNSPECIFIED.);
#35=B_SPLINE_CURVE_WITH_KNOTS('',3,(#1534,#1535,#1536,#1537,#1538,#1539),
 .UNSPECIFIED.,.F.,.F.,(4,2,4),(1.12997052807807,1.18816303549831,1.26036459718795),
 .UNSPECIFIED.);
#36=B_SPLINE_CURVE_WITH_KNOTS('',3,(#1559,#1560,#1561,#1562,#1563,#1564),
 .UNSPECIFIED.,.F.,.F.,(4,2,4),(1.26596701811378,1.28129427558558,1.35524753032326),
 .UNSPECIFIED.);
#37=B_SPLINE_CURVE_WITH_KNOTS('',3,(#1572,#1573,#1574,#1575,#1576,#1577),
 .UNSPECIFIED.,.F.,.F.,(4,2,4),(1.91624842210211,1.99273275956893,2.00598231361799),
 .UNSPECIFIED.);
#38=B_SPLINE_CURVE_WITH_KNOTS('',3,(#1615,#1616,#1617,#1618),
 .UNSPECIFIED.,.F.,.F.,(4,4),(1.26798148979853,1.35989898571709),
 .UNSPECIFIED.);
#39=B_SPLINE_CURVE_WITH_KNOTS('',3,(#1626,#1627,#1628,#1629,#1630,#1631),
 .UNSPECIFIED.,.F.,.F.,(4,2,4),(1.93798890959843,1.93814528282091,2.03056524989706),
 .UNSPECIFIED.);
#40=B_SPLINE_CURVE_WITH_KNOTS('',3,(#1645,#1646,#1647,#1648),
 .UNSPECIFIED.,.F.,.F.,(4,4),(1.27174978143394,1.3636672773525),
 .UNSPECIFIED.);
#41=B_SPLINE_CURVE_WITH_KNOTS('',3,(#1652,#1653,#1654,#1655,#1656,#1657),
 .UNSPECIFIED.,.F.,.F.,(4,2,4),(1.94175720123384,1.94191357445632,2.03433354153248),
 .UNSPECIFIED.);
#42=CONICAL_SURFACE('',#909,1.7,0.785398163397448);
#43=CONICAL_SURFACE('',#953,1.7,0.785398163397448);
#44=CONICAL_SURFACE('',#970,1.7,0.785398163397448);
#45=CONICAL_SURFACE('',#984,1.7,0.785398163397448);
#46=CONICAL_SURFACE('',#1011,1.7,0.785398163397448);
#47=CONICAL_SURFACE('',#1030,1.7,0.785398163397448);
#48=PLANE('',#907);
#49=PLANE('',#914);
#50=PLANE('',#915);
#51=PLANE('',#955);
#52=PLANE('',#959);
#53=PLANE('',#968);
#54=PLANE('',#973);
#55=PLANE('',#986);
#56=PLANE('',#990);
#57=PLANE('',#994);
#58=PLANE('',#998);
#59=PLANE('',#1013);
#60=PLANE('',#1017);
#61=PLANE('',#1032);
#62=PLANE('',#1034);
#63=PLANE('',#1035);
#64=FACE_OUTER_BOUND('',#112,.T.);
#65=FACE_OUTER_BOUND('',#113,.T.);
#66=FACE_OUTER_BOUND('',#114,.T.);
#67=FACE_OUTER_BOUND('',#115,.T.);
#68=FACE_OUTER_BOUND('',#116,.T.);
#69=FACE_OUTER_BOUND('',#117,.T.);
#70=FACE_OUTER_BOUND('',#119,.T.);
#71=FACE_OUTER_BOUND('',#121,.T.);
#72=FACE_OUTER_BOUND('',#122,.T.);
#73=FACE_OUTER_BOUND('',#123,.T.);
#74=FACE_OUTER_BOUND('',#124,.T.);
#75=FACE_OUTER_BOUND('',#125,.T.);
#76=FACE_OUTER_BOUND('',#126,.T.);
#77=FACE_OUTER_BOUND('',#127,.T.);
#78=FACE_OUTER_BOUND('',#129,.T.);
#79=FACE_OUTER_BOUND('',#130,.T.);
#80=FACE_OUTER_BOUND('',#131,.T.);
#81=FACE_OUTER_BOUND('',#132,.T.);
#82=FACE_OUTER_BOUND('',#133,.T.);
#83=FACE_OUTER_BOUND('',#134,.T.);
#84=FACE_OUTER_BOUND('',#136,.T.);
#85=FACE_OUTER_BOUND('',#137,.T.);
#86=FACE_OUTER_BOUND('',#138,.T.);
#87=FACE_OUTER_BOUND('',#139,.T.);
#88=FACE_OUTER_BOUND('',#140,.T.);
#89=FACE_OUTER_BOUND('',#141,.T.);
#90=FACE_OUTER_BOUND('',#142,.T.);
#91=FACE_OUTER_BOUND('',#144,.T.);
#92=FACE_OUTER_BOUND('',#145,.T.);
#93=FACE_OUTER_BOUND('',#147,.T.);
#94=FACE_OUTER_BOUND('',#148,.T.);
#95=FACE_OUTER_BOUND('',#150,.T.);
#96=FACE_OUTER_BOUND('',#151,.T.);
#97=FACE_OUTER_BOUND('',#152,.T.);
#98=FACE_OUTER_BOUND('',#153,.T.);
#99=FACE_OUTER_BOUND('',#154,.T.);
#100=FACE_OUTER_BOUND('',#155,.T.);
#101=FACE_OUTER_BOUND('',#156,.T.);
#102=FACE_OUTER_BOUND('',#157,.T.);
#103=FACE_OUTER_BOUND('',#159,.T.);
#104=FACE_OUTER_BOUND('',#160,.T.);
#105=FACE_OUTER_BOUND('',#161,.T.);
#106=FACE_OUTER_BOUND('',#162,.T.);
#107=FACE_OUTER_BOUND('',#163,.T.);
#108=FACE_OUTER_BOUND('',#164,.T.);
#109=FACE_OUTER_BOUND('',#165,.T.);
#110=FACE_OUTER_BOUND('',#167,.T.);
#111=FACE_OUTER_BOUND('',#175,.T.);
#112=EDGE_LOOP('',(#545,#546,#547,#548,#549,#550));
#113=EDGE_LOOP('',(#551,#552,#553,#554,#555,#556));
#114=EDGE_LOOP('',(#557,#558,#559,#560));
#115=EDGE_LOOP('',(#561,#562,#563));
#116=EDGE_LOOP('',(#564,#565,#566,#567));
#117=EDGE_LOOP('',(#568));
#118=EDGE_LOOP('',(#569));
#119=EDGE_LOOP('',(#570,#571,#572,#573,#574,#575,#576,#577,#578,#579,#580,
#581,#582,#583,#584,#585,#586,#587,#588,#589,#590,#591,#592,#593,#594,#595,
#596,#597,#598,#599,#600,#601,#602,#603,#604,#605,#606,#607,#608,#609,#610,
#611));
#120=EDGE_LOOP('',(#612));
#121=EDGE_LOOP('',(#613,#614,#615,#616,#617,#618));
#122=EDGE_LOOP('',(#619,#620,#621,#622,#623,#624));
#123=EDGE_LOOP('',(#625,#626,#627));
#124=EDGE_LOOP('',(#628,#629,#630));
#125=EDGE_LOOP('',(#631,#632,#633,#634,#635,#636));
#126=EDGE_LOOP('',(#637,#638,#639));
#127=EDGE_LOOP('',(#640));
#128=EDGE_LOOP('',(#641));
#129=EDGE_LOOP('',(#642,#643,#644,#645,#646,#647));
#130=EDGE_LOOP('',(#648,#649,#650,#651,#652,#653));
#131=EDGE_LOOP('',(#654,#655,#656,#657));
#132=EDGE_LOOP('',(#658,#659,#660));
#133=EDGE_LOOP('',(#661,#662,#663,#664,#665));
#134=EDGE_LOOP('',(#666));
#135=EDGE_LOOP('',(#667));
#136=EDGE_LOOP('',(#668,#669,#670,#671,#672,#673));
#137=EDGE_LOOP('',(#674,#675,#676,#677,#678,#679));
#138=EDGE_LOOP('',(#680,#681,#682));
#139=EDGE_LOOP('',(#683,#684,#685));
#140=EDGE_LOOP('',(#686,#687,#688,#689,#690,#691));
#141=EDGE_LOOP('',(#692,#693,#694));
#142=EDGE_LOOP('',(#695));
#143=EDGE_LOOP('',(#696));
#144=EDGE_LOOP('',(#697,#698,#699,#700));
#145=EDGE_LOOP('',(#701));
#146=EDGE_LOOP('',(#702));
#147=EDGE_LOOP('',(#703,#704,#705,#706));
#148=EDGE_LOOP('',(#707));
#149=EDGE_LOOP('',(#708));
#150=EDGE_LOOP('',(#709,#710,#711,#712));
#151=EDGE_LOOP('',(#713,#714,#715,#716,#717,#718));
#152=EDGE_LOOP('',(#719,#720,#721,#722,#723,#724));
#153=EDGE_LOOP('',(#725,#726,#727));
#154=EDGE_LOOP('',(#728,#729,#730));
#155=EDGE_LOOP('',(#731,#732,#733,#734,#735,#736));
#156=EDGE_LOOP('',(#737,#738,#739));
#157=EDGE_LOOP('',(#740));
#158=EDGE_LOOP('',(#741));
#159=EDGE_LOOP('',(#742,#743,#744,#745,#746,#747));
#160=EDGE_LOOP('',(#748,#749,#750));
#161=EDGE_LOOP('',(#751,#752,#753));
#162=EDGE_LOOP('',(#754,#755,#756,#757,#758,#759));
#163=EDGE_LOOP('',(#760,#761,#762));
#164=EDGE_LOOP('',(#763,#764,#765,#766,#767,#768));
#165=EDGE_LOOP('',(#769));
#166=EDGE_LOOP('',(#770));
#167=EDGE_LOOP('',(#771));
#168=EDGE_LOOP('',(#772,#773));
#169=EDGE_LOOP('',(#774,#775));
#170=EDGE_LOOP('',(#776,#777));
#171=EDGE_LOOP('',(#778,#779));
#172=EDGE_LOOP('',(#780));
#173=EDGE_LOOP('',(#781,#782));
#174=EDGE_LOOP('',(#783,#784));
#175=EDGE_LOOP('',(#785,#786,#787,#788,#789,#790,#791,#792,#793,#794,#795,
#796,#797,#798,#799,#800,#801,#802,#803,#804,#805,#806,#807,#808));
#176=LINE('',#1358,#204);
#177=LINE('',#1365,#205);
#178=LINE('',#1373,#206);
#179=LINE('',#1376,#207);
#180=LINE('',#1401,#208);
#181=LINE('',#1407,#209);
#182=LINE('',#1415,#210);
#183=LINE('',#1421,#211);
#184=LINE('',#1429,#212);
#185=LINE('',#1435,#213);
#186=LINE('',#1443,#214);
#187=LINE('',#1449,#215);
#188=LINE('',#1457,#216);
#189=LINE('',#1463,#217);
#190=LINE('',#1476,#218);
#191=LINE('',#1482,#219);
#192=LINE('',#1514,#220);
#193=LINE('',#1520,#221);
#194=LINE('',#1548,#222);
#195=LINE('',#1554,#223);
#196=LINE('',#1583,#224);
#197=LINE('',#1591,#225);
#198=LINE('',#1596,#226);
#199=LINE('',#1604,#227);
#200=LINE('',#1610,#228);
#201=LINE('',#1640,#229);
#202=LINE('',#1662,#230);
#203=LINE('',#1673,#231);
#204=VECTOR('',#1046,2.45);
#205=VECTOR('',#1055,2.925);
#206=VECTOR('',#1064,10.);
#207=VECTOR('',#1067,10.);
#208=VECTOR('',#1086,10.);
#209=VECTOR('',#1091,10.);
#210=VECTOR('',#1098,10.);
#211=VECTOR('',#1103,10.);
#212=VECTOR('',#1110,10.);
#213=VECTOR('',#1115,10.);
#214=VECTOR('',#1122,10.);
#215=VECTOR('',#1127,10.);
#216=VECTOR('',#1134,10.);
#217=VECTOR('',#1139,10.);
#218=VECTOR('',#1152,2.45);
#219=VECTOR('',#1161,2.925);
#220=VECTOR('',#1188,2.45);
#221=VECTOR('',#1197,2.925);
#222=VECTOR('',#1218,2.45);
#223=VECTOR('',#1227,2.925);
#224=VECTOR('',#1252,2.45);
#225=VECTOR('',#1263,3.95);
#226=VECTOR('',#1270,2.925);
#227=VECTOR('',#1277,2.45);
#228=VECTOR('',#1286,2.925);
#229=VECTOR('',#1313,2.45);
#230=VECTOR('',#1330,2.925);
#231=VECTOR('',#1349,18.5);
#232=CIRCLE('',#899,2.45);
#233=CIRCLE('',#900,2.45);
#234=CIRCLE('',#901,2.45);
#235=CIRCLE('',#903,2.925);
#236=CIRCLE('',#905,2.925);
#237=CIRCLE('',#908,3.95);
#238=CIRCLE('',#916,18.5);
#239=CIRCLE('',#921,18.5);
#240=CIRCLE('',#926,18.5);
#241=CIRCLE('',#931,18.5);
#242=CIRCLE('',#936,18.5);
#243=CIRCLE('',#941,18.5);
#244=CIRCLE('',#942,3.95);
#245=CIRCLE('',#945,2.45);
#246=CIRCLE('',#946,2.45);
#247=CIRCLE('',#947,2.45);
#248=CIRCLE('',#949,2.925);
#249=CIRCLE('',#950,2.925);
#250=CIRCLE('',#952,3.95);
#251=CIRCLE('',#956,3.95);
#252=CIRCLE('',#962,2.45);
#253=CIRCLE('',#963,2.45);
#254=CIRCLE('',#964,2.45);
#255=CIRCLE('',#966,2.925);
#256=CIRCLE('',#967,2.925);
#257=CIRCLE('',#969,3.95);
#258=CIRCLE('',#976,2.45);
#259=CIRCLE('',#977,2.45);
#260=CIRCLE('',#978,2.45);
#261=CIRCLE('',#980,2.925);
#262=CIRCLE('',#981,2.925);
#263=CIRCLE('',#983,3.95);
#264=CIRCLE('',#987,3.95);
#265=CIRCLE('',#992,2.45);
#266=CIRCLE('',#993,2.45);
#267=CIRCLE('',#995,3.95);
#268=CIRCLE('',#996,2.925);
#269=CIRCLE('',#999,2.925);
#270=CIRCLE('',#1003,2.45);
#271=CIRCLE('',#1004,2.45);
#272=CIRCLE('',#1005,2.45);
#273=CIRCLE('',#1007,2.925);
#274=CIRCLE('',#1008,2.925);
#275=CIRCLE('',#1010,3.95);
#276=CIRCLE('',#1014,3.95);
#277=CIRCLE('',#1020,2.45);
#278=CIRCLE('',#1021,2.45);
#279=CIRCLE('',#1022,2.45);
#280=CIRCLE('',#1024,3.95);
#281=CIRCLE('',#1026,3.95);
#282=CIRCLE('',#1028,2.925);
#283=CIRCLE('',#1029,2.925);
#284=CIRCLE('',#1036,18.5);
#285=ELLIPSE('',#898,2.68185888233981,2.45);
#286=ELLIPSE('',#904,3.20181111463019,2.925);
#287=ELLIPSE('',#906,3.20181111463019,2.925);
#288=ELLIPSE('',#910,2.20143865377496,1.80078570843208);
#289=ELLIPSE('',#912,4.32381330009888,3.95);
#290=ELLIPSE('',#913,4.32381330009888,3.95);
#291=ELLIPSE('',#917,4.39481956026485,3.95);
#292=ELLIPSE('',#918,3.25439169968979,2.925);
#293=ELLIPSE('',#919,3.25439169968979,2.925);
#294=ELLIPSE('',#920,4.39481956026485,3.95);
#295=ELLIPSE('',#922,4.39481956026485,3.95);
#296=ELLIPSE('',#923,3.25439169968979,2.925);
#297=ELLIPSE('',#924,3.25439169968979,2.925);
#298=ELLIPSE('',#925,4.39481956026485,3.95);
#299=ELLIPSE('',#927,4.32381330009888,3.95);
#300=ELLIPSE('',#928,3.20181111463019,2.925);
#301=ELLIPSE('',#929,3.20181111463019,2.925);
#302=ELLIPSE('',#930,4.32381330009888,3.95);
#303=ELLIPSE('',#932,4.39481956026485,3.95);
#304=ELLIPSE('',#933,3.25439169968979,2.925);
#305=ELLIPSE('',#934,3.25439169968979,2.925);
#306=ELLIPSE('',#935,4.39481956026485,3.95);
#307=ELLIPSE('',#937,4.39481956026485,3.95);
#308=ELLIPSE('',#938,3.25439169968979,2.925);
#309=ELLIPSE('',#939,3.25439169968979,2.925);
#310=ELLIPSE('',#940,4.39481956026485,3.95);
#311=ELLIPSE('',#944,2.72590073991111,2.45);
#312=ELLIPSE('',#954,2.53780055007969,1.99121250771848);
#313=ELLIPSE('',#957,20.5833321176961,18.5);
#314=ELLIPSE('',#961,2.68185888233981,2.45);
#315=ELLIPSE('',#971,2.20143865377496,1.80078570843208);
#316=ELLIPSE('',#975,2.72590073991111,2.45);
#317=ELLIPSE('',#985,2.53780055007969,1.99121250771848);
#318=ELLIPSE('',#988,20.5833321176961,18.5);
#319=ELLIPSE('',#1002,2.72590073991111,2.45);
#320=ELLIPSE('',#1012,2.53780055007969,1.99121250771848);
#321=ELLIPSE('',#1015,20.5833321176961,18.5);
#322=ELLIPSE('',#1019,2.72590073991111,2.45);
#323=ELLIPSE('',#1031,2.53780055007969,1.99121250771848);
#324=ELLIPSE('',#1033,20.5833321176961,18.5);
#325=VERTEX_POINT('',#1352);
#326=VERTEX_POINT('',#1353);
#327=VERTEX_POINT('',#1355);
#328=VERTEX_POINT('',#1357);
#329=VERTEX_POINT('',#1362);
#330=VERTEX_POINT('',#1364);
#331=VERTEX_POINT('',#1366);
#332=VERTEX_POINT('',#1368);
#333=VERTEX_POINT('',#1372);
#334=VERTEX_POINT('',#1374);
#335=VERTEX_POINT('',#1380);
#336=VERTEX_POINT('',#1382);
#337=VERTEX_POINT('',#1396);
#338=VERTEX_POINT('',#1398);
#339=VERTEX_POINT('',#1400);
#340=VERTEX_POINT('',#1402);
#341=VERTEX_POINT('',#1404);
#342=VERTEX_POINT('',#1406);
#343=VERTEX_POINT('',#1408);
#344=VERTEX_POINT('',#1410);
#345=VERTEX_POINT('',#1412);
#346=VERTEX_POINT('',#1414);
#347=VERTEX_POINT('',#1416);
#348=VERTEX_POINT('',#1418);
#349=VERTEX_POINT('',#1420);
#350=VERTEX_POINT('',#1422);
#351=VERTEX_POINT('',#1424);
#352=VERTEX_POINT('',#1426);
#353=VERTEX_POINT('',#1428);
#354=VERTEX_POINT('',#1430);
#355=VERTEX_POINT('',#1432);
#356=VERTEX_POINT('',#1434);
#357=VERTEX_POINT('',#1436);
#358=VERTEX_POINT('',#1438);
#359=VERTEX_POINT('',#1440);
#360=VERTEX_POINT('',#1442);
#361=VERTEX_POINT('',#1444);
#362=VERTEX_POINT('',#1446);
#363=VERTEX_POINT('',#1448);
#364=VERTEX_POINT('',#1450);
#365=VERTEX_POINT('',#1452);
#366=VERTEX_POINT('',#1454);
#367=VERTEX_POINT('',#1456);
#368=VERTEX_POINT('',#1458);
#369=VERTEX_POINT('',#1460);
#370=VERTEX_POINT('',#1462);
#371=VERTEX_POINT('',#1464);
#372=VERTEX_POINT('',#1467);
#373=VERTEX_POINT('',#1470);
#374=VERTEX_POINT('',#1471);
#375=VERTEX_POINT('',#1473);
#376=VERTEX_POINT('',#1475);
#377=VERTEX_POINT('',#1480);
#378=VERTEX_POINT('',#1485);
#379=VERTEX_POINT('',#1496);
#380=VERTEX_POINT('',#1508);
#381=VERTEX_POINT('',#1509);
#382=VERTEX_POINT('',#1511);
#383=VERTEX_POINT('',#1513);
#384=VERTEX_POINT('',#1518);
#385=VERTEX_POINT('',#1527);
#386=VERTEX_POINT('',#1542);
#387=VERTEX_POINT('',#1543);
#388=VERTEX_POINT('',#1545);
#389=VERTEX_POINT('',#1547);
#390=VERTEX_POINT('',#1552);
#391=VERTEX_POINT('',#1557);
#392=VERTEX_POINT('',#1568);
#393=VERTEX_POINT('',#1580);
#394=VERTEX_POINT('',#1582);
#395=VERTEX_POINT('',#1586);
#396=VERTEX_POINT('',#1588);
#397=VERTEX_POINT('',#1593);
#398=VERTEX_POINT('',#1598);
#399=VERTEX_POINT('',#1599);
#400=VERTEX_POINT('',#1601);
#401=VERTEX_POINT('',#1603);
#402=VERTEX_POINT('',#1608);
#403=VERTEX_POINT('',#1613);
#404=VERTEX_POINT('',#1622);
#405=VERTEX_POINT('',#1634);
#406=VERTEX_POINT('',#1635);
#407=VERTEX_POINT('',#1637);
#408=VERTEX_POINT('',#1639);
#409=VERTEX_POINT('',#1644);
#410=VERTEX_POINT('',#1651);
#411=VERTEX_POINT('',#1660);
#412=VERTEX_POINT('',#1670);
#413=EDGE_CURVE('',#325,#326,#285,.T.);
#414=EDGE_CURVE('',#325,#327,#232,.T.);
#415=EDGE_CURVE('',#327,#328,#176,.T.);
#416=EDGE_CURVE('',#328,#328,#233,.T.);
#417=EDGE_CURVE('',#327,#326,#234,.T.);
#418=EDGE_CURVE('',#329,#329,#235,.T.);
#419=EDGE_CURVE('',#329,#330,#177,.T.);
#420=EDGE_CURVE('',#331,#330,#286,.T.);
#421=EDGE_CURVE('',#331,#332,#236,.T.);
#422=EDGE_CURVE('',#330,#332,#287,.T.);
#423=EDGE_CURVE('',#333,#331,#178,.T.);
#424=EDGE_CURVE('',#333,#334,#237,.T.);
#425=EDGE_CURVE('',#332,#334,#179,.T.);
#426=EDGE_CURVE('',#326,#325,#288,.T.);
#427=EDGE_CURVE('',#335,#333,#289,.T.);
#428=EDGE_CURVE('',#336,#335,#31,.T.);
#429=EDGE_CURVE('',#334,#336,#290,.T.);
#430=EDGE_CURVE('',#336,#337,#238,.T.);
#431=EDGE_CURVE('',#337,#338,#291,.T.);
#432=EDGE_CURVE('',#338,#339,#180,.T.);
#433=EDGE_CURVE('',#339,#340,#292,.T.);
#434=EDGE_CURVE('',#340,#341,#293,.T.);
#435=EDGE_CURVE('',#341,#342,#181,.T.);
#436=EDGE_CURVE('',#342,#343,#294,.T.);
#437=EDGE_CURVE('',#343,#344,#239,.T.);
#438=EDGE_CURVE('',#344,#345,#295,.T.);
#439=EDGE_CURVE('',#345,#346,#182,.T.);
#440=EDGE_CURVE('',#346,#347,#296,.T.);
#441=EDGE_CURVE('',#347,#348,#297,.T.);
#442=EDGE_CURVE('',#348,#349,#183,.T.);
#443=EDGE_CURVE('',#349,#350,#298,.T.);
#444=EDGE_CURVE('',#350,#351,#240,.T.);
#445=EDGE_CURVE('',#351,#352,#299,.T.);
#446=EDGE_CURVE('',#352,#353,#184,.T.);
#447=EDGE_CURVE('',#353,#354,#300,.T.);
#448=EDGE_CURVE('',#354,#355,#301,.T.);
#449=EDGE_CURVE('',#355,#356,#185,.T.);
#450=EDGE_CURVE('',#356,#357,#302,.T.);
#451=EDGE_CURVE('',#357,#358,#241,.T.);
#452=EDGE_CURVE('',#358,#359,#303,.T.);
#453=EDGE_CURVE('',#359,#360,#186,.T.);
#454=EDGE_CURVE('',#360,#361,#304,.T.);
#455=EDGE_CURVE('',#361,#362,#305,.T.);
#456=EDGE_CURVE('',#362,#363,#187,.T.);
#457=EDGE_CURVE('',#363,#364,#306,.T.);
#458=EDGE_CURVE('',#364,#365,#242,.T.);
#459=EDGE_CURVE('',#365,#366,#307,.T.);
#460=EDGE_CURVE('',#366,#367,#188,.T.);
#461=EDGE_CURVE('',#367,#368,#308,.T.);
#462=EDGE_CURVE('',#368,#369,#309,.T.);
#463=EDGE_CURVE('',#369,#370,#189,.T.);
#464=EDGE_CURVE('',#370,#371,#310,.T.);
#465=EDGE_CURVE('',#371,#335,#243,.T.);
#466=EDGE_CURVE('',#372,#372,#244,.T.);
#467=EDGE_CURVE('',#373,#374,#311,.T.);
#468=EDGE_CURVE('',#373,#375,#245,.T.);
#469=EDGE_CURVE('',#375,#376,#190,.T.);
#470=EDGE_CURVE('',#376,#376,#246,.T.);
#471=EDGE_CURVE('',#375,#374,#247,.T.);
#472=EDGE_CURVE('',#377,#377,#248,.T.);
#473=EDGE_CURVE('',#377,#340,#191,.T.);
#474=EDGE_CURVE('',#339,#341,#249,.T.);
#475=EDGE_CURVE('',#378,#342,#250,.T.);
#476=EDGE_CURVE('',#343,#378,#32,.T.);
#477=EDGE_CURVE('',#374,#373,#312,.T.);
#478=EDGE_CURVE('',#338,#379,#251,.T.);
#479=EDGE_CURVE('',#378,#379,#313,.T.);
#480=EDGE_CURVE('',#379,#337,#33,.T.);
#481=EDGE_CURVE('',#380,#381,#314,.T.);
#482=EDGE_CURVE('',#380,#382,#252,.T.);
#483=EDGE_CURVE('',#382,#383,#192,.T.);
#484=EDGE_CURVE('',#383,#383,#253,.T.);
#485=EDGE_CURVE('',#382,#381,#254,.T.);
#486=EDGE_CURVE('',#384,#384,#255,.T.);
#487=EDGE_CURVE('',#384,#354,#193,.T.);
#488=EDGE_CURVE('',#353,#355,#256,.T.);
#489=EDGE_CURVE('',#352,#356,#257,.T.);
#490=EDGE_CURVE('',#381,#380,#315,.T.);
#491=EDGE_CURVE('',#385,#351,#34,.T.);
#492=EDGE_CURVE('',#357,#385,#35,.T.);
#493=EDGE_CURVE('',#386,#387,#316,.T.);
#494=EDGE_CURVE('',#386,#388,#258,.T.);
#495=EDGE_CURVE('',#388,#389,#194,.T.);
#496=EDGE_CURVE('',#389,#389,#259,.T.);
#497=EDGE_CURVE('',#388,#387,#260,.T.);
#498=EDGE_CURVE('',#390,#390,#261,.T.);
#499=EDGE_CURVE('',#390,#347,#195,.T.);
#500=EDGE_CURVE('',#346,#348,#262,.T.);
#501=EDGE_CURVE('',#391,#349,#263,.T.);
#502=EDGE_CURVE('',#350,#391,#36,.T.);
#503=EDGE_CURVE('',#387,#386,#317,.T.);
#504=EDGE_CURVE('',#345,#392,#264,.T.);
#505=EDGE_CURVE('',#391,#392,#318,.T.);
#506=EDGE_CURVE('',#392,#344,#37,.T.);
#507=EDGE_CURVE('',#393,#393,#265,.T.);
#508=EDGE_CURVE('',#393,#394,#196,.T.);
#509=EDGE_CURVE('',#394,#394,#266,.T.);
#510=EDGE_CURVE('',#395,#395,#267,.T.);
#511=EDGE_CURVE('',#396,#396,#268,.T.);
#512=EDGE_CURVE('',#395,#372,#197,.T.);
#513=EDGE_CURVE('',#397,#397,#269,.T.);
#514=EDGE_CURVE('',#397,#396,#198,.T.);
#515=EDGE_CURVE('',#398,#399,#319,.T.);
#516=EDGE_CURVE('',#398,#400,#270,.T.);
#517=EDGE_CURVE('',#400,#401,#199,.T.);
#518=EDGE_CURVE('',#401,#401,#271,.T.);
#519=EDGE_CURVE('',#400,#399,#272,.T.);
#520=EDGE_CURVE('',#402,#402,#273,.T.);
#521=EDGE_CURVE('',#402,#368,#200,.T.);
#522=EDGE_CURVE('',#367,#369,#274,.T.);
#523=EDGE_CURVE('',#403,#370,#275,.T.);
#524=EDGE_CURVE('',#371,#403,#38,.T.);
#525=EDGE_CURVE('',#399,#398,#320,.T.);
#526=EDGE_CURVE('',#366,#404,#276,.T.);
#527=EDGE_CURVE('',#403,#404,#321,.T.);
#528=EDGE_CURVE('',#404,#365,#39,.T.);
#529=EDGE_CURVE('',#405,#406,#322,.T.);
#530=EDGE_CURVE('',#405,#407,#277,.T.);
#531=EDGE_CURVE('',#407,#408,#201,.T.);
#532=EDGE_CURVE('',#408,#408,#278,.T.);
#533=EDGE_CURVE('',#407,#406,#279,.T.);
#534=EDGE_CURVE('',#364,#409,#40,.T.);
#535=EDGE_CURVE('',#409,#363,#280,.T.);
#536=EDGE_CURVE('',#410,#358,#41,.T.);
#537=EDGE_CURVE('',#359,#410,#281,.T.);
#538=EDGE_CURVE('',#411,#411,#282,.T.);
#539=EDGE_CURVE('',#411,#361,#202,.T.);
#540=EDGE_CURVE('',#360,#362,#283,.T.);
#541=EDGE_CURVE('',#406,#405,#323,.T.);
#542=EDGE_CURVE('',#409,#410,#324,.T.);
#543=EDGE_CURVE('',#412,#412,#284,.T.);
#544=EDGE_CURVE('',#385,#412,#203,.T.);
#545=ORIENTED_EDGE('',*,*,#413,.F.);
#546=ORIENTED_EDGE('',*,*,#414,.T.);
#547=ORIENTED_EDGE('',*,*,#415,.T.);
#548=ORIENTED_EDGE('',*,*,#416,.T.);
#549=ORIENTED_EDGE('',*,*,#415,.F.);
#550=ORIENTED_EDGE('',*,*,#417,.T.);
#551=ORIENTED_EDGE('',*,*,#418,.F.);
#552=ORIENTED_EDGE('',*,*,#419,.T.);
#553=ORIENTED_EDGE('',*,*,#420,.F.);
#554=ORIENTED_EDGE('',*,*,#421,.T.);
#555=ORIENTED_EDGE('',*,*,#422,.F.);
#556=ORIENTED_EDGE('',*,*,#419,.F.);
#557=ORIENTED_EDGE('',*,*,#423,.F.);
#558=ORIENTED_EDGE('',*,*,#424,.T.);
#559=ORIENTED_EDGE('',*,*,#425,.F.);
#560=ORIENTED_EDGE('',*,*,#421,.F.);
#561=ORIENTED_EDGE('',*,*,#426,.F.);
#562=ORIENTED_EDGE('',*,*,#417,.F.);
#563=ORIENTED_EDGE('',*,*,#414,.F.);
#564=ORIENTED_EDGE('',*,*,#427,.F.);
#565=ORIENTED_EDGE('',*,*,#428,.F.);
#566=ORIENTED_EDGE('',*,*,#429,.F.);
#567=ORIENTED_EDGE('',*,*,#424,.F.);
#568=ORIENTED_EDGE('',*,*,#418,.T.);
#569=ORIENTED_EDGE('',*,*,#416,.F.);
#570=ORIENTED_EDGE('',*,*,#427,.T.);
#571=ORIENTED_EDGE('',*,*,#423,.T.);
#572=ORIENTED_EDGE('',*,*,#420,.T.);
#573=ORIENTED_EDGE('',*,*,#422,.T.);
#574=ORIENTED_EDGE('',*,*,#425,.T.);
#575=ORIENTED_EDGE('',*,*,#429,.T.);
#576=ORIENTED_EDGE('',*,*,#430,.T.);
#577=ORIENTED_EDGE('',*,*,#431,.T.);
#578=ORIENTED_EDGE('',*,*,#432,.T.);
#579=ORIENTED_EDGE('',*,*,#433,.T.);
#580=ORIENTED_EDGE('',*,*,#434,.T.);
#581=ORIENTED_EDGE('',*,*,#435,.T.);
#582=ORIENTED_EDGE('',*,*,#436,.T.);
#583=ORIENTED_EDGE('',*,*,#437,.T.);
#584=ORIENTED_EDGE('',*,*,#438,.T.);
#585=ORIENTED_EDGE('',*,*,#439,.T.);
#586=ORIENTED_EDGE('',*,*,#440,.T.);
#587=ORIENTED_EDGE('',*,*,#441,.T.);
#588=ORIENTED_EDGE('',*,*,#442,.T.);
#589=ORIENTED_EDGE('',*,*,#443,.T.);
#590=ORIENTED_EDGE('',*,*,#444,.T.);
#591=ORIENTED_EDGE('',*,*,#445,.T.);
#592=ORIENTED_EDGE('',*,*,#446,.T.);
#593=ORIENTED_EDGE('',*,*,#447,.T.);
#594=ORIENTED_EDGE('',*,*,#448,.T.);
#595=ORIENTED_EDGE('',*,*,#449,.T.);
#596=ORIENTED_EDGE('',*,*,#450,.T.);
#597=ORIENTED_EDGE('',*,*,#451,.T.);
#598=ORIENTED_EDGE('',*,*,#452,.T.);
#599=ORIENTED_EDGE('',*,*,#453,.T.);
#600=ORIENTED_EDGE('',*,*,#454,.T.);
#601=ORIENTED_EDGE('',*,*,#455,.T.);
#602=ORIENTED_EDGE('',*,*,#456,.T.);
#603=ORIENTED_EDGE('',*,*,#457,.T.);
#604=ORIENTED_EDGE('',*,*,#458,.T.);
#605=ORIENTED_EDGE('',*,*,#459,.T.);
#606=ORIENTED_EDGE('',*,*,#460,.T.);
#607=ORIENTED_EDGE('',*,*,#461,.T.);
#608=ORIENTED_EDGE('',*,*,#462,.T.);
#609=ORIENTED_EDGE('',*,*,#463,.T.);
#610=ORIENTED_EDGE('',*,*,#464,.T.);
#611=ORIENTED_EDGE('',*,*,#465,.T.);
#612=ORIENTED_EDGE('',*,*,#466,.T.);
#613=ORIENTED_EDGE('',*,*,#467,.F.);
#614=ORIENTED_EDGE('',*,*,#468,.T.);
#615=ORIENTED_EDGE('',*,*,#469,.T.);
#616=ORIENTED_EDGE('',*,*,#470,.T.);
#617=ORIENTED_EDGE('',*,*,#469,.F.);
#618=ORIENTED_EDGE('',*,*,#471,.T.);
#619=ORIENTED_EDGE('',*,*,#472,.F.);
#620=ORIENTED_EDGE('',*,*,#473,.T.);
#621=ORIENTED_EDGE('',*,*,#433,.F.);
#622=ORIENTED_EDGE('',*,*,#474,.T.);
#623=ORIENTED_EDGE('',*,*,#434,.F.);
#624=ORIENTED_EDGE('',*,*,#473,.F.);
#625=ORIENTED_EDGE('',*,*,#436,.F.);
#626=ORIENTED_EDGE('',*,*,#475,.F.);
#627=ORIENTED_EDGE('',*,*,#476,.F.);
#628=ORIENTED_EDGE('',*,*,#477,.F.);
#629=ORIENTED_EDGE('',*,*,#471,.F.);
#630=ORIENTED_EDGE('',*,*,#468,.F.);
#631=ORIENTED_EDGE('',*,*,#432,.F.);
#632=ORIENTED_EDGE('',*,*,#478,.T.);
#633=ORIENTED_EDGE('',*,*,#479,.F.);
#634=ORIENTED_EDGE('',*,*,#475,.T.);
#635=ORIENTED_EDGE('',*,*,#435,.F.);
#636=ORIENTED_EDGE('',*,*,#474,.F.);
#637=ORIENTED_EDGE('',*,*,#431,.F.);
#638=ORIENTED_EDGE('',*,*,#480,.F.);
#639=ORIENTED_EDGE('',*,*,#478,.F.);
#640=ORIENTED_EDGE('',*,*,#472,.T.);
#641=ORIENTED_EDGE('',*,*,#470,.F.);
#642=ORIENTED_EDGE('',*,*,#481,.F.);
#643=ORIENTED_EDGE('',*,*,#482,.T.);
#644=ORIENTED_EDGE('',*,*,#483,.T.);
#645=ORIENTED_EDGE('',*,*,#484,.T.);
#646=ORIENTED_EDGE('',*,*,#483,.F.);
#647=ORIENTED_EDGE('',*,*,#485,.T.);
#648=ORIENTED_EDGE('',*,*,#486,.F.);
#649=ORIENTED_EDGE('',*,*,#487,.T.);
#650=ORIENTED_EDGE('',*,*,#447,.F.);
#651=ORIENTED_EDGE('',*,*,#488,.T.);
#652=ORIENTED_EDGE('',*,*,#448,.F.);
#653=ORIENTED_EDGE('',*,*,#487,.F.);
#654=ORIENTED_EDGE('',*,*,#446,.F.);
#655=ORIENTED_EDGE('',*,*,#489,.T.);
#656=ORIENTED_EDGE('',*,*,#449,.F.);
#657=ORIENTED_EDGE('',*,*,#488,.F.);
#658=ORIENTED_EDGE('',*,*,#490,.F.);
#659=ORIENTED_EDGE('',*,*,#485,.F.);
#660=ORIENTED_EDGE('',*,*,#482,.F.);
#661=ORIENTED_EDGE('',*,*,#445,.F.);
#662=ORIENTED_EDGE('',*,*,#491,.F.);
#663=ORIENTED_EDGE('',*,*,#492,.F.);
#664=ORIENTED_EDGE('',*,*,#450,.F.);
#665=ORIENTED_EDGE('',*,*,#489,.F.);
#666=ORIENTED_EDGE('',*,*,#486,.T.);
#667=ORIENTED_EDGE('',*,*,#484,.F.);
#668=ORIENTED_EDGE('',*,*,#493,.F.);
#669=ORIENTED_EDGE('',*,*,#494,.T.);
#670=ORIENTED_EDGE('',*,*,#495,.T.);
#671=ORIENTED_EDGE('',*,*,#496,.T.);
#672=ORIENTED_EDGE('',*,*,#495,.F.);
#673=ORIENTED_EDGE('',*,*,#497,.T.);
#674=ORIENTED_EDGE('',*,*,#498,.F.);
#675=ORIENTED_EDGE('',*,*,#499,.T.);
#676=ORIENTED_EDGE('',*,*,#440,.F.);
#677=ORIENTED_EDGE('',*,*,#500,.T.);
#678=ORIENTED_EDGE('',*,*,#441,.F.);
#679=ORIENTED_EDGE('',*,*,#499,.F.);
#680=ORIENTED_EDGE('',*,*,#443,.F.);
#681=ORIENTED_EDGE('',*,*,#501,.F.);
#682=ORIENTED_EDGE('',*,*,#502,.F.);
#683=ORIENTED_EDGE('',*,*,#503,.F.);
#684=ORIENTED_EDGE('',*,*,#497,.F.);
#685=ORIENTED_EDGE('',*,*,#494,.F.);
#686=ORIENTED_EDGE('',*,*,#439,.F.);
#687=ORIENTED_EDGE('',*,*,#504,.T.);
#688=ORIENTED_EDGE('',*,*,#505,.F.);
#689=ORIENTED_EDGE('',*,*,#501,.T.);
#690=ORIENTED_EDGE('',*,*,#442,.F.);
#691=ORIENTED_EDGE('',*,*,#500,.F.);
#692=ORIENTED_EDGE('',*,*,#438,.F.);
#693=ORIENTED_EDGE('',*,*,#506,.F.);
#694=ORIENTED_EDGE('',*,*,#504,.F.);
#695=ORIENTED_EDGE('',*,*,#498,.T.);
#696=ORIENTED_EDGE('',*,*,#496,.F.);
#697=ORIENTED_EDGE('',*,*,#507,.F.);
#698=ORIENTED_EDGE('',*,*,#508,.T.);
#699=ORIENTED_EDGE('',*,*,#509,.T.);
#700=ORIENTED_EDGE('',*,*,#508,.F.);
#701=ORIENTED_EDGE('',*,*,#510,.T.);
#702=ORIENTED_EDGE('',*,*,#511,.F.);
#703=ORIENTED_EDGE('',*,*,#510,.F.);
#704=ORIENTED_EDGE('',*,*,#512,.T.);
#705=ORIENTED_EDGE('',*,*,#466,.F.);
#706=ORIENTED_EDGE('',*,*,#512,.F.);
#707=ORIENTED_EDGE('',*,*,#513,.T.);
#708=ORIENTED_EDGE('',*,*,#509,.F.);
#709=ORIENTED_EDGE('',*,*,#513,.F.);
#710=ORIENTED_EDGE('',*,*,#514,.T.);
#711=ORIENTED_EDGE('',*,*,#511,.T.);
#712=ORIENTED_EDGE('',*,*,#514,.F.);
#713=ORIENTED_EDGE('',*,*,#515,.F.);
#714=ORIENTED_EDGE('',*,*,#516,.T.);
#715=ORIENTED_EDGE('',*,*,#517,.T.);
#716=ORIENTED_EDGE('',*,*,#518,.T.);
#717=ORIENTED_EDGE('',*,*,#517,.F.);
#718=ORIENTED_EDGE('',*,*,#519,.T.);
#719=ORIENTED_EDGE('',*,*,#520,.F.);
#720=ORIENTED_EDGE('',*,*,#521,.T.);
#721=ORIENTED_EDGE('',*,*,#461,.F.);
#722=ORIENTED_EDGE('',*,*,#522,.T.);
#723=ORIENTED_EDGE('',*,*,#462,.F.);
#724=ORIENTED_EDGE('',*,*,#521,.F.);
#725=ORIENTED_EDGE('',*,*,#464,.F.);
#726=ORIENTED_EDGE('',*,*,#523,.F.);
#727=ORIENTED_EDGE('',*,*,#524,.F.);
#728=ORIENTED_EDGE('',*,*,#525,.F.);
#729=ORIENTED_EDGE('',*,*,#519,.F.);
#730=ORIENTED_EDGE('',*,*,#516,.F.);
#731=ORIENTED_EDGE('',*,*,#460,.F.);
#732=ORIENTED_EDGE('',*,*,#526,.T.);
#733=ORIENTED_EDGE('',*,*,#527,.F.);
#734=ORIENTED_EDGE('',*,*,#523,.T.);
#735=ORIENTED_EDGE('',*,*,#463,.F.);
#736=ORIENTED_EDGE('',*,*,#522,.F.);
#737=ORIENTED_EDGE('',*,*,#459,.F.);
#738=ORIENTED_EDGE('',*,*,#528,.F.);
#739=ORIENTED_EDGE('',*,*,#526,.F.);
#740=ORIENTED_EDGE('',*,*,#520,.T.);
#741=ORIENTED_EDGE('',*,*,#518,.F.);
#742=ORIENTED_EDGE('',*,*,#529,.F.);
#743=ORIENTED_EDGE('',*,*,#530,.T.);
#744=ORIENTED_EDGE('',*,*,#531,.T.);
#745=ORIENTED_EDGE('',*,*,#532,.T.);
#746=ORIENTED_EDGE('',*,*,#531,.F.);
#747=ORIENTED_EDGE('',*,*,#533,.T.);
#748=ORIENTED_EDGE('',*,*,#534,.F.);
#749=ORIENTED_EDGE('',*,*,#457,.F.);
#750=ORIENTED_EDGE('',*,*,#535,.F.);
#751=ORIENTED_EDGE('',*,*,#536,.F.);
#752=ORIENTED_EDGE('',*,*,#537,.F.);
#753=ORIENTED_EDGE('',*,*,#452,.F.);
#754=ORIENTED_EDGE('',*,*,#538,.F.);
#755=ORIENTED_EDGE('',*,*,#539,.T.);
#756=ORIENTED_EDGE('',*,*,#454,.F.);
#757=ORIENTED_EDGE('',*,*,#540,.T.);
#758=ORIENTED_EDGE('',*,*,#455,.F.);
#759=ORIENTED_EDGE('',*,*,#539,.F.);
#760=ORIENTED_EDGE('',*,*,#541,.F.);
#761=ORIENTED_EDGE('',*,*,#533,.F.);
#762=ORIENTED_EDGE('',*,*,#530,.F.);
#763=ORIENTED_EDGE('',*,*,#542,.F.);
#764=ORIENTED_EDGE('',*,*,#535,.T.);
#765=ORIENTED_EDGE('',*,*,#456,.F.);
#766=ORIENTED_EDGE('',*,*,#540,.F.);
#767=ORIENTED_EDGE('',*,*,#453,.F.);
#768=ORIENTED_EDGE('',*,*,#537,.T.);
#769=ORIENTED_EDGE('',*,*,#538,.T.);
#770=ORIENTED_EDGE('',*,*,#532,.F.);
#771=ORIENTED_EDGE('',*,*,#543,.F.);
#772=ORIENTED_EDGE('',*,*,#426,.T.);
#773=ORIENTED_EDGE('',*,*,#413,.T.);
#774=ORIENTED_EDGE('',*,*,#477,.T.);
#775=ORIENTED_EDGE('',*,*,#467,.T.);
#776=ORIENTED_EDGE('',*,*,#490,.T.);
#777=ORIENTED_EDGE('',*,*,#481,.T.);
#778=ORIENTED_EDGE('',*,*,#503,.T.);
#779=ORIENTED_EDGE('',*,*,#493,.T.);
#780=ORIENTED_EDGE('',*,*,#507,.T.);
#781=ORIENTED_EDGE('',*,*,#525,.T.);
#782=ORIENTED_EDGE('',*,*,#515,.T.);
#783=ORIENTED_EDGE('',*,*,#541,.T.);
#784=ORIENTED_EDGE('',*,*,#529,.T.);
#785=ORIENTED_EDGE('',*,*,#428,.T.);
#786=ORIENTED_EDGE('',*,*,#465,.F.);
#787=ORIENTED_EDGE('',*,*,#524,.T.);
#788=ORIENTED_EDGE('',*,*,#527,.T.);
#789=ORIENTED_EDGE('',*,*,#528,.T.);
#790=ORIENTED_EDGE('',*,*,#458,.F.);
#791=ORIENTED_EDGE('',*,*,#534,.T.);
#792=ORIENTED_EDGE('',*,*,#542,.T.);
#793=ORIENTED_EDGE('',*,*,#536,.T.);
#794=ORIENTED_EDGE('',*,*,#451,.F.);
#795=ORIENTED_EDGE('',*,*,#492,.T.);
#796=ORIENTED_EDGE('',*,*,#544,.T.);
#797=ORIENTED_EDGE('',*,*,#543,.T.);
#798=ORIENTED_EDGE('',*,*,#544,.F.);
#799=ORIENTED_EDGE('',*,*,#491,.T.);
#800=ORIENTED_EDGE('',*,*,#444,.F.);
#801=ORIENTED_EDGE('',*,*,#502,.T.);
#802=ORIENTED_EDGE('',*,*,#505,.T.);
#803=ORIENTED_EDGE('',*,*,#506,.T.);
#804=ORIENTED_EDGE('',*,*,#437,.F.);
#805=ORIENTED_EDGE('',*,*,#476,.T.);
#806=ORIENTED_EDGE('',*,*,#479,.T.);
#807=ORIENTED_EDGE('',*,*,#480,.T.);
#808=ORIENTED_EDGE('',*,*,#430,.F.);
#809=CYLINDRICAL_SURFACE('',#897,2.45);
#810=CYLINDRICAL_SURFACE('',#902,2.925);
#811=CYLINDRICAL_SURFACE('',#911,3.95);
#812=CYLINDRICAL_SURFACE('',#943,2.45);
#813=CYLINDRICAL_SURFACE('',#948,2.925);
#814=CYLINDRICAL_SURFACE('',#951,3.95);
#815=CYLINDRICAL_SURFACE('',#958,3.95);
#816=CYLINDRICAL_SURFACE('',#960,2.45);
#817=CYLINDRICAL_SURFACE('',#965,2.925);
#818=CYLINDRICAL_SURFACE('',#972,3.95);
#819=CYLINDRICAL_SURFACE('',#974,2.45);
#820=CYLINDRICAL_SURFACE('',#979,2.925);
#821=CYLINDRICAL_SURFACE('',#982,3.95);
#822=CYLINDRICAL_SURFACE('',#989,3.95);
#823=CYLINDRICAL_SURFACE('',#991,2.45);
#824=CYLINDRICAL_SURFACE('',#997,3.95);
#825=CYLINDRICAL_SURFACE('',#1000,2.925);
#826=CYLINDRICAL_SURFACE('',#1001,2.45);
#827=CYLINDRICAL_SURFACE('',#1006,2.925);
#828=CYLINDRICAL_SURFACE('',#1009,3.95);
#829=CYLINDRICAL_SURFACE('',#1016,3.95);
#830=CYLINDRICAL_SURFACE('',#1018,2.45);
#831=CYLINDRICAL_SURFACE('',#1023,3.95);
#832=CYLINDRICAL_SURFACE('',#1025,3.95);
#833=CYLINDRICAL_SURFACE('',#1027,2.925);
#834=CYLINDRICAL_SURFACE('',#1037,18.5);
#835=ADVANCED_FACE('',(#64),#809,.F.);
#836=ADVANCED_FACE('',(#65),#810,.F.);
#837=ADVANCED_FACE('',(#66),#48,.T.);
#838=ADVANCED_FACE('',(#67),#42,.F.);
#839=ADVANCED_FACE('',(#68),#811,.F.);
#840=ADVANCED_FACE('',(#69,#15),#49,.T.);
#841=ADVANCED_FACE('',(#70,#16),#50,.F.);
#842=ADVANCED_FACE('',(#71),#812,.F.);
#843=ADVANCED_FACE('',(#72),#813,.F.);
#844=ADVANCED_FACE('',(#73),#814,.F.);
#845=ADVANCED_FACE('',(#74),#43,.F.);
#846=ADVANCED_FACE('',(#75),#51,.T.);
#847=ADVANCED_FACE('',(#76),#815,.F.);
#848=ADVANCED_FACE('',(#77,#17),#52,.T.);
#849=ADVANCED_FACE('',(#78),#816,.F.);
#850=ADVANCED_FACE('',(#79),#817,.F.);
#851=ADVANCED_FACE('',(#80),#53,.T.);
#852=ADVANCED_FACE('',(#81),#44,.F.);
#853=ADVANCED_FACE('',(#82),#818,.F.);
#854=ADVANCED_FACE('',(#83,#18),#54,.T.);
#855=ADVANCED_FACE('',(#84),#819,.F.);
#856=ADVANCED_FACE('',(#85),#820,.F.);
#857=ADVANCED_FACE('',(#86),#821,.F.);
#858=ADVANCED_FACE('',(#87),#45,.F.);
#859=ADVANCED_FACE('',(#88),#55,.T.);
#860=ADVANCED_FACE('',(#89),#822,.F.);
#861=ADVANCED_FACE('',(#90,#19),#56,.T.);
#862=ADVANCED_FACE('',(#91),#823,.F.);
#863=ADVANCED_FACE('',(#92,#20),#57,.T.);
#864=ADVANCED_FACE('',(#93),#824,.F.);
#865=ADVANCED_FACE('',(#94,#21),#58,.T.);
#866=ADVANCED_FACE('',(#95),#825,.F.);
#867=ADVANCED_FACE('',(#96),#826,.F.);
#868=ADVANCED_FACE('',(#97),#827,.F.);
#869=ADVANCED_FACE('',(#98),#828,.F.);
#870=ADVANCED_FACE('',(#99),#46,.F.);
#871=ADVANCED_FACE('',(#100),#59,.T.);
#872=ADVANCED_FACE('',(#101),#829,.F.);
#873=ADVANCED_FACE('',(#102,#22),#60,.T.);
#874=ADVANCED_FACE('',(#103),#830,.F.);
#875=ADVANCED_FACE('',(#104),#831,.F.);
#876=ADVANCED_FACE('',(#105),#832,.F.);
#877=ADVANCED_FACE('',(#106),#833,.F.);
#878=ADVANCED_FACE('',(#107),#47,.F.);
#879=ADVANCED_FACE('',(#108),#61,.T.);
#880=ADVANCED_FACE('',(#109,#23),#62,.T.);
#881=ADVANCED_FACE('',(#110,#24,#25,#26,#27,#28,#29,#30),#63,.T.);
#882=ADVANCED_FACE('',(#111),#834,.T.);
#883=CLOSED_SHELL('',(#835,#836,#837,#838,#839,#840,#841,#842,#843,#844,
#845,#846,#847,#848,#849,#850,#851,#852,#853,#854,#855,#856,#857,#858,#859,
#860,#861,#862,#863,#864,#865,#866,#867,#868,#869,#870,#871,#872,#873,#874,
#875,#876,#877,#878,#879,#880,#881,#882));
#884=DERIVED_UNIT_ELEMENT(#886,1.);
#885=DERIVED_UNIT_ELEMENT(#1679,-3.);
#886=(
MASS_UNIT()
NAMED_UNIT(*)
SI_UNIT(.KILO.,.GRAM.)
);
#887=DERIVED_UNIT((#884,#885));
#888=MEASURE_REPRESENTATION_ITEM('density measure',
POSITIVE_RATIO_MEASURE(7850.),#887);
#889=PROPERTY_DEFINITION_REPRESENTATION(#894,#891);
#890=PROPERTY_DEFINITION_REPRESENTATION(#895,#892);
#891=REPRESENTATION('material name',(#893),#1676);
#892=REPRESENTATION('density',(#888),#1676);
#893=DESCRIPTIVE_REPRESENTATION_ITEM('Steel','Steel');
#894=PROPERTY_DEFINITION('material property','material name',#1686);
#895=PROPERTY_DEFINITION('material property','density of part',#1686);
#896=AXIS2_PLACEMENT_3D('',#1350,#1038,#1039);
#897=AXIS2_PLACEMENT_3D('',#1351,#1040,#1041);
#898=AXIS2_PLACEMENT_3D('',#1354,#1042,#1043);
#899=AXIS2_PLACEMENT_3D('',#1356,#1044,#1045);
#900=AXIS2_PLACEMENT_3D('',#1359,#1047,#1048);
#901=AXIS2_PLACEMENT_3D('',#1360,#1049,#1050);
#902=AXIS2_PLACEMENT_3D('',#1361,#1051,#1052);
#903=AXIS2_PLACEMENT_3D('',#1363,#1053,#1054);
#904=AXIS2_PLACEMENT_3D('',#1367,#1056,#1057);
#905=AXIS2_PLACEMENT_3D('',#1369,#1058,#1059);
#906=AXIS2_PLACEMENT_3D('',#1370,#1060,#1061);
#907=AXIS2_PLACEMENT_3D('',#1371,#1062,#1063);
#908=AXIS2_PLACEMENT_3D('',#1375,#1065,#1066);
#909=AXIS2_PLACEMENT_3D('',#1377,#1068,#1069);
#910=AXIS2_PLACEMENT_3D('',#1378,#1070,#1071);
#911=AXIS2_PLACEMENT_3D('',#1379,#1072,#1073);
#912=AXIS2_PLACEMENT_3D('',#1381,#1074,#1075);
#913=AXIS2_PLACEMENT_3D('',#1393,#1076,#1077);
#914=AXIS2_PLACEMENT_3D('',#1394,#1078,#1079);
#915=AXIS2_PLACEMENT_3D('',#1395,#1080,#1081);
#916=AXIS2_PLACEMENT_3D('',#1397,#1082,#1083);
#917=AXIS2_PLACEMENT_3D('',#1399,#1084,#1085);
#918=AXIS2_PLACEMENT_3D('',#1403,#1087,#1088);
#919=AXIS2_PLACEMENT_3D('',#1405,#1089,#1090);
#920=AXIS2_PLACEMENT_3D('',#1409,#1092,#1093);
#921=AXIS2_PLACEMENT_3D('',#1411,#1094,#1095);
#922=AXIS2_PLACEMENT_3D('',#1413,#1096,#1097);
#923=AXIS2_PLACEMENT_3D('',#1417,#1099,#1100);
#924=AXIS2_PLACEMENT_3D('',#1419,#1101,#1102);
#925=AXIS2_PLACEMENT_3D('',#1423,#1104,#1105);
#926=AXIS2_PLACEMENT_3D('',#1425,#1106,#1107);
#927=AXIS2_PLACEMENT_3D('',#1427,#1108,#1109);
#928=AXIS2_PLACEMENT_3D('',#1431,#1111,#1112);
#929=AXIS2_PLACEMENT_3D('',#1433,#1113,#1114);
#930=AXIS2_PLACEMENT_3D('',#1437,#1116,#1117);
#931=AXIS2_PLACEMENT_3D('',#1439,#1118,#1119);
#932=AXIS2_PLACEMENT_3D('',#1441,#1120,#1121);
#933=AXIS2_PLACEMENT_3D('',#1445,#1123,#1124);
#934=AXIS2_PLACEMENT_3D('',#1447,#1125,#1126);
#935=AXIS2_PLACEMENT_3D('',#1451,#1128,#1129);
#936=AXIS2_PLACEMENT_3D('',#1453,#1130,#1131);
#937=AXIS2_PLACEMENT_3D('',#1455,#1132,#1133);
#938=AXIS2_PLACEMENT_3D('',#1459,#1135,#1136);
#939=AXIS2_PLACEMENT_3D('',#1461,#1137,#1138);
#940=AXIS2_PLACEMENT_3D('',#1465,#1140,#1141);
#941=AXIS2_PLACEMENT_3D('',#1466,#1142,#1143);
#942=AXIS2_PLACEMENT_3D('',#1468,#1144,#1145);
#943=AXIS2_PLACEMENT_3D('',#1469,#1146,#1147);
#944=AXIS2_PLACEMENT_3D('',#1472,#1148,#1149);
#945=AXIS2_PLACEMENT_3D('',#1474,#1150,#1151);
#946=AXIS2_PLACEMENT_3D('',#1477,#1153,#1154);
#947=AXIS2_PLACEMENT_3D('',#1478,#1155,#1156);
#948=AXIS2_PLACEMENT_3D('',#1479,#1157,#1158);
#949=AXIS2_PLACEMENT_3D('',#1481,#1159,#1160);
#950=AXIS2_PLACEMENT_3D('',#1483,#1162,#1163);
#951=AXIS2_PLACEMENT_3D('',#1484,#1164,#1165);
#952=AXIS2_PLACEMENT_3D('',#1486,#1166,#1167);
#953=AXIS2_PLACEMENT_3D('',#1493,#1168,#1169);
#954=AXIS2_PLACEMENT_3D('',#1494,#1170,#1171);
#955=AXIS2_PLACEMENT_3D('',#1495,#1172,#1173);
#956=AXIS2_PLACEMENT_3D('',#1497,#1174,#1175);
#957=AXIS2_PLACEMENT_3D('',#1498,#1176,#1177);
#958=AXIS2_PLACEMENT_3D('',#1499,#1178,#1179);
#959=AXIS2_PLACEMENT_3D('',#1506,#1180,#1181);
#960=AXIS2_PLACEMENT_3D('',#1507,#1182,#1183);
#961=AXIS2_PLACEMENT_3D('',#1510,#1184,#1185);
#962=AXIS2_PLACEMENT_3D('',#1512,#1186,#1187);
#963=AXIS2_PLACEMENT_3D('',#1515,#1189,#1190);
#964=AXIS2_PLACEMENT_3D('',#1516,#1191,#1192);
#965=AXIS2_PLACEMENT_3D('',#1517,#1193,#1194);
#966=AXIS2_PLACEMENT_3D('',#1519,#1195,#1196);
#967=AXIS2_PLACEMENT_3D('',#1521,#1198,#1199);
#968=AXIS2_PLACEMENT_3D('',#1522,#1200,#1201);
#969=AXIS2_PLACEMENT_3D('',#1523,#1202,#1203);
#970=AXIS2_PLACEMENT_3D('',#1524,#1204,#1205);
#971=AXIS2_PLACEMENT_3D('',#1525,#1206,#1207);
#972=AXIS2_PLACEMENT_3D('',#1526,#1208,#1209);
#973=AXIS2_PLACEMENT_3D('',#1540,#1210,#1211);
#974=AXIS2_PLACEMENT_3D('',#1541,#1212,#1213);
#975=AXIS2_PLACEMENT_3D('',#1544,#1214,#1215);
#976=AXIS2_PLACEMENT_3D('',#1546,#1216,#1217);
#977=AXIS2_PLACEMENT_3D('',#1549,#1219,#1220);
#978=AXIS2_PLACEMENT_3D('',#1550,#1221,#1222);
#979=AXIS2_PLACEMENT_3D('',#1551,#1223,#1224);
#980=AXIS2_PLACEMENT_3D('',#1553,#1225,#1226);
#981=AXIS2_PLACEMENT_3D('',#1555,#1228,#1229);
#982=AXIS2_PLACEMENT_3D('',#1556,#1230,#1231);
#983=AXIS2_PLACEMENT_3D('',#1558,#1232,#1233);
#984=AXIS2_PLACEMENT_3D('',#1565,#1234,#1235);
#985=AXIS2_PLACEMENT_3D('',#1566,#1236,#1237);
#986=AXIS2_PLACEMENT_3D('',#1567,#1238,#1239);
#987=AXIS2_PLACEMENT_3D('',#1569,#1240,#1241);
#988=AXIS2_PLACEMENT_3D('',#1570,#1242,#1243);
#989=AXIS2_PLACEMENT_3D('',#1571,#1244,#1245);
#990=AXIS2_PLACEMENT_3D('',#1578,#1246,#1247);
#991=AXIS2_PLACEMENT_3D('',#1579,#1248,#1249);
#992=AXIS2_PLACEMENT_3D('',#1581,#1250,#1251);
#993=AXIS2_PLACEMENT_3D('',#1584,#1253,#1254);
#994=AXIS2_PLACEMENT_3D('',#1585,#1255,#1256);
#995=AXIS2_PLACEMENT_3D('',#1587,#1257,#1258);
#996=AXIS2_PLACEMENT_3D('',#1589,#1259,#1260);
#997=AXIS2_PLACEMENT_3D('',#1590,#1261,#1262);
#998=AXIS2_PLACEMENT_3D('',#1592,#1264,#1265);
#999=AXIS2_PLACEMENT_3D('',#1594,#1266,#1267);
#1000=AXIS2_PLACEMENT_3D('',#1595,#1268,#1269);
#1001=AXIS2_PLACEMENT_3D('',#1597,#1271,#1272);
#1002=AXIS2_PLACEMENT_3D('',#1600,#1273,#1274);
#1003=AXIS2_PLACEMENT_3D('',#1602,#1275,#1276);
#1004=AXIS2_PLACEMENT_3D('',#1605,#1278,#1279);
#1005=AXIS2_PLACEMENT_3D('',#1606,#1280,#1281);
#1006=AXIS2_PLACEMENT_3D('',#1607,#1282,#1283);
#1007=AXIS2_PLACEMENT_3D('',#1609,#1284,#1285);
#1008=AXIS2_PLACEMENT_3D('',#1611,#1287,#1288);
#1009=AXIS2_PLACEMENT_3D('',#1612,#1289,#1290);
#1010=AXIS2_PLACEMENT_3D('',#1614,#1291,#1292);
#1011=AXIS2_PLACEMENT_3D('',#1619,#1293,#1294);
#1012=AXIS2_PLACEMENT_3D('',#1620,#1295,#1296);
#1013=AXIS2_PLACEMENT_3D('',#1621,#1297,#1298);
#1014=AXIS2_PLACEMENT_3D('',#1623,#1299,#1300);
#1015=AXIS2_PLACEMENT_3D('',#1624,#1301,#1302);
#1016=AXIS2_PLACEMENT_3D('',#1625,#1303,#1304);
#1017=AXIS2_PLACEMENT_3D('',#1632,#1305,#1306);
#1018=AXIS2_PLACEMENT_3D('',#1633,#1307,#1308);
#1019=AXIS2_PLACEMENT_3D('',#1636,#1309,#1310);
#1020=AXIS2_PLACEMENT_3D('',#1638,#1311,#1312);
#1021=AXIS2_PLACEMENT_3D('',#1641,#1314,#1315);
#1022=AXIS2_PLACEMENT_3D('',#1642,#1316,#1317);
#1023=AXIS2_PLACEMENT_3D('',#1643,#1318,#1319);
#1024=AXIS2_PLACEMENT_3D('',#1649,#1320,#1321);
#1025=AXIS2_PLACEMENT_3D('',#1650,#1322,#1323);
#1026=AXIS2_PLACEMENT_3D('',#1658,#1324,#1325);
#1027=AXIS2_PLACEMENT_3D('',#1659,#1326,#1327);
#1028=AXIS2_PLACEMENT_3D('',#1661,#1328,#1329);
#1029=AXIS2_PLACEMENT_3D('',#1663,#1331,#1332);
#1030=AXIS2_PLACEMENT_3D('',#1664,#1333,#1334);
#1031=AXIS2_PLACEMENT_3D('',#1665,#1335,#1336);
#1032=AXIS2_PLACEMENT_3D('',#1666,#1337,#1338);
#1033=AXIS2_PLACEMENT_3D('',#1667,#1339,#1340);
#1034=AXIS2_PLACEMENT_3D('',#1668,#1341,#1342);
#1035=AXIS2_PLACEMENT_3D('',#1669,#1343,#1344);
#1036=AXIS2_PLACEMENT_3D('',#1671,#1345,#1346);
#1037=AXIS2_PLACEMENT_3D('',#1672,#1347,#1348);
#1038=DIRECTION('axis',(0.,0.,1.));
#1039=DIRECTION('refdir',(1.,0.,0.));
#1040=DIRECTION('center_axis',(0.4067366430758,0.913545457642601,0.));
#1041=DIRECTION('ref_axis',(0.913545457642601,-0.4067366430758,0.));
#1042=DIRECTION('center_axis',(0.,1.,0.));
#1043=DIRECTION('ref_axis',(1.,0.,0.));
#1044=DIRECTION('center_axis',(-0.4067366430758,-0.913545457642601,0.));
#1045=DIRECTION('ref_axis',(0.913545457642601,-0.4067366430758,0.));
#1046=DIRECTION('',(0.4067366430758,0.913545457642601,0.));
#1047=DIRECTION('center_axis',(0.4067366430758,0.913545457642601,0.));
#1048=DIRECTION('ref_axis',(0.913545457642601,-0.4067366430758,0.));
#1049=DIRECTION('center_axis',(-0.4067366430758,-0.913545457642601,0.));
#1050=DIRECTION('ref_axis',(0.913545457642601,-0.4067366430758,0.));
#1051=DIRECTION('center_axis',(0.4067366430758,0.913545457642601,0.));
#1052=DIRECTION('ref_axis',(0.913545457642601,-0.4067366430758,0.));
#1053=DIRECTION('center_axis',(0.4067366430758,0.913545457642601,0.));
#1054=DIRECTION('ref_axis',(0.913545457642601,-0.4067366430758,0.));
#1055=DIRECTION('',(0.4067366430758,0.913545457642601,0.));
#1056=DIRECTION('center_axis',(0.,-1.,0.));
#1057=DIRECTION('ref_axis',(1.,-4.3343555603271E-17,0.));
#1058=DIRECTION('center_axis',(0.4067366430758,0.913545457642601,0.));
#1059=DIRECTION('ref_axis',(0.913545457642601,-0.4067366430758,0.));
#1060=DIRECTION('center_axis',(0.,-1.,0.));
#1061=DIRECTION('ref_axis',(1.,-4.3343555603271E-17,0.));
#1062=DIRECTION('center_axis',(0.4067366430758,0.913545457642601,0.));
#1063=DIRECTION('ref_axis',(0.913545457642601,-0.4067366430758,0.));
#1064=DIRECTION('',(0.,0.,-1.));
#1065=DIRECTION('center_axis',(0.4067366430758,0.913545457642601,0.));
#1066=DIRECTION('ref_axis',(0.913545457642601,-0.4067366430758,0.));
#1067=DIRECTION('',(0.,0.,-1.));
#1068=DIRECTION('center_axis',(0.4067366430758,0.913545457642601,0.));
#1069=DIRECTION('ref_axis',(-0.913545457642601,0.4067366430758,1.22464679914735E-16));
#1070=DIRECTION('center_axis',(0.,1.,0.));
#1071=DIRECTION('ref_axis',(-1.,0.,1.83758917935762E-15));
#1072=DIRECTION('center_axis',(0.4067366430758,0.913545457642601,0.));
#1073=DIRECTION('ref_axis',(0.913545457642601,-0.4067366430758,0.));
#1074=DIRECTION('center_axis',(0.,-1.,0.));
#1075=DIRECTION('ref_axis',(1.,0.,0.));
#1076=DIRECTION('center_axis',(0.,-1.,0.));
#1077=DIRECTION('ref_axis',(1.,0.,0.));
#1078=DIRECTION('center_axis',(0.4067366430758,0.913545457642601,0.));
#1079=DIRECTION('ref_axis',(0.913545457642601,-0.4067366430758,0.));
#1080=DIRECTION('center_axis',(0.,-1.,0.));
#1081=DIRECTION('ref_axis',(1.,0.,0.));
#1082=DIRECTION('center_axis',(0.,1.,0.));
#1083=DIRECTION('ref_axis',(1.,0.,0.));
#1084=DIRECTION('center_axis',(0.,-1.,0.));
#1085=DIRECTION('ref_axis',(0.505157599618668,0.,-0.863027114028004));
#1086=DIRECTION('',(-0.863027114028004,0.,-0.505157599618667));
#1087=DIRECTION('center_axis',(0.,-1.,0.));
#1088=DIRECTION('ref_axis',(0.505157599618668,0.,-0.863027114028004));
#1089=DIRECTION('center_axis',(0.,-1.,0.));
#1090=DIRECTION('ref_axis',(0.505157599618668,0.,-0.863027114028004));
#1091=DIRECTION('',(-0.863027114028004,0.,-0.505157599618667));
#1092=DIRECTION('center_axis',(0.,-1.,0.));
#1093=DIRECTION('ref_axis',(0.505157599618668,0.,-0.863027114028004));
#1094=DIRECTION('center_axis',(0.,1.,0.));
#1095=DIRECTION('ref_axis',(1.,0.,0.));
#1096=DIRECTION('center_axis',(0.,-1.,0.));
#1097=DIRECTION('ref_axis',(-0.494824605093688,1.3117974824485E-21,-0.868992871198536));
#1098=DIRECTION('',(-0.868992871198536,0.,0.494824605093688));
#1099=DIRECTION('center_axis',(0.,-1.,0.));
#1100=DIRECTION('ref_axis',(-0.494824605093688,0.,-0.868992871198537));
#1101=DIRECTION('center_axis',(0.,-1.,0.));
#1102=DIRECTION('ref_axis',(-0.494824605093688,0.,-0.868992871198537));
#1103=DIRECTION('',(-0.868992871198536,0.,0.494824605093688));
#1104=DIRECTION('center_axis',(0.,-1.,0.));
#1105=DIRECTION('ref_axis',(-0.494824605093688,1.3117974824485E-21,-0.868992871198536));
#1106=DIRECTION('center_axis',(0.,1.,0.));
#1107=DIRECTION('ref_axis',(1.,0.,0.));
#1108=DIRECTION('center_axis',(0.,-1.,0.));
#1109=DIRECTION('ref_axis',(-1.,0.,1.22464679914735E-16));
#1110=DIRECTION('',(1.22464679914735E-16,0.,1.));
#1111=DIRECTION('center_axis',(0.,-1.,0.));
#1112=DIRECTION('ref_axis',(-1.,-4.3343555603271E-17,1.22464679914735E-16));
#1113=DIRECTION('center_axis',(0.,-1.,0.));
#1114=DIRECTION('ref_axis',(-1.,-4.3343555603271E-17,1.22464679914735E-16));
#1115=DIRECTION('',(1.22464679914735E-16,0.,1.));
#1116=DIRECTION('center_axis',(0.,-1.,0.));
#1117=DIRECTION('ref_axis',(-1.,0.,1.22464679914735E-16));
#1118=DIRECTION('center_axis',(0.,1.,0.));
#1119=DIRECTION('ref_axis',(1.,0.,0.));
#1120=DIRECTION('center_axis',(0.,-1.,0.));
#1121=DIRECTION('ref_axis',(-0.505157599618668,1.31179748244878E-21,0.863027114028004));
#1122=DIRECTION('',(0.863027114028004,0.,0.505157599618667));
#1123=DIRECTION('center_axis',(0.,-1.,0.));
#1124=DIRECTION('ref_axis',(-0.505157599618667,0.,0.863027114028004));
#1125=DIRECTION('center_axis',(0.,-1.,0.));
#1126=DIRECTION('ref_axis',(-0.505157599618667,0.,0.863027114028004));
#1127=DIRECTION('',(0.863027114028004,0.,0.505157599618667));
#1128=DIRECTION('center_axis',(0.,-1.,0.));
#1129=DIRECTION('ref_axis',(-0.505157599618668,1.31179748244878E-21,0.863027114028004));
#1130=DIRECTION('center_axis',(0.,1.,0.));
#1131=DIRECTION('ref_axis',(1.,0.,0.));
#1132=DIRECTION('center_axis',(0.,-1.,0.));
#1133=DIRECTION('ref_axis',(0.494824605093688,0.,0.868992871198536));
#1134=DIRECTION('',(0.868992871198536,0.,-0.494824605093688));
#1135=DIRECTION('center_axis',(0.,-1.,0.));
#1136=DIRECTION('ref_axis',(0.494824605093688,0.,0.868992871198536));
#1137=DIRECTION('center_axis',(0.,-1.,0.));
#1138=DIRECTION('ref_axis',(0.494824605093688,0.,0.868992871198536));
#1139=DIRECTION('',(0.868992871198536,0.,-0.494824605093688));
#1140=DIRECTION('center_axis',(0.,-1.,0.));
#1141=DIRECTION('ref_axis',(0.494824605093688,0.,0.868992871198536));
#1142=DIRECTION('center_axis',(0.,1.,0.));
#1143=DIRECTION('ref_axis',(1.,0.,0.));
#1144=DIRECTION('center_axis',(0.,-1.,0.));
#1145=DIRECTION('ref_axis',(1.,0.,0.));
#1146=DIRECTION('center_axis',(0.221455390259646,0.898785478182854,-0.37834134631648));
#1147=DIRECTION('ref_axis',(0.44943285421872,-0.438382515937602,-0.778351385473831));
#1148=DIRECTION('center_axis',(0.,1.,0.));
#1149=DIRECTION('ref_axis',(0.505157599618667,0.,-0.863027114028004));
#1150=DIRECTION('center_axis',(-0.221455390259646,-0.898785478182854,0.37834134631648));
#1151=DIRECTION('ref_axis',(0.44943285421872,-0.438382515937602,-0.778351385473831));
#1152=DIRECTION('',(0.221455390259646,0.898785478182854,-0.37834134631648));
#1153=DIRECTION('center_axis',(0.221455390259646,0.898785478182854,-0.37834134631648));
#1154=DIRECTION('ref_axis',(0.44943285421872,-0.438382515937602,-0.778351385473831));
#1155=DIRECTION('center_axis',(-0.221455390259646,-0.898785478182854,0.37834134631648));
#1156=DIRECTION('ref_axis',(0.44943285421872,-0.438382515937602,-0.778351385473831));
#1157=DIRECTION('center_axis',(0.221455390259646,0.898785478182854,-0.37834134631648));
#1158=DIRECTION('ref_axis',(0.44943285421872,-0.438382515937602,-0.778351385473831));
#1159=DIRECTION('center_axis',(0.221455390259646,0.898785478182854,-0.37834134631648));
#1160=DIRECTION('ref_axis',(0.44943285421872,-0.438382515937602,-0.778351385473831));
#1161=DIRECTION('',(0.221455390259646,0.898785478182854,-0.37834134631648));
#1162=DIRECTION('center_axis',(0.221455390259646,0.898785478182854,-0.37834134631648));
#1163=DIRECTION('ref_axis',(0.44943285421872,-0.438382515937602,-0.778351385473831));
#1164=DIRECTION('center_axis',(0.221455390259646,0.898785478182854,-0.37834134631648));
#1165=DIRECTION('ref_axis',(0.44943285421872,-0.438382515937602,-0.778351385473831));
#1166=DIRECTION('center_axis',(0.221455390259646,0.898785478182854,-0.37834134631648));
#1167=DIRECTION('ref_axis',(0.44943285421872,-0.438382515937602,-0.778351385473831));
#1168=DIRECTION('center_axis',(0.221455390259646,0.898785478182854,-0.37834134631648));
#1169=DIRECTION('ref_axis',(-0.454028314730966,0.438388713595159,0.775676237366429));
#1170=DIRECTION('center_axis',(0.,1.,0.));
#1171=DIRECTION('ref_axis',(-0.505157599618668,0.,0.863027114028004));
#1172=DIRECTION('center_axis',(0.221455390259646,0.898785478182854,-0.37834134631648));
#1173=DIRECTION('ref_axis',(0.44943285421872,-0.438382515937602,-0.778351385473832));
#1174=DIRECTION('center_axis',(0.221455390259646,0.898785478182854,-0.37834134631648));
#1175=DIRECTION('ref_axis',(0.44943285421872,-0.438382515937602,-0.778351385473831));
#1176=DIRECTION('center_axis',(-0.221455390259646,-0.898785478182854,0.37834134631648));
#1177=DIRECTION('ref_axis',(0.454028314730966,-0.438388713595159,-0.775676237366428));
#1178=DIRECTION('center_axis',(0.221455390259646,0.898785478182854,-0.37834134631648));
#1179=DIRECTION('ref_axis',(0.44943285421872,-0.438382515937602,-0.778351385473831));
#1180=DIRECTION('center_axis',(0.221455390259646,0.898785478182854,-0.37834134631648));
#1181=DIRECTION('ref_axis',(0.44943285421872,-0.438382515937602,-0.778351385473832));
#1182=DIRECTION('center_axis',(-0.4067366430758,0.913545457642601,4.98108728038718E-17));
#1183=DIRECTION('ref_axis',(-0.913545457642601,-0.4067366430758,1.11877052057762E-16));
#1184=DIRECTION('center_axis',(0.,1.,0.));
#1185=DIRECTION('ref_axis',(-1.,0.,1.22464679914735E-16));
#1186=DIRECTION('center_axis',(0.4067366430758,-0.913545457642601,-4.98108728038718E-17));
#1187=DIRECTION('ref_axis',(-0.913545457642601,-0.4067366430758,1.11877052057762E-16));
#1188=DIRECTION('',(-0.4067366430758,0.913545457642601,4.98108728038718E-17));
#1189=DIRECTION('center_axis',(-0.4067366430758,0.913545457642601,4.98108728038718E-17));
#1190=DIRECTION('ref_axis',(-0.913545457642601,-0.4067366430758,1.11877052057762E-16));
#1191=DIRECTION('center_axis',(0.4067366430758,-0.913545457642601,-4.98108728038718E-17));
#1192=DIRECTION('ref_axis',(-0.913545457642601,-0.4067366430758,1.11877052057762E-16));
#1193=DIRECTION('center_axis',(-0.4067366430758,0.913545457642601,4.98108728038718E-17));
#1194=DIRECTION('ref_axis',(-0.913545457642601,-0.4067366430758,1.11877052057762E-16));
#1195=DIRECTION('center_axis',(-0.4067366430758,0.913545457642601,4.98108728038718E-17));
#1196=DIRECTION('ref_axis',(-0.913545457642601,-0.4067366430758,1.11877052057762E-16));
#1197=DIRECTION('',(-0.4067366430758,0.913545457642601,4.98108728038718E-17));
#1198=DIRECTION('center_axis',(-0.4067366430758,0.913545457642601,4.98108728038718E-17));
#1199=DIRECTION('ref_axis',(-0.913545457642601,-0.4067366430758,1.11877052057762E-16));
#1200=DIRECTION('center_axis',(-0.4067366430758,0.913545457642601,4.98108728038718E-17));
#1201=DIRECTION('ref_axis',(-0.913545457642601,-0.4067366430758,1.11877052057762E-16));
#1202=DIRECTION('center_axis',(-0.4067366430758,0.913545457642601,4.98108728038718E-17));
#1203=DIRECTION('ref_axis',(-0.913545457642601,-0.4067366430758,1.11877052057762E-16));
#1204=DIRECTION('center_axis',(-0.4067366430758,0.913545457642601,4.98108728038718E-17));
#1205=DIRECTION('ref_axis',(0.913545457642601,0.4067366430758,6.53836687727628E-16));
#1206=DIRECTION('center_axis',(0.,1.,0.));
#1207=DIRECTION('ref_axis',(-1.,0.,2.05963378428265E-15));
#1208=DIRECTION('center_axis',(-0.4067366430758,0.913545457642601,4.98108728038718E-17));
#1209=DIRECTION('ref_axis',(-0.913545457642601,-0.4067366430758,1.11877052057762E-16));
#1210=DIRECTION('center_axis',(-0.4067366430758,0.913545457642601,4.98108728038718E-17));
#1211=DIRECTION('ref_axis',(-0.913545457642601,-0.4067366430758,1.11877052057762E-16));
#1212=DIRECTION('center_axis',(-0.216925522082255,0.898785478182854,-0.38095666692809));
#1213=DIRECTION('ref_axis',(-0.449355645781792,-0.438382515937602,-0.778395961785675));
#1214=DIRECTION('center_axis',(0.,1.,0.));
#1215=DIRECTION('ref_axis',(-0.494824605093688,0.,-0.868992871198537));
#1216=DIRECTION('center_axis',(0.216925522082255,-0.898785478182854,0.38095666692809));
#1217=DIRECTION('ref_axis',(-0.449355645781792,-0.438382515937602,-0.778395961785675));
#1218=DIRECTION('',(-0.216925522082255,0.898785478182854,-0.38095666692809));
#1219=DIRECTION('center_axis',(-0.216925522082255,0.898785478182854,-0.38095666692809));
#1220=DIRECTION('ref_axis',(-0.449355645781792,-0.438382515937602,-0.778395961785675));
#1221=DIRECTION('center_axis',(0.216925522082255,-0.898785478182854,0.38095666692809));
#1222=DIRECTION('ref_axis',(-0.449355645781792,-0.438382515937602,-0.778395961785675));
#1223=DIRECTION('center_axis',(-0.216925522082255,0.898785478182854,-0.38095666692809));
#1224=DIRECTION('ref_axis',(-0.449355645781792,-0.438382515937602,-0.778395961785675));
#1225=DIRECTION('center_axis',(-0.216925522082255,0.898785478182854,-0.38095666692809));
#1226=DIRECTION('ref_axis',(-0.449355645781792,-0.438382515937602,-0.778395961785675));
#1227=DIRECTION('',(-0.216925522082255,0.898785478182854,-0.38095666692809));
#1228=DIRECTION('center_axis',(-0.216925522082255,0.898785478182854,-0.38095666692809));
#1229=DIRECTION('ref_axis',(-0.449355645781792,-0.438382515937602,-0.778395961785675));
#1230=DIRECTION('center_axis',(-0.216925522082255,0.898785478182854,-0.38095666692809));
#1231=DIRECTION('ref_axis',(-0.449355645781792,-0.438382515937602,-0.778395961785675));
#1232=DIRECTION('center_axis',(-0.216925522082255,0.898785478182854,-0.38095666692809));
#1233=DIRECTION('ref_axis',(-0.449355645781792,-0.438382515937602,-0.778395961785675));
#1234=DIRECTION('center_axis',(-0.216925522082255,0.898785478182854,-0.38095666692809));
#1235=DIRECTION('ref_axis',(0.444741169305772,0.438388713595159,0.781038173277668));
#1236=DIRECTION('center_axis',(0.,1.,0.));
#1237=DIRECTION('ref_axis',(0.494824605093688,0.,0.868992871198536));
#1238=DIRECTION('center_axis',(-0.216925522082255,0.898785478182854,-0.38095666692809));
#1239=DIRECTION('ref_axis',(-0.449355645781792,-0.438382515937602,-0.778395961785675));
#1240=DIRECTION('center_axis',(-0.216925522082255,0.898785478182854,-0.38095666692809));
#1241=DIRECTION('ref_axis',(-0.449355645781792,-0.438382515937602,-0.778395961785675));
#1242=DIRECTION('center_axis',(0.216925522082255,-0.898785478182854,0.38095666692809));
#1243=DIRECTION('ref_axis',(0.444741169305772,0.438388713595159,0.781038173277667));
#1244=DIRECTION('center_axis',(-0.216925522082255,0.898785478182854,-0.38095666692809));
#1245=DIRECTION('ref_axis',(-0.449355645781792,-0.438382515937602,-0.778395961785675));
#1246=DIRECTION('center_axis',(-0.216925522082255,0.898785478182854,-0.38095666692809));
#1247=DIRECTION('ref_axis',(-0.449355645781792,-0.438382515937602,-0.778395961785675));
#1248=DIRECTION('center_axis',(0.,1.,0.));
#1249=DIRECTION('ref_axis',(1.,0.,0.));
#1250=DIRECTION('center_axis',(0.,1.,0.));
#1251=DIRECTION('ref_axis',(1.,0.,0.));
#1252=DIRECTION('',(0.,1.,0.));
#1253=DIRECTION('center_axis',(0.,1.,0.));
#1254=DIRECTION('ref_axis',(1.,0.,0.));
#1255=DIRECTION('center_axis',(0.,1.,0.));
#1256=DIRECTION('ref_axis',(1.,0.,0.));
#1257=DIRECTION('center_axis',(0.,1.,0.));
#1258=DIRECTION('ref_axis',(1.,0.,0.));
#1259=DIRECTION('center_axis',(0.,1.,0.));
#1260=DIRECTION('ref_axis',(1.,0.,0.));
#1261=DIRECTION('center_axis',(0.,1.,0.));
#1262=DIRECTION('ref_axis',(1.,0.,0.));
#1263=DIRECTION('',(0.,1.,0.));
#1264=DIRECTION('center_axis',(0.,1.,0.));
#1265=DIRECTION('ref_axis',(1.,0.,0.));
#1266=DIRECTION('center_axis',(0.,1.,0.));
#1267=DIRECTION('ref_axis',(1.,0.,0.));
#1268=DIRECTION('center_axis',(0.,1.,0.));
#1269=DIRECTION('ref_axis',(1.,0.,0.));
#1270=DIRECTION('',(0.,1.,0.));
#1271=DIRECTION('center_axis',(0.216925522082255,0.898785478182854,0.38095666692809));
#1272=DIRECTION('ref_axis',(0.449355645781792,-0.438382515937602,0.778395961785675));
#1273=DIRECTION('center_axis',(0.,1.,0.));
#1274=DIRECTION('ref_axis',(0.494824605093688,0.,0.868992871198536));
#1275=DIRECTION('center_axis',(-0.216925522082255,-0.898785478182854,-0.38095666692809));
#1276=DIRECTION('ref_axis',(0.449355645781792,-0.438382515937602,0.778395961785675));
#1277=DIRECTION('',(0.216925522082255,0.898785478182854,0.38095666692809));
#1278=DIRECTION('center_axis',(0.216925522082255,0.898785478182854,0.38095666692809));
#1279=DIRECTION('ref_axis',(0.449355645781792,-0.438382515937602,0.778395961785675));
#1280=DIRECTION('center_axis',(-0.216925522082255,-0.898785478182854,-0.38095666692809));
#1281=DIRECTION('ref_axis',(0.449355645781792,-0.438382515937602,0.778395961785675));
#1282=DIRECTION('center_axis',(0.216925522082255,0.898785478182854,0.38095666692809));
#1283=DIRECTION('ref_axis',(0.449355645781792,-0.438382515937602,0.778395961785675));
#1284=DIRECTION('center_axis',(0.216925522082255,0.898785478182854,0.38095666692809));
#1285=DIRECTION('ref_axis',(0.449355645781792,-0.438382515937602,0.778395961785675));
#1286=DIRECTION('',(0.216925522082255,0.898785478182854,0.38095666692809));
#1287=DIRECTION('center_axis',(0.216925522082255,0.898785478182854,0.38095666692809));
#1288=DIRECTION('ref_axis',(0.449355645781792,-0.438382515937602,0.778395961785675));
#1289=DIRECTION('center_axis',(0.216925522082255,0.898785478182854,0.38095666692809));
#1290=DIRECTION('ref_axis',(0.449355645781792,-0.438382515937602,0.778395961785675));
#1291=DIRECTION('center_axis',(0.216925522082255,0.898785478182854,0.38095666692809));
#1292=DIRECTION('ref_axis',(0.449355645781792,-0.438382515937602,0.778395961785675));
#1293=DIRECTION('center_axis',(0.216925522082255,0.898785478182854,0.38095666692809));
#1294=DIRECTION('ref_axis',(-0.444741169305773,0.438388713595159,-0.781038173277667));
#1295=DIRECTION('center_axis',(0.,1.,0.));
#1296=DIRECTION('ref_axis',(0.494824605093688,0.,0.868992871198536));
#1297=DIRECTION('center_axis',(0.216925522082255,0.898785478182854,0.38095666692809));
#1298=DIRECTION('ref_axis',(0.449355645781792,-0.438382515937602,0.778395961785675));
#1299=DIRECTION('center_axis',(0.216925522082255,0.898785478182854,0.38095666692809));
#1300=DIRECTION('ref_axis',(0.449355645781792,-0.438382515937602,0.778395961785675));
#1301=DIRECTION('center_axis',(-0.216925522082255,-0.898785478182854,-0.38095666692809));
#1302=DIRECTION('ref_axis',(0.444741169305772,-0.438388713595159,0.781038173277668));
#1303=DIRECTION('center_axis',(0.216925522082255,0.898785478182854,0.38095666692809));
#1304=DIRECTION('ref_axis',(0.449355645781792,-0.438382515937602,0.778395961785675));
#1305=DIRECTION('center_axis',(0.216925522082255,0.898785478182854,0.38095666692809));
#1306=DIRECTION('ref_axis',(0.449355645781792,-0.438382515937602,0.778395961785675));
#1307=DIRECTION('center_axis',(-0.221455390259646,0.898785478182854,0.37834134631648));
#1308=DIRECTION('ref_axis',(-0.44943285421872,-0.438382515937602,0.778351385473831));
#1309=DIRECTION('center_axis',(0.,1.,0.));
#1310=DIRECTION('ref_axis',(-0.505157599618667,0.,0.863027114028004));
#1311=DIRECTION('center_axis',(0.221455390259646,-0.898785478182854,-0.37834134631648));
#1312=DIRECTION('ref_axis',(-0.44943285421872,-0.438382515937602,0.778351385473831));
#1313=DIRECTION('',(-0.221455390259646,0.898785478182854,0.37834134631648));
#1314=DIRECTION('center_axis',(-0.221455390259646,0.898785478182854,0.37834134631648));
#1315=DIRECTION('ref_axis',(-0.44943285421872,-0.438382515937602,0.778351385473831));
#1316=DIRECTION('center_axis',(0.221455390259646,-0.898785478182854,-0.37834134631648));
#1317=DIRECTION('ref_axis',(-0.44943285421872,-0.438382515937602,0.778351385473831));
#1318=DIRECTION('center_axis',(-0.221455390259646,0.898785478182854,0.37834134631648));
#1319=DIRECTION('ref_axis',(-0.44943285421872,-0.438382515937602,0.778351385473831));
#1320=DIRECTION('center_axis',(-0.221455390259646,0.898785478182854,0.37834134631648));
#1321=DIRECTION('ref_axis',(-0.44943285421872,-0.438382515937602,0.778351385473831));
#1322=DIRECTION('center_axis',(-0.221455390259646,0.898785478182854,0.37834134631648));
#1323=DIRECTION('ref_axis',(-0.44943285421872,-0.438382515937602,0.778351385473831));
#1324=DIRECTION('center_axis',(-0.221455390259646,0.898785478182854,0.37834134631648));
#1325=DIRECTION('ref_axis',(-0.44943285421872,-0.438382515937602,0.778351385473831));
#1326=DIRECTION('center_axis',(-0.221455390259646,0.898785478182854,0.37834134631648));
#1327=DIRECTION('ref_axis',(-0.44943285421872,-0.438382515937602,0.778351385473831));
#1328=DIRECTION('center_axis',(-0.221455390259646,0.898785478182854,0.37834134631648));
#1329=DIRECTION('ref_axis',(-0.44943285421872,-0.438382515937602,0.778351385473831));
#1330=DIRECTION('',(-0.221455390259646,0.898785478182854,0.37834134631648));
#1331=DIRECTION('center_axis',(-0.221455390259646,0.898785478182854,0.37834134631648));
#1332=DIRECTION('ref_axis',(-0.44943285421872,-0.438382515937602,0.778351385473831));
#1333=DIRECTION('center_axis',(-0.221455390259646,0.898785478182854,0.37834134631648));
#1334=DIRECTION('ref_axis',(0.454028314730967,0.438388713595159,-0.775676237366428));
#1335=DIRECTION('center_axis',(0.,1.,0.));
#1336=DIRECTION('ref_axis',(-0.505157599618668,0.,0.863027114028004));
#1337=DIRECTION('center_axis',(-0.221455390259646,0.898785478182854,0.37834134631648));
#1338=DIRECTION('ref_axis',(-0.44943285421872,-0.438382515937602,0.778351385473832));
#1339=DIRECTION('center_axis',(0.221455390259646,-0.898785478182854,-0.37834134631648));
#1340=DIRECTION('ref_axis',(0.454028314730966,0.438388713595159,-0.775676237366428));
#1341=DIRECTION('center_axis',(-0.221455390259646,0.898785478182854,0.37834134631648));
#1342=DIRECTION('ref_axis',(-0.44943285421872,-0.438382515937602,0.778351385473832));
#1343=DIRECTION('center_axis',(0.,-1.,0.));
#1344=DIRECTION('ref_axis',(1.,0.,0.));
#1345=DIRECTION('center_axis',(0.,1.,0.));
#1346=DIRECTION('ref_axis',(1.,0.,0.));
#1347=DIRECTION('center_axis',(0.,1.,0.));
#1348=DIRECTION('ref_axis',(1.,0.,0.));
#1349=DIRECTION('',(0.,-1.,0.));
#1350=CARTESIAN_POINT('',(0.,0.,0.));
#1351=CARTESIAN_POINT('Origin',(2.1528434984694,0.605181796501791,0.));
#1352=CARTESIAN_POINT('',(10.1757859350515,14.,1.5696305152879));
#1353=CARTESIAN_POINT('',(10.1757859350515,14.,-1.5696305152879));
#1354=CARTESIAN_POINT('Origin',(8.11660079715975,14.,0.));
#1355=CARTESIAN_POINT('',(6.21907509491993,15.7616411654978,3.00038465791102E-16));
#1356=CARTESIAN_POINT('Origin',(8.4572614661443,14.7651363899621,0.));
#1357=CARTESIAN_POINT('',(8.25275831029893,20.3293684537108,3.00038465791101E-16));
#1358=CARTESIAN_POINT('',(-0.0853428727549754,1.6016865720375,3.00038465791102E-16));
#1359=CARTESIAN_POINT('Origin',(10.4909446815233,19.3328636781751,0.));
#1360=CARTESIAN_POINT('Origin',(8.4572614661443,14.7651363899621,0.));
#1361=CARTESIAN_POINT('Origin',(2.1528434984694,0.605181796501791,0.));
#1362=CARTESIAN_POINT('',(7.81882421791869,20.5225683591718,3.58209188750601E-16));
#1363=CARTESIAN_POINT('Origin',(10.4909446815233,19.3328636781751,0.));
#1364=CARTESIAN_POINT('',(11.1479912768491,28.,3.58209188750601E-16));
#1365=CARTESIAN_POINT('',(-0.519276965135211,1.79488647749851,3.58209188750601E-16));
#1366=CARTESIAN_POINT('',(16.8394678017932,28.,1.8391919884293));
#1367=CARTESIAN_POINT('Origin',(14.3498023914793,28.,0.));
#1368=CARTESIAN_POINT('',(16.8394678017932,28.,-1.8391919884293));
#1369=CARTESIAN_POINT('Origin',(14.7616794338192,28.9250909834224,0.));
#1370=CARTESIAN_POINT('Origin',(14.3498023914793,28.,0.));
#1371=CARTESIAN_POINT('Origin',(14.7616794338192,28.9250909834224,0.));
#1372=CARTESIAN_POINT('',(16.8394678017932,28.,3.22947397733788));
#1373=CARTESIAN_POINT('',(16.8394678017932,28.,0.));
#1374=CARTESIAN_POINT('',(16.8394678017932,28.,-3.22947397733788));
#1375=CARTESIAN_POINT('Origin',(14.7616794338192,28.9250909834224,0.));
#1376=CARTESIAN_POINT('',(16.8394678017932,28.,0.));
#1377=CARTESIAN_POINT('Origin',(8.15220898383745,14.0799772967302,0.));
#1378=CARTESIAN_POINT('Origin',(9.09674443476737,14.,0.));
#1379=CARTESIAN_POINT('Origin',(2.1528434984694,0.605181796501791,0.));
#1380=CARTESIAN_POINT('',(18.4591621993098,28.,1.2285482894757));
#1381=CARTESIAN_POINT('Origin',(14.3498023914793,28.,0.));
#1382=CARTESIAN_POINT('',(18.4591621993098,28.,-1.2285482894757));
#1383=CARTESIAN_POINT('Ctrl Pts',(18.4591621993098,28.,-1.22854828947569));
#1384=CARTESIAN_POINT('Ctrl Pts',(18.4702316741496,27.8910423408013,-1.06222741036951));
#1385=CARTESIAN_POINT('Ctrl Pts',(18.4796532294964,27.8010761703517,-0.886436886385245));
#1386=CARTESIAN_POINT('Ctrl Pts',(18.4952246007871,27.6539617702747,-0.477506816663225));
#1387=CARTESIAN_POINT('Ctrl Pts',(18.5,27.6100527721887,-0.2406718722988));
#1388=CARTESIAN_POINT('Ctrl Pts',(18.5,27.6100527721887,0.2406718722988));
#1389=CARTESIAN_POINT('Ctrl Pts',(18.4952246007871,27.6539617702747,0.47750681666322));
#1390=CARTESIAN_POINT('Ctrl Pts',(18.4796532294964,27.8010761703517,0.886436886385236));
#1391=CARTESIAN_POINT('Ctrl Pts',(18.4702316741496,27.8910423408013,1.06222741036951));
#1392=CARTESIAN_POINT('Ctrl Pts',(18.4591621993098,28.,1.22854828947569));
#1393=CARTESIAN_POINT('Origin',(14.3498023914793,28.,0.));
#1394=CARTESIAN_POINT('Origin',(10.4909446815233,19.3328636781751,0.));
#1395=CARTESIAN_POINT('Origin',(0.,28.,0.));
#1396=CARTESIAN_POINT('',(11.6716142920473,28.,-14.3535159392282));
#1397=CARTESIAN_POINT('Origin',(0.,28.,0.));
#1398=CARTESIAN_POINT('',(11.6245411535842,28.,-12.5365421154518));
#1399=CARTESIAN_POINT('Origin',(7.67427496142348,28.,-13.1700209263198));
#1400=CARTESIAN_POINT('',(10.6665537900851,28.,-13.0972830112407));
#1401=CARTESIAN_POINT('',(8.41901760361746,28.,-14.4128384168096));
#1402=CARTESIAN_POINT('',(6.04374045085541,28.,-10.3535754726013));
#1403=CARTESIAN_POINT('Origin',(7.67427496142348,28.,-13.1700209263198));
#1404=CARTESIAN_POINT('',(6.14573836618041,28.,-15.7434620602395));
#1405=CARTESIAN_POINT('Origin',(7.67427496142348,28.,-13.1700209263198));
#1406=CARTESIAN_POINT('',(5.18775100268133,28.,-16.3042029560284));
#1407=CARTESIAN_POINT('',(8.41901760361746,28.,-14.4128384168096));
#1408=CARTESIAN_POINT('',(6.73555908105829,28.,-17.2302711489278));
#1409=CARTESIAN_POINT('Origin',(7.67427496142348,28.,-13.1700209263198));
#1410=CARTESIAN_POINT('',(-6.59470229097284,28.,-17.2846724497006));
#1411=CARTESIAN_POINT('Origin',(0.,28.,0.));
#1412=CARTESIAN_POINT('',(-5.04469337080262,28.,-16.3354190040675));
#1413=CARTESIAN_POINT('Origin',(-7.5684352098539,28.,-13.2311275353795));
#1414=CARTESIAN_POINT('',(-6.00930291324624,28.,-15.7861480586673));
#1415=CARTESIAN_POINT('',(-8.27237540778871,28.,-14.4975023280459));
#1416=CARTESIAN_POINT('',(-5.94458915384452,28.,-10.4108205006211));
#1417=CARTESIAN_POINT('Origin',(-7.5684352098539,28.,-13.2311275353795));
#1418=CARTESIAN_POINT('',(-10.5613689045937,28.,-13.1940965802446));
#1419=CARTESIAN_POINT('Origin',(-7.5684352098539,28.,-13.2311275353795));
#1420=CARTESIAN_POINT('',(-11.5259784470373,28.,-12.6448256348444));
#1421=CARTESIAN_POINT('',(-8.27237540778871,28.,-14.4975023280459));
#1422=CARTESIAN_POINT('',(-11.5540729885364,28.,-14.4483008473513));
#1423=CARTESIAN_POINT('Origin',(-7.5684352098539,28.,-13.2311275353795));
#1424=CARTESIAN_POINT('',(-18.4591621993098,28.,-1.22854828947568));
#1425=CARTESIAN_POINT('Origin',(0.,28.,0.));
#1426=CARTESIAN_POINT('',(-16.8394678017932,28.,-3.22947397733788));
#1427=CARTESIAN_POINT('Origin',(-14.3498023914793,28.,1.75734395671221E-15));
#1428=CARTESIAN_POINT('',(-16.8394678017932,28.,-1.8391919884293));
#1429=CARTESIAN_POINT('',(-16.8394678017932,28.,2.06224003428109E-15));
#1430=CARTESIAN_POINT('',(-11.1479912768491,28.,1.00702599466098E-15));
#1431=CARTESIAN_POINT('Origin',(-14.3498023914793,28.,1.75734395671221E-15));
#1432=CARTESIAN_POINT('',(-16.8394678017932,28.,1.8391919884293));
#1433=CARTESIAN_POINT('Origin',(-14.3498023914793,28.,1.75734395671221E-15));
#1434=CARTESIAN_POINT('',(-16.8394678017932,28.,3.22947397733789));
#1435=CARTESIAN_POINT('',(-16.8394678017932,28.,2.06224003428109E-15));
#1436=CARTESIAN_POINT('',(-18.4591621993098,28.,1.2285482894757));
#1437=CARTESIAN_POINT('Origin',(-14.3498023914793,28.,1.75734395671221E-15));
#1438=CARTESIAN_POINT('',(-11.6716142920473,28.,14.3535159392282));
#1439=CARTESIAN_POINT('Origin',(0.,28.,0.));
#1440=CARTESIAN_POINT('',(-11.6245411535842,28.,12.5365421154518));
#1441=CARTESIAN_POINT('Origin',(-7.67427496142348,28.,13.1700209263198));
#1442=CARTESIAN_POINT('',(-10.6665537900851,28.,13.0972830112407));
#1443=CARTESIAN_POINT('',(-8.41901760361746,28.,14.4128384168096));
#1444=CARTESIAN_POINT('',(-6.04374045085541,28.,10.3535754726013));
#1445=CARTESIAN_POINT('Origin',(-7.67427496142348,28.,13.1700209263198));
#1446=CARTESIAN_POINT('',(-6.14573836618041,28.,15.7434620602395));
#1447=CARTESIAN_POINT('Origin',(-7.67427496142348,28.,13.1700209263198));
#1448=CARTESIAN_POINT('',(-5.18775100268133,28.,16.3042029560284));
#1449=CARTESIAN_POINT('',(-8.41901760361746,28.,14.4128384168096));
#1450=CARTESIAN_POINT('',(-6.73555908105829,28.,17.2302711489278));
#1451=CARTESIAN_POINT('Origin',(-7.67427496142348,28.,13.1700209263198));
#1452=CARTESIAN_POINT('',(6.59470229097284,28.,17.2846724497006));
#1453=CARTESIAN_POINT('Origin',(0.,28.,0.));
#1454=CARTESIAN_POINT('',(5.04469337080262,28.,16.3354190040675));
#1455=CARTESIAN_POINT('Origin',(7.5684352098539,28.,13.2311275353795));
#1456=CARTESIAN_POINT('',(6.00930291324624,28.,15.7861480586673));
#1457=CARTESIAN_POINT('',(8.27237540778871,28.,14.4975023280459));
#1458=CARTESIAN_POINT('',(5.94458915384452,28.,10.4108205006211));
#1459=CARTESIAN_POINT('Origin',(7.5684352098539,28.,13.2311275353795));
#1460=CARTESIAN_POINT('',(10.5613689045937,28.,13.1940965802446));
#1461=CARTESIAN_POINT('Origin',(7.5684352098539,28.,13.2311275353795));
#1462=CARTESIAN_POINT('',(11.5259784470373,28.,12.6448256348444));
#1463=CARTESIAN_POINT('',(8.27237540778871,28.,14.4975023280459));
#1464=CARTESIAN_POINT('',(11.5540729885364,28.,14.4483008473513));
#1465=CARTESIAN_POINT('Origin',(7.5684352098539,28.,13.2311275353795));
#1466=CARTESIAN_POINT('Origin',(0.,28.,0.));
#1467=CARTESIAN_POINT('',(-3.95,28.,-4.83735485663205E-16));
#1468=CARTESIAN_POINT('Origin',(0.,28.,0.));
#1469=CARTESIAN_POINT('Origin',(0.94981226818248,0.708501652720022,-1.68173759470684));
#1470=CARTESIAN_POINT('',(6.74338122050494,14.,-7.68366482510034));
#1471=CARTESIAN_POINT('',(3.34635471038937,14.,-9.67205398437219));
#1472=CARTESIAN_POINT('Origin',(4.2247583204745,14.,-7.27675832138807));
#1473=CARTESIAN_POINT('',(3.28126032437113,15.7137137286014,-5.63906756820139));
#1474=CARTESIAN_POINT('Origin',(4.382370817207,14.6396765645543,-7.54602846261228));
#1475=CARTESIAN_POINT('',(4.38853727566937,20.2076411195157,-7.53077429978379));
#1476=CARTESIAN_POINT('',(-0.151298224653384,1.78253881676715,0.22522329970405));
#1477=CARTESIAN_POINT('Origin',(5.48964776850523,19.1336039554685,-9.43773519419468));
#1478=CARTESIAN_POINT('Origin',(4.382370817207,14.6396765645543,-7.54602846261228));
#1479=CARTESIAN_POINT('Origin',(0.94981226818248,0.708501652720022,-1.68173759470684));
#1480=CARTESIAN_POINT('',(4.17505666991547,20.415872814586,-7.16105739168372));
#1481=CARTESIAN_POINT('Origin',(5.48964776850523,19.1336039554685,-9.43773519419468));
#1482=CARTESIAN_POINT('',(-0.364778830407277,1.99077051183751,0.59494020780412));
#1483=CARTESIAN_POINT('Origin',(7.81492936623151,28.5708514763885,-13.4103193305177));
#1484=CARTESIAN_POINT('Origin',(0.94981226818248,0.708501652720022,-1.68173759470684));
#1485=CARTESIAN_POINT('',(7.16537034331673,27.1962553170974,-17.0560097280436));
#1486=CARTESIAN_POINT('Origin',(7.81492936623152,28.5708514763885,-13.4103193305177));
#1487=CARTESIAN_POINT('Ctrl Pts',(6.73555908105829,28.,-17.2302711489278));
#1488=CARTESIAN_POINT('Ctrl Pts',(6.75659010311697,27.9537812565596,-17.2220498220324));
#1489=CARTESIAN_POINT('Ctrl Pts',(6.77798172866478,27.9079526262701,-17.2136431636814));
#1490=CARTESIAN_POINT('Ctrl Pts',(6.90471228721511,27.6433821851963,-17.1635570032569));
#1491=CARTESIAN_POINT('Ctrl Pts',(7.02699077450922,27.4158294168471,-17.1141441260806));
#1492=CARTESIAN_POINT('Ctrl Pts',(7.16537034331673,27.1962553170974,-17.0560097280436));
#1493=CARTESIAN_POINT('Origin',(4.21627927451226,13.9655874559171,-7.26227245287492));
#1494=CARTESIAN_POINT('Origin',(4.8500572653966,14.,-8.34503868428521));
#1495=CARTESIAN_POINT('Origin',(7.81492936623152,28.5708514763885,-13.4103193305177));
#1496=CARTESIAN_POINT('',(11.3045031843237,27.1915618049542,-14.6443916826755));
#1497=CARTESIAN_POINT('Origin',(7.81492936623152,28.5708514763885,-13.4103193305177));
#1498=CARTESIAN_POINT('Origin',(0.,36.1414416426306,0.));
#1499=CARTESIAN_POINT('Origin',(0.94981226818248,0.708501652720022,-1.68173759470684));
#1500=CARTESIAN_POINT('Ctrl Pts',(11.3045031843237,27.1915618049542,-14.6443916826755));
#1501=CARTESIAN_POINT('Ctrl Pts',(11.4278939211648,27.4185165319633,-14.5491421832247));
#1502=CARTESIAN_POINT('Ctrl Pts',(11.5348095364229,27.6543733882216,-14.464152630708));
#1503=CARTESIAN_POINT('Ctrl Pts',(11.6410160782638,27.9205084221907,-14.3783570363258));
#1504=CARTESIAN_POINT('Ctrl Pts',(11.6564411146733,27.9601081495965,-14.3658540642314));
#1505=CARTESIAN_POINT('Ctrl Pts',(11.6716142920473,28.,-14.3535159392282));
#1506=CARTESIAN_POINT('Origin',(5.48964776850523,19.1336039554685,-9.43773519419468));
#1507=CARTESIAN_POINT('Origin',(-2.1528434984694,0.605181796501791,2.63647289946574E-16));
#1508=CARTESIAN_POINT('',(-10.1757859350515,14.,-1.5696305152879));
#1509=CARTESIAN_POINT('',(-10.1757859350515,14.,1.5696305152879));
#1510=CARTESIAN_POINT('Origin',(-8.11660079715975,14.,9.93996918619855E-16));
#1511=CARTESIAN_POINT('',(-6.21907509491993,15.7616411654978,4.6157857507397E-16));
#1512=CARTESIAN_POINT('Origin',(-8.4572614661443,14.7651363899621,1.03571581840659E-15));
#1513=CARTESIAN_POINT('',(-8.25275831029893,20.3293684537108,7.10632939093329E-16));
#1514=CARTESIAN_POINT('',(0.0853428727549754,1.6016865720375,-3.10489953386044E-16));
#1515=CARTESIAN_POINT('Origin',(-10.4909446815233,19.3328636781751,1.28477018242595E-15));
#1516=CARTESIAN_POINT('Origin',(-8.4572614661443,14.7651363899621,1.03571581840659E-15));
#1517=CARTESIAN_POINT('Origin',(-2.1528434984694,0.605181796501791,2.63647289946574E-16));
#1518=CARTESIAN_POINT('',(-7.81882421791869,20.5225683591718,5.99320616406393E-16));
#1519=CARTESIAN_POINT('Origin',(-10.4909446815233,19.3328636781751,1.28477018242595E-15));
#1520=CARTESIAN_POINT('',(0.519276965135211,1.79488647749851,-4.21802276072979E-16));
#1521=CARTESIAN_POINT('Origin',(-14.7616794338192,28.9250909834224,1.8077843468666E-15));
#1522=CARTESIAN_POINT('Origin',(-14.7616794338192,28.9250909834224,1.8077843468666E-15));
#1523=CARTESIAN_POINT('Origin',(-14.7616794338192,28.9250909834224,1.8077843468666E-15));
#1524=CARTESIAN_POINT('Origin',(-8.15220898383745,14.0799772967302,9.98357663803683E-16));
#1525=CARTESIAN_POINT('Origin',(-9.09674443476737,14.,1.11022302462516E-15));
#1526=CARTESIAN_POINT('Origin',(-2.1528434984694,0.605181796501791,2.63647289946574E-16));
#1527=CARTESIAN_POINT('',(-18.5,27.6100527721887,2.06954896623878E-15));
#1528=CARTESIAN_POINT('Ctrl Pts',(-18.5,27.6100527721887,2.0122792321331E-15));
#1529=CARTESIAN_POINT('Ctrl Pts',(-18.5,27.6100527721887,-0.240671872298797));
#1530=CARTESIAN_POINT('Ctrl Pts',(-18.4952246007871,27.6539617702747,-0.477506816663218));
#1531=CARTESIAN_POINT('Ctrl Pts',(-18.4796532294964,27.8010761703517,-0.886436886385234));
#1532=CARTESIAN_POINT('Ctrl Pts',(-18.4702316741496,27.8910423408013,-1.06222741036949));
#1533=CARTESIAN_POINT('Ctrl Pts',(-18.4591621993098,28.,-1.22854828947567));
#1534=CARTESIAN_POINT('Ctrl Pts',(-18.4591621993098,28.,1.22854828947569));
#1535=CARTESIAN_POINT('Ctrl Pts',(-18.4702316741496,27.8910423408013,1.0622274103695));
#1536=CARTESIAN_POINT('Ctrl Pts',(-18.4796532294964,27.8010761703517,0.886436886385245));
#1537=CARTESIAN_POINT('Ctrl Pts',(-18.4952246007871,27.6539617702747,0.477506816663226));
#1538=CARTESIAN_POINT('Ctrl Pts',(-18.5,27.6100527721887,0.240671872298802));
#1539=CARTESIAN_POINT('Ctrl Pts',(-18.5,27.6100527721887,1.80411241501588E-15));
#1540=CARTESIAN_POINT('Origin',(-10.4909446815233,19.3328636781751,1.28477018242595E-15));
#1541=CARTESIAN_POINT('Origin',(-0.98152134542422,0.708501652720022,-1.66343035042556));
#1542=CARTESIAN_POINT('',(-3.28255832244934,14.,-9.68177185691036));
#1543=CARTESIAN_POINT('',(-6.70306710204613,14.,-7.73405518145701));
#1544=CARTESIAN_POINT('Origin',(-4.18947840328464,14.,-7.29712719107463));
#1545=CARTESIAN_POINT('',(-3.24294560553378,15.7137137286014,-5.66118858143606));
#1546=CARTESIAN_POINT('Origin',(-4.34386693769917,14.6396765645543,-7.56825868781097));
#1547=CARTESIAN_POINT('',(-4.32757321594505,20.2076411195157,-7.56597191607652));
#1548=CARTESIAN_POINT('',(0.119399986741172,1.78253881676715,0.243639755949341));
#1549=CARTESIAN_POINT('Origin',(-5.42849454811044,19.1336039554685,-9.47304202245142));
#1550=CARTESIAN_POINT('Origin',(-4.34386693769917,14.6396765645543,-7.56825868781097));
#1551=CARTESIAN_POINT('Origin',(-0.98152134542422,0.708501652720022,-1.66343035042556));
#1552=CARTESIAN_POINT('',(-4.1141292841987,20.415872814586,-7.19623383422832));
#1553=CARTESIAN_POINT('Origin',(-5.42849454811044,19.1336039554685,-9.47304202245142));
#1554=CARTESIAN_POINT('',(0.332843918487522,1.99077051183751,0.613377837797536));
#1555=CARTESIAN_POINT('Origin',(-7.70621252997412,28.5708514763885,-13.4730870251964));
#1556=CARTESIAN_POINT('Origin',(-0.98152134542422,0.708501652720022,-1.66343035042556));
#1557=CARTESIAN_POINT('',(-11.1882525400219,27.1962553170974,-14.7333976088577));
#1558=CARTESIAN_POINT('Origin',(-7.70621252997411,28.5708514763885,-13.4730870251964));
#1559=CARTESIAN_POINT('Ctrl Pts',(-11.5540729885364,28.,-14.4483008473513));
#1560=CARTESIAN_POINT('Ctrl Pts',(-11.5364375995629,27.9537812565596,-14.462403583274));
#1561=CARTESIAN_POINT('Ctrl Pts',(-11.518461407096,27.9079526262701,-14.4767259452512));
#1562=CARTESIAN_POINT('Ctrl Pts',(-11.4117202405153,27.6433821851963,-14.5614347481793));
#1563=CARTESIAN_POINT('Ctrl Pts',(-11.3077881899595,27.4158294168471,-14.6426245859242));
#1564=CARTESIAN_POINT('Ctrl Pts',(-11.1882525400219,27.1962553170974,-14.7333976088577));
#1565=CARTESIAN_POINT('Origin',(-4.18117279613748,13.9655874559171,-7.2825411876149));
#1566=CARTESIAN_POINT('Origin',(-4.80198686345656,14.,-8.37279214378534));
#1567=CARTESIAN_POINT('Origin',(-7.70621252997411,28.5708514763885,-13.4730870251964));
#1568=CARTESIAN_POINT('',(-7.03016362800471,27.1915618049542,-17.1121827761241));
#1569=CARTESIAN_POINT('Origin',(-7.70621252997411,28.5708514763885,-13.4730870251964));
#1570=CARTESIAN_POINT('Origin',(0.,36.1414416426306,0.));
#1571=CARTESIAN_POINT('Origin',(-0.98152134542422,0.708501652720022,-1.66343035042556));
#1572=CARTESIAN_POINT('Ctrl Pts',(-7.03016362800471,27.1915618049542,-17.1121827761241));
#1573=CARTESIAN_POINT('Ctrl Pts',(-6.88597977336196,27.4185165319633,-17.1714175390948));
#1574=CARTESIAN_POINT('Ctrl Pts',(-6.75891885419723,27.6543733882216,-17.2215144017112));
#1575=CARTESIAN_POINT('Ctrl Pts',(-6.63151441900896,27.9205084221907,-17.2705941678025));
#1576=CARTESIAN_POINT('Ctrl Pts',(-6.61297400934766,27.9601081495965,-17.2777011551402));
#1577=CARTESIAN_POINT('Ctrl Pts',(-6.59470229097284,28.,-17.2846724497006));
#1578=CARTESIAN_POINT('Origin',(-5.42849454811044,19.1336039554685,-9.47304202245142));
#1579=CARTESIAN_POINT('Origin',(0.,-2.,0.));
#1580=CARTESIAN_POINT('',(-2.45,14.,3.00038465791102E-16));
#1581=CARTESIAN_POINT('Origin',(0.,14.,0.));
#1582=CARTESIAN_POINT('',(-2.45,15.5,3.00038465791102E-16));
#1583=CARTESIAN_POINT('',(-2.45,-2.,3.00038465791102E-16));
#1584=CARTESIAN_POINT('Origin',(0.,15.5,0.));
#1585=CARTESIAN_POINT('Origin',(0.,26.,0.));
#1586=CARTESIAN_POINT('',(-3.95,26.,4.83735485663205E-16));
#1587=CARTESIAN_POINT('Origin',(0.,26.,0.));
#1588=CARTESIAN_POINT('',(-2.925,26.,3.58209188750601E-16));
#1589=CARTESIAN_POINT('Origin',(0.,26.,0.));
#1590=CARTESIAN_POINT('Origin',(0.,-2.,0.));
#1591=CARTESIAN_POINT('',(-3.95,-2.,4.83735485663205E-16));
#1592=CARTESIAN_POINT('Origin',(0.,15.5,0.));
#1593=CARTESIAN_POINT('',(-2.925,15.5,3.58209188750601E-16));
#1594=CARTESIAN_POINT('Origin',(0.,15.5,0.));
#1595=CARTESIAN_POINT('Origin',(0.,-2.,0.));
#1596=CARTESIAN_POINT('',(-2.925,-2.,3.58209188750601E-16));
#1597=CARTESIAN_POINT('Origin',(0.98152134542422,0.708501652720022,1.66343035042556));
#1598=CARTESIAN_POINT('',(3.28255832244934,14.,9.68177185691036));
#1599=CARTESIAN_POINT('',(6.70306710204613,14.,7.73405518145701));
#1600=CARTESIAN_POINT('Origin',(4.18947840328463,14.,7.29712719107463));
#1601=CARTESIAN_POINT('',(3.24294560553377,15.7137137286014,5.66118858143606));
#1602=CARTESIAN_POINT('Origin',(4.34386693769917,14.6396765645543,7.56825868781097));
#1603=CARTESIAN_POINT('',(4.32757321594505,20.2076411195157,7.56597191607652));
#1604=CARTESIAN_POINT('',(-0.119399986741171,1.78253881676715,-0.243639755949341));
#1605=CARTESIAN_POINT('Origin',(5.42849454811044,19.1336039554685,9.47304202245142));
#1606=CARTESIAN_POINT('Origin',(4.34386693769917,14.6396765645543,7.56825868781097));
#1607=CARTESIAN_POINT('Origin',(0.98152134542422,0.708501652720022,1.66343035042556));
#1608=CARTESIAN_POINT('',(4.1141292841987,20.415872814586,7.19623383422832));
#1609=CARTESIAN_POINT('Origin',(5.42849454811044,19.1336039554685,9.47304202245142));
#1610=CARTESIAN_POINT('',(-0.332843918487522,1.99077051183751,-0.613377837797537));
#1611=CARTESIAN_POINT('Origin',(7.70621252997412,28.5708514763885,13.4730870251964));
#1612=CARTESIAN_POINT('Origin',(0.98152134542422,0.708501652720022,1.66343035042556));
#1613=CARTESIAN_POINT('',(11.1882525400219,27.1962553170974,14.7333976088577));
#1614=CARTESIAN_POINT('Origin',(7.70621252997411,28.5708514763885,13.4730870251964));
#1615=CARTESIAN_POINT('Ctrl Pts',(11.5540729885364,28.,14.4483008473513));
#1616=CARTESIAN_POINT('Ctrl Pts',(11.4467041367775,27.7186082246112,14.5341619851435));
#1617=CARTESIAN_POINT('Ctrl Pts',(11.3260062324854,27.4492939965681,14.6287901625294));
#1618=CARTESIAN_POINT('Ctrl Pts',(11.1882525400219,27.1962553170974,14.7333976088577));
#1619=CARTESIAN_POINT('Origin',(4.18117279613748,13.9655874559171,7.2825411876149));
#1620=CARTESIAN_POINT('Origin',(4.80198686345656,14.,8.37279214378534));
#1621=CARTESIAN_POINT('Origin',(7.70621252997411,28.5708514763885,13.4730870251964));
#1622=CARTESIAN_POINT('',(7.03016362800471,27.1915618049542,17.1121827761241));
#1623=CARTESIAN_POINT('Origin',(7.70621252997411,28.5708514763885,13.4730870251964));
#1624=CARTESIAN_POINT('Origin',(0.,36.1414416426306,0.));
#1625=CARTESIAN_POINT('Origin',(0.98152134542422,0.708501652720022,1.66343035042556));
#1626=CARTESIAN_POINT('Ctrl Pts',(7.03016362800471,27.1915618049542,17.1121827761241));
#1627=CARTESIAN_POINT('Ctrl Pts',(7.02989061235341,27.1919915492745,17.112294938595));
#1628=CARTESIAN_POINT('Ctrl Pts',(7.02961767633783,27.1924212949977,17.1124070607128));
#1629=CARTESIAN_POINT('Ctrl Pts',(6.86808078468025,27.4468408273308,17.1787619032203));
#1630=CARTESIAN_POINT('Ctrl Pts',(6.72418315449977,27.7173100453953,17.2352710074793));
#1631=CARTESIAN_POINT('Ctrl Pts',(6.59470229097284,28.,17.2846724497006));
#1632=CARTESIAN_POINT('Origin',(5.42849454811044,19.1336039554685,9.47304202245142));
#1633=CARTESIAN_POINT('Origin',(-0.94981226818248,0.708501652720022,1.68173759470684));
#1634=CARTESIAN_POINT('',(-6.74338122050494,14.,7.68366482510034));
#1635=CARTESIAN_POINT('',(-3.34635471038937,14.,9.67205398437219));
#1636=CARTESIAN_POINT('Origin',(-4.2247583204745,14.,7.27675832138807));
#1637=CARTESIAN_POINT('',(-3.28126032437113,15.7137137286014,5.63906756820139));
#1638=CARTESIAN_POINT('Origin',(-4.382370817207,14.6396765645543,7.54602846261228));
#1639=CARTESIAN_POINT('',(-4.38853727566936,20.2076411195157,7.53077429978379));
#1640=CARTESIAN_POINT('',(0.151298224653384,1.78253881676715,-0.22522329970405));
#1641=CARTESIAN_POINT('Origin',(-5.48964776850523,19.1336039554685,9.43773519419468));
#1642=CARTESIAN_POINT('Origin',(-4.382370817207,14.6396765645543,7.54602846261228));
#1643=CARTESIAN_POINT('Origin',(-0.94981226818248,0.708501652720022,1.68173759470684));
#1644=CARTESIAN_POINT('',(-7.16537034331673,27.1962553170974,17.0560097280436));
#1645=CARTESIAN_POINT('Ctrl Pts',(-6.73555908105829,28.,17.2302711489278));
#1646=CARTESIAN_POINT('Ctrl Pts',(-6.86360143346362,27.7186082246113,17.1802175646255));
#1647=CARTESIAN_POINT('Ctrl Pts',(-7.00590079113961,27.4492939965681,17.1230042020179));
#1648=CARTESIAN_POINT('Ctrl Pts',(-7.16537034331674,27.1962553170974,17.0560097280436));
#1649=CARTESIAN_POINT('Origin',(-7.81492936623151,28.5708514763885,13.4103193305177));
#1650=CARTESIAN_POINT('Origin',(-0.94981226818248,0.708501652720022,1.68173759470684));
#1651=CARTESIAN_POINT('',(-11.3045031843237,27.1915618049542,14.6443916826755));
#1652=CARTESIAN_POINT('Ctrl Pts',(-11.3045031843237,27.1915618049542,14.6443916826755));
#1653=CARTESIAN_POINT('Ctrl Pts',(-11.3047368276984,27.1919915492745,14.6442113254213));
#1654=CARTESIAN_POINT('Ctrl Pts',(-11.3049703963085,27.1924212949977,14.6440310169571));
#1655=CARTESIAN_POINT('Ctrl Pts',(-11.4432038214129,27.4468408273308,14.537313386387));
#1656=CARTESIAN_POINT('Ctrl Pts',(-11.5640909563366,27.7173100453953,14.4409489352358));
#1657=CARTESIAN_POINT('Ctrl Pts',(-11.6716142920473,28.,14.3535159392282));
#1658=CARTESIAN_POINT('Origin',(-7.81492936623151,28.5708514763885,13.4103193305177));
#1659=CARTESIAN_POINT('Origin',(-0.94981226818248,0.708501652720022,1.68173759470684));
#1660=CARTESIAN_POINT('',(-4.17505666991547,20.415872814586,7.16105739168372));
#1661=CARTESIAN_POINT('Origin',(-5.48964776850523,19.1336039554685,9.43773519419468));
#1662=CARTESIAN_POINT('',(0.364778830407276,1.99077051183751,-0.59494020780412));
#1663=CARTESIAN_POINT('Origin',(-7.81492936623151,28.5708514763885,13.4103193305177));
#1664=CARTESIAN_POINT('Origin',(-4.21627927451226,13.9655874559171,7.26227245287492));
#1665=CARTESIAN_POINT('Origin',(-4.85005726539659,14.,8.34503868428521));
#1666=CARTESIAN_POINT('Origin',(-7.81492936623151,28.5708514763885,13.4103193305177));
#1667=CARTESIAN_POINT('Origin',(0.,36.1414416426306,0.));
#1668=CARTESIAN_POINT('Origin',(-5.48964776850523,19.1336039554685,9.43773519419468));
#1669=CARTESIAN_POINT('Origin',(0.,14.,0.));
#1670=CARTESIAN_POINT('',(-18.5,14.,-2.2655965784226E-15));
#1671=CARTESIAN_POINT('Origin',(0.,14.,0.));
#1672=CARTESIAN_POINT('Origin',(0.,-2.,0.));
#1673=CARTESIAN_POINT('',(-18.5,-2.,2.2655965784226E-15));
#1674=UNCERTAINTY_MEASURE_WITH_UNIT(LENGTH_MEASURE(0.01),#1678,
'DISTANCE_ACCURACY_VALUE',
'Maximum model space distance between geometric entities at asserted c
onnectivities');
#1675=UNCERTAINTY_MEASURE_WITH_UNIT(LENGTH_MEASURE(0.01),#1678,
'DISTANCE_ACCURACY_VALUE',
'Maximum model space distance between geometric entities at asserted c
onnectivities');
#1676=(
GEOMETRIC_REPRESENTATION_CONTEXT(3)
GLOBAL_UNCERTAINTY_ASSIGNED_CONTEXT((#1674))
GLOBAL_UNIT_ASSIGNED_CONTEXT((#1678,#1680,#1681))
REPRESENTATION_CONTEXT('','3D')
);
#1677=(
GEOMETRIC_REPRESENTATION_CONTEXT(3)
GLOBAL_UNCERTAINTY_ASSIGNED_CONTEXT((#1675))
GLOBAL_UNIT_ASSIGNED_CONTEXT((#1678,#1680,#1681))
REPRESENTATION_CONTEXT('','3D')
);
#1678=(
LENGTH_UNIT()
NAMED_UNIT(*)
SI_UNIT(.MILLI.,.METRE.)
);
#1679=(
LENGTH_UNIT()
NAMED_UNIT(*)
SI_UNIT($,.METRE.)
);
#1680=(
NAMED_UNIT(*)
PLANE_ANGLE_UNIT()
SI_UNIT($,.RADIAN.)
);
#1681=(
NAMED_UNIT(*)
SI_UNIT($,.STERADIAN.)
SOLID_ANGLE_UNIT()
);
#1682=SHAPE_DEFINITION_REPRESENTATION(#1683,#1684);
#1683=PRODUCT_DEFINITION_SHAPE('',$,#1686);
#1684=SHAPE_REPRESENTATION('',(#896),#1676);
#1685=PRODUCT_DEFINITION_CONTEXT('part definition',#1690,'design');
#1686=PRODUCT_DEFINITION('7syringe holder 2','7syringe holder 2 v12',#1687,
#1685);
#1687=PRODUCT_DEFINITION_FORMATION('',$,#1692);
#1688=PRODUCT_RELATED_PRODUCT_CATEGORY('7syringe holder 2 v12',
'7syringe holder 2 v12',(#1692));
#1689=APPLICATION_PROTOCOL_DEFINITION('international standard',
'automotive_design',2009,#1690);
#1690=APPLICATION_CONTEXT(
'Core Data for Automotive Mechanical Design Process');
#1691=PRODUCT_CONTEXT('part definition',#1690,'mechanical');
#1692=PRODUCT('7syringe holder 2','7syringe holder 2 v12',$,(#1691));
#1693=PRESENTATION_STYLE_ASSIGNMENT((#1694));
#1694=SURFACE_STYLE_USAGE(.BOTH.,#1695);
#1695=SURFACE_SIDE_STYLE('',(#1696));
#1696=SURFACE_STYLE_FILL_AREA(#1697);
#1697=FILL_AREA_STYLE('Steel - Satin',(#1698));
#1698=FILL_AREA_STYLE_COLOUR('Steel - Satin',#1699);
#1699=COLOUR_RGB('Steel - Satin',0.627450980392157,0.627450980392157,0.627450980392157);
ENDSEC;
END-ISO-10303-21;
