ISO-10303-21;
HEADER;
/* Generated by software containing ST-Developer
 * from STEP Tools, Inc. (www.steptools.com) 
 */

FILE_DESCRIPTION(
/* description */ (''),
/* implementation_level */ '2;1');

FILE_NAME(
/* name */ 'syring support.step',
/* time_stamp */ '2026-08-04T21:55:21+02:00',
/* author */ (''),
/* organization */ (''),
/* preprocessor_version */ 'ST-DEVELOPER v20.1',
/* originating_system */ 'Autodesk Translation Framework v15.8.0.0',
/* authorisation */ '');

FILE_SCHEMA (('AUTOMOTIVE_DESIGN { 1 0 10303 214 3 1 1 }'));
ENDSEC;

DATA;
#10=MECHANICAL_DESIGN_GEOMETRIC_PRESENTATION_REPRESENTATION('',(#13),#1245);
#11=SHAPE_REPRESENTATION_RELATIONSHIP('SRR','None',#1252,#12);
#12=ADVANCED_BREP_SHAPE_REPRESENTATION('',(#14),#1244);
#13=STYLED_ITEM('',(#1261),#14);
#14=MANIFOLD_SOLID_BREP('Body37',#623);
#15=CYLINDRICAL_SURFACE('',#662,18.5);
#16=CYLINDRICAL_SURFACE('',#663,19.5);
#17=CYLINDRICAL_SURFACE('',#668,1.25);
#18=CYLINDRICAL_SURFACE('',#670,1.25);
#19=CYLINDRICAL_SURFACE('',#681,1.25);
#20=CYLINDRICAL_SURFACE('',#683,1.25);
#21=FACE_BOUND('',#112,.T.);
#22=FACE_BOUND('',#116,.T.);
#23=FACE_BOUND('',#117,.T.);
#24=FACE_BOUND('',#125,.T.);
#25=FACE_BOUND('',#126,.T.);
#26=FACE_BOUND('',#129,.T.);
#27=FACE_BOUND('',#130,.T.);
#28=FACE_BOUND('',#137,.T.);
#29=FACE_BOUND('',#138,.T.);
#30=CIRCLE('',#638,19.5);
#31=CIRCLE('',#639,19.5);
#32=CIRCLE('',#640,19.5);
#33=CIRCLE('',#641,19.5);
#34=CIRCLE('',#642,19.5);
#35=CIRCLE('',#644,18.5);
#36=CIRCLE('',#645,18.5);
#37=CIRCLE('',#646,18.5);
#38=CIRCLE('',#649,19.5);
#39=CIRCLE('',#650,19.5);
#40=CIRCLE('',#651,19.5);
#41=CIRCLE('',#652,19.5);
#42=CIRCLE('',#653,19.5);
#43=CIRCLE('',#655,18.5);
#44=CIRCLE('',#656,18.5);
#45=CIRCLE('',#657,18.5);
#46=CIRCLE('',#660,19.5);
#47=CIRCLE('',#661,18.5);
#48=CIRCLE('',#665,1.25);
#49=CIRCLE('',#666,1.25);
#50=CIRCLE('',#669,1.25);
#51=CIRCLE('',#671,1.25);
#52=CIRCLE('',#678,1.25);
#53=CIRCLE('',#679,1.25);
#54=CIRCLE('',#682,1.25);
#55=CIRCLE('',#684,1.25);
#56=B_SPLINE_SURFACE_WITH_KNOTS('',3,3,((#862,#863,#864,#865),(#866,#867,
#868,#869),(#870,#871,#872,#873),(#874,#875,#876,#877)),.UNSPECIFIED.,.F.,
 .F.,.F.,(4,4),(4,4),(0.,1.),(0.,1.),.UNSPECIFIED.);
#57=B_SPLINE_SURFACE_WITH_KNOTS('',3,3,((#888,#889,#890,#891),(#892,#893,
#894,#895),(#896,#897,#898,#899),(#900,#901,#902,#903),(#904,#905,#906,
#907),(#908,#909,#910,#911),(#912,#913,#914,#915),(#916,#917,#918,#919),
(#920,#921,#922,#923),(#924,#925,#926,#927)),.UNSPECIFIED.,.F.,.F.,.F.,
(4,1,1,1,1,1,1,4),(4,4),(0.,0.142857142857143,0.285714285714286,0.428571428571429,
0.571428571428571,0.714285714285714,0.857142857142857,1.),(0.,1.),
 .UNSPECIFIED.);
#58=B_SPLINE_SURFACE_WITH_KNOTS('',3,3,((#933,#934,#935,#936),(#937,#938,
#939,#940),(#941,#942,#943,#944),(#945,#946,#947,#948)),.UNSPECIFIED.,.F.,
 .F.,.F.,(4,4),(4,4),(0.,1.),(0.,1.),.UNSPECIFIED.);
#59=B_SPLINE_SURFACE_WITH_KNOTS('',3,3,((#962,#963,#964,#965),(#966,#967,
#968,#969),(#970,#971,#972,#973),(#974,#975,#976,#977),(#978,#979,#980,
#981),(#982,#983,#984,#985),(#986,#987,#988,#989),(#990,#991,#992,#993),
(#994,#995,#996,#997),(#998,#999,#1000,#1001)),.UNSPECIFIED.,.F.,.F.,.F.,
(4,1,1,1,1,1,1,4),(4,4),(0.,0.142857142857143,0.285714285714286,0.428571428571429,
0.571428571428571,0.714285714285714,0.857142857142857,1.),(0.,1.),
 .UNSPECIFIED.);
#60=B_SPLINE_SURFACE_WITH_KNOTS('',3,3,((#1020,#1021,#1022,#1023),(#1024,
#1025,#1026,#1027),(#1028,#1029,#1030,#1031),(#1032,#1033,#1034,#1035)),
 .UNSPECIFIED.,.F.,.F.,.F.,(4,4),(4,4),(0.,1.),(0.,1.),.UNSPECIFIED.);
#61=B_SPLINE_SURFACE_WITH_KNOTS('',3,3,((#1044,#1045,#1046,#1047),(#1048,
#1049,#1050,#1051),(#1052,#1053,#1054,#1055),(#1056,#1057,#1058,#1059),
(#1060,#1061,#1062,#1063),(#1064,#1065,#1066,#1067),(#1068,#1069,#1070,
#1071),(#1072,#1073,#1074,#1075),(#1076,#1077,#1078,#1079),(#1080,#1081,
#1082,#1083)),.UNSPECIFIED.,.F.,.F.,.F.,(4,1,1,1,1,1,1,4),(4,4),(0.,0.142857142857143,
0.285714285714286,0.428571428571429,0.571428571428571,0.714285714285714,
0.857142857142857,1.),(0.,1.),.UNSPECIFIED.);
#62=B_SPLINE_SURFACE_WITH_KNOTS('',3,3,((#1087,#1088,#1089,#1090),(#1091,
#1092,#1093,#1094),(#1095,#1096,#1097,#1098),(#1099,#1100,#1101,#1102)),
 .UNSPECIFIED.,.F.,.F.,.F.,(4,4),(4,4),(0.,1.),(0.,1.),.UNSPECIFIED.);
#63=B_SPLINE_SURFACE_WITH_KNOTS('',3,3,((#1113,#1114,#1115,#1116),(#1117,
#1118,#1119,#1120),(#1121,#1122,#1123,#1124),(#1125,#1126,#1127,#1128),
(#1129,#1130,#1131,#1132),(#1133,#1134,#1135,#1136),(#1137,#1138,#1139,
#1140),(#1141,#1142,#1143,#1144),(#1145,#1146,#1147,#1148),(#1149,#1150,
#1151,#1152)),.UNSPECIFIED.,.F.,.F.,.F.,(4,1,1,1,1,1,1,4),(4,4),(0.,0.142857142857143,
0.285714285714286,0.428571428571429,0.571428571428571,0.714285714285714,
0.857142857142857,1.),(0.,1.),.UNSPECIFIED.);
#64=FACE_OUTER_BOUND('',#97,.T.);
#65=FACE_OUTER_BOUND('',#98,.T.);
#66=FACE_OUTER_BOUND('',#99,.T.);
#67=FACE_OUTER_BOUND('',#100,.T.);
#68=FACE_OUTER_BOUND('',#101,.T.);
#69=FACE_OUTER_BOUND('',#102,.T.);
#70=FACE_OUTER_BOUND('',#103,.T.);
#71=FACE_OUTER_BOUND('',#104,.T.);
#72=FACE_OUTER_BOUND('',#105,.T.);
#73=FACE_OUTER_BOUND('',#106,.T.);
#74=FACE_OUTER_BOUND('',#107,.T.);
#75=FACE_OUTER_BOUND('',#108,.T.);
#76=FACE_OUTER_BOUND('',#109,.T.);
#77=FACE_OUTER_BOUND('',#110,.T.);
#78=FACE_OUTER_BOUND('',#111,.T.);
#79=FACE_OUTER_BOUND('',#113,.T.);
#80=FACE_OUTER_BOUND('',#114,.T.);
#81=FACE_OUTER_BOUND('',#115,.T.);
#82=FACE_OUTER_BOUND('',#118,.T.);
#83=FACE_OUTER_BOUND('',#119,.T.);
#84=FACE_OUTER_BOUND('',#120,.T.);
#85=FACE_OUTER_BOUND('',#121,.T.);
#86=FACE_OUTER_BOUND('',#122,.T.);
#87=FACE_OUTER_BOUND('',#123,.T.);
#88=FACE_OUTER_BOUND('',#124,.T.);
#89=FACE_OUTER_BOUND('',#127,.T.);
#90=FACE_OUTER_BOUND('',#128,.T.);
#91=FACE_OUTER_BOUND('',#131,.T.);
#92=FACE_OUTER_BOUND('',#132,.T.);
#93=FACE_OUTER_BOUND('',#133,.T.);
#94=FACE_OUTER_BOUND('',#134,.T.);
#95=FACE_OUTER_BOUND('',#135,.T.);
#96=FACE_OUTER_BOUND('',#136,.T.);
#97=EDGE_LOOP('',(#399,#400,#401,#402));
#98=EDGE_LOOP('',(#403,#404,#405,#406,#407));
#99=EDGE_LOOP('',(#408,#409,#410,#411));
#100=EDGE_LOOP('',(#412,#413,#414,#415,#416));
#101=EDGE_LOOP('',(#417,#418,#419,#420));
#102=EDGE_LOOP('',(#421,#422,#423,#424,#425,#426));
#103=EDGE_LOOP('',(#427,#428,#429,#430));
#104=EDGE_LOOP('',(#431,#432,#433,#434));
#105=EDGE_LOOP('',(#435,#436,#437,#438,#439));
#106=EDGE_LOOP('',(#440,#441,#442,#443));
#107=EDGE_LOOP('',(#444,#445,#446,#447,#448));
#108=EDGE_LOOP('',(#449,#450,#451,#452));
#109=EDGE_LOOP('',(#453,#454,#455,#456,#457,#458));
#110=EDGE_LOOP('',(#459,#460,#461,#462));
#111=EDGE_LOOP('',(#463));
#112=EDGE_LOOP('',(#464));
#113=EDGE_LOOP('',(#465,#466,#467,#468,#469,#470,#471,#472,#473));
#114=EDGE_LOOP('',(#474,#475,#476,#477,#478,#479,#480,#481,#482,#483,#484,
#485,#486));
#115=EDGE_LOOP('',(#487,#488,#489,#490));
#116=EDGE_LOOP('',(#491));
#117=EDGE_LOOP('',(#492));
#118=EDGE_LOOP('',(#493,#494,#495,#496,#497,#498));
#119=EDGE_LOOP('',(#499,#500,#501,#502));
#120=EDGE_LOOP('',(#503,#504,#505,#506));
#121=EDGE_LOOP('',(#507,#508,#509,#510,#511,#512));
#122=EDGE_LOOP('',(#513,#514,#515,#516,#517,#518));
#123=EDGE_LOOP('',(#519,#520,#521,#522));
#124=EDGE_LOOP('',(#523,#524,#525,#526));
#125=EDGE_LOOP('',(#527));
#126=EDGE_LOOP('',(#528));
#127=EDGE_LOOP('',(#529,#530,#531,#532,#533,#534));
#128=EDGE_LOOP('',(#535,#536,#537,#538));
#129=EDGE_LOOP('',(#539));
#130=EDGE_LOOP('',(#540));
#131=EDGE_LOOP('',(#541,#542,#543,#544,#545,#546));
#132=EDGE_LOOP('',(#547,#548,#549,#550));
#133=EDGE_LOOP('',(#551,#552,#553,#554));
#134=EDGE_LOOP('',(#555,#556,#557,#558,#559,#560));
#135=EDGE_LOOP('',(#561,#562,#563,#564));
#136=EDGE_LOOP('',(#565,#566,#567,#568));
#137=EDGE_LOOP('',(#569));
#138=EDGE_LOOP('',(#570));
#139=LINE('',#856,#199);
#140=LINE('',#858,#200);
#141=LINE('',#860,#201);
#142=LINE('',#861,#202);
#143=LINE('',#882,#203);
#144=LINE('',#884,#204);
#145=LINE('',#886,#205);
#146=LINE('',#931,#206);
#147=LINE('',#932,#207);
#148=LINE('',#952,#208);
#149=LINE('',#954,#209);
#150=LINE('',#958,#210);
#151=LINE('',#960,#211);
#152=LINE('',#961,#212);
#153=LINE('',#1005,#213);
#154=LINE('',#1007,#214);
#155=LINE('',#1012,#215);
#156=LINE('',#1013,#216);
#157=LINE('',#1017,#217);
#158=LINE('',#1018,#218);
#159=LINE('',#1019,#219);
#160=LINE('',#1039,#220);
#161=LINE('',#1040,#221);
#162=LINE('',#1042,#222);
#163=LINE('',#1086,#223);
#164=LINE('',#1106,#224);
#165=LINE('',#1107,#225);
#166=LINE('',#1111,#226);
#167=LINE('',#1112,#227);
#168=LINE('',#1156,#228);
#169=LINE('',#1157,#229);
#170=LINE('',#1162,#230);
#171=LINE('',#1169,#231);
#172=LINE('',#1171,#232);
#173=LINE('',#1174,#233);
#174=LINE('',#1176,#234);
#175=LINE('',#1177,#235);
#176=LINE('',#1185,#236);
#177=LINE('',#1186,#237);
#178=LINE('',#1187,#238);
#179=LINE('',#1190,#239);
#180=LINE('',#1194,#240);
#181=LINE('',#1198,#241);
#182=LINE('',#1199,#242);
#183=LINE('',#1202,#243);
#184=LINE('',#1203,#244);
#185=LINE('',#1205,#245);
#186=LINE('',#1210,#246);
#187=LINE('',#1212,#247);
#188=LINE('',#1213,#248);
#189=LINE('',#1214,#249);
#190=LINE('',#1218,#250);
#191=LINE('',#1219,#251);
#192=LINE('',#1220,#252);
#193=LINE('',#1227,#253);
#194=LINE('',#1228,#254);
#195=LINE('',#1229,#255);
#196=LINE('',#1233,#256);
#197=LINE('',#1237,#257);
#198=LINE('',#1240,#258);
#199=VECTOR('',#692,10.);
#200=VECTOR('',#693,10.);
#201=VECTOR('',#694,10.);
#202=VECTOR('',#695,10.);
#203=VECTOR('',#698,10.);
#204=VECTOR('',#699,10.);
#205=VECTOR('',#700,29.9535611330457);
#206=VECTOR('',#705,10.);
#207=VECTOR('',#706,29.9535611330457);
#208=VECTOR('',#709,10.);
#209=VECTOR('',#710,10.);
#210=VECTOR('',#715,10.);
#211=VECTOR('',#716,10.);
#212=VECTOR('',#717,31.182527737877);
#213=VECTOR('',#720,10.);
#214=VECTOR('',#721,10.);
#215=VECTOR('',#728,10.);
#216=VECTOR('',#729,10.);
#217=VECTOR('',#732,10.);
#218=VECTOR('',#733,10.);
#219=VECTOR('',#734,10.);
#220=VECTOR('',#737,10.);
#221=VECTOR('',#738,10.);
#222=VECTOR('',#739,29.9535611330457);
#223=VECTOR('',#744,29.9535611330457);
#224=VECTOR('',#747,10.);
#225=VECTOR('',#748,10.);
#226=VECTOR('',#753,10.);
#227=VECTOR('',#754,31.182527737877);
#228=VECTOR('',#757,10.);
#229=VECTOR('',#758,10.);
#230=VECTOR('',#765,10.);
#231=VECTOR('',#774,18.5);
#232=VECTOR('',#777,19.5);
#233=VECTOR('',#780,10.);
#234=VECTOR('',#781,10.);
#235=VECTOR('',#782,10.);
#236=VECTOR('',#789,10.);
#237=VECTOR('',#790,10.);
#238=VECTOR('',#791,10.);
#239=VECTOR('',#794,1.25);
#240=VECTOR('',#799,1.25);
#241=VECTOR('',#804,10.);
#242=VECTOR('',#805,10.);
#243=VECTOR('',#808,10.);
#244=VECTOR('',#809,10.);
#245=VECTOR('',#812,10.);
#246=VECTOR('',#817,10.);
#247=VECTOR('',#818,10.);
#248=VECTOR('',#819,10.);
#249=VECTOR('',#820,10.);
#250=VECTOR('',#823,10.);
#251=VECTOR('',#824,10.);
#252=VECTOR('',#825,10.);
#253=VECTOR('',#832,10.);
#254=VECTOR('',#833,10.);
#255=VECTOR('',#834,10.);
#256=VECTOR('',#839,1.25);
#257=VECTOR('',#844,1.25);
#258=VECTOR('',#849,10.);
#259=VERTEX_POINT('',#854);
#260=VERTEX_POINT('',#855);
#261=VERTEX_POINT('',#857);
#262=VERTEX_POINT('',#859);
#263=VERTEX_POINT('',#878);
#264=VERTEX_POINT('',#879);
#265=VERTEX_POINT('',#881);
#266=VERTEX_POINT('',#883);
#267=VERTEX_POINT('',#885);
#268=VERTEX_POINT('',#928);
#269=VERTEX_POINT('',#930);
#270=VERTEX_POINT('',#949);
#271=VERTEX_POINT('',#951);
#272=VERTEX_POINT('',#953);
#273=VERTEX_POINT('',#957);
#274=VERTEX_POINT('',#959);
#275=VERTEX_POINT('',#1002);
#276=VERTEX_POINT('',#1004);
#277=VERTEX_POINT('',#1006);
#278=VERTEX_POINT('',#1008);
#279=VERTEX_POINT('',#1015);
#280=VERTEX_POINT('',#1016);
#281=VERTEX_POINT('',#1036);
#282=VERTEX_POINT('',#1038);
#283=VERTEX_POINT('',#1041);
#284=VERTEX_POINT('',#1084);
#285=VERTEX_POINT('',#1103);
#286=VERTEX_POINT('',#1105);
#287=VERTEX_POINT('',#1110);
#288=VERTEX_POINT('',#1153);
#289=VERTEX_POINT('',#1155);
#290=VERTEX_POINT('',#1158);
#291=VERTEX_POINT('',#1164);
#292=VERTEX_POINT('',#1166);
#293=VERTEX_POINT('',#1173);
#294=VERTEX_POINT('',#1175);
#295=VERTEX_POINT('',#1178);
#296=VERTEX_POINT('',#1180);
#297=VERTEX_POINT('',#1183);
#298=VERTEX_POINT('',#1184);
#299=VERTEX_POINT('',#1189);
#300=VERTEX_POINT('',#1193);
#301=VERTEX_POINT('',#1197);
#302=VERTEX_POINT('',#1201);
#303=VERTEX_POINT('',#1208);
#304=VERTEX_POINT('',#1209);
#305=VERTEX_POINT('',#1211);
#306=VERTEX_POINT('',#1216);
#307=VERTEX_POINT('',#1217);
#308=VERTEX_POINT('',#1221);
#309=VERTEX_POINT('',#1223);
#310=VERTEX_POINT('',#1226);
#311=VERTEX_POINT('',#1231);
#312=VERTEX_POINT('',#1235);
#313=EDGE_CURVE('',#259,#260,#139,.T.);
#314=EDGE_CURVE('',#259,#261,#140,.T.);
#315=EDGE_CURVE('',#262,#261,#141,.T.);
#316=EDGE_CURVE('',#260,#262,#142,.T.);
#317=EDGE_CURVE('',#263,#264,#30,.T.);
#318=EDGE_CURVE('',#263,#265,#143,.T.);
#319=EDGE_CURVE('',#265,#266,#144,.T.);
#320=EDGE_CURVE('',#267,#266,#145,.T.);
#321=EDGE_CURVE('',#264,#267,#31,.T.);
#322=EDGE_CURVE('',#267,#268,#32,.T.);
#323=EDGE_CURVE('',#266,#269,#146,.T.);
#324=EDGE_CURVE('',#268,#269,#147,.T.);
#325=EDGE_CURVE('',#268,#270,#33,.T.);
#326=EDGE_CURVE('',#269,#271,#148,.T.);
#327=EDGE_CURVE('',#272,#271,#149,.T.);
#328=EDGE_CURVE('',#270,#272,#34,.T.);
#329=EDGE_CURVE('',#273,#272,#150,.T.);
#330=EDGE_CURVE('',#271,#274,#151,.T.);
#331=EDGE_CURVE('',#273,#274,#152,.T.);
#332=EDGE_CURVE('',#273,#275,#35,.T.);
#333=EDGE_CURVE('',#274,#276,#153,.T.);
#334=EDGE_CURVE('',#277,#276,#154,.T.);
#335=EDGE_CURVE('',#278,#277,#36,.T.);
#336=EDGE_CURVE('',#275,#278,#37,.T.);
#337=EDGE_CURVE('',#263,#277,#155,.T.);
#338=EDGE_CURVE('',#276,#265,#156,.T.);
#339=EDGE_CURVE('',#279,#280,#157,.T.);
#340=EDGE_CURVE('',#279,#269,#158,.T.);
#341=EDGE_CURVE('',#280,#266,#159,.T.);
#342=EDGE_CURVE('',#272,#281,#38,.T.);
#343=EDGE_CURVE('',#272,#282,#160,.T.);
#344=EDGE_CURVE('',#282,#262,#161,.T.);
#345=EDGE_CURVE('',#283,#262,#162,.T.);
#346=EDGE_CURVE('',#281,#283,#39,.T.);
#347=EDGE_CURVE('',#283,#284,#40,.T.);
#348=EDGE_CURVE('',#284,#261,#163,.T.);
#349=EDGE_CURVE('',#284,#285,#41,.T.);
#350=EDGE_CURVE('',#261,#286,#164,.T.);
#351=EDGE_CURVE('',#263,#286,#165,.T.);
#352=EDGE_CURVE('',#285,#263,#42,.T.);
#353=EDGE_CURVE('',#286,#287,#166,.T.);
#354=EDGE_CURVE('',#277,#287,#167,.T.);
#355=EDGE_CURVE('',#277,#288,#43,.T.);
#356=EDGE_CURVE('',#287,#289,#168,.T.);
#357=EDGE_CURVE('',#273,#289,#169,.T.);
#358=EDGE_CURVE('',#290,#273,#44,.T.);
#359=EDGE_CURVE('',#288,#290,#45,.T.);
#360=EDGE_CURVE('',#289,#282,#170,.T.);
#361=EDGE_CURVE('',#291,#291,#46,.T.);
#362=EDGE_CURVE('',#292,#292,#47,.T.);
#363=EDGE_CURVE('',#292,#277,#171,.T.);
#364=EDGE_CURVE('',#291,#263,#172,.T.);
#365=EDGE_CURVE('',#280,#293,#173,.T.);
#366=EDGE_CURVE('',#293,#294,#174,.T.);
#367=EDGE_CURVE('',#294,#279,#175,.T.);
#368=EDGE_CURVE('',#295,#295,#48,.T.);
#369=EDGE_CURVE('',#296,#296,#49,.T.);
#370=EDGE_CURVE('',#297,#298,#176,.T.);
#371=EDGE_CURVE('',#297,#293,#177,.T.);
#372=EDGE_CURVE('',#298,#265,#178,.T.);
#373=EDGE_CURVE('',#295,#299,#179,.T.);
#374=EDGE_CURVE('',#299,#299,#50,.T.);
#375=EDGE_CURVE('',#296,#300,#180,.T.);
#376=EDGE_CURVE('',#300,#300,#51,.T.);
#377=EDGE_CURVE('',#298,#301,#181,.T.);
#378=EDGE_CURVE('',#301,#271,#182,.T.);
#379=EDGE_CURVE('',#302,#294,#183,.T.);
#380=EDGE_CURVE('',#302,#301,#184,.T.);
#381=EDGE_CURVE('',#302,#297,#185,.T.);
#382=EDGE_CURVE('',#303,#304,#186,.T.);
#383=EDGE_CURVE('',#304,#305,#187,.T.);
#384=EDGE_CURVE('',#260,#305,#188,.T.);
#385=EDGE_CURVE('',#303,#282,#189,.T.);
#386=EDGE_CURVE('',#306,#307,#190,.T.);
#387=EDGE_CURVE('',#304,#306,#191,.T.);
#388=EDGE_CURVE('',#307,#303,#192,.T.);
#389=EDGE_CURVE('',#308,#308,#52,.T.);
#390=EDGE_CURVE('',#309,#309,#53,.T.);
#391=EDGE_CURVE('',#310,#259,#193,.T.);
#392=EDGE_CURVE('',#306,#310,#194,.T.);
#393=EDGE_CURVE('',#307,#286,#195,.T.);
#394=EDGE_CURVE('',#311,#311,#54,.T.);
#395=EDGE_CURVE('',#311,#308,#196,.T.);
#396=EDGE_CURVE('',#312,#312,#55,.T.);
#397=EDGE_CURVE('',#312,#309,#197,.T.);
#398=EDGE_CURVE('',#305,#310,#198,.T.);
#399=ORIENTED_EDGE('',*,*,#313,.F.);
#400=ORIENTED_EDGE('',*,*,#314,.T.);
#401=ORIENTED_EDGE('',*,*,#315,.F.);
#402=ORIENTED_EDGE('',*,*,#316,.F.);
#403=ORIENTED_EDGE('',*,*,#317,.F.);
#404=ORIENTED_EDGE('',*,*,#318,.T.);
#405=ORIENTED_EDGE('',*,*,#319,.T.);
#406=ORIENTED_EDGE('',*,*,#320,.F.);
#407=ORIENTED_EDGE('',*,*,#321,.F.);
#408=ORIENTED_EDGE('',*,*,#322,.F.);
#409=ORIENTED_EDGE('',*,*,#320,.T.);
#410=ORIENTED_EDGE('',*,*,#323,.T.);
#411=ORIENTED_EDGE('',*,*,#324,.F.);
#412=ORIENTED_EDGE('',*,*,#325,.F.);
#413=ORIENTED_EDGE('',*,*,#324,.T.);
#414=ORIENTED_EDGE('',*,*,#326,.T.);
#415=ORIENTED_EDGE('',*,*,#327,.F.);
#416=ORIENTED_EDGE('',*,*,#328,.F.);
#417=ORIENTED_EDGE('',*,*,#329,.T.);
#418=ORIENTED_EDGE('',*,*,#327,.T.);
#419=ORIENTED_EDGE('',*,*,#330,.T.);
#420=ORIENTED_EDGE('',*,*,#331,.F.);
#421=ORIENTED_EDGE('',*,*,#332,.F.);
#422=ORIENTED_EDGE('',*,*,#331,.T.);
#423=ORIENTED_EDGE('',*,*,#333,.T.);
#424=ORIENTED_EDGE('',*,*,#334,.F.);
#425=ORIENTED_EDGE('',*,*,#335,.F.);
#426=ORIENTED_EDGE('',*,*,#336,.F.);
#427=ORIENTED_EDGE('',*,*,#337,.T.);
#428=ORIENTED_EDGE('',*,*,#334,.T.);
#429=ORIENTED_EDGE('',*,*,#338,.T.);
#430=ORIENTED_EDGE('',*,*,#318,.F.);
#431=ORIENTED_EDGE('',*,*,#339,.F.);
#432=ORIENTED_EDGE('',*,*,#340,.T.);
#433=ORIENTED_EDGE('',*,*,#323,.F.);
#434=ORIENTED_EDGE('',*,*,#341,.F.);
#435=ORIENTED_EDGE('',*,*,#342,.F.);
#436=ORIENTED_EDGE('',*,*,#343,.T.);
#437=ORIENTED_EDGE('',*,*,#344,.T.);
#438=ORIENTED_EDGE('',*,*,#345,.F.);
#439=ORIENTED_EDGE('',*,*,#346,.F.);
#440=ORIENTED_EDGE('',*,*,#347,.F.);
#441=ORIENTED_EDGE('',*,*,#345,.T.);
#442=ORIENTED_EDGE('',*,*,#315,.T.);
#443=ORIENTED_EDGE('',*,*,#348,.F.);
#444=ORIENTED_EDGE('',*,*,#349,.F.);
#445=ORIENTED_EDGE('',*,*,#348,.T.);
#446=ORIENTED_EDGE('',*,*,#350,.T.);
#447=ORIENTED_EDGE('',*,*,#351,.F.);
#448=ORIENTED_EDGE('',*,*,#352,.F.);
#449=ORIENTED_EDGE('',*,*,#337,.F.);
#450=ORIENTED_EDGE('',*,*,#351,.T.);
#451=ORIENTED_EDGE('',*,*,#353,.T.);
#452=ORIENTED_EDGE('',*,*,#354,.F.);
#453=ORIENTED_EDGE('',*,*,#355,.F.);
#454=ORIENTED_EDGE('',*,*,#354,.T.);
#455=ORIENTED_EDGE('',*,*,#356,.T.);
#456=ORIENTED_EDGE('',*,*,#357,.F.);
#457=ORIENTED_EDGE('',*,*,#358,.F.);
#458=ORIENTED_EDGE('',*,*,#359,.F.);
#459=ORIENTED_EDGE('',*,*,#329,.F.);
#460=ORIENTED_EDGE('',*,*,#357,.T.);
#461=ORIENTED_EDGE('',*,*,#360,.T.);
#462=ORIENTED_EDGE('',*,*,#343,.F.);
#463=ORIENTED_EDGE('',*,*,#361,.T.);
#464=ORIENTED_EDGE('',*,*,#362,.T.);
#465=ORIENTED_EDGE('',*,*,#362,.F.);
#466=ORIENTED_EDGE('',*,*,#363,.T.);
#467=ORIENTED_EDGE('',*,*,#355,.T.);
#468=ORIENTED_EDGE('',*,*,#359,.T.);
#469=ORIENTED_EDGE('',*,*,#358,.T.);
#470=ORIENTED_EDGE('',*,*,#332,.T.);
#471=ORIENTED_EDGE('',*,*,#336,.T.);
#472=ORIENTED_EDGE('',*,*,#335,.T.);
#473=ORIENTED_EDGE('',*,*,#363,.F.);
#474=ORIENTED_EDGE('',*,*,#361,.F.);
#475=ORIENTED_EDGE('',*,*,#364,.T.);
#476=ORIENTED_EDGE('',*,*,#317,.T.);
#477=ORIENTED_EDGE('',*,*,#321,.T.);
#478=ORIENTED_EDGE('',*,*,#322,.T.);
#479=ORIENTED_EDGE('',*,*,#325,.T.);
#480=ORIENTED_EDGE('',*,*,#328,.T.);
#481=ORIENTED_EDGE('',*,*,#342,.T.);
#482=ORIENTED_EDGE('',*,*,#346,.T.);
#483=ORIENTED_EDGE('',*,*,#347,.T.);
#484=ORIENTED_EDGE('',*,*,#349,.T.);
#485=ORIENTED_EDGE('',*,*,#352,.T.);
#486=ORIENTED_EDGE('',*,*,#364,.F.);
#487=ORIENTED_EDGE('',*,*,#339,.T.);
#488=ORIENTED_EDGE('',*,*,#365,.T.);
#489=ORIENTED_EDGE('',*,*,#366,.T.);
#490=ORIENTED_EDGE('',*,*,#367,.T.);
#491=ORIENTED_EDGE('',*,*,#368,.T.);
#492=ORIENTED_EDGE('',*,*,#369,.T.);
#493=ORIENTED_EDGE('',*,*,#370,.F.);
#494=ORIENTED_EDGE('',*,*,#371,.T.);
#495=ORIENTED_EDGE('',*,*,#365,.F.);
#496=ORIENTED_EDGE('',*,*,#341,.T.);
#497=ORIENTED_EDGE('',*,*,#319,.F.);
#498=ORIENTED_EDGE('',*,*,#372,.F.);
#499=ORIENTED_EDGE('',*,*,#368,.F.);
#500=ORIENTED_EDGE('',*,*,#373,.T.);
#501=ORIENTED_EDGE('',*,*,#374,.T.);
#502=ORIENTED_EDGE('',*,*,#373,.F.);
#503=ORIENTED_EDGE('',*,*,#369,.F.);
#504=ORIENTED_EDGE('',*,*,#375,.T.);
#505=ORIENTED_EDGE('',*,*,#376,.T.);
#506=ORIENTED_EDGE('',*,*,#375,.F.);
#507=ORIENTED_EDGE('',*,*,#377,.F.);
#508=ORIENTED_EDGE('',*,*,#372,.T.);
#509=ORIENTED_EDGE('',*,*,#338,.F.);
#510=ORIENTED_EDGE('',*,*,#333,.F.);
#511=ORIENTED_EDGE('',*,*,#330,.F.);
#512=ORIENTED_EDGE('',*,*,#378,.F.);
#513=ORIENTED_EDGE('',*,*,#367,.F.);
#514=ORIENTED_EDGE('',*,*,#379,.F.);
#515=ORIENTED_EDGE('',*,*,#380,.T.);
#516=ORIENTED_EDGE('',*,*,#378,.T.);
#517=ORIENTED_EDGE('',*,*,#326,.F.);
#518=ORIENTED_EDGE('',*,*,#340,.F.);
#519=ORIENTED_EDGE('',*,*,#381,.F.);
#520=ORIENTED_EDGE('',*,*,#379,.T.);
#521=ORIENTED_EDGE('',*,*,#366,.F.);
#522=ORIENTED_EDGE('',*,*,#371,.F.);
#523=ORIENTED_EDGE('',*,*,#380,.F.);
#524=ORIENTED_EDGE('',*,*,#381,.T.);
#525=ORIENTED_EDGE('',*,*,#370,.T.);
#526=ORIENTED_EDGE('',*,*,#377,.T.);
#527=ORIENTED_EDGE('',*,*,#376,.F.);
#528=ORIENTED_EDGE('',*,*,#374,.F.);
#529=ORIENTED_EDGE('',*,*,#382,.T.);
#530=ORIENTED_EDGE('',*,*,#383,.T.);
#531=ORIENTED_EDGE('',*,*,#384,.F.);
#532=ORIENTED_EDGE('',*,*,#316,.T.);
#533=ORIENTED_EDGE('',*,*,#344,.F.);
#534=ORIENTED_EDGE('',*,*,#385,.F.);
#535=ORIENTED_EDGE('',*,*,#386,.F.);
#536=ORIENTED_EDGE('',*,*,#387,.F.);
#537=ORIENTED_EDGE('',*,*,#382,.F.);
#538=ORIENTED_EDGE('',*,*,#388,.F.);
#539=ORIENTED_EDGE('',*,*,#389,.F.);
#540=ORIENTED_EDGE('',*,*,#390,.F.);
#541=ORIENTED_EDGE('',*,*,#391,.F.);
#542=ORIENTED_EDGE('',*,*,#392,.F.);
#543=ORIENTED_EDGE('',*,*,#386,.T.);
#544=ORIENTED_EDGE('',*,*,#393,.T.);
#545=ORIENTED_EDGE('',*,*,#350,.F.);
#546=ORIENTED_EDGE('',*,*,#314,.F.);
#547=ORIENTED_EDGE('',*,*,#394,.F.);
#548=ORIENTED_EDGE('',*,*,#395,.T.);
#549=ORIENTED_EDGE('',*,*,#389,.T.);
#550=ORIENTED_EDGE('',*,*,#395,.F.);
#551=ORIENTED_EDGE('',*,*,#396,.F.);
#552=ORIENTED_EDGE('',*,*,#397,.T.);
#553=ORIENTED_EDGE('',*,*,#390,.T.);
#554=ORIENTED_EDGE('',*,*,#397,.F.);
#555=ORIENTED_EDGE('',*,*,#388,.T.);
#556=ORIENTED_EDGE('',*,*,#385,.T.);
#557=ORIENTED_EDGE('',*,*,#360,.F.);
#558=ORIENTED_EDGE('',*,*,#356,.F.);
#559=ORIENTED_EDGE('',*,*,#353,.F.);
#560=ORIENTED_EDGE('',*,*,#393,.F.);
#561=ORIENTED_EDGE('',*,*,#387,.T.);
#562=ORIENTED_EDGE('',*,*,#392,.T.);
#563=ORIENTED_EDGE('',*,*,#398,.F.);
#564=ORIENTED_EDGE('',*,*,#383,.F.);
#565=ORIENTED_EDGE('',*,*,#313,.T.);
#566=ORIENTED_EDGE('',*,*,#384,.T.);
#567=ORIENTED_EDGE('',*,*,#398,.T.);
#568=ORIENTED_EDGE('',*,*,#391,.T.);
#569=ORIENTED_EDGE('',*,*,#396,.T.);
#570=ORIENTED_EDGE('',*,*,#394,.T.);
#571=PLANE('',#637);
#572=PLANE('',#643);
#573=PLANE('',#647);
#574=PLANE('',#648);
#575=PLANE('',#654);
#576=PLANE('',#658);
#577=PLANE('',#659);
#578=PLANE('',#664);
#579=PLANE('',#667);
#580=PLANE('',#672);
#581=PLANE('',#673);
#582=PLANE('',#674);
#583=PLANE('',#675);
#584=PLANE('',#676);
#585=PLANE('',#677);
#586=PLANE('',#680);
#587=PLANE('',#685);
#588=PLANE('',#686);
#589=PLANE('',#687);
#590=ADVANCED_FACE('',(#64),#571,.T.);
#591=ADVANCED_FACE('',(#65),#56,.F.);
#592=ADVANCED_FACE('',(#66),#57,.F.);
#593=ADVANCED_FACE('',(#67),#58,.F.);
#594=ADVANCED_FACE('',(#68),#572,.F.);
#595=ADVANCED_FACE('',(#69),#59,.F.);
#596=ADVANCED_FACE('',(#70),#573,.F.);
#597=ADVANCED_FACE('',(#71),#574,.T.);
#598=ADVANCED_FACE('',(#72),#60,.F.);
#599=ADVANCED_FACE('',(#73),#61,.F.);
#600=ADVANCED_FACE('',(#74),#62,.F.);
#601=ADVANCED_FACE('',(#75),#575,.F.);
#602=ADVANCED_FACE('',(#76),#63,.F.);
#603=ADVANCED_FACE('',(#77),#576,.F.);
#604=ADVANCED_FACE('',(#78,#21),#577,.T.);
#605=ADVANCED_FACE('',(#79),#15,.F.);
#606=ADVANCED_FACE('',(#80),#16,.T.);
#607=ADVANCED_FACE('',(#81,#22,#23),#578,.T.);
#608=ADVANCED_FACE('',(#82),#579,.T.);
#609=ADVANCED_FACE('',(#83),#17,.F.);
#610=ADVANCED_FACE('',(#84),#18,.F.);
#611=ADVANCED_FACE('',(#85),#580,.T.);
#612=ADVANCED_FACE('',(#86),#581,.T.);
#613=ADVANCED_FACE('',(#87),#582,.T.);
#614=ADVANCED_FACE('',(#88,#24,#25),#583,.F.);
#615=ADVANCED_FACE('',(#89),#584,.T.);
#616=ADVANCED_FACE('',(#90,#26,#27),#585,.F.);
#617=ADVANCED_FACE('',(#91),#586,.T.);
#618=ADVANCED_FACE('',(#92),#19,.F.);
#619=ADVANCED_FACE('',(#93),#20,.F.);
#620=ADVANCED_FACE('',(#94),#587,.T.);
#621=ADVANCED_FACE('',(#95),#588,.T.);
#622=ADVANCED_FACE('',(#96,#28,#29),#589,.T.);
#623=CLOSED_SHELL('',(#590,#591,#592,#593,#594,#595,#596,#597,#598,#599,
#600,#601,#602,#603,#604,#605,#606,#607,#608,#609,#610,#611,#612,#613,#614,
#615,#616,#617,#618,#619,#620,#621,#622));
#624=DERIVED_UNIT_ELEMENT(#626,1.);
#625=DERIVED_UNIT_ELEMENT(#1247,-3.);
#626=(
MASS_UNIT()
NAMED_UNIT(*)
SI_UNIT(.KILO.,.GRAM.)
);
#627=DERIVED_UNIT((#624,#625));
#628=MEASURE_REPRESENTATION_ITEM('density measure',
POSITIVE_RATIO_MEASURE(7850.),#627);
#629=PROPERTY_DEFINITION_REPRESENTATION(#634,#631);
#630=PROPERTY_DEFINITION_REPRESENTATION(#635,#632);
#631=REPRESENTATION('material name',(#633),#1244);
#632=REPRESENTATION('density',(#628),#1244);
#633=DESCRIPTIVE_REPRESENTATION_ITEM('Steel','Steel');
#634=PROPERTY_DEFINITION('material property','material name',#1254);
#635=PROPERTY_DEFINITION('material property','density of part',#1254);
#636=AXIS2_PLACEMENT_3D('',#852,#688,#689);
#637=AXIS2_PLACEMENT_3D('',#853,#690,#691);
#638=AXIS2_PLACEMENT_3D('',#880,#696,#697);
#639=AXIS2_PLACEMENT_3D('',#887,#701,#702);
#640=AXIS2_PLACEMENT_3D('',#929,#703,#704);
#641=AXIS2_PLACEMENT_3D('',#950,#707,#708);
#642=AXIS2_PLACEMENT_3D('',#955,#711,#712);
#643=AXIS2_PLACEMENT_3D('',#956,#713,#714);
#644=AXIS2_PLACEMENT_3D('',#1003,#718,#719);
#645=AXIS2_PLACEMENT_3D('',#1009,#722,#723);
#646=AXIS2_PLACEMENT_3D('',#1010,#724,#725);
#647=AXIS2_PLACEMENT_3D('',#1011,#726,#727);
#648=AXIS2_PLACEMENT_3D('',#1014,#730,#731);
#649=AXIS2_PLACEMENT_3D('',#1037,#735,#736);
#650=AXIS2_PLACEMENT_3D('',#1043,#740,#741);
#651=AXIS2_PLACEMENT_3D('',#1085,#742,#743);
#652=AXIS2_PLACEMENT_3D('',#1104,#745,#746);
#653=AXIS2_PLACEMENT_3D('',#1108,#749,#750);
#654=AXIS2_PLACEMENT_3D('',#1109,#751,#752);
#655=AXIS2_PLACEMENT_3D('',#1154,#755,#756);
#656=AXIS2_PLACEMENT_3D('',#1159,#759,#760);
#657=AXIS2_PLACEMENT_3D('',#1160,#761,#762);
#658=AXIS2_PLACEMENT_3D('',#1161,#763,#764);
#659=AXIS2_PLACEMENT_3D('',#1163,#766,#767);
#660=AXIS2_PLACEMENT_3D('',#1165,#768,#769);
#661=AXIS2_PLACEMENT_3D('',#1167,#770,#771);
#662=AXIS2_PLACEMENT_3D('',#1168,#772,#773);
#663=AXIS2_PLACEMENT_3D('',#1170,#775,#776);
#664=AXIS2_PLACEMENT_3D('',#1172,#778,#779);
#665=AXIS2_PLACEMENT_3D('',#1179,#783,#784);
#666=AXIS2_PLACEMENT_3D('',#1181,#785,#786);
#667=AXIS2_PLACEMENT_3D('',#1182,#787,#788);
#668=AXIS2_PLACEMENT_3D('',#1188,#792,#793);
#669=AXIS2_PLACEMENT_3D('',#1191,#795,#796);
#670=AXIS2_PLACEMENT_3D('',#1192,#797,#798);
#671=AXIS2_PLACEMENT_3D('',#1195,#800,#801);
#672=AXIS2_PLACEMENT_3D('',#1196,#802,#803);
#673=AXIS2_PLACEMENT_3D('',#1200,#806,#807);
#674=AXIS2_PLACEMENT_3D('',#1204,#810,#811);
#675=AXIS2_PLACEMENT_3D('',#1206,#813,#814);
#676=AXIS2_PLACEMENT_3D('',#1207,#815,#816);
#677=AXIS2_PLACEMENT_3D('',#1215,#821,#822);
#678=AXIS2_PLACEMENT_3D('',#1222,#826,#827);
#679=AXIS2_PLACEMENT_3D('',#1224,#828,#829);
#680=AXIS2_PLACEMENT_3D('',#1225,#830,#831);
#681=AXIS2_PLACEMENT_3D('',#1230,#835,#836);
#682=AXIS2_PLACEMENT_3D('',#1232,#837,#838);
#683=AXIS2_PLACEMENT_3D('',#1234,#840,#841);
#684=AXIS2_PLACEMENT_3D('',#1236,#842,#843);
#685=AXIS2_PLACEMENT_3D('',#1238,#845,#846);
#686=AXIS2_PLACEMENT_3D('',#1239,#847,#848);
#687=AXIS2_PLACEMENT_3D('',#1241,#850,#851);
#688=DIRECTION('axis',(0.,0.,1.));
#689=DIRECTION('refdir',(1.,0.,0.));
#690=DIRECTION('center_axis',(0.,0.,-1.));
#691=DIRECTION('ref_axis',(1.,1.22464679914735E-16,0.));
#692=DIRECTION('',(-1.,-1.22464679914735E-16,0.));
#693=DIRECTION('',(1.22464679914735E-16,-1.,0.));
#694=DIRECTION('',(1.,1.22464679914735E-16,0.));
#695=DIRECTION('',(1.22464679914735E-16,-1.,0.));
#696=DIRECTION('center_axis',(1.22464679914735E-16,-1.,0.));
#697=DIRECTION('ref_axis',(-1.,-1.22464679914735E-16,0.));
#698=DIRECTION('',(-0.11206641444799,0.41624668223539,0.902319133278687));
#699=DIRECTION('',(0.,0.,1.));
#700=DIRECTION('',(-0.106957271941986,0.434005156924663,0.894538800579118));
#701=DIRECTION('center_axis',(1.22464679914735E-16,-1.,0.));
#702=DIRECTION('ref_axis',(-1.,-1.22464679914735E-16,0.));
#703=DIRECTION('center_axis',(1.22464679914735E-16,-1.,0.));
#704=DIRECTION('ref_axis',(-1.,-1.22464679914735E-16,0.));
#705=DIRECTION('',(-1.,-1.22464679914735E-16,0.));
#706=DIRECTION('',(0.106957271941986,0.434005156924663,0.894538800579118));
#707=DIRECTION('center_axis',(1.22464679914735E-16,-1.,0.));
#708=DIRECTION('ref_axis',(-1.,-1.22464679914735E-16,0.));
#709=DIRECTION('',(0.,0.,-1.));
#710=DIRECTION('',(0.11206641444799,0.41624668223539,0.902319133278687));
#711=DIRECTION('center_axis',(1.22464679914735E-16,-1.,0.));
#712=DIRECTION('ref_axis',(-1.,-1.22464679914735E-16,0.));
#713=DIRECTION('center_axis',(1.11202721036226E-16,-0.908039126984613,0.418885358857315));
#714=DIRECTION('ref_axis',(-5.12986613934302E-17,0.418885358857315,0.908039126984613));
#715=DIRECTION('',(-1.,-1.22464679914735E-16,0.));
#716=DIRECTION('',(1.,1.22464679914735E-16,0.));
#717=DIRECTION('',(0.0972427112358594,0.416900134244379,0.903735654480068));
#718=DIRECTION('center_axis',(-1.22464679914735E-16,1.,0.));
#719=DIRECTION('ref_axis',(-1.,-1.22464679914735E-16,0.));
#720=DIRECTION('',(1.,1.22464679914735E-16,0.));
#721=DIRECTION('',(-0.0972427112358595,0.416900134244379,0.903735654480068));
#722=DIRECTION('center_axis',(-1.22464679914735E-16,1.,0.));
#723=DIRECTION('ref_axis',(-1.,-1.22464679914735E-16,0.));
#724=DIRECTION('center_axis',(-1.22464679914735E-16,1.,0.));
#725=DIRECTION('ref_axis',(-1.,-1.22464679914735E-16,0.));
#726=DIRECTION('center_axis',(1.11202721036226E-16,-0.908039126984613,0.418885358857315));
#727=DIRECTION('ref_axis',(-5.12986613934302E-17,0.418885358857315,0.908039126984613));
#728=DIRECTION('',(-1.,-1.22464679914735E-16,0.));
#729=DIRECTION('',(1.,1.22464679914735E-16,0.));
#730=DIRECTION('center_axis',(0.,0.,1.));
#731=DIRECTION('ref_axis',(-1.,-1.22464679914735E-16,0.));
#732=DIRECTION('',(1.,1.22464679914735E-16,0.));
#733=DIRECTION('',(1.22464679914735E-16,-1.,0.));
#734=DIRECTION('',(1.22464679914735E-16,-1.,0.));
#735=DIRECTION('center_axis',(1.22464679914735E-16,-1.,0.));
#736=DIRECTION('ref_axis',(-1.,-1.22464679914735E-16,0.));
#737=DIRECTION('',(0.112066414447989,0.41624668223539,-0.902319133278688));
#738=DIRECTION('',(0.,0.,-1.));
#739=DIRECTION('',(0.106957271941985,0.434005156924663,-0.894538800579118));
#740=DIRECTION('center_axis',(1.22464679914735E-16,-1.,0.));
#741=DIRECTION('ref_axis',(-1.,-1.22464679914735E-16,0.));
#742=DIRECTION('center_axis',(1.22464679914735E-16,-1.,0.));
#743=DIRECTION('ref_axis',(-1.,-1.22464679914735E-16,0.));
#744=DIRECTION('',(-0.106957271941986,0.434005156924663,-0.894538800579118));
#745=DIRECTION('center_axis',(1.22464679914735E-16,-1.,0.));
#746=DIRECTION('ref_axis',(-1.,-1.22464679914735E-16,0.));
#747=DIRECTION('',(0.,0.,1.));
#748=DIRECTION('',(-0.11206641444799,0.41624668223539,-0.902319133278688));
#749=DIRECTION('center_axis',(1.22464679914735E-16,-1.,0.));
#750=DIRECTION('ref_axis',(-1.,-1.22464679914735E-16,0.));
#751=DIRECTION('center_axis',(1.11202721036226E-16,-0.908039126984613,-0.418885358857315));
#752=DIRECTION('ref_axis',(5.12986613934302E-17,-0.418885358857315,0.908039126984613));
#753=DIRECTION('',(-1.,-1.22464679914735E-16,0.));
#754=DIRECTION('',(-0.097242711235859,0.416900134244379,-0.903735654480069));
#755=DIRECTION('center_axis',(-1.22464679914735E-16,1.,0.));
#756=DIRECTION('ref_axis',(-1.,-1.22464679914735E-16,0.));
#757=DIRECTION('',(-1.,-1.22464679914735E-16,0.));
#758=DIRECTION('',(0.0972427112358587,0.416900134244379,-0.903735654480069));
#759=DIRECTION('center_axis',(-1.22464679914735E-16,1.,0.));
#760=DIRECTION('ref_axis',(-1.,-1.22464679914735E-16,0.));
#761=DIRECTION('center_axis',(-1.22464679914735E-16,1.,0.));
#762=DIRECTION('ref_axis',(-1.,-1.22464679914735E-16,0.));
#763=DIRECTION('center_axis',(1.11202721036226E-16,-0.908039126984613,-0.418885358857315));
#764=DIRECTION('ref_axis',(5.12986613934302E-17,-0.418885358857315,0.908039126984613));
#765=DIRECTION('',(-1.,-1.22464679914735E-16,0.));
#766=DIRECTION('center_axis',(1.22464679914735E-16,-1.,0.));
#767=DIRECTION('ref_axis',(-1.,-1.22464679914735E-16,0.));
#768=DIRECTION('center_axis',(1.22464679914735E-16,-1.,0.));
#769=DIRECTION('ref_axis',(-1.,-1.22464679914735E-16,0.));
#770=DIRECTION('center_axis',(-1.22464679914735E-16,1.,0.));
#771=DIRECTION('ref_axis',(-1.,-1.22464679914735E-16,0.));
#772=DIRECTION('center_axis',(1.22464679914735E-16,-1.,0.));
#773=DIRECTION('ref_axis',(-1.,-1.22464679914735E-16,0.));
#774=DIRECTION('',(-1.22464679914735E-16,1.,0.));
#775=DIRECTION('center_axis',(1.22464679914735E-16,-1.,0.));
#776=DIRECTION('ref_axis',(-1.,-1.22464679914735E-16,0.));
#777=DIRECTION('',(-1.22464679914735E-16,1.,0.));
#778=DIRECTION('center_axis',(1.22464679914735E-16,-1.,0.));
#779=DIRECTION('ref_axis',(-1.,-1.22464679914735E-16,0.));
#780=DIRECTION('',(0.,0.,1.));
#781=DIRECTION('',(-1.,-1.22464679914735E-16,0.));
#782=DIRECTION('',(0.,0.,-1.));
#783=DIRECTION('center_axis',(-1.22464679914735E-16,1.,0.));
#784=DIRECTION('ref_axis',(-1.,-1.22464679914735E-16,0.));
#785=DIRECTION('center_axis',(-1.22464679914735E-16,1.,0.));
#786=DIRECTION('ref_axis',(-1.,-1.22464679914735E-16,0.));
#787=DIRECTION('center_axis',(1.,1.22464679914735E-16,0.));
#788=DIRECTION('ref_axis',(0.,0.,1.));
#789=DIRECTION('',(0.,0.,-1.));
#790=DIRECTION('',(1.22464679914735E-16,-1.,0.));
#791=DIRECTION('',(1.22464679914735E-16,-1.,0.));
#792=DIRECTION('center_axis',(1.22464679914735E-16,-1.,0.));
#793=DIRECTION('ref_axis',(-1.,-1.22464679914735E-16,0.));
#794=DIRECTION('',(-1.22464679914735E-16,1.,0.));
#795=DIRECTION('center_axis',(-1.22464679914735E-16,1.,0.));
#796=DIRECTION('ref_axis',(-1.,-1.22464679914735E-16,0.));
#797=DIRECTION('center_axis',(1.22464679914735E-16,-1.,0.));
#798=DIRECTION('ref_axis',(-1.,-1.22464679914735E-16,0.));
#799=DIRECTION('',(-1.22464679914735E-16,1.,0.));
#800=DIRECTION('center_axis',(-1.22464679914735E-16,1.,0.));
#801=DIRECTION('ref_axis',(-1.,-1.22464679914735E-16,0.));
#802=DIRECTION('center_axis',(0.,0.,-1.));
#803=DIRECTION('ref_axis',(1.,1.22464679914735E-16,0.));
#804=DIRECTION('',(-1.,-1.22464679914735E-16,0.));
#805=DIRECTION('',(1.22464679914735E-16,-1.,0.));
#806=DIRECTION('center_axis',(-1.,-1.22464679914735E-16,0.));
#807=DIRECTION('ref_axis',(0.,0.,-1.));
#808=DIRECTION('',(1.22464679914735E-16,-1.,0.));
#809=DIRECTION('',(0.,0.,-1.));
#810=DIRECTION('center_axis',(0.,0.,1.));
#811=DIRECTION('ref_axis',(-1.,-1.22464679914735E-16,0.));
#812=DIRECTION('',(1.,1.22464679914735E-16,0.));
#813=DIRECTION('center_axis',(1.22464679914735E-16,-1.,0.));
#814=DIRECTION('ref_axis',(-1.,-1.22464679914735E-16,0.));
#815=DIRECTION('center_axis',(-1.,-1.22464679914735E-16,0.));
#816=DIRECTION('ref_axis',(0.,0.,-1.));
#817=DIRECTION('',(0.,0.,-1.));
#818=DIRECTION('',(1.22464679914735E-16,-1.,0.));
#819=DIRECTION('',(0.,0.,-1.));
#820=DIRECTION('',(1.22464679914735E-16,-1.,0.));
#821=DIRECTION('center_axis',(1.22464679914735E-16,-1.,0.));
#822=DIRECTION('ref_axis',(-1.,-1.22464679914735E-16,0.));
#823=DIRECTION('',(0.,0.,1.));
#824=DIRECTION('',(1.,1.22464679914735E-16,0.));
#825=DIRECTION('',(-1.,-1.22464679914735E-16,0.));
#826=DIRECTION('center_axis',(-1.22464679914735E-16,1.,0.));
#827=DIRECTION('ref_axis',(-1.,-1.22464679914735E-16,0.));
#828=DIRECTION('center_axis',(-1.22464679914735E-16,1.,0.));
#829=DIRECTION('ref_axis',(-1.,-1.22464679914735E-16,0.));
#830=DIRECTION('center_axis',(1.,1.22464679914735E-16,0.));
#831=DIRECTION('ref_axis',(0.,0.,1.));
#832=DIRECTION('',(0.,0.,1.));
#833=DIRECTION('',(1.22464679914735E-16,-1.,0.));
#834=DIRECTION('',(1.22464679914735E-16,-1.,0.));
#835=DIRECTION('center_axis',(1.22464679914735E-16,-1.,0.));
#836=DIRECTION('ref_axis',(-1.,-1.22464679914735E-16,0.));
#837=DIRECTION('center_axis',(-1.22464679914735E-16,1.,0.));
#838=DIRECTION('ref_axis',(-1.,-1.22464679914735E-16,0.));
#839=DIRECTION('',(-1.22464679914735E-16,1.,0.));
#840=DIRECTION('center_axis',(1.22464679914735E-16,-1.,0.));
#841=DIRECTION('ref_axis',(-1.,-1.22464679914735E-16,0.));
#842=DIRECTION('center_axis',(-1.22464679914735E-16,1.,0.));
#843=DIRECTION('ref_axis',(-1.,-1.22464679914735E-16,0.));
#844=DIRECTION('',(-1.22464679914735E-16,1.,0.));
#845=DIRECTION('center_axis',(0.,0.,1.));
#846=DIRECTION('ref_axis',(-1.,-1.22464679914735E-16,0.));
#847=DIRECTION('center_axis',(0.,0.,-1.));
#848=DIRECTION('ref_axis',(1.,1.22464679914735E-16,0.));
#849=DIRECTION('',(1.,1.22464679914735E-16,0.));
#850=DIRECTION('center_axis',(1.22464679914735E-16,-1.,0.));
#851=DIRECTION('ref_axis',(-1.,-1.22464679914735E-16,0.));
#852=CARTESIAN_POINT('',(0.,0.,0.));
#853=CARTESIAN_POINT('Origin',(-16.,89.,-30.1807621135332));
#854=CARTESIAN_POINT('',(16.,87.,-30.1807621135332));
#855=CARTESIAN_POINT('',(-16.,87.,-30.1807621135332));
#856=CARTESIAN_POINT('',(-8.00000000000001,87.,-30.1807621135332));
#857=CARTESIAN_POINT('',(16.,39.,-30.1807621135332));
#858=CARTESIAN_POINT('',(16.,89.,-30.1807621135332));
#859=CARTESIAN_POINT('',(-16.,39.,-30.1807621135332));
#860=CARTESIAN_POINT('',(-16.,39.,-30.1807621135332));
#861=CARTESIAN_POINT('',(-16.,89.,-30.1807621135332));
#862=CARTESIAN_POINT('Ctrl Pts',(19.5,26.,2.38806125833734E-15));
#863=CARTESIAN_POINT('Ctrl Pts',(18.3333333333333,30.3333333333333,9.39358737117772));
#864=CARTESIAN_POINT('Ctrl Pts',(17.1666666666667,34.6666666666667,18.7871747423554));
#865=CARTESIAN_POINT('Ctrl Pts',(16.,39.,28.1807621135332));
#866=CARTESIAN_POINT('Ctrl Pts',(19.5,26.,1.13446401379632));
#867=CARTESIAN_POINT('Ctrl Pts',(18.3333154145535,30.3333333333333,10.3721176166298));
#868=CARTESIAN_POINT('Ctrl Pts',(17.1666845854464,34.6666666666667,19.6097751773664));
#869=CARTESIAN_POINT('Ctrl Pts',(16.,39.,28.8474287801998));
#870=CARTESIAN_POINT('Ctrl Pts',(19.4007487923625,26.,2.26891050820519));
#871=CARTESIAN_POINT('Ctrl Pts',(18.2671479859275,30.3333333333333,11.3506370087867));
#872=CARTESIAN_POINT('Ctrl Pts',(17.133600806435,34.6666666666667,20.4323689462849));
#873=CARTESIAN_POINT('Ctrl Pts',(16.,39.,29.5140954468665));
#874=CARTESIAN_POINT('Ctrl Pts',(19.2037511837381,26.,3.38613946450516));
#875=CARTESIAN_POINT('Ctrl Pts',(18.135834122492,30.3333333333333,12.3176803475145));
#876=CARTESIAN_POINT('Ctrl Pts',(17.067917061246,34.6666666666667,21.2492212305238));
#877=CARTESIAN_POINT('Ctrl Pts',(16.,39.,30.1807621135332));
#878=CARTESIAN_POINT('',(19.5,26.,-5.67058006332083E-16));
#879=CARTESIAN_POINT('',(19.3534701063441,26.,2.38604166829631));
#880=CARTESIAN_POINT('Origin',(9.0301058344582E-17,26.,0.));
#881=CARTESIAN_POINT('',(16.,39.,28.1807621135332));
#882=CARTESIAN_POINT('',(19.5,26.,-3.33278403790676E-16));
#883=CARTESIAN_POINT('',(16.,39.,30.1807621135332));
#884=CARTESIAN_POINT('',(16.,39.,30.1807621135332));
#885=CARTESIAN_POINT('',(19.2037511837381,26.,3.38613946450515));
#886=CARTESIAN_POINT('',(19.2037511837381,26.,3.38613946450515));
#887=CARTESIAN_POINT('Origin',(9.0301058344582E-17,26.,0.));
#888=CARTESIAN_POINT('Ctrl Pts',(19.2037511837381,26.,3.38613946450515));
#889=CARTESIAN_POINT('Ctrl Pts',(18.135834122492,30.3333333333333,12.3176803475145));
#890=CARTESIAN_POINT('Ctrl Pts',(17.067917061246,34.6666666666667,21.2492212305238));
#891=CARTESIAN_POINT('Ctrl Pts',(16.,39.,30.1807621135332));
#892=CARTESIAN_POINT('Ctrl Pts',(18.7534709354536,26.,5.93980565033363));
#893=CARTESIAN_POINT('Ctrl Pts',(17.3270651947667,30.3333333333333,14.020107186152));
#894=CARTESIAN_POINT('Ctrl Pts',(15.9025962168774,34.6666666666667,22.1004605777148));
#895=CARTESIAN_POINT('Ctrl Pts',(14.4761904761905,39.,30.1807621135332));
#896=CARTESIAN_POINT('Ctrl Pts',(16.8206721012174,26.,10.8635547018185));
#897=CARTESIAN_POINT('Ctrl Pts',(15.0233279245464,30.3333333333333,17.302342980821));
#898=CARTESIAN_POINT('Ctrl Pts',(13.2259156052424,34.6666666666667,23.7419738345306));
#899=CARTESIAN_POINT('Ctrl Pts',(11.4285714285714,39.,30.1807621135331));
#900=CARTESIAN_POINT('Ctrl Pts',(11.2811514125456,26.,16.5468504999796));
#901=CARTESIAN_POINT('Ctrl Pts',(9.80658136708141,30.3333333333333,21.0920108805452));
#902=CARTESIAN_POINT('Ctrl Pts',(8.33171290260708,34.6666666666667,25.6356017329676));
#903=CARTESIAN_POINT('Ctrl Pts',(6.85714285714285,39.,30.1807621135332));
#904=CARTESIAN_POINT('Ctrl Pts',(3.9676498623061,26.,19.6262943004164));
#905=CARTESIAN_POINT('Ctrl Pts',(3.40703205263812,30.3333333333333,23.1439398289593));
#906=CARTESIAN_POINT('Ctrl Pts',(2.84633209538227,34.6666666666667,26.6631165849903));
#907=CARTESIAN_POINT('Ctrl Pts',(2.28571428571428,39.,30.1807621135332));
#908=CARTESIAN_POINT('Ctrl Pts',(-3.96792765785021,26.,19.6294110422783));
#909=CARTESIAN_POINT('Ctrl Pts',(-3.40731225722916,30.3333333333333,23.1470914044813));
#910=CARTESIAN_POINT('Ctrl Pts',(-2.84632968633533,34.6666666666667,26.6630817513302));
#911=CARTESIAN_POINT('Ctrl Pts',(-2.28571428571428,39.,30.1807621135332));
#912=CARTESIAN_POINT('Ctrl Pts',(-11.2794337355347,26.,16.5440290306176));
#913=CARTESIAN_POINT('Ctrl Pts',(-9.8049031220241,30.3333333333333,21.0891349727345));
#914=CARTESIAN_POINT('Ctrl Pts',(-8.33167347065343,34.6666666666667,25.6356561714163));
#915=CARTESIAN_POINT('Ctrl Pts',(-6.85714285714285,39.,30.1807621135332));
#916=CARTESIAN_POINT('Ctrl Pts',(-16.8217693633525,26.,10.8652916274074));
#917=CARTESIAN_POINT('Ctrl Pts',(-15.0243992374133,30.3333333333333,17.3041921177395));
#918=CARTESIAN_POINT('Ctrl Pts',(-13.2259415545106,34.6666666666667,23.741861623201));
#919=CARTESIAN_POINT('Ctrl Pts',(-11.4285714285714,39.,30.1807621135332));
#920=CARTESIAN_POINT('Ctrl Pts',(-18.7534709354536,26.,5.93980565033361));
#921=CARTESIAN_POINT('Ctrl Pts',(-17.3270877496569,30.3333333333333,14.0200437569189));
#922=CARTESIAN_POINT('Ctrl Pts',(-15.9025736619872,34.6666666666667,22.1005240069479));
#923=CARTESIAN_POINT('Ctrl Pts',(-14.4761904761905,39.,30.1807621135332));
#924=CARTESIAN_POINT('Ctrl Pts',(-19.2037511837381,26.,3.38613946450513));
#925=CARTESIAN_POINT('Ctrl Pts',(-18.135834122492,30.3333333333333,12.3176803475145));
#926=CARTESIAN_POINT('Ctrl Pts',(-17.067917061246,34.6666666666667,21.2492212305238));
#927=CARTESIAN_POINT('Ctrl Pts',(-16.,39.,30.1807621135332));
#928=CARTESIAN_POINT('',(-19.2037511837381,26.,3.38613946450514));
#929=CARTESIAN_POINT('Origin',(9.0301058344582E-17,26.,0.));
#930=CARTESIAN_POINT('',(-16.,39.,30.1807621135332));
#931=CARTESIAN_POINT('',(-16.,39.,30.1807621135332));
#932=CARTESIAN_POINT('',(-19.2037511837381,26.,3.38613946450514));
#933=CARTESIAN_POINT('Ctrl Pts',(-19.2037511837381,26.,3.38613946450514));
#934=CARTESIAN_POINT('Ctrl Pts',(-18.135834122492,30.3333333333333,12.3176803475145));
#935=CARTESIAN_POINT('Ctrl Pts',(-17.067917061246,34.6666666666667,21.2492212305238));
#936=CARTESIAN_POINT('Ctrl Pts',(-16.,39.,30.1807621135332));
#937=CARTESIAN_POINT('Ctrl Pts',(-19.4007487923625,26.,2.26891050820518));
#938=CARTESIAN_POINT('Ctrl Pts',(-18.2671479859275,30.3333333333333,11.3506370087867));
#939=CARTESIAN_POINT('Ctrl Pts',(-17.133600806435,34.6666666666667,20.432368946285));
#940=CARTESIAN_POINT('Ctrl Pts',(-16.,39.,29.5140954468665));
#941=CARTESIAN_POINT('Ctrl Pts',(-19.5,26.,1.13446401379631));
#942=CARTESIAN_POINT('Ctrl Pts',(-18.3333154145535,30.3333333333333,10.3721176166298));
#943=CARTESIAN_POINT('Ctrl Pts',(-17.1666845854464,34.6666666666667,19.6097751773664));
#944=CARTESIAN_POINT('Ctrl Pts',(-16.,39.,28.8474287801998));
#945=CARTESIAN_POINT('Ctrl Pts',(-19.5,26.,-1.62370117351429E-15));
#946=CARTESIAN_POINT('Ctrl Pts',(-18.3333333333333,30.3333333333333,9.39358737117772));
#947=CARTESIAN_POINT('Ctrl Pts',(-17.1666666666667,34.6666666666667,18.7871747423554));
#948=CARTESIAN_POINT('Ctrl Pts',(-16.,39.,28.1807621135332));
#949=CARTESIAN_POINT('',(-19.3534701063441,26.,2.3860416682963));
#950=CARTESIAN_POINT('Origin',(9.0301058344582E-17,26.,0.));
#951=CARTESIAN_POINT('',(-16.,39.,28.1807621135332));
#952=CARTESIAN_POINT('',(-16.,39.,28.1807621135332));
#953=CARTESIAN_POINT('',(-19.5,26.,-5.67058006332083E-16));
#954=CARTESIAN_POINT('',(-19.5,26.,-3.33278403790676E-16));
#955=CARTESIAN_POINT('Origin',(9.0301058344582E-17,26.,0.));
#956=CARTESIAN_POINT('Origin',(-19.5,26.,-3.33278403790676E-16));
#957=CARTESIAN_POINT('',(-18.5,26.,-5.67058006332083E-16));
#958=CARTESIAN_POINT('',(-9.25,26.,-3.33278403790676E-16));
#959=CARTESIAN_POINT('',(-15.4677264595814,39.,28.1807621135332));
#960=CARTESIAN_POINT('',(16.,39.,28.1807621135332));
#961=CARTESIAN_POINT('',(-18.5,26.,-5.67058006332083E-16));
#962=CARTESIAN_POINT('Ctrl Pts',(-18.5,26.,-5.67058006332083E-16));
#963=CARTESIAN_POINT('Ctrl Pts',(-17.4892421531938,30.3333333333333,9.39358737117772));
#964=CARTESIAN_POINT('Ctrl Pts',(-16.4784843063876,34.6666666666667,18.7871747423554));
#965=CARTESIAN_POINT('Ctrl Pts',(-15.4677264595814,39.,28.1807621135332));
#966=CARTESIAN_POINT('Ctrl Pts',(-18.5,26.,2.76759352816244));
#967=CARTESIAN_POINT('Ctrl Pts',(-16.9972104891115,30.3333333333333,11.2388003658892));
#968=CARTESIAN_POINT('Ctrl Pts',(-15.4973991647956,34.6666666666667,19.7095552758064));
#969=CARTESIAN_POINT('Ctrl Pts',(-13.994609653907,39.,28.1807621135332));
#970=CARTESIAN_POINT('Ctrl Pts',(-17.2367278103821,26.,8.30017478371626));
#971=CARTESIAN_POINT('Ctrl Pts',(-15.1739604761126,30.3333333333333,14.9265939472745));
#972=CARTESIAN_POINT('Ctrl Pts',(-13.1111433768278,34.6666666666667,21.554342949975));
#973=CARTESIAN_POINT('Ctrl Pts',(-11.0483760425582,39.,28.1807621135332));
#974=CARTESIAN_POINT('Ctrl Pts',(-11.9303132250237,26.,14.9607917364942));
#975=CARTESIAN_POINT('Ctrl Pts',(-10.1634055525579,30.3333333333333,19.3682404020692));
#976=CARTESIAN_POINT('Ctrl Pts',(-8.3959332980007,34.6666666666667,23.7733134479582));
#977=CARTESIAN_POINT('Ctrl Pts',(-6.62902562553491,39.,28.1807621135332));
#978=CARTESIAN_POINT('Ctrl Pts',(-4.25706360253523,26.,18.6507243952114));
#979=CARTESIAN_POINT('Ctrl Pts',(-3.57463203956599,30.3333333333333,21.8266462554316));
#980=CARTESIAN_POINT('Ctrl Pts',(-2.89210677148087,34.6666666666667,25.004840253313));
#981=CARTESIAN_POINT('Ctrl Pts',(-2.20967520851163,39.,28.1807621135332));
#982=CARTESIAN_POINT('Ctrl Pts',(4.25757418993585,26.,18.6553879152478));
#983=CARTESIAN_POINT('Ctrl Pts',(3.57514456092439,30.3333333333333,21.8313496137208));
#984=CARTESIAN_POINT('Ctrl Pts',(2.8921048375231,34.6666666666667,25.0048004150601));
#985=CARTESIAN_POINT('Ctrl Pts',(2.20967520851164,39.,28.1807621135332));
#986=CARTESIAN_POINT('Ctrl Pts',(11.927471100906,26.,14.956745691958));
#987=CARTESIAN_POINT('Ctrl Pts',(10.1606299093534,30.3333333333333,19.3641144567739));
#988=CARTESIAN_POINT('Ctrl Pts',(8.39586681708761,34.6666666666667,23.7733933487173));
#989=CARTESIAN_POINT('Ctrl Pts',(6.62902562553491,39.,28.1807621135332));
#990=CARTESIAN_POINT('Ctrl Pts',(17.2385773859667,26.,8.30263584221693));
#991=CARTESIAN_POINT('Ctrl Pts',(15.1757696001165,30.3333333333333,14.9292300440737));
#992=CARTESIAN_POINT('Ctrl Pts',(13.1111838284084,34.6666666666667,21.5541679116764));
#993=CARTESIAN_POINT('Ctrl Pts',(11.0483760425582,39.,28.1807621135332));
#994=CARTESIAN_POINT('Ctrl Pts',(18.5,26.,2.76759352816244));
#995=CARTESIAN_POINT('Ctrl Pts',(16.9972461759892,30.3333333333333,11.2386993893348));
#996=CARTESIAN_POINT('Ctrl Pts',(15.4973634779179,34.6666666666667,19.7096562523608));
#997=CARTESIAN_POINT('Ctrl Pts',(13.994609653907,39.,28.1807621135332));
#998=CARTESIAN_POINT('Ctrl Pts',(18.5,26.,2.2655965784226E-15));
#999=CARTESIAN_POINT('Ctrl Pts',(17.4892421531938,30.3333333333333,9.39358737117772));
#1000=CARTESIAN_POINT('Ctrl Pts',(16.4784843063876,34.6666666666667,18.7871747423554));
#1001=CARTESIAN_POINT('Ctrl Pts',(15.4677264595815,39.,28.1807621135332));
#1002=CARTESIAN_POINT('',(-18.2051681444158,26.,3.28965846761478));
#1003=CARTESIAN_POINT('Origin',(9.0301058344582E-17,26.,0.));
#1004=CARTESIAN_POINT('',(15.4677264595814,39.,28.1807621135332));
#1005=CARTESIAN_POINT('',(16.,39.,28.1807621135332));
#1006=CARTESIAN_POINT('',(18.5,26.,-2.2655965784226E-15));
#1007=CARTESIAN_POINT('',(18.5,26.,-3.33278403790676E-16));
#1008=CARTESIAN_POINT('',(18.2051681444158,26.,3.28965846761478));
#1009=CARTESIAN_POINT('Origin',(9.0301058344582E-17,26.,0.));
#1010=CARTESIAN_POINT('Origin',(9.0301058344582E-17,26.,0.));
#1011=CARTESIAN_POINT('Origin',(18.5,26.,-3.33278403790676E-16));
#1012=CARTESIAN_POINT('',(9.75,26.,-3.33278403790676E-16));
#1013=CARTESIAN_POINT('',(16.,39.,28.1807621135332));
#1014=CARTESIAN_POINT('Origin',(16.,89.,30.1807621135332));
#1015=CARTESIAN_POINT('',(-16.,87.,30.1807621135332));
#1016=CARTESIAN_POINT('',(16.,87.,30.1807621135332));
#1017=CARTESIAN_POINT('',(7.99999999999998,87.,30.1807621135332));
#1018=CARTESIAN_POINT('',(-16.,89.,30.1807621135332));
#1019=CARTESIAN_POINT('',(16.,89.,30.1807621135332));
#1020=CARTESIAN_POINT('Ctrl Pts',(-19.5,26.,-5.67058006332083E-16));
#1021=CARTESIAN_POINT('Ctrl Pts',(-18.3333333333333,30.3333333333333,-9.39358737117772));
#1022=CARTESIAN_POINT('Ctrl Pts',(-17.1666666666667,34.6666666666667,-18.7871747423554));
#1023=CARTESIAN_POINT('Ctrl Pts',(-16.,39.,-28.1807621135332));
#1024=CARTESIAN_POINT('Ctrl Pts',(-19.5,26.,-1.13446401379632));
#1025=CARTESIAN_POINT('Ctrl Pts',(-18.3333154145535,30.3333333333333,-10.3721176166298));
#1026=CARTESIAN_POINT('Ctrl Pts',(-17.1666845854465,34.6666666666667,-19.6097751773664));
#1027=CARTESIAN_POINT('Ctrl Pts',(-16.,39.,-28.8474287801998));
#1028=CARTESIAN_POINT('Ctrl Pts',(-19.4007487923625,26.,-2.26891050820519));
#1029=CARTESIAN_POINT('Ctrl Pts',(-18.2671479859275,30.3333333333333,-11.3506370087867));
#1030=CARTESIAN_POINT('Ctrl Pts',(-17.133600806435,34.6666666666667,-20.432368946285));
#1031=CARTESIAN_POINT('Ctrl Pts',(-16.,39.,-29.5140954468665));
#1032=CARTESIAN_POINT('Ctrl Pts',(-19.2037511837381,26.,-3.38613946450514));
#1033=CARTESIAN_POINT('Ctrl Pts',(-18.135834122492,30.3333333333333,-12.3176803475145));
#1034=CARTESIAN_POINT('Ctrl Pts',(-17.067917061246,34.6666666666667,-21.2492212305238));
#1035=CARTESIAN_POINT('Ctrl Pts',(-16.,39.,-30.1807621135332));
#1036=CARTESIAN_POINT('',(-19.3534701063441,26.,-2.38604166829628));
#1037=CARTESIAN_POINT('Origin',(9.0301058344582E-17,26.,0.));
#1038=CARTESIAN_POINT('',(-16.,39.,-28.1807621135332));
#1039=CARTESIAN_POINT('',(-19.5,26.,-5.67058006332083E-16));
#1040=CARTESIAN_POINT('',(-16.,39.,-28.1807621135332));
#1041=CARTESIAN_POINT('',(-19.2037511837381,26.,-3.38613946450515));
#1042=CARTESIAN_POINT('',(-19.2037511837381,26.,-3.38613946450515));
#1043=CARTESIAN_POINT('Origin',(9.0301058344582E-17,26.,0.));
#1044=CARTESIAN_POINT('Ctrl Pts',(-19.2037511837381,26.,-3.38613946450515));
#1045=CARTESIAN_POINT('Ctrl Pts',(-18.135834122492,30.3333333333333,-12.3176803475145));
#1046=CARTESIAN_POINT('Ctrl Pts',(-17.067917061246,34.6666666666667,-21.2492212305238));
#1047=CARTESIAN_POINT('Ctrl Pts',(-16.,39.,-30.1807621135332));
#1048=CARTESIAN_POINT('Ctrl Pts',(-18.7534709354536,26.,-5.93980565033362));
#1049=CARTESIAN_POINT('Ctrl Pts',(-17.3270651947667,30.3333333333333,-14.020107186152));
#1050=CARTESIAN_POINT('Ctrl Pts',(-15.9025962168774,34.6666666666667,-22.1004605777148));
#1051=CARTESIAN_POINT('Ctrl Pts',(-14.4761904761905,39.,-30.1807621135332));
#1052=CARTESIAN_POINT('Ctrl Pts',(-16.8206721012174,26.,-10.8635547018185));
#1053=CARTESIAN_POINT('Ctrl Pts',(-15.0233279245464,30.3333333333333,-17.3023429808211));
#1054=CARTESIAN_POINT('Ctrl Pts',(-13.2259156052425,34.6666666666667,-23.7419738345306));
#1055=CARTESIAN_POINT('Ctrl Pts',(-11.4285714285714,39.,-30.1807621135332));
#1056=CARTESIAN_POINT('Ctrl Pts',(-11.2811514125456,26.,-16.5468504999796));
#1057=CARTESIAN_POINT('Ctrl Pts',(-9.80658136708141,30.3333333333333,-21.0920108805452));
#1058=CARTESIAN_POINT('Ctrl Pts',(-8.33171290260709,34.6666666666667,-25.6356017329677));
#1059=CARTESIAN_POINT('Ctrl Pts',(-6.85714285714286,39.,-30.1807621135332));
#1060=CARTESIAN_POINT('Ctrl Pts',(-3.96764986230611,26.,-19.6262943004164));
#1061=CARTESIAN_POINT('Ctrl Pts',(-3.40703205263813,30.3333333333333,-23.1439398289593));
#1062=CARTESIAN_POINT('Ctrl Pts',(-2.84633209538227,34.6666666666667,-26.6631165849903));
#1063=CARTESIAN_POINT('Ctrl Pts',(-2.28571428571429,39.,-30.1807621135332));
#1064=CARTESIAN_POINT('Ctrl Pts',(3.9679276578502,26.,-19.6294110422783));
#1065=CARTESIAN_POINT('Ctrl Pts',(3.40731225722915,30.3333333333333,-23.1470914044813));
#1066=CARTESIAN_POINT('Ctrl Pts',(2.84632968633532,34.6666666666667,-26.6630817513302));
#1067=CARTESIAN_POINT('Ctrl Pts',(2.28571428571428,39.,-30.1807621135332));
#1068=CARTESIAN_POINT('Ctrl Pts',(11.2794337355347,26.,-16.5440290306176));
#1069=CARTESIAN_POINT('Ctrl Pts',(9.8049031220241,30.3333333333333,-21.0891349727345));
#1070=CARTESIAN_POINT('Ctrl Pts',(8.33167347065343,34.6666666666667,-25.6356561714163));
#1071=CARTESIAN_POINT('Ctrl Pts',(6.85714285714285,39.,-30.1807621135332));
#1072=CARTESIAN_POINT('Ctrl Pts',(16.8217693633525,26.,-10.8652916274074));
#1073=CARTESIAN_POINT('Ctrl Pts',(15.0243992374133,30.3333333333333,-17.3041921177395));
#1074=CARTESIAN_POINT('Ctrl Pts',(13.2259415545106,34.6666666666667,-23.741861623201));
#1075=CARTESIAN_POINT('Ctrl Pts',(11.4285714285714,39.,-30.1807621135332));
#1076=CARTESIAN_POINT('Ctrl Pts',(18.7534709354536,26.,-5.93980565033363));
#1077=CARTESIAN_POINT('Ctrl Pts',(17.3270877496569,30.3333333333333,-14.0200437569189));
#1078=CARTESIAN_POINT('Ctrl Pts',(15.9025736619872,34.6666666666667,-22.1005240069479));
#1079=CARTESIAN_POINT('Ctrl Pts',(14.4761904761905,39.,-30.1807621135332));
#1080=CARTESIAN_POINT('Ctrl Pts',(19.2037511837381,26.,-3.38613946450515));
#1081=CARTESIAN_POINT('Ctrl Pts',(18.135834122492,30.3333333333333,-12.3176803475145));
#1082=CARTESIAN_POINT('Ctrl Pts',(17.067917061246,34.6666666666667,-21.2492212305238));
#1083=CARTESIAN_POINT('Ctrl Pts',(16.,39.,-30.1807621135332));
#1084=CARTESIAN_POINT('',(19.2037511837381,26.,-3.38613946450514));
#1085=CARTESIAN_POINT('Origin',(9.0301058344582E-17,26.,0.));
#1086=CARTESIAN_POINT('',(19.2037511837381,26.,-3.38613946450514));
#1087=CARTESIAN_POINT('Ctrl Pts',(19.2037511837381,26.,-3.38613946450514));
#1088=CARTESIAN_POINT('Ctrl Pts',(18.135834122492,30.3333333333333,-12.3176803475145));
#1089=CARTESIAN_POINT('Ctrl Pts',(17.067917061246,34.6666666666667,-21.2492212305238));
#1090=CARTESIAN_POINT('Ctrl Pts',(16.,39.,-30.1807621135332));
#1091=CARTESIAN_POINT('Ctrl Pts',(19.4007487923625,26.,-2.26891050820518));
#1092=CARTESIAN_POINT('Ctrl Pts',(18.2671479859275,30.3333333333333,-11.3506370087867));
#1093=CARTESIAN_POINT('Ctrl Pts',(17.133600806435,34.6666666666667,-20.432368946285));
#1094=CARTESIAN_POINT('Ctrl Pts',(16.,39.,-29.5140954468665));
#1095=CARTESIAN_POINT('Ctrl Pts',(19.5,26.,-1.13446401379632));
#1096=CARTESIAN_POINT('Ctrl Pts',(18.3333154145535,30.3333333333333,-10.3721176166298));
#1097=CARTESIAN_POINT('Ctrl Pts',(17.1666845854465,34.6666666666667,-19.6097751773664));
#1098=CARTESIAN_POINT('Ctrl Pts',(16.,39.,-28.8474287801998));
#1099=CARTESIAN_POINT('Ctrl Pts',(19.5,26.,-2.38806125833734E-15));
#1100=CARTESIAN_POINT('Ctrl Pts',(18.3333333333333,30.3333333333333,-9.39358737117772));
#1101=CARTESIAN_POINT('Ctrl Pts',(17.1666666666667,34.6666666666667,-18.7871747423554));
#1102=CARTESIAN_POINT('Ctrl Pts',(16.,39.,-28.1807621135332));
#1103=CARTESIAN_POINT('',(19.3534701063441,26.,-2.38604166829629));
#1104=CARTESIAN_POINT('Origin',(9.0301058344582E-17,26.,0.));
#1105=CARTESIAN_POINT('',(16.,39.,-28.1807621135332));
#1106=CARTESIAN_POINT('',(16.,39.,-30.1807621135332));
#1107=CARTESIAN_POINT('',(19.5,26.,-5.67058006332083E-16));
#1108=CARTESIAN_POINT('Origin',(9.0301058344582E-17,26.,0.));
#1109=CARTESIAN_POINT('Origin',(19.5,26.,-5.67058006332083E-16));
#1110=CARTESIAN_POINT('',(15.4677264595815,39.,-28.1807621135332));
#1111=CARTESIAN_POINT('',(16.,39.,-28.1807621135332));
#1112=CARTESIAN_POINT('',(18.5,26.,-2.2655965784226E-15));
#1113=CARTESIAN_POINT('Ctrl Pts',(18.5,26.,-2.2655965784226E-15));
#1114=CARTESIAN_POINT('Ctrl Pts',(17.4892421531938,30.3333333333333,-9.39358737117772));
#1115=CARTESIAN_POINT('Ctrl Pts',(16.4784843063876,34.6666666666667,-18.7871747423554));
#1116=CARTESIAN_POINT('Ctrl Pts',(15.4677264595815,39.,-28.1807621135332));
#1117=CARTESIAN_POINT('Ctrl Pts',(18.5,26.,-2.76759352816244));
#1118=CARTESIAN_POINT('Ctrl Pts',(16.9972104891115,30.3333333333333,-11.2388003658892));
#1119=CARTESIAN_POINT('Ctrl Pts',(15.4973991647956,34.6666666666667,-19.7095552758064));
#1120=CARTESIAN_POINT('Ctrl Pts',(13.994609653907,39.,-28.1807621135332));
#1121=CARTESIAN_POINT('Ctrl Pts',(17.2367278103821,26.,-8.30017478371627));
#1122=CARTESIAN_POINT('Ctrl Pts',(15.1739604761126,30.3333333333333,-14.9265939472745));
#1123=CARTESIAN_POINT('Ctrl Pts',(13.1111433768278,34.6666666666667,-21.554342949975));
#1124=CARTESIAN_POINT('Ctrl Pts',(11.0483760425582,39.,-28.1807621135332));
#1125=CARTESIAN_POINT('Ctrl Pts',(11.9303132250237,26.,-14.9607917364942));
#1126=CARTESIAN_POINT('Ctrl Pts',(10.1634055525579,30.3333333333333,-19.3682404020692));
#1127=CARTESIAN_POINT('Ctrl Pts',(8.3959332980007,34.6666666666667,-23.7733134479582));
#1128=CARTESIAN_POINT('Ctrl Pts',(6.62902562553491,39.,-28.1807621135332));
#1129=CARTESIAN_POINT('Ctrl Pts',(4.25706360253522,26.,-18.6507243952114));
#1130=CARTESIAN_POINT('Ctrl Pts',(3.57463203956599,30.3333333333333,-21.8266462554316));
#1131=CARTESIAN_POINT('Ctrl Pts',(2.89210677148087,34.6666666666667,-25.004840253313));
#1132=CARTESIAN_POINT('Ctrl Pts',(2.20967520851163,39.,-28.1807621135332));
#1133=CARTESIAN_POINT('Ctrl Pts',(-4.25757418993585,26.,-18.6553879152478));
#1134=CARTESIAN_POINT('Ctrl Pts',(-3.57514456092439,30.3333333333333,-21.8313496137208));
#1135=CARTESIAN_POINT('Ctrl Pts',(-2.89210483752311,34.6666666666667,-25.0048004150602));
#1136=CARTESIAN_POINT('Ctrl Pts',(-2.20967520851164,39.,-28.1807621135332));
#1137=CARTESIAN_POINT('Ctrl Pts',(-11.9274711009061,26.,-14.956745691958));
#1138=CARTESIAN_POINT('Ctrl Pts',(-10.1606299093534,30.3333333333333,-19.3641144567739));
#1139=CARTESIAN_POINT('Ctrl Pts',(-8.39586681708761,34.6666666666667,-23.7733933487173));
#1140=CARTESIAN_POINT('Ctrl Pts',(-6.62902562553492,39.,-28.1807621135332));
#1141=CARTESIAN_POINT('Ctrl Pts',(-17.2385773859667,26.,-8.30263584221692));
#1142=CARTESIAN_POINT('Ctrl Pts',(-15.1757696001165,30.3333333333333,-14.9292300440737));
#1143=CARTESIAN_POINT('Ctrl Pts',(-13.1111838284084,34.6666666666667,-21.5541679116764));
#1144=CARTESIAN_POINT('Ctrl Pts',(-11.0483760425582,39.,-28.1807621135332));
#1145=CARTESIAN_POINT('Ctrl Pts',(-18.5,26.,-2.76759352816244));
#1146=CARTESIAN_POINT('Ctrl Pts',(-16.9972461759892,30.3333333333333,-11.2386993893348));
#1147=CARTESIAN_POINT('Ctrl Pts',(-15.4973634779179,34.6666666666667,-19.7096562523608));
#1148=CARTESIAN_POINT('Ctrl Pts',(-13.9946096539071,39.,-28.1807621135332));
#1149=CARTESIAN_POINT('Ctrl Pts',(-18.5,26.,0.));
#1150=CARTESIAN_POINT('Ctrl Pts',(-17.4892421531938,30.3333333333333,-9.39358737117772));
#1151=CARTESIAN_POINT('Ctrl Pts',(-16.4784843063877,34.6666666666667,-18.7871747423554));
#1152=CARTESIAN_POINT('Ctrl Pts',(-15.4677264595815,39.,-28.1807621135332));
#1153=CARTESIAN_POINT('',(18.2051681444158,26.,-3.28965846761476));
#1154=CARTESIAN_POINT('Origin',(9.0301058344582E-17,26.,0.));
#1155=CARTESIAN_POINT('',(-15.4677264595815,39.,-28.1807621135332));
#1156=CARTESIAN_POINT('',(16.,39.,-28.1807621135332));
#1157=CARTESIAN_POINT('',(-18.5,26.,-5.67058006332083E-16));
#1158=CARTESIAN_POINT('',(-18.2051681444158,26.,-3.28965846761475));
#1159=CARTESIAN_POINT('Origin',(9.0301058344582E-17,26.,0.));
#1160=CARTESIAN_POINT('Origin',(9.0301058344582E-17,26.,0.));
#1161=CARTESIAN_POINT('Origin',(-18.5,26.,-5.67058006332083E-16));
#1162=CARTESIAN_POINT('',(16.,39.,-28.1807621135332));
#1163=CARTESIAN_POINT('Origin',(9.47553817747729E-16,19.,0.));
#1164=CARTESIAN_POINT('',(19.5,19.,2.38806125833734E-15));
#1165=CARTESIAN_POINT('Origin',(9.47553817747729E-16,19.,0.));
#1166=CARTESIAN_POINT('',(18.5,19.,2.2655965784226E-15));
#1167=CARTESIAN_POINT('Origin',(9.47553817747729E-16,19.,0.));
#1168=CARTESIAN_POINT('Origin',(9.0301058344582E-17,26.,0.));
#1169=CARTESIAN_POINT('',(18.5,26.,2.2655965784226E-15));
#1170=CARTESIAN_POINT('Origin',(9.0301058344582E-17,26.,0.));
#1171=CARTESIAN_POINT('',(19.5,26.,2.38806125833734E-15));
#1172=CARTESIAN_POINT('Origin',(-7.38004441645427E-15,87.,33.3307621135332));
#1173=CARTESIAN_POINT('',(16.,87.,38.4807621135332));
#1174=CARTESIAN_POINT('',(16.,87.,30.1807621135332));
#1175=CARTESIAN_POINT('',(-16.,87.,38.4807621135332));
#1176=CARTESIAN_POINT('',(15.,87.,38.4807621135332));
#1177=CARTESIAN_POINT('',(-16.,87.,38.4807621135332));
#1178=CARTESIAN_POINT('',(11.25,87.,33.4807621135332));
#1179=CARTESIAN_POINT('Origin',(10.,87.,33.4807621135332));
#1180=CARTESIAN_POINT('',(-8.74999999999999,87.,33.4807621135332));
#1181=CARTESIAN_POINT('Origin',(-9.99999999999999,87.,33.4807621135332));
#1182=CARTESIAN_POINT('Origin',(16.,89.,28.1807621135332));
#1183=CARTESIAN_POINT('',(16.,89.,38.4807621135332));
#1184=CARTESIAN_POINT('',(16.,89.,28.1807621135332));
#1185=CARTESIAN_POINT('',(16.,89.,30.1807621135332));
#1186=CARTESIAN_POINT('',(16.,89.,38.4807621135332));
#1187=CARTESIAN_POINT('',(16.,89.,28.1807621135332));
#1188=CARTESIAN_POINT('Origin',(10.,89.,33.4807621135332));
#1189=CARTESIAN_POINT('',(11.25,89.,33.4807621135332));
#1190=CARTESIAN_POINT('',(11.25,89.,33.4807621135332));
#1191=CARTESIAN_POINT('Origin',(10.,89.,33.4807621135332));
#1192=CARTESIAN_POINT('Origin',(-9.99999999999999,89.,33.4807621135332));
#1193=CARTESIAN_POINT('',(-8.74999999999999,89.,33.4807621135332));
#1194=CARTESIAN_POINT('',(-8.74999999999999,89.,33.4807621135332));
#1195=CARTESIAN_POINT('Origin',(-9.99999999999999,89.,33.4807621135332));
#1196=CARTESIAN_POINT('Origin',(-16.,89.,28.1807621135332));
#1197=CARTESIAN_POINT('',(-16.,89.,28.1807621135332));
#1198=CARTESIAN_POINT('',(16.,89.,28.1807621135332));
#1199=CARTESIAN_POINT('',(-16.,89.,28.1807621135332));
#1200=CARTESIAN_POINT('Origin',(-16.,89.,38.4807621135332));
#1201=CARTESIAN_POINT('',(-16.,89.,38.4807621135332));
#1202=CARTESIAN_POINT('',(-16.,89.,38.4807621135332));
#1203=CARTESIAN_POINT('',(-16.,89.,38.4807621135332));
#1204=CARTESIAN_POINT('Origin',(16.,89.,38.4807621135332));
#1205=CARTESIAN_POINT('',(15.,89.,38.4807621135332));
#1206=CARTESIAN_POINT('Origin',(-7.62497377628374E-15,89.,33.3307621135332));
#1207=CARTESIAN_POINT('Origin',(-16.,89.,-28.1807621135332));
#1208=CARTESIAN_POINT('',(-16.,89.,-28.1807621135332));
#1209=CARTESIAN_POINT('',(-16.,89.,-38.4807621135332));
#1210=CARTESIAN_POINT('',(-16.,89.,-28.1807621135332));
#1211=CARTESIAN_POINT('',(-16.,87.,-38.4807621135332));
#1212=CARTESIAN_POINT('',(-16.,89.,-38.4807621135332));
#1213=CARTESIAN_POINT('',(-16.,87.,-28.1807621135332));
#1214=CARTESIAN_POINT('',(-16.,89.,-28.1807621135332));
#1215=CARTESIAN_POINT('Origin',(-9.84541982553406E-15,89.,-33.3307621135332));
#1216=CARTESIAN_POINT('',(16.,89.,-38.4807621135332));
#1217=CARTESIAN_POINT('',(16.,89.,-28.1807621135332));
#1218=CARTESIAN_POINT('',(16.,89.,-38.4807621135332));
#1219=CARTESIAN_POINT('',(-15.,89.,-38.4807621135332));
#1220=CARTESIAN_POINT('',(16.,89.,-28.1807621135332));
#1221=CARTESIAN_POINT('',(-8.75000022351743,89.,-33.4807621135332));
#1222=CARTESIAN_POINT('Origin',(-10.0000002235174,89.,-33.4807621135332));
#1223=CARTESIAN_POINT('',(11.25,89.,-33.4807621135332));
#1224=CARTESIAN_POINT('Origin',(9.99999999999998,89.,-33.4807621135332));
#1225=CARTESIAN_POINT('Origin',(16.,89.,-38.4807621135332));
#1226=CARTESIAN_POINT('',(16.,87.,-38.4807621135332));
#1227=CARTESIAN_POINT('',(16.,87.,-38.4807621135332));
#1228=CARTESIAN_POINT('',(16.,89.,-38.4807621135332));
#1229=CARTESIAN_POINT('',(16.,89.,-28.1807621135332));
#1230=CARTESIAN_POINT('Origin',(-10.0000002235174,89.,-33.4807621135332));
#1231=CARTESIAN_POINT('',(-8.75000022351743,87.,-33.4807621135332));
#1232=CARTESIAN_POINT('Origin',(-10.0000002235174,87.,-33.4807621135332));
#1233=CARTESIAN_POINT('',(-8.75000022351743,89.,-33.4807621135332));
#1234=CARTESIAN_POINT('Origin',(9.99999999999998,89.,-33.4807621135332));
#1235=CARTESIAN_POINT('',(11.25,87.,-33.4807621135332));
#1236=CARTESIAN_POINT('Origin',(9.99999999999998,87.,-33.4807621135332));
#1237=CARTESIAN_POINT('',(11.25,89.,-33.4807621135332));
#1238=CARTESIAN_POINT('Origin',(16.,89.,-28.1807621135332));
#1239=CARTESIAN_POINT('Origin',(-16.,89.,-38.4807621135332));
#1240=CARTESIAN_POINT('',(-15.,87.,-38.4807621135332));
#1241=CARTESIAN_POINT('Origin',(-9.60049046570459E-15,87.,-33.3307621135332));
#1242=UNCERTAINTY_MEASURE_WITH_UNIT(LENGTH_MEASURE(0.01),#1246,
'DISTANCE_ACCURACY_VALUE',
'Maximum model space distance between geometric entities at asserted c
onnectivities');
#1243=UNCERTAINTY_MEASURE_WITH_UNIT(LENGTH_MEASURE(0.01),#1246,
'DISTANCE_ACCURACY_VALUE',
'Maximum model space distance between geometric entities at asserted c
onnectivities');
#1244=(
GEOMETRIC_REPRESENTATION_CONTEXT(3)
GLOBAL_UNCERTAINTY_ASSIGNED_CONTEXT((#1242))
GLOBAL_UNIT_ASSIGNED_CONTEXT((#1246,#1248,#1249))
REPRESENTATION_CONTEXT('','3D')
);
#1245=(
GEOMETRIC_REPRESENTATION_CONTEXT(3)
GLOBAL_UNCERTAINTY_ASSIGNED_CONTEXT((#1243))
GLOBAL_UNIT_ASSIGNED_CONTEXT((#1246,#1248,#1249))
REPRESENTATION_CONTEXT('','3D')
);
#1246=(
LENGTH_UNIT()
NAMED_UNIT(*)
SI_UNIT(.MILLI.,.METRE.)
);
#1247=(
LENGTH_UNIT()
NAMED_UNIT(*)
SI_UNIT($,.METRE.)
);
#1248=(
NAMED_UNIT(*)
PLANE_ANGLE_UNIT()
SI_UNIT($,.RADIAN.)
);
#1249=(
NAMED_UNIT(*)
SI_UNIT($,.STERADIAN.)
SOLID_ANGLE_UNIT()
);
#1250=SHAPE_DEFINITION_REPRESENTATION(#1251,#1252);
#1251=PRODUCT_DEFINITION_SHAPE('',$,#1254);
#1252=SHAPE_REPRESENTATION('',(#636),#1244);
#1253=PRODUCT_DEFINITION_CONTEXT('part definition',#1258,'design');
#1254=PRODUCT_DEFINITION('syring support','syring support v16',#1255,#1253);
#1255=PRODUCT_DEFINITION_FORMATION('',$,#1260);
#1256=PRODUCT_RELATED_PRODUCT_CATEGORY('syring support v16',
'syring support v16',(#1260));
#1257=APPLICATION_PROTOCOL_DEFINITION('international standard',
'automotive_design',2009,#1258);
#1258=APPLICATION_CONTEXT(
'Core Data for Automotive Mechanical Design Process');
#1259=PRODUCT_CONTEXT('part definition',#1258,'mechanical');
#1260=PRODUCT('syring support','syring support v16',$,(#1259));
#1261=PRESENTATION_STYLE_ASSIGNMENT((#1262));
#1262=SURFACE_STYLE_USAGE(.BOTH.,#1263);
#1263=SURFACE_SIDE_STYLE('',(#1264));
#1264=SURFACE_STYLE_FILL_AREA(#1265);
#1265=FILL_AREA_STYLE('Steel - Satin',(#1266));
#1266=FILL_AREA_STYLE_COLOUR('Steel - Satin',#1267);
#1267=COLOUR_RGB('Steel - Satin',0.627450980392157,0.627450980392157,0.627450980392157);
ENDSEC;
END-ISO-10303-21;
