ISO-10303-21;
HEADER;
/* Generated by software containing ST-Developer
 * from STEP Tools, Inc. (www.steptools.com) 
 */

FILE_DESCRIPTION(
/* description */ (''),
/* implementation_level */ '2;1');

FILE_NAME(
/* name */ 'gripper.step',
/* time_stamp */ '2026-08-04T21:43:12+02:00',
/* author */ (''),
/* organization */ (''),
/* preprocessor_version */ 'ST-DEVELOPER v20.1',
/* originating_system */ 'Autodesk Translation Framework v15.8.0.0',
/* authorisation */ '');

FILE_SCHEMA (('AUTOMOTIVE_DESIGN { 1 0 10303 214 3 1 1 }'));
ENDSEC;

DATA;
#10=MECHANICAL_DESIGN_GEOMETRIC_PRESENTATION_REPRESENTATION('',(#13),#2066);
#11=SHAPE_REPRESENTATION_RELATIONSHIP('SRR','None',#2072,#12);
#12=ADVANCED_BREP_SHAPE_REPRESENTATION('',(#14),#2065);
#13=STYLED_ITEM('',(#2081),#14);
#14=MANIFOLD_SOLID_BREP('Body2',#1220);
#15=FACE_BOUND('',#198,.T.);
#16=FACE_BOUND('',#209,.T.);
#17=FACE_BOUND('',#212,.T.);
#18=FACE_BOUND('',#215,.T.);
#19=FACE_BOUND('',#218,.T.);
#20=FACE_BOUND('',#244,.T.);
#21=FACE_BOUND('',#245,.T.);
#22=FACE_BOUND('',#246,.T.);
#23=FACE_BOUND('',#248,.T.);
#24=FACE_BOUND('',#249,.T.);
#25=FACE_BOUND('',#251,.T.);
#26=FACE_BOUND('',#252,.T.);
#27=FACE_BOUND('',#253,.T.);
#28=FACE_BOUND('',#254,.T.);
#29=FACE_BOUND('',#255,.T.);
#30=FACE_BOUND('',#256,.T.);
#31=FACE_BOUND('',#257,.T.);
#32=FACE_BOUND('',#258,.T.);
#33=FACE_BOUND('',#259,.T.);
#34=FACE_BOUND('',#260,.T.);
#35=FACE_BOUND('',#261,.T.);
#36=FACE_BOUND('',#262,.T.);
#37=FACE_BOUND('',#263,.T.);
#38=FACE_BOUND('',#264,.T.);
#39=FACE_BOUND('',#265,.T.);
#40=FACE_BOUND('',#267,.T.);
#41=FACE_BOUND('',#268,.T.);
#42=FACE_BOUND('',#269,.T.);
#43=FACE_BOUND('',#270,.T.);
#44=FACE_BOUND('',#271,.T.);
#45=FACE_BOUND('',#272,.T.);
#46=FACE_BOUND('',#273,.T.);
#47=FACE_BOUND('',#274,.T.);
#48=FACE_BOUND('',#275,.T.);
#49=FACE_BOUND('',#276,.T.);
#50=FACE_BOUND('',#277,.T.);
#51=FACE_BOUND('',#278,.T.);
#52=FACE_BOUND('',#279,.T.);
#53=FACE_BOUND('',#280,.T.);
#54=FACE_BOUND('',#281,.T.);
#55=FACE_BOUND('',#282,.T.);
#56=FACE_BOUND('',#283,.T.);
#57=FACE_BOUND('',#284,.T.);
#58=FACE_BOUND('',#285,.T.);
#59=PLANE('',#1269);
#60=PLANE('',#1270);
#61=PLANE('',#1275);
#62=PLANE('',#1280);
#63=PLANE('',#1283);
#64=PLANE('',#1286);
#65=PLANE('',#1287);
#66=PLANE('',#1288);
#67=PLANE('',#1293);
#68=PLANE('',#1298);
#69=PLANE('',#1303);
#70=PLANE('',#1346);
#71=PLANE('',#1347);
#72=PLANE('',#1348);
#73=PLANE('',#1349);
#74=PLANE('',#1350);
#75=PLANE('',#1351);
#76=PLANE('',#1352);
#77=PLANE('',#1353);
#78=PLANE('',#1354);
#79=PLANE('',#1355);
#80=PLANE('',#1356);
#81=PLANE('',#1357);
#82=PLANE('',#1358);
#83=CYLINDRICAL_SURFACE('',#1228,2.);
#84=CYLINDRICAL_SURFACE('',#1235,2.);
#85=CYLINDRICAL_SURFACE('',#1242,2.);
#86=CYLINDRICAL_SURFACE('',#1250,2.);
#87=CYLINDRICAL_SURFACE('',#1257,2.1);
#88=CYLINDRICAL_SURFACE('',#1264,2.1);
#89=CYLINDRICAL_SURFACE('',#1266,4.);
#90=CYLINDRICAL_SURFACE('',#1276,4.49999999999999);
#91=CYLINDRICAL_SURFACE('',#1278,4.5);
#92=CYLINDRICAL_SURFACE('',#1281,3.50000000000001);
#93=CYLINDRICAL_SURFACE('',#1284,3.50000000000001);
#94=CYLINDRICAL_SURFACE('',#1291,1.25);
#95=CYLINDRICAL_SURFACE('',#1296,1.25);
#96=CYLINDRICAL_SURFACE('',#1301,1.25);
#97=CYLINDRICAL_SURFACE('',#1306,1.25);
#98=CYLINDRICAL_SURFACE('',#1308,0.499999999999998);
#99=CYLINDRICAL_SURFACE('',#1310,0.5);
#100=CYLINDRICAL_SURFACE('',#1312,0.500000000000003);
#101=CYLINDRICAL_SURFACE('',#1314,0.5);
#102=CYLINDRICAL_SURFACE('',#1316,1.95);
#103=CYLINDRICAL_SURFACE('',#1319,1.95);
#104=CYLINDRICAL_SURFACE('',#1322,2.);
#105=CYLINDRICAL_SURFACE('',#1325,2.);
#106=CYLINDRICAL_SURFACE('',#1328,2.);
#107=CYLINDRICAL_SURFACE('',#1331,2.);
#108=CYLINDRICAL_SURFACE('',#1334,2.);
#109=CYLINDRICAL_SURFACE('',#1337,2.);
#110=CYLINDRICAL_SURFACE('',#1340,2.);
#111=CYLINDRICAL_SURFACE('',#1343,2.);
#112=FACE_OUTER_BOUND('',#177,.T.);
#113=FACE_OUTER_BOUND('',#178,.T.);
#114=FACE_OUTER_BOUND('',#179,.T.);
#115=FACE_OUTER_BOUND('',#180,.T.);
#116=FACE_OUTER_BOUND('',#181,.T.);
#117=FACE_OUTER_BOUND('',#182,.T.);
#118=FACE_OUTER_BOUND('',#183,.T.);
#119=FACE_OUTER_BOUND('',#184,.T.);
#120=FACE_OUTER_BOUND('',#185,.T.);
#121=FACE_OUTER_BOUND('',#186,.T.);
#122=FACE_OUTER_BOUND('',#187,.T.);
#123=FACE_OUTER_BOUND('',#188,.T.);
#124=FACE_OUTER_BOUND('',#189,.T.);
#125=FACE_OUTER_BOUND('',#190,.T.);
#126=FACE_OUTER_BOUND('',#191,.T.);
#127=FACE_OUTER_BOUND('',#192,.T.);
#128=FACE_OUTER_BOUND('',#193,.T.);
#129=FACE_OUTER_BOUND('',#194,.T.);
#130=FACE_OUTER_BOUND('',#195,.T.);
#131=FACE_OUTER_BOUND('',#196,.T.);
#132=FACE_OUTER_BOUND('',#197,.T.);
#133=FACE_OUTER_BOUND('',#199,.T.);
#134=FACE_OUTER_BOUND('',#200,.T.);
#135=FACE_OUTER_BOUND('',#201,.T.);
#136=FACE_OUTER_BOUND('',#202,.T.);
#137=FACE_OUTER_BOUND('',#203,.T.);
#138=FACE_OUTER_BOUND('',#204,.T.);
#139=FACE_OUTER_BOUND('',#205,.T.);
#140=FACE_OUTER_BOUND('',#206,.T.);
#141=FACE_OUTER_BOUND('',#207,.T.);
#142=FACE_OUTER_BOUND('',#208,.T.);
#143=FACE_OUTER_BOUND('',#210,.T.);
#144=FACE_OUTER_BOUND('',#211,.T.);
#145=FACE_OUTER_BOUND('',#213,.T.);
#146=FACE_OUTER_BOUND('',#214,.T.);
#147=FACE_OUTER_BOUND('',#216,.T.);
#148=FACE_OUTER_BOUND('',#217,.T.);
#149=FACE_OUTER_BOUND('',#219,.T.);
#150=FACE_OUTER_BOUND('',#220,.T.);
#151=FACE_OUTER_BOUND('',#221,.T.);
#152=FACE_OUTER_BOUND('',#222,.T.);
#153=FACE_OUTER_BOUND('',#223,.T.);
#154=FACE_OUTER_BOUND('',#224,.T.);
#155=FACE_OUTER_BOUND('',#225,.T.);
#156=FACE_OUTER_BOUND('',#226,.T.);
#157=FACE_OUTER_BOUND('',#227,.T.);
#158=FACE_OUTER_BOUND('',#228,.T.);
#159=FACE_OUTER_BOUND('',#229,.T.);
#160=FACE_OUTER_BOUND('',#230,.T.);
#161=FACE_OUTER_BOUND('',#231,.T.);
#162=FACE_OUTER_BOUND('',#232,.T.);
#163=FACE_OUTER_BOUND('',#233,.T.);
#164=FACE_OUTER_BOUND('',#234,.T.);
#165=FACE_OUTER_BOUND('',#235,.T.);
#166=FACE_OUTER_BOUND('',#236,.T.);
#167=FACE_OUTER_BOUND('',#237,.T.);
#168=FACE_OUTER_BOUND('',#238,.T.);
#169=FACE_OUTER_BOUND('',#239,.T.);
#170=FACE_OUTER_BOUND('',#240,.T.);
#171=FACE_OUTER_BOUND('',#241,.T.);
#172=FACE_OUTER_BOUND('',#242,.T.);
#173=FACE_OUTER_BOUND('',#243,.T.);
#174=FACE_OUTER_BOUND('',#247,.T.);
#175=FACE_OUTER_BOUND('',#250,.T.);
#176=FACE_OUTER_BOUND('',#266,.T.);
#177=EDGE_LOOP('',(#813,#814,#815,#816));
#178=EDGE_LOOP('',(#817,#818,#819,#820,#821));
#179=EDGE_LOOP('',(#822,#823,#824,#825));
#180=EDGE_LOOP('',(#826,#827,#828,#829));
#181=EDGE_LOOP('',(#830,#831,#832,#833));
#182=EDGE_LOOP('',(#834,#835,#836,#837));
#183=EDGE_LOOP('',(#838,#839,#840,#841));
#184=EDGE_LOOP('',(#842,#843,#844,#845));
#185=EDGE_LOOP('',(#846,#847,#848,#849));
#186=EDGE_LOOP('',(#850,#851,#852,#853));
#187=EDGE_LOOP('',(#854,#855,#856,#857,#858));
#188=EDGE_LOOP('',(#859,#860,#861,#862));
#189=EDGE_LOOP('',(#863,#864,#865,#866));
#190=EDGE_LOOP('',(#867,#868,#869,#870));
#191=EDGE_LOOP('',(#871,#872,#873,#874));
#192=EDGE_LOOP('',(#875,#876,#877,#878));
#193=EDGE_LOOP('',(#879,#880,#881,#882));
#194=EDGE_LOOP('',(#883,#884,#885,#886));
#195=EDGE_LOOP('',(#887,#888,#889,#890));
#196=EDGE_LOOP('',(#891));
#197=EDGE_LOOP('',(#892,#893,#894,#895));
#198=EDGE_LOOP('',(#896,#897,#898,#899));
#199=EDGE_LOOP('',(#900,#901,#902,#903));
#200=EDGE_LOOP('',(#904,#905,#906,#907));
#201=EDGE_LOOP('',(#908,#909,#910,#911));
#202=EDGE_LOOP('',(#912,#913,#914,#915));
#203=EDGE_LOOP('',(#916,#917,#918,#919));
#204=EDGE_LOOP('',(#920,#921,#922,#923));
#205=EDGE_LOOP('',(#924,#925,#926,#927));
#206=EDGE_LOOP('',(#928,#929,#930,#931));
#207=EDGE_LOOP('',(#932,#933,#934,#935));
#208=EDGE_LOOP('',(#936));
#209=EDGE_LOOP('',(#937));
#210=EDGE_LOOP('',(#938,#939,#940,#941));
#211=EDGE_LOOP('',(#942));
#212=EDGE_LOOP('',(#943));
#213=EDGE_LOOP('',(#944,#945,#946,#947));
#214=EDGE_LOOP('',(#948));
#215=EDGE_LOOP('',(#949));
#216=EDGE_LOOP('',(#950,#951,#952,#953));
#217=EDGE_LOOP('',(#954));
#218=EDGE_LOOP('',(#955));
#219=EDGE_LOOP('',(#956,#957,#958,#959));
#220=EDGE_LOOP('',(#960,#961,#962,#963));
#221=EDGE_LOOP('',(#964,#965,#966,#967));
#222=EDGE_LOOP('',(#968,#969,#970,#971));
#223=EDGE_LOOP('',(#972,#973,#974,#975));
#224=EDGE_LOOP('',(#976,#977,#978,#979));
#225=EDGE_LOOP('',(#980,#981,#982,#983));
#226=EDGE_LOOP('',(#984,#985,#986,#987));
#227=EDGE_LOOP('',(#988,#989,#990,#991));
#228=EDGE_LOOP('',(#992,#993,#994,#995));
#229=EDGE_LOOP('',(#996,#997,#998,#999));
#230=EDGE_LOOP('',(#1000,#1001,#1002,#1003));
#231=EDGE_LOOP('',(#1004,#1005,#1006,#1007));
#232=EDGE_LOOP('',(#1008,#1009,#1010,#1011));
#233=EDGE_LOOP('',(#1012,#1013,#1014,#1015));
#234=EDGE_LOOP('',(#1016,#1017,#1018,#1019));
#235=EDGE_LOOP('',(#1020,#1021,#1022,#1023));
#236=EDGE_LOOP('',(#1024,#1025,#1026,#1027));
#237=EDGE_LOOP('',(#1028,#1029,#1030,#1031));
#238=EDGE_LOOP('',(#1032,#1033,#1034,#1035));
#239=EDGE_LOOP('',(#1036,#1037,#1038,#1039));
#240=EDGE_LOOP('',(#1040,#1041,#1042,#1043));
#241=EDGE_LOOP('',(#1044,#1045,#1046,#1047));
#242=EDGE_LOOP('',(#1048,#1049,#1050,#1051));
#243=EDGE_LOOP('',(#1052,#1053,#1054,#1055,#1056,#1057));
#244=EDGE_LOOP('',(#1058));
#245=EDGE_LOOP('',(#1059));
#246=EDGE_LOOP('',(#1060));
#247=EDGE_LOOP('',(#1061,#1062,#1063,#1064,#1065,#1066));
#248=EDGE_LOOP('',(#1067));
#249=EDGE_LOOP('',(#1068));
#250=EDGE_LOOP('',(#1069,#1070,#1071,#1072,#1073,#1074,#1075,#1076,#1077,
#1078,#1079,#1080,#1081,#1082,#1083,#1084,#1085,#1086,#1087,#1088,#1089,
#1090));
#251=EDGE_LOOP('',(#1091));
#252=EDGE_LOOP('',(#1092));
#253=EDGE_LOOP('',(#1093));
#254=EDGE_LOOP('',(#1094));
#255=EDGE_LOOP('',(#1095));
#256=EDGE_LOOP('',(#1096));
#257=EDGE_LOOP('',(#1097,#1098,#1099,#1100));
#258=EDGE_LOOP('',(#1101));
#259=EDGE_LOOP('',(#1102));
#260=EDGE_LOOP('',(#1103));
#261=EDGE_LOOP('',(#1104));
#262=EDGE_LOOP('',(#1105));
#263=EDGE_LOOP('',(#1106));
#264=EDGE_LOOP('',(#1107));
#265=EDGE_LOOP('',(#1108));
#266=EDGE_LOOP('',(#1109,#1110,#1111,#1112,#1113,#1114,#1115,#1116,#1117,
#1118,#1119,#1120));
#267=EDGE_LOOP('',(#1121,#1122,#1123,#1124));
#268=EDGE_LOOP('',(#1125));
#269=EDGE_LOOP('',(#1126));
#270=EDGE_LOOP('',(#1127));
#271=EDGE_LOOP('',(#1128));
#272=EDGE_LOOP('',(#1129));
#273=EDGE_LOOP('',(#1130));
#274=EDGE_LOOP('',(#1131));
#275=EDGE_LOOP('',(#1132));
#276=EDGE_LOOP('',(#1133));
#277=EDGE_LOOP('',(#1134));
#278=EDGE_LOOP('',(#1135));
#279=EDGE_LOOP('',(#1136));
#280=EDGE_LOOP('',(#1137));
#281=EDGE_LOOP('',(#1138));
#282=EDGE_LOOP('',(#1139));
#283=EDGE_LOOP('',(#1140));
#284=EDGE_LOOP('',(#1141));
#285=EDGE_LOOP('',(#1142));
#286=LINE('',#1733,#379);
#287=LINE('',#1740,#380);
#288=LINE('',#1743,#381);
#289=LINE('',#1749,#382);
#290=LINE('',#1754,#383);
#291=LINE('',#1757,#384);
#292=LINE('',#1763,#385);
#293=LINE('',#1768,#386);
#294=LINE('',#1771,#387);
#295=LINE('',#1777,#388);
#296=LINE('',#1784,#389);
#297=LINE('',#1787,#390);
#298=LINE('',#1793,#391);
#299=LINE('',#1798,#392);
#300=LINE('',#1801,#393);
#301=LINE('',#1807,#394);
#302=LINE('',#1812,#395);
#303=LINE('',#1815,#396);
#304=LINE('',#1821,#397);
#305=LINE('',#1829,#398);
#306=LINE('',#1832,#399);
#307=LINE('',#1835,#400);
#308=LINE('',#1839,#401);
#309=LINE('',#1843,#402);
#310=LINE('',#1845,#403);
#311=LINE('',#1846,#404);
#312=LINE('',#1849,#405);
#313=LINE('',#1854,#406);
#314=LINE('',#1856,#407);
#315=LINE('',#1859,#408);
#316=LINE('',#1862,#409);
#317=LINE('',#1865,#410);
#318=LINE('',#1866,#411);
#319=LINE('',#1870,#412);
#320=LINE('',#1872,#413);
#321=LINE('',#1876,#414);
#322=LINE('',#1878,#415);
#323=LINE('',#1880,#416);
#324=LINE('',#1881,#417);
#325=LINE('',#1889,#418);
#326=LINE('',#1898,#419);
#327=LINE('',#1907,#420);
#328=LINE('',#1916,#421);
#329=LINE('',#1921,#422);
#330=LINE('',#1925,#423);
#331=LINE('',#1929,#424);
#332=LINE('',#1933,#425);
#333=LINE('',#1938,#426);
#334=LINE('',#1944,#427);
#335=LINE('',#1950,#428);
#336=LINE('',#1956,#429);
#337=LINE('',#1962,#430);
#338=LINE('',#1968,#431);
#339=LINE('',#1974,#432);
#340=LINE('',#1980,#433);
#341=LINE('',#1986,#434);
#342=LINE('',#1992,#435);
#343=LINE('',#1997,#436);
#344=LINE('',#1999,#437);
#345=LINE('',#2001,#438);
#346=LINE('',#2002,#439);
#347=LINE('',#2005,#440);
#348=LINE('',#2007,#441);
#349=LINE('',#2008,#442);
#350=LINE('',#2011,#443);
#351=LINE('',#2013,#444);
#352=LINE('',#2014,#445);
#353=LINE('',#2017,#446);
#354=LINE('',#2019,#447);
#355=LINE('',#2020,#448);
#356=LINE('',#2023,#449);
#357=LINE('',#2025,#450);
#358=LINE('',#2026,#451);
#359=LINE('',#2029,#452);
#360=LINE('',#2031,#453);
#361=LINE('',#2032,#454);
#362=LINE('',#2035,#455);
#363=LINE('',#2037,#456);
#364=LINE('',#2038,#457);
#365=LINE('',#2041,#458);
#366=LINE('',#2043,#459);
#367=LINE('',#2044,#460);
#368=LINE('',#2047,#461);
#369=LINE('',#2049,#462);
#370=LINE('',#2050,#463);
#371=LINE('',#2052,#464);
#372=LINE('',#2053,#465);
#373=LINE('',#2054,#466);
#374=LINE('',#2055,#467);
#375=LINE('',#2057,#468);
#376=LINE('',#2058,#469);
#377=LINE('',#2059,#470);
#378=LINE('',#2060,#471);
#379=VECTOR('',#1365,2.53033008588991);
#380=VECTOR('',#1374,3.);
#381=VECTOR('',#1377,2.);
#382=VECTOR('',#1384,2.53033008588991);
#383=VECTOR('',#1391,3.);
#384=VECTOR('',#1394,2.);
#385=VECTOR('',#1401,2.53033008588991);
#386=VECTOR('',#1408,3.);
#387=VECTOR('',#1411,2.);
#388=VECTOR('',#1418,2.53033008588991);
#389=VECTOR('',#1427,3.);
#390=VECTOR('',#1430,2.);
#391=VECTOR('',#1437,2.63033008588992);
#392=VECTOR('',#1444,3.1);
#393=VECTOR('',#1447,2.1);
#394=VECTOR('',#1454,2.63033008588994);
#395=VECTOR('',#1461,3.1);
#396=VECTOR('',#1464,2.1);
#397=VECTOR('',#1471,4.);
#398=VECTOR('',#1480,10.);
#399=VECTOR('',#1483,10.);
#400=VECTOR('',#1484,10.);
#401=VECTOR('',#1487,10.);
#402=VECTOR('',#1492,10.);
#403=VECTOR('',#1493,10.);
#404=VECTOR('',#1494,10.);
#405=VECTOR('',#1497,10.);
#406=VECTOR('',#1504,10.);
#407=VECTOR('',#1507,10.);
#408=VECTOR('',#1510,10.);
#409=VECTOR('',#1513,10.);
#410=VECTOR('',#1516,10.);
#411=VECTOR('',#1517,10.);
#412=VECTOR('',#1522,10.);
#413=VECTOR('',#1525,10.);
#414=VECTOR('',#1528,10.);
#415=VECTOR('',#1529,10.);
#416=VECTOR('',#1530,10.);
#417=VECTOR('',#1531,10.);
#418=VECTOR('',#1540,1.25);
#419=VECTOR('',#1551,1.25);
#420=VECTOR('',#1562,1.25);
#421=VECTOR('',#1573,1.25);
#422=VECTOR('',#1580,0.499999999999998);
#423=VECTOR('',#1585,0.5);
#424=VECTOR('',#1590,0.500000000000003);
#425=VECTOR('',#1595,0.5);
#426=VECTOR('',#1600,1.95);
#427=VECTOR('',#1607,1.95);
#428=VECTOR('',#1614,2.);
#429=VECTOR('',#1621,2.);
#430=VECTOR('',#1628,2.);
#431=VECTOR('',#1635,2.);
#432=VECTOR('',#1642,2.);
#433=VECTOR('',#1649,2.);
#434=VECTOR('',#1656,2.);
#435=VECTOR('',#1663,2.);
#436=VECTOR('',#1668,10.);
#437=VECTOR('',#1669,10.);
#438=VECTOR('',#1670,10.);
#439=VECTOR('',#1671,10.);
#440=VECTOR('',#1674,10.);
#441=VECTOR('',#1675,10.);
#442=VECTOR('',#1676,10.);
#443=VECTOR('',#1679,10.);
#444=VECTOR('',#1680,10.);
#445=VECTOR('',#1681,10.);
#446=VECTOR('',#1684,10.);
#447=VECTOR('',#1685,10.);
#448=VECTOR('',#1686,10.);
#449=VECTOR('',#1689,10.);
#450=VECTOR('',#1690,10.);
#451=VECTOR('',#1691,10.);
#452=VECTOR('',#1694,10.);
#453=VECTOR('',#1695,10.);
#454=VECTOR('',#1696,10.);
#455=VECTOR('',#1699,10.);
#456=VECTOR('',#1700,10.);
#457=VECTOR('',#1701,10.);
#458=VECTOR('',#1704,10.);
#459=VECTOR('',#1705,10.);
#460=VECTOR('',#1706,10.);
#461=VECTOR('',#1709,10.);
#462=VECTOR('',#1710,10.);
#463=VECTOR('',#1711,10.);
#464=VECTOR('',#1714,10.);
#465=VECTOR('',#1715,10.);
#466=VECTOR('',#1716,10.);
#467=VECTOR('',#1717,10.);
#468=VECTOR('',#1720,10.);
#469=VECTOR('',#1721,10.);
#470=VECTOR('',#1722,10.);
#471=VECTOR('',#1723,10.);
#472=CIRCLE('',#1223,3.06066017177982);
#473=CIRCLE('',#1224,2.);
#474=CIRCLE('',#1226,4.);
#475=CIRCLE('',#1227,4.);
#476=CIRCLE('',#1229,2.);
#477=CIRCLE('',#1231,3.06066017177982);
#478=CIRCLE('',#1232,2.);
#479=CIRCLE('',#1234,4.);
#480=CIRCLE('',#1236,2.);
#481=CIRCLE('',#1238,3.06066017177982);
#482=CIRCLE('',#1239,2.);
#483=CIRCLE('',#1241,4.);
#484=CIRCLE('',#1243,2.);
#485=CIRCLE('',#1245,3.06066017177982);
#486=CIRCLE('',#1246,2.);
#487=CIRCLE('',#1248,4.);
#488=CIRCLE('',#1249,4.);
#489=CIRCLE('',#1251,2.);
#490=CIRCLE('',#1253,3.16066017177984);
#491=CIRCLE('',#1254,2.1);
#492=CIRCLE('',#1256,4.1);
#493=CIRCLE('',#1258,2.1);
#494=CIRCLE('',#1260,3.16066017177988);
#495=CIRCLE('',#1261,2.1);
#496=CIRCLE('',#1263,4.1);
#497=CIRCLE('',#1265,2.1);
#498=CIRCLE('',#1267,4.);
#499=CIRCLE('',#1268,4.);
#500=CIRCLE('',#1271,4.49999999999999);
#501=CIRCLE('',#1272,4.5);
#502=CIRCLE('',#1273,3.50000000000001);
#503=CIRCLE('',#1274,3.50000000000001);
#504=CIRCLE('',#1277,4.49999999999999);
#505=CIRCLE('',#1279,4.5);
#506=CIRCLE('',#1282,3.50000000000001);
#507=CIRCLE('',#1285,3.50000000000001);
#508=CIRCLE('',#1289,1.25);
#509=CIRCLE('',#1290,0.5);
#510=CIRCLE('',#1292,1.25);
#511=CIRCLE('',#1294,1.25);
#512=CIRCLE('',#1295,0.499999999999998);
#513=CIRCLE('',#1297,1.25);
#514=CIRCLE('',#1299,1.25);
#515=CIRCLE('',#1300,0.5);
#516=CIRCLE('',#1302,1.25);
#517=CIRCLE('',#1304,1.25);
#518=CIRCLE('',#1305,0.500000000000003);
#519=CIRCLE('',#1307,1.25);
#520=CIRCLE('',#1309,0.499999999999998);
#521=CIRCLE('',#1311,0.5);
#522=CIRCLE('',#1313,0.500000000000003);
#523=CIRCLE('',#1315,0.5);
#524=CIRCLE('',#1317,1.95);
#525=CIRCLE('',#1318,1.95);
#526=CIRCLE('',#1320,1.95);
#527=CIRCLE('',#1321,1.95);
#528=CIRCLE('',#1323,2.);
#529=CIRCLE('',#1324,2.);
#530=CIRCLE('',#1326,2.);
#531=CIRCLE('',#1327,2.);
#532=CIRCLE('',#1329,2.);
#533=CIRCLE('',#1330,2.);
#534=CIRCLE('',#1332,2.);
#535=CIRCLE('',#1333,2.);
#536=CIRCLE('',#1335,2.);
#537=CIRCLE('',#1336,2.);
#538=CIRCLE('',#1338,2.);
#539=CIRCLE('',#1339,2.);
#540=CIRCLE('',#1341,2.);
#541=CIRCLE('',#1342,2.);
#542=CIRCLE('',#1344,2.);
#543=CIRCLE('',#1345,2.);
#544=VERTEX_POINT('',#1730);
#545=VERTEX_POINT('',#1732);
#546=VERTEX_POINT('',#1736);
#547=VERTEX_POINT('',#1737);
#548=VERTEX_POINT('',#1742);
#549=VERTEX_POINT('',#1746);
#550=VERTEX_POINT('',#1748);
#551=VERTEX_POINT('',#1752);
#552=VERTEX_POINT('',#1756);
#553=VERTEX_POINT('',#1760);
#554=VERTEX_POINT('',#1762);
#555=VERTEX_POINT('',#1766);
#556=VERTEX_POINT('',#1770);
#557=VERTEX_POINT('',#1774);
#558=VERTEX_POINT('',#1776);
#559=VERTEX_POINT('',#1780);
#560=VERTEX_POINT('',#1781);
#561=VERTEX_POINT('',#1786);
#562=VERTEX_POINT('',#1790);
#563=VERTEX_POINT('',#1792);
#564=VERTEX_POINT('',#1796);
#565=VERTEX_POINT('',#1800);
#566=VERTEX_POINT('',#1804);
#567=VERTEX_POINT('',#1806);
#568=VERTEX_POINT('',#1810);
#569=VERTEX_POINT('',#1814);
#570=VERTEX_POINT('',#1818);
#571=VERTEX_POINT('',#1820);
#572=VERTEX_POINT('',#1825);
#573=VERTEX_POINT('',#1826);
#574=VERTEX_POINT('',#1828);
#575=VERTEX_POINT('',#1830);
#576=VERTEX_POINT('',#1833);
#577=VERTEX_POINT('',#1834);
#578=VERTEX_POINT('',#1836);
#579=VERTEX_POINT('',#1838);
#580=VERTEX_POINT('',#1842);
#581=VERTEX_POINT('',#1844);
#582=VERTEX_POINT('',#1848);
#583=VERTEX_POINT('',#1852);
#584=VERTEX_POINT('',#1858);
#585=VERTEX_POINT('',#1860);
#586=VERTEX_POINT('',#1864);
#587=VERTEX_POINT('',#1868);
#588=VERTEX_POINT('',#1874);
#589=VERTEX_POINT('',#1875);
#590=VERTEX_POINT('',#1877);
#591=VERTEX_POINT('',#1879);
#592=VERTEX_POINT('',#1883);
#593=VERTEX_POINT('',#1885);
#594=VERTEX_POINT('',#1888);
#595=VERTEX_POINT('',#1892);
#596=VERTEX_POINT('',#1894);
#597=VERTEX_POINT('',#1897);
#598=VERTEX_POINT('',#1901);
#599=VERTEX_POINT('',#1903);
#600=VERTEX_POINT('',#1906);
#601=VERTEX_POINT('',#1910);
#602=VERTEX_POINT('',#1912);
#603=VERTEX_POINT('',#1915);
#604=VERTEX_POINT('',#1919);
#605=VERTEX_POINT('',#1923);
#606=VERTEX_POINT('',#1927);
#607=VERTEX_POINT('',#1931);
#608=VERTEX_POINT('',#1935);
#609=VERTEX_POINT('',#1937);
#610=VERTEX_POINT('',#1941);
#611=VERTEX_POINT('',#1943);
#612=VERTEX_POINT('',#1947);
#613=VERTEX_POINT('',#1949);
#614=VERTEX_POINT('',#1953);
#615=VERTEX_POINT('',#1955);
#616=VERTEX_POINT('',#1959);
#617=VERTEX_POINT('',#1961);
#618=VERTEX_POINT('',#1965);
#619=VERTEX_POINT('',#1967);
#620=VERTEX_POINT('',#1971);
#621=VERTEX_POINT('',#1973);
#622=VERTEX_POINT('',#1977);
#623=VERTEX_POINT('',#1979);
#624=VERTEX_POINT('',#1983);
#625=VERTEX_POINT('',#1985);
#626=VERTEX_POINT('',#1989);
#627=VERTEX_POINT('',#1991);
#628=VERTEX_POINT('',#1995);
#629=VERTEX_POINT('',#1996);
#630=VERTEX_POINT('',#1998);
#631=VERTEX_POINT('',#2000);
#632=VERTEX_POINT('',#2004);
#633=VERTEX_POINT('',#2006);
#634=VERTEX_POINT('',#2010);
#635=VERTEX_POINT('',#2012);
#636=VERTEX_POINT('',#2016);
#637=VERTEX_POINT('',#2018);
#638=VERTEX_POINT('',#2022);
#639=VERTEX_POINT('',#2024);
#640=VERTEX_POINT('',#2028);
#641=VERTEX_POINT('',#2030);
#642=VERTEX_POINT('',#2034);
#643=VERTEX_POINT('',#2036);
#644=VERTEX_POINT('',#2040);
#645=VERTEX_POINT('',#2042);
#646=VERTEX_POINT('',#2046);
#647=VERTEX_POINT('',#2048);
#648=EDGE_CURVE('',#544,#544,#472,.T.);
#649=EDGE_CURVE('',#544,#545,#286,.T.);
#650=EDGE_CURVE('',#545,#545,#473,.T.);
#651=EDGE_CURVE('',#546,#547,#474,.T.);
#652=EDGE_CURVE('',#547,#546,#475,.T.);
#653=EDGE_CURVE('',#547,#544,#287,.T.);
#654=EDGE_CURVE('',#545,#548,#288,.T.);
#655=EDGE_CURVE('',#548,#548,#476,.T.);
#656=EDGE_CURVE('',#549,#549,#477,.T.);
#657=EDGE_CURVE('',#549,#550,#289,.T.);
#658=EDGE_CURVE('',#550,#550,#478,.T.);
#659=EDGE_CURVE('',#551,#551,#479,.T.);
#660=EDGE_CURVE('',#551,#549,#290,.T.);
#661=EDGE_CURVE('',#550,#552,#291,.T.);
#662=EDGE_CURVE('',#552,#552,#480,.T.);
#663=EDGE_CURVE('',#553,#553,#481,.T.);
#664=EDGE_CURVE('',#553,#554,#292,.T.);
#665=EDGE_CURVE('',#554,#554,#482,.T.);
#666=EDGE_CURVE('',#555,#555,#483,.T.);
#667=EDGE_CURVE('',#555,#553,#293,.T.);
#668=EDGE_CURVE('',#554,#556,#294,.T.);
#669=EDGE_CURVE('',#556,#556,#484,.T.);
#670=EDGE_CURVE('',#557,#557,#485,.T.);
#671=EDGE_CURVE('',#557,#558,#295,.T.);
#672=EDGE_CURVE('',#558,#558,#486,.T.);
#673=EDGE_CURVE('',#559,#560,#487,.T.);
#674=EDGE_CURVE('',#560,#559,#488,.T.);
#675=EDGE_CURVE('',#560,#557,#296,.T.);
#676=EDGE_CURVE('',#558,#561,#297,.T.);
#677=EDGE_CURVE('',#561,#561,#489,.T.);
#678=EDGE_CURVE('',#562,#562,#490,.T.);
#679=EDGE_CURVE('',#562,#563,#298,.T.);
#680=EDGE_CURVE('',#563,#563,#491,.T.);
#681=EDGE_CURVE('',#564,#564,#492,.T.);
#682=EDGE_CURVE('',#564,#562,#299,.T.);
#683=EDGE_CURVE('',#563,#565,#300,.T.);
#684=EDGE_CURVE('',#565,#565,#493,.T.);
#685=EDGE_CURVE('',#566,#566,#494,.T.);
#686=EDGE_CURVE('',#566,#567,#301,.T.);
#687=EDGE_CURVE('',#567,#567,#495,.T.);
#688=EDGE_CURVE('',#568,#568,#496,.T.);
#689=EDGE_CURVE('',#568,#566,#302,.T.);
#690=EDGE_CURVE('',#567,#569,#303,.T.);
#691=EDGE_CURVE('',#569,#569,#497,.T.);
#692=EDGE_CURVE('',#570,#570,#498,.T.);
#693=EDGE_CURVE('',#570,#571,#304,.T.);
#694=EDGE_CURVE('',#571,#571,#499,.T.);
#695=EDGE_CURVE('',#572,#573,#500,.T.);
#696=EDGE_CURVE('',#574,#572,#305,.T.);
#697=EDGE_CURVE('',#575,#574,#501,.T.);
#698=EDGE_CURVE('',#573,#575,#306,.T.);
#699=EDGE_CURVE('',#576,#577,#307,.T.);
#700=EDGE_CURVE('',#577,#578,#502,.T.);
#701=EDGE_CURVE('',#578,#579,#308,.T.);
#702=EDGE_CURVE('',#579,#576,#503,.T.);
#703=EDGE_CURVE('',#572,#580,#309,.T.);
#704=EDGE_CURVE('',#580,#581,#310,.T.);
#705=EDGE_CURVE('',#574,#581,#311,.T.);
#706=EDGE_CURVE('',#573,#582,#312,.T.);
#707=EDGE_CURVE('',#582,#580,#504,.T.);
#708=EDGE_CURVE('',#581,#583,#505,.T.);
#709=EDGE_CURVE('',#575,#583,#313,.T.);
#710=EDGE_CURVE('',#583,#582,#314,.T.);
#711=EDGE_CURVE('',#584,#577,#315,.T.);
#712=EDGE_CURVE('',#584,#585,#506,.T.);
#713=EDGE_CURVE('',#585,#578,#316,.T.);
#714=EDGE_CURVE('',#585,#586,#317,.T.);
#715=EDGE_CURVE('',#586,#579,#318,.T.);
#716=EDGE_CURVE('',#586,#587,#507,.T.);
#717=EDGE_CURVE('',#587,#576,#319,.T.);
#718=EDGE_CURVE('',#587,#584,#320,.T.);
#719=EDGE_CURVE('',#588,#589,#321,.T.);
#720=EDGE_CURVE('',#590,#588,#322,.T.);
#721=EDGE_CURVE('',#591,#590,#323,.T.);
#722=EDGE_CURVE('',#589,#591,#324,.T.);
#723=EDGE_CURVE('',#592,#592,#508,.T.);
#724=EDGE_CURVE('',#593,#593,#509,.T.);
#725=EDGE_CURVE('',#592,#594,#325,.T.);
#726=EDGE_CURVE('',#594,#594,#510,.T.);
#727=EDGE_CURVE('',#595,#595,#511,.T.);
#728=EDGE_CURVE('',#596,#596,#512,.T.);
#729=EDGE_CURVE('',#595,#597,#326,.T.);
#730=EDGE_CURVE('',#597,#597,#513,.T.);
#731=EDGE_CURVE('',#598,#598,#514,.T.);
#732=EDGE_CURVE('',#599,#599,#515,.T.);
#733=EDGE_CURVE('',#598,#600,#327,.T.);
#734=EDGE_CURVE('',#600,#600,#516,.T.);
#735=EDGE_CURVE('',#601,#601,#517,.T.);
#736=EDGE_CURVE('',#602,#602,#518,.T.);
#737=EDGE_CURVE('',#601,#603,#328,.T.);
#738=EDGE_CURVE('',#603,#603,#519,.T.);
#739=EDGE_CURVE('',#604,#604,#520,.T.);
#740=EDGE_CURVE('',#604,#596,#329,.T.);
#741=EDGE_CURVE('',#605,#605,#521,.T.);
#742=EDGE_CURVE('',#605,#599,#330,.T.);
#743=EDGE_CURVE('',#606,#606,#522,.T.);
#744=EDGE_CURVE('',#606,#602,#331,.T.);
#745=EDGE_CURVE('',#607,#607,#523,.T.);
#746=EDGE_CURVE('',#607,#593,#332,.T.);
#747=EDGE_CURVE('',#608,#608,#524,.T.);
#748=EDGE_CURVE('',#608,#609,#333,.T.);
#749=EDGE_CURVE('',#609,#609,#525,.T.);
#750=EDGE_CURVE('',#610,#610,#526,.T.);
#751=EDGE_CURVE('',#610,#611,#334,.T.);
#752=EDGE_CURVE('',#611,#611,#527,.T.);
#753=EDGE_CURVE('',#612,#612,#528,.T.);
#754=EDGE_CURVE('',#612,#613,#335,.T.);
#755=EDGE_CURVE('',#613,#613,#529,.T.);
#756=EDGE_CURVE('',#614,#614,#530,.T.);
#757=EDGE_CURVE('',#614,#615,#336,.T.);
#758=EDGE_CURVE('',#615,#615,#531,.T.);
#759=EDGE_CURVE('',#616,#616,#532,.T.);
#760=EDGE_CURVE('',#616,#617,#337,.T.);
#761=EDGE_CURVE('',#617,#617,#533,.T.);
#762=EDGE_CURVE('',#618,#618,#534,.T.);
#763=EDGE_CURVE('',#618,#619,#338,.T.);
#764=EDGE_CURVE('',#619,#619,#535,.T.);
#765=EDGE_CURVE('',#620,#620,#536,.T.);
#766=EDGE_CURVE('',#620,#621,#339,.T.);
#767=EDGE_CURVE('',#621,#621,#537,.T.);
#768=EDGE_CURVE('',#622,#622,#538,.T.);
#769=EDGE_CURVE('',#622,#623,#340,.T.);
#770=EDGE_CURVE('',#623,#623,#539,.T.);
#771=EDGE_CURVE('',#624,#624,#540,.T.);
#772=EDGE_CURVE('',#624,#625,#341,.T.);
#773=EDGE_CURVE('',#625,#625,#541,.T.);
#774=EDGE_CURVE('',#626,#626,#542,.T.);
#775=EDGE_CURVE('',#626,#627,#342,.T.);
#776=EDGE_CURVE('',#627,#627,#543,.T.);
#777=EDGE_CURVE('',#628,#629,#343,.T.);
#778=EDGE_CURVE('',#629,#630,#344,.T.);
#779=EDGE_CURVE('',#631,#630,#345,.T.);
#780=EDGE_CURVE('',#628,#631,#346,.T.);
#781=EDGE_CURVE('',#632,#628,#347,.T.);
#782=EDGE_CURVE('',#633,#631,#348,.T.);
#783=EDGE_CURVE('',#632,#633,#349,.T.);
#784=EDGE_CURVE('',#632,#634,#350,.T.);
#785=EDGE_CURVE('',#635,#633,#351,.T.);
#786=EDGE_CURVE('',#634,#635,#352,.T.);
#787=EDGE_CURVE('',#634,#636,#353,.T.);
#788=EDGE_CURVE('',#637,#635,#354,.T.);
#789=EDGE_CURVE('',#636,#637,#355,.T.);
#790=EDGE_CURVE('',#636,#638,#356,.T.);
#791=EDGE_CURVE('',#639,#637,#357,.T.);
#792=EDGE_CURVE('',#638,#639,#358,.T.);
#793=EDGE_CURVE('',#638,#640,#359,.T.);
#794=EDGE_CURVE('',#641,#639,#360,.T.);
#795=EDGE_CURVE('',#640,#641,#361,.T.);
#796=EDGE_CURVE('',#640,#642,#362,.T.);
#797=EDGE_CURVE('',#643,#641,#363,.T.);
#798=EDGE_CURVE('',#642,#643,#364,.T.);
#799=EDGE_CURVE('',#644,#642,#365,.T.);
#800=EDGE_CURVE('',#645,#643,#366,.T.);
#801=EDGE_CURVE('',#644,#645,#367,.T.);
#802=EDGE_CURVE('',#646,#644,#368,.T.);
#803=EDGE_CURVE('',#647,#645,#369,.T.);
#804=EDGE_CURVE('',#646,#647,#370,.T.);
#805=EDGE_CURVE('',#588,#646,#371,.T.);
#806=EDGE_CURVE('',#647,#559,#372,.T.);
#807=EDGE_CURVE('',#559,#546,#373,.T.);
#808=EDGE_CURVE('',#546,#590,#374,.T.);
#809=EDGE_CURVE('',#629,#589,#375,.T.);
#810=EDGE_CURVE('',#551,#591,#376,.T.);
#811=EDGE_CURVE('',#551,#555,#377,.T.);
#812=EDGE_CURVE('',#630,#555,#378,.T.);
#813=ORIENTED_EDGE('',*,*,#648,.F.);
#814=ORIENTED_EDGE('',*,*,#649,.T.);
#815=ORIENTED_EDGE('',*,*,#650,.F.);
#816=ORIENTED_EDGE('',*,*,#649,.F.);
#817=ORIENTED_EDGE('',*,*,#651,.F.);
#818=ORIENTED_EDGE('',*,*,#652,.F.);
#819=ORIENTED_EDGE('',*,*,#653,.T.);
#820=ORIENTED_EDGE('',*,*,#648,.T.);
#821=ORIENTED_EDGE('',*,*,#653,.F.);
#822=ORIENTED_EDGE('',*,*,#650,.T.);
#823=ORIENTED_EDGE('',*,*,#654,.T.);
#824=ORIENTED_EDGE('',*,*,#655,.F.);
#825=ORIENTED_EDGE('',*,*,#654,.F.);
#826=ORIENTED_EDGE('',*,*,#656,.F.);
#827=ORIENTED_EDGE('',*,*,#657,.T.);
#828=ORIENTED_EDGE('',*,*,#658,.F.);
#829=ORIENTED_EDGE('',*,*,#657,.F.);
#830=ORIENTED_EDGE('',*,*,#659,.F.);
#831=ORIENTED_EDGE('',*,*,#660,.T.);
#832=ORIENTED_EDGE('',*,*,#656,.T.);
#833=ORIENTED_EDGE('',*,*,#660,.F.);
#834=ORIENTED_EDGE('',*,*,#658,.T.);
#835=ORIENTED_EDGE('',*,*,#661,.T.);
#836=ORIENTED_EDGE('',*,*,#662,.F.);
#837=ORIENTED_EDGE('',*,*,#661,.F.);
#838=ORIENTED_EDGE('',*,*,#663,.F.);
#839=ORIENTED_EDGE('',*,*,#664,.T.);
#840=ORIENTED_EDGE('',*,*,#665,.F.);
#841=ORIENTED_EDGE('',*,*,#664,.F.);
#842=ORIENTED_EDGE('',*,*,#666,.F.);
#843=ORIENTED_EDGE('',*,*,#667,.T.);
#844=ORIENTED_EDGE('',*,*,#663,.T.);
#845=ORIENTED_EDGE('',*,*,#667,.F.);
#846=ORIENTED_EDGE('',*,*,#665,.T.);
#847=ORIENTED_EDGE('',*,*,#668,.T.);
#848=ORIENTED_EDGE('',*,*,#669,.F.);
#849=ORIENTED_EDGE('',*,*,#668,.F.);
#850=ORIENTED_EDGE('',*,*,#670,.F.);
#851=ORIENTED_EDGE('',*,*,#671,.T.);
#852=ORIENTED_EDGE('',*,*,#672,.F.);
#853=ORIENTED_EDGE('',*,*,#671,.F.);
#854=ORIENTED_EDGE('',*,*,#673,.F.);
#855=ORIENTED_EDGE('',*,*,#674,.F.);
#856=ORIENTED_EDGE('',*,*,#675,.T.);
#857=ORIENTED_EDGE('',*,*,#670,.T.);
#858=ORIENTED_EDGE('',*,*,#675,.F.);
#859=ORIENTED_EDGE('',*,*,#672,.T.);
#860=ORIENTED_EDGE('',*,*,#676,.T.);
#861=ORIENTED_EDGE('',*,*,#677,.F.);
#862=ORIENTED_EDGE('',*,*,#676,.F.);
#863=ORIENTED_EDGE('',*,*,#678,.F.);
#864=ORIENTED_EDGE('',*,*,#679,.T.);
#865=ORIENTED_EDGE('',*,*,#680,.F.);
#866=ORIENTED_EDGE('',*,*,#679,.F.);
#867=ORIENTED_EDGE('',*,*,#681,.F.);
#868=ORIENTED_EDGE('',*,*,#682,.T.);
#869=ORIENTED_EDGE('',*,*,#678,.T.);
#870=ORIENTED_EDGE('',*,*,#682,.F.);
#871=ORIENTED_EDGE('',*,*,#680,.T.);
#872=ORIENTED_EDGE('',*,*,#683,.T.);
#873=ORIENTED_EDGE('',*,*,#684,.T.);
#874=ORIENTED_EDGE('',*,*,#683,.F.);
#875=ORIENTED_EDGE('',*,*,#685,.F.);
#876=ORIENTED_EDGE('',*,*,#686,.T.);
#877=ORIENTED_EDGE('',*,*,#687,.F.);
#878=ORIENTED_EDGE('',*,*,#686,.F.);
#879=ORIENTED_EDGE('',*,*,#688,.F.);
#880=ORIENTED_EDGE('',*,*,#689,.T.);
#881=ORIENTED_EDGE('',*,*,#685,.T.);
#882=ORIENTED_EDGE('',*,*,#689,.F.);
#883=ORIENTED_EDGE('',*,*,#687,.T.);
#884=ORIENTED_EDGE('',*,*,#690,.T.);
#885=ORIENTED_EDGE('',*,*,#691,.T.);
#886=ORIENTED_EDGE('',*,*,#690,.F.);
#887=ORIENTED_EDGE('',*,*,#692,.T.);
#888=ORIENTED_EDGE('',*,*,#693,.T.);
#889=ORIENTED_EDGE('',*,*,#694,.F.);
#890=ORIENTED_EDGE('',*,*,#693,.F.);
#891=ORIENTED_EDGE('',*,*,#694,.T.);
#892=ORIENTED_EDGE('',*,*,#695,.F.);
#893=ORIENTED_EDGE('',*,*,#696,.F.);
#894=ORIENTED_EDGE('',*,*,#697,.F.);
#895=ORIENTED_EDGE('',*,*,#698,.F.);
#896=ORIENTED_EDGE('',*,*,#699,.T.);
#897=ORIENTED_EDGE('',*,*,#700,.T.);
#898=ORIENTED_EDGE('',*,*,#701,.T.);
#899=ORIENTED_EDGE('',*,*,#702,.T.);
#900=ORIENTED_EDGE('',*,*,#696,.T.);
#901=ORIENTED_EDGE('',*,*,#703,.T.);
#902=ORIENTED_EDGE('',*,*,#704,.T.);
#903=ORIENTED_EDGE('',*,*,#705,.F.);
#904=ORIENTED_EDGE('',*,*,#695,.T.);
#905=ORIENTED_EDGE('',*,*,#706,.T.);
#906=ORIENTED_EDGE('',*,*,#707,.T.);
#907=ORIENTED_EDGE('',*,*,#703,.F.);
#908=ORIENTED_EDGE('',*,*,#697,.T.);
#909=ORIENTED_EDGE('',*,*,#705,.T.);
#910=ORIENTED_EDGE('',*,*,#708,.T.);
#911=ORIENTED_EDGE('',*,*,#709,.F.);
#912=ORIENTED_EDGE('',*,*,#698,.T.);
#913=ORIENTED_EDGE('',*,*,#709,.T.);
#914=ORIENTED_EDGE('',*,*,#710,.T.);
#915=ORIENTED_EDGE('',*,*,#706,.F.);
#916=ORIENTED_EDGE('',*,*,#700,.F.);
#917=ORIENTED_EDGE('',*,*,#711,.F.);
#918=ORIENTED_EDGE('',*,*,#712,.T.);
#919=ORIENTED_EDGE('',*,*,#713,.T.);
#920=ORIENTED_EDGE('',*,*,#701,.F.);
#921=ORIENTED_EDGE('',*,*,#713,.F.);
#922=ORIENTED_EDGE('',*,*,#714,.T.);
#923=ORIENTED_EDGE('',*,*,#715,.T.);
#924=ORIENTED_EDGE('',*,*,#702,.F.);
#925=ORIENTED_EDGE('',*,*,#715,.F.);
#926=ORIENTED_EDGE('',*,*,#716,.T.);
#927=ORIENTED_EDGE('',*,*,#717,.T.);
#928=ORIENTED_EDGE('',*,*,#699,.F.);
#929=ORIENTED_EDGE('',*,*,#717,.F.);
#930=ORIENTED_EDGE('',*,*,#718,.T.);
#931=ORIENTED_EDGE('',*,*,#711,.T.);
#932=ORIENTED_EDGE('',*,*,#719,.F.);
#933=ORIENTED_EDGE('',*,*,#720,.F.);
#934=ORIENTED_EDGE('',*,*,#721,.F.);
#935=ORIENTED_EDGE('',*,*,#722,.F.);
#936=ORIENTED_EDGE('',*,*,#723,.F.);
#937=ORIENTED_EDGE('',*,*,#724,.T.);
#938=ORIENTED_EDGE('',*,*,#723,.T.);
#939=ORIENTED_EDGE('',*,*,#725,.T.);
#940=ORIENTED_EDGE('',*,*,#726,.T.);
#941=ORIENTED_EDGE('',*,*,#725,.F.);
#942=ORIENTED_EDGE('',*,*,#727,.F.);
#943=ORIENTED_EDGE('',*,*,#728,.T.);
#944=ORIENTED_EDGE('',*,*,#727,.T.);
#945=ORIENTED_EDGE('',*,*,#729,.T.);
#946=ORIENTED_EDGE('',*,*,#730,.T.);
#947=ORIENTED_EDGE('',*,*,#729,.F.);
#948=ORIENTED_EDGE('',*,*,#731,.F.);
#949=ORIENTED_EDGE('',*,*,#732,.T.);
#950=ORIENTED_EDGE('',*,*,#731,.T.);
#951=ORIENTED_EDGE('',*,*,#733,.T.);
#952=ORIENTED_EDGE('',*,*,#734,.T.);
#953=ORIENTED_EDGE('',*,*,#733,.F.);
#954=ORIENTED_EDGE('',*,*,#735,.F.);
#955=ORIENTED_EDGE('',*,*,#736,.T.);
#956=ORIENTED_EDGE('',*,*,#735,.T.);
#957=ORIENTED_EDGE('',*,*,#737,.T.);
#958=ORIENTED_EDGE('',*,*,#738,.T.);
#959=ORIENTED_EDGE('',*,*,#737,.F.);
#960=ORIENTED_EDGE('',*,*,#739,.T.);
#961=ORIENTED_EDGE('',*,*,#740,.T.);
#962=ORIENTED_EDGE('',*,*,#728,.F.);
#963=ORIENTED_EDGE('',*,*,#740,.F.);
#964=ORIENTED_EDGE('',*,*,#741,.T.);
#965=ORIENTED_EDGE('',*,*,#742,.T.);
#966=ORIENTED_EDGE('',*,*,#732,.F.);
#967=ORIENTED_EDGE('',*,*,#742,.F.);
#968=ORIENTED_EDGE('',*,*,#743,.T.);
#969=ORIENTED_EDGE('',*,*,#744,.T.);
#970=ORIENTED_EDGE('',*,*,#736,.F.);
#971=ORIENTED_EDGE('',*,*,#744,.F.);
#972=ORIENTED_EDGE('',*,*,#745,.T.);
#973=ORIENTED_EDGE('',*,*,#746,.T.);
#974=ORIENTED_EDGE('',*,*,#724,.F.);
#975=ORIENTED_EDGE('',*,*,#746,.F.);
#976=ORIENTED_EDGE('',*,*,#747,.T.);
#977=ORIENTED_EDGE('',*,*,#748,.T.);
#978=ORIENTED_EDGE('',*,*,#749,.F.);
#979=ORIENTED_EDGE('',*,*,#748,.F.);
#980=ORIENTED_EDGE('',*,*,#750,.T.);
#981=ORIENTED_EDGE('',*,*,#751,.T.);
#982=ORIENTED_EDGE('',*,*,#752,.F.);
#983=ORIENTED_EDGE('',*,*,#751,.F.);
#984=ORIENTED_EDGE('',*,*,#753,.F.);
#985=ORIENTED_EDGE('',*,*,#754,.T.);
#986=ORIENTED_EDGE('',*,*,#755,.T.);
#987=ORIENTED_EDGE('',*,*,#754,.F.);
#988=ORIENTED_EDGE('',*,*,#756,.F.);
#989=ORIENTED_EDGE('',*,*,#757,.T.);
#990=ORIENTED_EDGE('',*,*,#758,.T.);
#991=ORIENTED_EDGE('',*,*,#757,.F.);
#992=ORIENTED_EDGE('',*,*,#759,.F.);
#993=ORIENTED_EDGE('',*,*,#760,.T.);
#994=ORIENTED_EDGE('',*,*,#761,.T.);
#995=ORIENTED_EDGE('',*,*,#760,.F.);
#996=ORIENTED_EDGE('',*,*,#762,.F.);
#997=ORIENTED_EDGE('',*,*,#763,.T.);
#998=ORIENTED_EDGE('',*,*,#764,.T.);
#999=ORIENTED_EDGE('',*,*,#763,.F.);
#1000=ORIENTED_EDGE('',*,*,#765,.F.);
#1001=ORIENTED_EDGE('',*,*,#766,.T.);
#1002=ORIENTED_EDGE('',*,*,#767,.T.);
#1003=ORIENTED_EDGE('',*,*,#766,.F.);
#1004=ORIENTED_EDGE('',*,*,#768,.F.);
#1005=ORIENTED_EDGE('',*,*,#769,.T.);
#1006=ORIENTED_EDGE('',*,*,#770,.T.);
#1007=ORIENTED_EDGE('',*,*,#769,.F.);
#1008=ORIENTED_EDGE('',*,*,#771,.F.);
#1009=ORIENTED_EDGE('',*,*,#772,.T.);
#1010=ORIENTED_EDGE('',*,*,#773,.T.);
#1011=ORIENTED_EDGE('',*,*,#772,.F.);
#1012=ORIENTED_EDGE('',*,*,#774,.F.);
#1013=ORIENTED_EDGE('',*,*,#775,.T.);
#1014=ORIENTED_EDGE('',*,*,#776,.T.);
#1015=ORIENTED_EDGE('',*,*,#775,.F.);
#1016=ORIENTED_EDGE('',*,*,#777,.T.);
#1017=ORIENTED_EDGE('',*,*,#778,.T.);
#1018=ORIENTED_EDGE('',*,*,#779,.F.);
#1019=ORIENTED_EDGE('',*,*,#780,.F.);
#1020=ORIENTED_EDGE('',*,*,#781,.T.);
#1021=ORIENTED_EDGE('',*,*,#780,.T.);
#1022=ORIENTED_EDGE('',*,*,#782,.F.);
#1023=ORIENTED_EDGE('',*,*,#783,.F.);
#1024=ORIENTED_EDGE('',*,*,#784,.F.);
#1025=ORIENTED_EDGE('',*,*,#783,.T.);
#1026=ORIENTED_EDGE('',*,*,#785,.F.);
#1027=ORIENTED_EDGE('',*,*,#786,.F.);
#1028=ORIENTED_EDGE('',*,*,#787,.F.);
#1029=ORIENTED_EDGE('',*,*,#786,.T.);
#1030=ORIENTED_EDGE('',*,*,#788,.F.);
#1031=ORIENTED_EDGE('',*,*,#789,.F.);
#1032=ORIENTED_EDGE('',*,*,#790,.F.);
#1033=ORIENTED_EDGE('',*,*,#789,.T.);
#1034=ORIENTED_EDGE('',*,*,#791,.F.);
#1035=ORIENTED_EDGE('',*,*,#792,.F.);
#1036=ORIENTED_EDGE('',*,*,#793,.F.);
#1037=ORIENTED_EDGE('',*,*,#792,.T.);
#1038=ORIENTED_EDGE('',*,*,#794,.F.);
#1039=ORIENTED_EDGE('',*,*,#795,.F.);
#1040=ORIENTED_EDGE('',*,*,#796,.F.);
#1041=ORIENTED_EDGE('',*,*,#795,.T.);
#1042=ORIENTED_EDGE('',*,*,#797,.F.);
#1043=ORIENTED_EDGE('',*,*,#798,.F.);
#1044=ORIENTED_EDGE('',*,*,#799,.T.);
#1045=ORIENTED_EDGE('',*,*,#798,.T.);
#1046=ORIENTED_EDGE('',*,*,#800,.F.);
#1047=ORIENTED_EDGE('',*,*,#801,.F.);
#1048=ORIENTED_EDGE('',*,*,#802,.T.);
#1049=ORIENTED_EDGE('',*,*,#801,.T.);
#1050=ORIENTED_EDGE('',*,*,#803,.F.);
#1051=ORIENTED_EDGE('',*,*,#804,.F.);
#1052=ORIENTED_EDGE('',*,*,#805,.T.);
#1053=ORIENTED_EDGE('',*,*,#804,.T.);
#1054=ORIENTED_EDGE('',*,*,#806,.T.);
#1055=ORIENTED_EDGE('',*,*,#807,.T.);
#1056=ORIENTED_EDGE('',*,*,#808,.T.);
#1057=ORIENTED_EDGE('',*,*,#720,.T.);
#1058=ORIENTED_EDGE('',*,*,#681,.T.);
#1059=ORIENTED_EDGE('',*,*,#688,.T.);
#1060=ORIENTED_EDGE('',*,*,#692,.F.);
#1061=ORIENTED_EDGE('',*,*,#809,.T.);
#1062=ORIENTED_EDGE('',*,*,#722,.T.);
#1063=ORIENTED_EDGE('',*,*,#810,.F.);
#1064=ORIENTED_EDGE('',*,*,#811,.T.);
#1065=ORIENTED_EDGE('',*,*,#812,.F.);
#1066=ORIENTED_EDGE('',*,*,#778,.F.);
#1067=ORIENTED_EDGE('',*,*,#691,.F.);
#1068=ORIENTED_EDGE('',*,*,#684,.F.);
#1069=ORIENTED_EDGE('',*,*,#812,.T.);
#1070=ORIENTED_EDGE('',*,*,#666,.T.);
#1071=ORIENTED_EDGE('',*,*,#811,.F.);
#1072=ORIENTED_EDGE('',*,*,#659,.T.);
#1073=ORIENTED_EDGE('',*,*,#810,.T.);
#1074=ORIENTED_EDGE('',*,*,#721,.T.);
#1075=ORIENTED_EDGE('',*,*,#808,.F.);
#1076=ORIENTED_EDGE('',*,*,#651,.T.);
#1077=ORIENTED_EDGE('',*,*,#652,.T.);
#1078=ORIENTED_EDGE('',*,*,#807,.F.);
#1079=ORIENTED_EDGE('',*,*,#673,.T.);
#1080=ORIENTED_EDGE('',*,*,#674,.T.);
#1081=ORIENTED_EDGE('',*,*,#806,.F.);
#1082=ORIENTED_EDGE('',*,*,#803,.T.);
#1083=ORIENTED_EDGE('',*,*,#800,.T.);
#1084=ORIENTED_EDGE('',*,*,#797,.T.);
#1085=ORIENTED_EDGE('',*,*,#794,.T.);
#1086=ORIENTED_EDGE('',*,*,#791,.T.);
#1087=ORIENTED_EDGE('',*,*,#788,.T.);
#1088=ORIENTED_EDGE('',*,*,#785,.T.);
#1089=ORIENTED_EDGE('',*,*,#782,.T.);
#1090=ORIENTED_EDGE('',*,*,#779,.T.);
#1091=ORIENTED_EDGE('',*,*,#750,.F.);
#1092=ORIENTED_EDGE('',*,*,#747,.F.);
#1093=ORIENTED_EDGE('',*,*,#738,.F.);
#1094=ORIENTED_EDGE('',*,*,#734,.F.);
#1095=ORIENTED_EDGE('',*,*,#730,.F.);
#1096=ORIENTED_EDGE('',*,*,#726,.F.);
#1097=ORIENTED_EDGE('',*,*,#716,.F.);
#1098=ORIENTED_EDGE('',*,*,#714,.F.);
#1099=ORIENTED_EDGE('',*,*,#712,.F.);
#1100=ORIENTED_EDGE('',*,*,#718,.F.);
#1101=ORIENTED_EDGE('',*,*,#774,.T.);
#1102=ORIENTED_EDGE('',*,*,#771,.T.);
#1103=ORIENTED_EDGE('',*,*,#768,.T.);
#1104=ORIENTED_EDGE('',*,*,#765,.T.);
#1105=ORIENTED_EDGE('',*,*,#762,.T.);
#1106=ORIENTED_EDGE('',*,*,#759,.T.);
#1107=ORIENTED_EDGE('',*,*,#756,.T.);
#1108=ORIENTED_EDGE('',*,*,#753,.T.);
#1109=ORIENTED_EDGE('',*,*,#809,.F.);
#1110=ORIENTED_EDGE('',*,*,#777,.F.);
#1111=ORIENTED_EDGE('',*,*,#781,.F.);
#1112=ORIENTED_EDGE('',*,*,#784,.T.);
#1113=ORIENTED_EDGE('',*,*,#787,.T.);
#1114=ORIENTED_EDGE('',*,*,#790,.T.);
#1115=ORIENTED_EDGE('',*,*,#793,.T.);
#1116=ORIENTED_EDGE('',*,*,#796,.T.);
#1117=ORIENTED_EDGE('',*,*,#799,.F.);
#1118=ORIENTED_EDGE('',*,*,#802,.F.);
#1119=ORIENTED_EDGE('',*,*,#805,.F.);
#1120=ORIENTED_EDGE('',*,*,#719,.T.);
#1121=ORIENTED_EDGE('',*,*,#704,.F.);
#1122=ORIENTED_EDGE('',*,*,#707,.F.);
#1123=ORIENTED_EDGE('',*,*,#710,.F.);
#1124=ORIENTED_EDGE('',*,*,#708,.F.);
#1125=ORIENTED_EDGE('',*,*,#655,.T.);
#1126=ORIENTED_EDGE('',*,*,#749,.T.);
#1127=ORIENTED_EDGE('',*,*,#662,.T.);
#1128=ORIENTED_EDGE('',*,*,#677,.T.);
#1129=ORIENTED_EDGE('',*,*,#669,.T.);
#1130=ORIENTED_EDGE('',*,*,#752,.T.);
#1131=ORIENTED_EDGE('',*,*,#745,.F.);
#1132=ORIENTED_EDGE('',*,*,#743,.F.);
#1133=ORIENTED_EDGE('',*,*,#741,.F.);
#1134=ORIENTED_EDGE('',*,*,#739,.F.);
#1135=ORIENTED_EDGE('',*,*,#776,.F.);
#1136=ORIENTED_EDGE('',*,*,#773,.F.);
#1137=ORIENTED_EDGE('',*,*,#770,.F.);
#1138=ORIENTED_EDGE('',*,*,#767,.F.);
#1139=ORIENTED_EDGE('',*,*,#764,.F.);
#1140=ORIENTED_EDGE('',*,*,#761,.F.);
#1141=ORIENTED_EDGE('',*,*,#758,.F.);
#1142=ORIENTED_EDGE('',*,*,#755,.F.);
#1143=CONICAL_SURFACE('',#1222,2.53033008588991,0.475353056574993);
#1144=CONICAL_SURFACE('',#1225,3.,0.785398163397449);
#1145=CONICAL_SURFACE('',#1230,2.53033008588991,0.475353056574992);
#1146=CONICAL_SURFACE('',#1233,3.,0.785398163397448);
#1147=CONICAL_SURFACE('',#1237,2.53033008588991,0.475353056574991);
#1148=CONICAL_SURFACE('',#1240,3.,0.785398163397448);
#1149=CONICAL_SURFACE('',#1244,2.53033008588991,0.475353056574993);
#1150=CONICAL_SURFACE('',#1247,3.,0.785398163397449);
#1151=CONICAL_SURFACE('',#1252,2.63033008588992,0.475353056575005);
#1152=CONICAL_SURFACE('',#1255,3.1,0.78539816339747);
#1153=CONICAL_SURFACE('',#1259,2.63033008588994,0.475353056575029);
#1154=CONICAL_SURFACE('',#1262,3.1,0.785398163397508);
#1155=ADVANCED_FACE('',(#112),#1143,.F.);
#1156=ADVANCED_FACE('',(#113),#1144,.F.);
#1157=ADVANCED_FACE('',(#114),#83,.F.);
#1158=ADVANCED_FACE('',(#115),#1145,.F.);
#1159=ADVANCED_FACE('',(#116),#1146,.F.);
#1160=ADVANCED_FACE('',(#117),#84,.F.);
#1161=ADVANCED_FACE('',(#118),#1147,.F.);
#1162=ADVANCED_FACE('',(#119),#1148,.F.);
#1163=ADVANCED_FACE('',(#120),#85,.F.);
#1164=ADVANCED_FACE('',(#121),#1149,.F.);
#1165=ADVANCED_FACE('',(#122),#1150,.F.);
#1166=ADVANCED_FACE('',(#123),#86,.F.);
#1167=ADVANCED_FACE('',(#124),#1151,.F.);
#1168=ADVANCED_FACE('',(#125),#1152,.F.);
#1169=ADVANCED_FACE('',(#126),#87,.F.);
#1170=ADVANCED_FACE('',(#127),#1153,.F.);
#1171=ADVANCED_FACE('',(#128),#1154,.F.);
#1172=ADVANCED_FACE('',(#129),#88,.F.);
#1173=ADVANCED_FACE('',(#130),#89,.F.);
#1174=ADVANCED_FACE('',(#131),#59,.F.);
#1175=ADVANCED_FACE('',(#132,#15),#60,.T.);
#1176=ADVANCED_FACE('',(#133),#61,.T.);
#1177=ADVANCED_FACE('',(#134),#90,.F.);
#1178=ADVANCED_FACE('',(#135),#91,.F.);
#1179=ADVANCED_FACE('',(#136),#62,.T.);
#1180=ADVANCED_FACE('',(#137),#92,.F.);
#1181=ADVANCED_FACE('',(#138),#63,.T.);
#1182=ADVANCED_FACE('',(#139),#93,.F.);
#1183=ADVANCED_FACE('',(#140),#64,.T.);
#1184=ADVANCED_FACE('',(#141),#65,.F.);
#1185=ADVANCED_FACE('',(#142,#16),#66,.F.);
#1186=ADVANCED_FACE('',(#143),#94,.F.);
#1187=ADVANCED_FACE('',(#144,#17),#67,.F.);
#1188=ADVANCED_FACE('',(#145),#95,.F.);
#1189=ADVANCED_FACE('',(#146,#18),#68,.F.);
#1190=ADVANCED_FACE('',(#147),#96,.F.);
#1191=ADVANCED_FACE('',(#148,#19),#69,.F.);
#1192=ADVANCED_FACE('',(#149),#97,.F.);
#1193=ADVANCED_FACE('',(#150),#98,.F.);
#1194=ADVANCED_FACE('',(#151),#99,.F.);
#1195=ADVANCED_FACE('',(#152),#100,.F.);
#1196=ADVANCED_FACE('',(#153),#101,.F.);
#1197=ADVANCED_FACE('',(#154),#102,.F.);
#1198=ADVANCED_FACE('',(#155),#103,.F.);
#1199=ADVANCED_FACE('',(#156),#104,.F.);
#1200=ADVANCED_FACE('',(#157),#105,.F.);
#1201=ADVANCED_FACE('',(#158),#106,.F.);
#1202=ADVANCED_FACE('',(#159),#107,.F.);
#1203=ADVANCED_FACE('',(#160),#108,.F.);
#1204=ADVANCED_FACE('',(#161),#109,.F.);
#1205=ADVANCED_FACE('',(#162),#110,.F.);
#1206=ADVANCED_FACE('',(#163),#111,.F.);
#1207=ADVANCED_FACE('',(#164),#70,.T.);
#1208=ADVANCED_FACE('',(#165),#71,.T.);
#1209=ADVANCED_FACE('',(#166),#72,.T.);
#1210=ADVANCED_FACE('',(#167),#73,.T.);
#1211=ADVANCED_FACE('',(#168),#74,.T.);
#1212=ADVANCED_FACE('',(#169),#75,.T.);
#1213=ADVANCED_FACE('',(#170),#76,.T.);
#1214=ADVANCED_FACE('',(#171),#77,.T.);
#1215=ADVANCED_FACE('',(#172),#78,.T.);
#1216=ADVANCED_FACE('',(#173,#20,#21,#22),#79,.T.);
#1217=ADVANCED_FACE('',(#174,#23,#24),#80,.T.);
#1218=ADVANCED_FACE('',(#175,#25,#26,#27,#28,#29,#30,#31,#32,#33,#34,#35,
#36,#37,#38,#39),#81,.T.);
#1219=ADVANCED_FACE('',(#176,#40,#41,#42,#43,#44,#45,#46,#47,#48,#49,#50,
#51,#52,#53,#54,#55,#56,#57,#58),#82,.F.);
#1220=CLOSED_SHELL('',(#1155,#1156,#1157,#1158,#1159,#1160,#1161,#1162,
#1163,#1164,#1165,#1166,#1167,#1168,#1169,#1170,#1171,#1172,#1173,#1174,
#1175,#1176,#1177,#1178,#1179,#1180,#1181,#1182,#1183,#1184,#1185,#1186,
#1187,#1188,#1189,#1190,#1191,#1192,#1193,#1194,#1195,#1196,#1197,#1198,
#1199,#1200,#1201,#1202,#1203,#1204,#1205,#1206,#1207,#1208,#1209,#1210,
#1211,#1212,#1213,#1214,#1215,#1216,#1217,#1218,#1219));
#1221=AXIS2_PLACEMENT_3D('',#1728,#1359,#1360);
#1222=AXIS2_PLACEMENT_3D('',#1729,#1361,#1362);
#1223=AXIS2_PLACEMENT_3D('',#1731,#1363,#1364);
#1224=AXIS2_PLACEMENT_3D('',#1734,#1366,#1367);
#1225=AXIS2_PLACEMENT_3D('',#1735,#1368,#1369);
#1226=AXIS2_PLACEMENT_3D('',#1738,#1370,#1371);
#1227=AXIS2_PLACEMENT_3D('',#1739,#1372,#1373);
#1228=AXIS2_PLACEMENT_3D('',#1741,#1375,#1376);
#1229=AXIS2_PLACEMENT_3D('',#1744,#1378,#1379);
#1230=AXIS2_PLACEMENT_3D('',#1745,#1380,#1381);
#1231=AXIS2_PLACEMENT_3D('',#1747,#1382,#1383);
#1232=AXIS2_PLACEMENT_3D('',#1750,#1385,#1386);
#1233=AXIS2_PLACEMENT_3D('',#1751,#1387,#1388);
#1234=AXIS2_PLACEMENT_3D('',#1753,#1389,#1390);
#1235=AXIS2_PLACEMENT_3D('',#1755,#1392,#1393);
#1236=AXIS2_PLACEMENT_3D('',#1758,#1395,#1396);
#1237=AXIS2_PLACEMENT_3D('',#1759,#1397,#1398);
#1238=AXIS2_PLACEMENT_3D('',#1761,#1399,#1400);
#1239=AXIS2_PLACEMENT_3D('',#1764,#1402,#1403);
#1240=AXIS2_PLACEMENT_3D('',#1765,#1404,#1405);
#1241=AXIS2_PLACEMENT_3D('',#1767,#1406,#1407);
#1242=AXIS2_PLACEMENT_3D('',#1769,#1409,#1410);
#1243=AXIS2_PLACEMENT_3D('',#1772,#1412,#1413);
#1244=AXIS2_PLACEMENT_3D('',#1773,#1414,#1415);
#1245=AXIS2_PLACEMENT_3D('',#1775,#1416,#1417);
#1246=AXIS2_PLACEMENT_3D('',#1778,#1419,#1420);
#1247=AXIS2_PLACEMENT_3D('',#1779,#1421,#1422);
#1248=AXIS2_PLACEMENT_3D('',#1782,#1423,#1424);
#1249=AXIS2_PLACEMENT_3D('',#1783,#1425,#1426);
#1250=AXIS2_PLACEMENT_3D('',#1785,#1428,#1429);
#1251=AXIS2_PLACEMENT_3D('',#1788,#1431,#1432);
#1252=AXIS2_PLACEMENT_3D('',#1789,#1433,#1434);
#1253=AXIS2_PLACEMENT_3D('',#1791,#1435,#1436);
#1254=AXIS2_PLACEMENT_3D('',#1794,#1438,#1439);
#1255=AXIS2_PLACEMENT_3D('',#1795,#1440,#1441);
#1256=AXIS2_PLACEMENT_3D('',#1797,#1442,#1443);
#1257=AXIS2_PLACEMENT_3D('',#1799,#1445,#1446);
#1258=AXIS2_PLACEMENT_3D('',#1802,#1448,#1449);
#1259=AXIS2_PLACEMENT_3D('',#1803,#1450,#1451);
#1260=AXIS2_PLACEMENT_3D('',#1805,#1452,#1453);
#1261=AXIS2_PLACEMENT_3D('',#1808,#1455,#1456);
#1262=AXIS2_PLACEMENT_3D('',#1809,#1457,#1458);
#1263=AXIS2_PLACEMENT_3D('',#1811,#1459,#1460);
#1264=AXIS2_PLACEMENT_3D('',#1813,#1462,#1463);
#1265=AXIS2_PLACEMENT_3D('',#1816,#1465,#1466);
#1266=AXIS2_PLACEMENT_3D('',#1817,#1467,#1468);
#1267=AXIS2_PLACEMENT_3D('',#1819,#1469,#1470);
#1268=AXIS2_PLACEMENT_3D('',#1822,#1472,#1473);
#1269=AXIS2_PLACEMENT_3D('',#1823,#1474,#1475);
#1270=AXIS2_PLACEMENT_3D('',#1824,#1476,#1477);
#1271=AXIS2_PLACEMENT_3D('',#1827,#1478,#1479);
#1272=AXIS2_PLACEMENT_3D('',#1831,#1481,#1482);
#1273=AXIS2_PLACEMENT_3D('',#1837,#1485,#1486);
#1274=AXIS2_PLACEMENT_3D('',#1840,#1488,#1489);
#1275=AXIS2_PLACEMENT_3D('',#1841,#1490,#1491);
#1276=AXIS2_PLACEMENT_3D('',#1847,#1495,#1496);
#1277=AXIS2_PLACEMENT_3D('',#1850,#1498,#1499);
#1278=AXIS2_PLACEMENT_3D('',#1851,#1500,#1501);
#1279=AXIS2_PLACEMENT_3D('',#1853,#1502,#1503);
#1280=AXIS2_PLACEMENT_3D('',#1855,#1505,#1506);
#1281=AXIS2_PLACEMENT_3D('',#1857,#1508,#1509);
#1282=AXIS2_PLACEMENT_3D('',#1861,#1511,#1512);
#1283=AXIS2_PLACEMENT_3D('',#1863,#1514,#1515);
#1284=AXIS2_PLACEMENT_3D('',#1867,#1518,#1519);
#1285=AXIS2_PLACEMENT_3D('',#1869,#1520,#1521);
#1286=AXIS2_PLACEMENT_3D('',#1871,#1523,#1524);
#1287=AXIS2_PLACEMENT_3D('',#1873,#1526,#1527);
#1288=AXIS2_PLACEMENT_3D('',#1882,#1532,#1533);
#1289=AXIS2_PLACEMENT_3D('',#1884,#1534,#1535);
#1290=AXIS2_PLACEMENT_3D('',#1886,#1536,#1537);
#1291=AXIS2_PLACEMENT_3D('',#1887,#1538,#1539);
#1292=AXIS2_PLACEMENT_3D('',#1890,#1541,#1542);
#1293=AXIS2_PLACEMENT_3D('',#1891,#1543,#1544);
#1294=AXIS2_PLACEMENT_3D('',#1893,#1545,#1546);
#1295=AXIS2_PLACEMENT_3D('',#1895,#1547,#1548);
#1296=AXIS2_PLACEMENT_3D('',#1896,#1549,#1550);
#1297=AXIS2_PLACEMENT_3D('',#1899,#1552,#1553);
#1298=AXIS2_PLACEMENT_3D('',#1900,#1554,#1555);
#1299=AXIS2_PLACEMENT_3D('',#1902,#1556,#1557);
#1300=AXIS2_PLACEMENT_3D('',#1904,#1558,#1559);
#1301=AXIS2_PLACEMENT_3D('',#1905,#1560,#1561);
#1302=AXIS2_PLACEMENT_3D('',#1908,#1563,#1564);
#1303=AXIS2_PLACEMENT_3D('',#1909,#1565,#1566);
#1304=AXIS2_PLACEMENT_3D('',#1911,#1567,#1568);
#1305=AXIS2_PLACEMENT_3D('',#1913,#1569,#1570);
#1306=AXIS2_PLACEMENT_3D('',#1914,#1571,#1572);
#1307=AXIS2_PLACEMENT_3D('',#1917,#1574,#1575);
#1308=AXIS2_PLACEMENT_3D('',#1918,#1576,#1577);
#1309=AXIS2_PLACEMENT_3D('',#1920,#1578,#1579);
#1310=AXIS2_PLACEMENT_3D('',#1922,#1581,#1582);
#1311=AXIS2_PLACEMENT_3D('',#1924,#1583,#1584);
#1312=AXIS2_PLACEMENT_3D('',#1926,#1586,#1587);
#1313=AXIS2_PLACEMENT_3D('',#1928,#1588,#1589);
#1314=AXIS2_PLACEMENT_3D('',#1930,#1591,#1592);
#1315=AXIS2_PLACEMENT_3D('',#1932,#1593,#1594);
#1316=AXIS2_PLACEMENT_3D('',#1934,#1596,#1597);
#1317=AXIS2_PLACEMENT_3D('',#1936,#1598,#1599);
#1318=AXIS2_PLACEMENT_3D('',#1939,#1601,#1602);
#1319=AXIS2_PLACEMENT_3D('',#1940,#1603,#1604);
#1320=AXIS2_PLACEMENT_3D('',#1942,#1605,#1606);
#1321=AXIS2_PLACEMENT_3D('',#1945,#1608,#1609);
#1322=AXIS2_PLACEMENT_3D('',#1946,#1610,#1611);
#1323=AXIS2_PLACEMENT_3D('',#1948,#1612,#1613);
#1324=AXIS2_PLACEMENT_3D('',#1951,#1615,#1616);
#1325=AXIS2_PLACEMENT_3D('',#1952,#1617,#1618);
#1326=AXIS2_PLACEMENT_3D('',#1954,#1619,#1620);
#1327=AXIS2_PLACEMENT_3D('',#1957,#1622,#1623);
#1328=AXIS2_PLACEMENT_3D('',#1958,#1624,#1625);
#1329=AXIS2_PLACEMENT_3D('',#1960,#1626,#1627);
#1330=AXIS2_PLACEMENT_3D('',#1963,#1629,#1630);
#1331=AXIS2_PLACEMENT_3D('',#1964,#1631,#1632);
#1332=AXIS2_PLACEMENT_3D('',#1966,#1633,#1634);
#1333=AXIS2_PLACEMENT_3D('',#1969,#1636,#1637);
#1334=AXIS2_PLACEMENT_3D('',#1970,#1638,#1639);
#1335=AXIS2_PLACEMENT_3D('',#1972,#1640,#1641);
#1336=AXIS2_PLACEMENT_3D('',#1975,#1643,#1644);
#1337=AXIS2_PLACEMENT_3D('',#1976,#1645,#1646);
#1338=AXIS2_PLACEMENT_3D('',#1978,#1647,#1648);
#1339=AXIS2_PLACEMENT_3D('',#1981,#1650,#1651);
#1340=AXIS2_PLACEMENT_3D('',#1982,#1652,#1653);
#1341=AXIS2_PLACEMENT_3D('',#1984,#1654,#1655);
#1342=AXIS2_PLACEMENT_3D('',#1987,#1657,#1658);
#1343=AXIS2_PLACEMENT_3D('',#1988,#1659,#1660);
#1344=AXIS2_PLACEMENT_3D('',#1990,#1661,#1662);
#1345=AXIS2_PLACEMENT_3D('',#1993,#1664,#1665);
#1346=AXIS2_PLACEMENT_3D('',#1994,#1666,#1667);
#1347=AXIS2_PLACEMENT_3D('',#2003,#1672,#1673);
#1348=AXIS2_PLACEMENT_3D('',#2009,#1677,#1678);
#1349=AXIS2_PLACEMENT_3D('',#2015,#1682,#1683);
#1350=AXIS2_PLACEMENT_3D('',#2021,#1687,#1688);
#1351=AXIS2_PLACEMENT_3D('',#2027,#1692,#1693);
#1352=AXIS2_PLACEMENT_3D('',#2033,#1697,#1698);
#1353=AXIS2_PLACEMENT_3D('',#2039,#1702,#1703);
#1354=AXIS2_PLACEMENT_3D('',#2045,#1707,#1708);
#1355=AXIS2_PLACEMENT_3D('',#2051,#1712,#1713);
#1356=AXIS2_PLACEMENT_3D('',#2056,#1718,#1719);
#1357=AXIS2_PLACEMENT_3D('',#2061,#1724,#1725);
#1358=AXIS2_PLACEMENT_3D('',#2062,#1726,#1727);
#1359=DIRECTION('axis',(0.,0.,1.));
#1360=DIRECTION('refdir',(1.,0.,0.));
#1361=DIRECTION('center_axis',(1.52655665885958E-16,1.3213420162452E-29,
1.));
#1362=DIRECTION('ref_axis',(-1.,-4.44089209850062E-15,1.52655665885958E-16));
#1363=DIRECTION('center_axis',(-1.52655665885961E-16,7.25479447121712E-16,
-1.));
#1364=DIRECTION('ref_axis',(-1.,-4.44089209850062E-15,1.52655665885958E-16));
#1365=DIRECTION('',(-0.457652389311518,-1.97633862618421E-15,-0.88913119985605));
#1366=DIRECTION('center_axis',(1.52655665885958E-16,1.3213420162452E-29,
1.));
#1367=DIRECTION('ref_axis',(-1.,-4.44089209850062E-15,1.52655665885958E-16));
#1368=DIRECTION('center_axis',(1.52655665885958E-16,1.3213420162452E-29,
1.));
#1369=DIRECTION('ref_axis',(-1.,-4.44089209850062E-15,1.52655665885958E-16));
#1370=DIRECTION('center_axis',(-1.52655665885958E-16,-1.3213420162452E-29,
-1.));
#1371=DIRECTION('ref_axis',(-1.,-4.44089209850062E-15,1.52655665885958E-16));
#1372=DIRECTION('center_axis',(-1.52655665885958E-16,-1.3213420162452E-29,
-1.));
#1373=DIRECTION('ref_axis',(-1.,-4.44089209850062E-15,1.52655665885958E-16));
#1374=DIRECTION('',(-0.707106781186548,-3.05358931174401E-15,-0.707106781186547));
#1375=DIRECTION('center_axis',(-1.52655665885958E-16,-1.3213420162452E-29,
-1.));
#1376=DIRECTION('ref_axis',(-1.,-4.44089209850062E-15,1.52655665885958E-16));
#1377=DIRECTION('',(-1.52655665885958E-16,-1.3213420162452E-29,-1.));
#1378=DIRECTION('center_axis',(1.52655665885958E-16,1.3213420162452E-29,
1.));
#1379=DIRECTION('ref_axis',(-1.,-4.44089209850062E-15,1.52655665885958E-16));
#1380=DIRECTION('center_axis',(1.23019677608875E-15,1.79986639645611E-29,
1.));
#1381=DIRECTION('ref_axis',(-1.,-4.44089209850062E-15,1.52655665885958E-16));
#1382=DIRECTION('center_axis',(-1.52655665885958E-16,-1.3213420162452E-29,
-1.));
#1383=DIRECTION('ref_axis',(-1.,-4.44089209850062E-15,1.52655665885958E-16));
#1384=DIRECTION('',(-0.457652389311519,-1.97633862618422E-15,-0.889131199856049));
#1385=DIRECTION('center_axis',(1.52655665885958E-16,1.3213420162452E-29,
1.));
#1386=DIRECTION('ref_axis',(-1.,-4.44089209850062E-15,1.52655665885958E-16));
#1387=DIRECTION('center_axis',(1.52655665885958E-16,1.3213420162452E-29,
1.));
#1388=DIRECTION('ref_axis',(-1.,-4.44089209850062E-15,1.52655665885958E-16));
#1389=DIRECTION('center_axis',(-1.52655665885958E-16,-1.3213420162452E-29,
-1.));
#1390=DIRECTION('ref_axis',(-1.,-4.44089209850062E-15,1.52655665885958E-16));
#1391=DIRECTION('',(-0.707106781186548,-3.05358931174401E-15,-0.707106781186547));
#1392=DIRECTION('center_axis',(-1.52655665885958E-16,-1.3213420162452E-29,
-1.));
#1393=DIRECTION('ref_axis',(-1.,-4.44089209850062E-15,1.52655665885958E-16));
#1394=DIRECTION('',(-1.52655665885958E-16,-1.3213420162452E-29,-1.));
#1395=DIRECTION('center_axis',(1.52655665885958E-16,1.3213420162452E-29,
1.));
#1396=DIRECTION('ref_axis',(-1.,-4.44089209850062E-15,1.52655665885958E-16));
#1397=DIRECTION('center_axis',(1.52655665885958E-16,1.3213420162452E-29,
1.));
#1398=DIRECTION('ref_axis',(-1.,-4.44089209850062E-15,1.52655665885958E-16));
#1399=DIRECTION('center_axis',(-1.52655665885958E-16,-1.3213420162452E-29,
-1.));
#1400=DIRECTION('ref_axis',(-1.,-4.44089209850062E-15,1.52655665885958E-16));
#1401=DIRECTION('',(-0.457652389311517,-1.97633862618421E-15,-0.88913119985605));
#1402=DIRECTION('center_axis',(1.52655665885958E-16,1.3213420162452E-29,
1.));
#1403=DIRECTION('ref_axis',(-1.,-4.44089209850062E-15,1.52655665885958E-16));
#1404=DIRECTION('center_axis',(1.52655665885958E-16,1.3213420162452E-29,
1.));
#1405=DIRECTION('ref_axis',(-1.,-4.44089209850062E-15,1.52655665885958E-16));
#1406=DIRECTION('center_axis',(-1.52655665885958E-16,-1.3213420162452E-29,
-1.));
#1407=DIRECTION('ref_axis',(-1.,-4.44089209850062E-15,1.52655665885958E-16));
#1408=DIRECTION('',(-0.707106781186548,-3.05358931174401E-15,-0.707106781186547));
#1409=DIRECTION('center_axis',(-1.52655665885958E-16,-1.3213420162452E-29,
-1.));
#1410=DIRECTION('ref_axis',(-1.,-4.44089209850062E-15,1.52655665885958E-16));
#1411=DIRECTION('',(-1.52655665885958E-16,-1.3213420162452E-29,-1.));
#1412=DIRECTION('center_axis',(1.52655665885958E-16,1.3213420162452E-29,
1.));
#1413=DIRECTION('ref_axis',(-1.,-4.44089209850062E-15,1.52655665885958E-16));
#1414=DIRECTION('center_axis',(1.52655665885958E-16,1.3213420162452E-29,
1.));
#1415=DIRECTION('ref_axis',(-1.,-4.44089209850062E-15,1.52655665885958E-16));
#1416=DIRECTION('center_axis',(-1.52655665885961E-16,7.25479447121712E-16,
-1.));
#1417=DIRECTION('ref_axis',(-1.,-4.44089209850062E-15,1.52655665885958E-16));
#1418=DIRECTION('',(-0.457652389311518,-1.97633862618421E-15,-0.88913119985605));
#1419=DIRECTION('center_axis',(1.52655665885958E-16,1.3213420162452E-29,
1.));
#1420=DIRECTION('ref_axis',(-1.,-4.44089209850062E-15,1.52655665885958E-16));
#1421=DIRECTION('center_axis',(1.52655665885958E-16,1.3213420162452E-29,
1.));
#1422=DIRECTION('ref_axis',(-1.,-4.44089209850062E-15,1.52655665885958E-16));
#1423=DIRECTION('center_axis',(-1.52655665885958E-16,-1.3213420162452E-29,
-1.));
#1424=DIRECTION('ref_axis',(-1.,-4.44089209850062E-15,1.52655665885958E-16));
#1425=DIRECTION('center_axis',(-1.52655665885958E-16,-1.3213420162452E-29,
-1.));
#1426=DIRECTION('ref_axis',(-1.,-4.44089209850062E-15,1.52655665885958E-16));
#1427=DIRECTION('',(-0.707106781186548,-3.05358931174401E-15,-0.707106781186547));
#1428=DIRECTION('center_axis',(-1.52655665885958E-16,-1.3213420162452E-29,
-1.));
#1429=DIRECTION('ref_axis',(-1.,-4.44089209850062E-15,1.52655665885958E-16));
#1430=DIRECTION('',(-1.52655665885958E-16,-1.3213420162452E-29,-1.));
#1431=DIRECTION('center_axis',(1.52655665885958E-16,1.3213420162452E-29,
1.));
#1432=DIRECTION('ref_axis',(-1.,-4.44089209850062E-15,1.52655665885958E-16));
#1433=DIRECTION('center_axis',(-1.,-3.36335098829781E-15,1.52655665885958E-16));
#1434=DIRECTION('ref_axis',(-1.5265566588596E-16,4.22085057149585E-16,-1.));
#1435=DIRECTION('center_axis',(1.,4.44089209850062E-15,-1.52655665885958E-16));
#1436=DIRECTION('ref_axis',(-1.52655665885961E-16,7.02526032085216E-16,
-1.));
#1437=DIRECTION('',(0.889131199856044,3.2396747880287E-15,-0.457652389311529));
#1438=DIRECTION('center_axis',(-1.,-4.44089209850062E-15,1.52655665885958E-16));
#1439=DIRECTION('ref_axis',(-1.52655665885958E-16,-1.3213420162452E-29,
-1.));
#1440=DIRECTION('center_axis',(-1.,-2.22044604925021E-15,1.52655665885958E-16));
#1441=DIRECTION('ref_axis',(-1.52655665885958E-16,-1.3213420162452E-29,
-1.));
#1442=DIRECTION('center_axis',(1.,2.22044604925031E-15,-1.52655665885958E-16));
#1443=DIRECTION('ref_axis',(-1.52655665885958E-16,-1.3213420162452E-29,
-1.));
#1444=DIRECTION('',(0.707106781186532,1.65668806430721E-15,-0.707106781186563));
#1445=DIRECTION('center_axis',(-1.,-4.44089209850062E-15,1.52655665885958E-16));
#1446=DIRECTION('ref_axis',(-1.52655665885958E-16,-1.3213420162452E-29,
-1.));
#1447=DIRECTION('',(1.,4.44089209850062E-15,-1.52655665885958E-16));
#1448=DIRECTION('center_axis',(1.,4.68257330114011E-15,-1.52655665885958E-16));
#1449=DIRECTION('ref_axis',(-1.52655665885958E-16,-1.3213420162452E-29,
-1.));
#1450=DIRECTION('center_axis',(-1.,-3.36335098829779E-15,-3.86114889215457E-16));
#1451=DIRECTION('ref_axis',(-1.5265566588596E-16,4.22085057149582E-16,-1.));
#1452=DIRECTION('center_axis',(1.,4.44089209850062E-15,-1.52655665885958E-16));
#1453=DIRECTION('ref_axis',(-1.52655665885961E-16,7.02526032085207E-16,
-1.));
#1454=DIRECTION('',(0.889131199856034,3.23967478802865E-15,-0.45765238931155));
#1455=DIRECTION('center_axis',(-1.,-4.44089209850062E-15,1.52655665885958E-16));
#1456=DIRECTION('ref_axis',(-1.52655665885958E-16,-1.3213420162452E-29,
-1.));
#1457=DIRECTION('center_axis',(-1.,-2.22044604925004E-15,1.52655665885958E-16));
#1458=DIRECTION('ref_axis',(-1.52655665885958E-16,-1.3213420162452E-29,
-1.));
#1459=DIRECTION('center_axis',(1.,2.22044604925031E-15,-1.52655665885958E-16));
#1460=DIRECTION('ref_axis',(-1.52655665885958E-16,-1.3213420162452E-29,
-1.));
#1461=DIRECTION('',(0.707106781186505,1.65668806430704E-15,-0.70710678118659));
#1462=DIRECTION('center_axis',(-1.,-4.44089209850062E-15,1.52655665885958E-16));
#1463=DIRECTION('ref_axis',(-1.52655665885958E-16,-1.3213420162452E-29,
-1.));
#1464=DIRECTION('',(1.,4.44089209850062E-15,-1.52655665885958E-16));
#1465=DIRECTION('center_axis',(1.,4.68257330114011E-15,-1.52655665885958E-16));
#1466=DIRECTION('ref_axis',(-1.52655665885958E-16,-1.3213420162452E-29,
-1.));
#1467=DIRECTION('center_axis',(-1.,-4.44089209850062E-15,1.52655665885958E-16));
#1468=DIRECTION('ref_axis',(-1.52655665885958E-16,-1.3213420162452E-29,
-1.));
#1469=DIRECTION('center_axis',(-1.,-2.22044604925031E-15,1.52655665885958E-16));
#1470=DIRECTION('ref_axis',(-1.52655665885958E-16,-1.3213420162452E-29,
-1.));
#1471=DIRECTION('',(1.,4.44089209850062E-15,-1.52655665885958E-16));
#1472=DIRECTION('center_axis',(-1.,-4.44089209850062E-15,1.52655665885958E-16));
#1473=DIRECTION('ref_axis',(-1.52655665885958E-16,-1.3213420162452E-29,
-1.));
#1474=DIRECTION('center_axis',(1.,4.44089209850062E-15,-1.52655665885958E-16));
#1475=DIRECTION('ref_axis',(-1.52655665885958E-16,-1.3213420162452E-29,
-1.));
#1476=DIRECTION('center_axis',(-1.52655665885958E-16,-1.3213420162452E-29,
-1.));
#1477=DIRECTION('ref_axis',(-1.,-4.44089209850062E-15,1.52655665885958E-16));
#1478=DIRECTION('center_axis',(1.52655665885958E-16,1.3213420162452E-29,
1.));
#1479=DIRECTION('ref_axis',(-1.,-4.44089209850062E-15,1.52655665885958E-16));
#1480=DIRECTION('',(-1.,-5.24832702550073E-15,1.52655665885958E-16));
#1481=DIRECTION('center_axis',(1.52655665885958E-16,1.3213420162452E-29,
1.));
#1482=DIRECTION('ref_axis',(-1.,-4.44089209850062E-15,1.52655665885958E-16));
#1483=DIRECTION('',(1.,4.23903336675059E-15,-1.52655665885958E-16));
#1484=DIRECTION('',(-1.,-3.22973970800045E-15,1.52655665885958E-16));
#1485=DIRECTION('center_axis',(1.52655665885958E-16,1.3213420162452E-29,
1.));
#1486=DIRECTION('ref_axis',(-1.,-4.44089209850062E-15,1.52655665885958E-16));
#1487=DIRECTION('',(1.,4.44089209850062E-15,-1.52655665885958E-16));
#1488=DIRECTION('center_axis',(1.52655665885958E-16,1.3213420162452E-29,
1.));
#1489=DIRECTION('ref_axis',(-1.,-4.44089209850062E-15,1.52655665885958E-16));
#1490=DIRECTION('center_axis',(5.24832702550073E-15,-1.,1.24122333055869E-29));
#1491=DIRECTION('ref_axis',(-1.,-5.24832702550073E-15,1.52655665885958E-16));
#1492=DIRECTION('',(-1.52655665885958E-16,-1.3213420162452E-29,-1.));
#1493=DIRECTION('',(1.,5.24832702550073E-15,-1.52655665885958E-16));
#1494=DIRECTION('',(-1.52655665885958E-16,-1.3213420162452E-29,-1.));
#1495=DIRECTION('center_axis',(1.52655665885958E-16,1.3213420162452E-29,
1.));
#1496=DIRECTION('ref_axis',(-1.,-4.44089209850062E-15,1.52655665885958E-16));
#1497=DIRECTION('',(-1.52655665885958E-16,-1.3213420162452E-29,-1.));
#1498=DIRECTION('center_axis',(-1.52655665885958E-16,-1.3213420162452E-29,
-1.));
#1499=DIRECTION('ref_axis',(-1.,-4.44089209850062E-15,1.52655665885958E-16));
#1500=DIRECTION('center_axis',(1.52655665885958E-16,1.3213420162452E-29,
1.));
#1501=DIRECTION('ref_axis',(1.,4.76251662843595E-15,-1.52655665885958E-16));
#1502=DIRECTION('center_axis',(-1.52655665885958E-16,-1.3213420162452E-29,
-1.));
#1503=DIRECTION('ref_axis',(-1.,-4.44089209850062E-15,1.52655665885958E-16));
#1504=DIRECTION('',(-1.52655665885958E-16,-1.3213420162452E-29,-1.));
#1505=DIRECTION('center_axis',(-4.23903336675059E-15,1.,-1.25663077011378E-29));
#1506=DIRECTION('ref_axis',(1.,4.23903336675059E-15,-1.52655665885958E-16));
#1507=DIRECTION('',(-1.,-4.23903336675059E-15,1.52655665885958E-16));
#1508=DIRECTION('center_axis',(1.52655665885958E-16,1.3213420162452E-29,
1.));
#1509=DIRECTION('ref_axis',(-1.,-4.44089209850062E-15,1.52655665885958E-16));
#1510=DIRECTION('',(-1.52655665885958E-16,-1.3213420162452E-29,-1.));
#1511=DIRECTION('center_axis',(1.52655665885958E-16,1.3213420162452E-29,
1.));
#1512=DIRECTION('ref_axis',(-1.,-4.44089209850062E-15,1.52655665885958E-16));
#1513=DIRECTION('',(-1.52655665885958E-16,-1.3213420162452E-29,-1.));
#1514=DIRECTION('center_axis',(-4.44089209850062E-15,1.,-1.25354928220277E-29));
#1515=DIRECTION('ref_axis',(1.,4.44089209850062E-15,-1.52655665885958E-16));
#1516=DIRECTION('',(1.,4.44089209850062E-15,-1.52655665885958E-16));
#1517=DIRECTION('',(-1.52655665885958E-16,-1.3213420162452E-29,-1.));
#1518=DIRECTION('center_axis',(1.52655665885958E-16,1.3213420162452E-29,
1.));
#1519=DIRECTION('ref_axis',(1.,2.63730511759137E-8,-1.52655665885958E-16));
#1520=DIRECTION('center_axis',(1.52655665885958E-16,1.3213420162452E-29,
1.));
#1521=DIRECTION('ref_axis',(-1.,-4.44089209850062E-15,1.52655665885958E-16));
#1522=DIRECTION('',(-1.52655665885958E-16,-1.3213420162452E-29,-1.));
#1523=DIRECTION('center_axis',(3.22973970800045E-15,-1.,1.27203820966888E-29));
#1524=DIRECTION('ref_axis',(-1.,-3.22973970800045E-15,1.52655665885958E-16));
#1525=DIRECTION('',(-1.,-3.22973970800045E-15,1.52655665885958E-16));
#1526=DIRECTION('center_axis',(4.44089209850062E-15,-1.,1.25354928220277E-29));
#1527=DIRECTION('ref_axis',(1.52655665885958E-16,1.3213420162452E-29,1.));
#1528=DIRECTION('',(1.,4.44089209850062E-15,-1.52655665885958E-16));
#1529=DIRECTION('',(-1.52655665885958E-16,-1.3213420162452E-29,-1.));
#1530=DIRECTION('',(-1.,-4.44089209850062E-15,1.52655665885958E-16));
#1531=DIRECTION('',(1.52655665885958E-16,1.3213420162452E-29,1.));
#1532=DIRECTION('center_axis',(-1.52655665885958E-16,-1.3213420162452E-29,
-1.));
#1533=DIRECTION('ref_axis',(-1.,-4.44089209850062E-15,1.52655665885958E-16));
#1534=DIRECTION('center_axis',(-1.52655665885958E-16,-1.3213420162452E-29,
-1.));
#1535=DIRECTION('ref_axis',(-1.,-4.44089209850062E-15,1.52655665885958E-16));
#1536=DIRECTION('center_axis',(-1.52655665885958E-16,-1.3213420162452E-29,
-1.));
#1537=DIRECTION('ref_axis',(-1.,-4.44089209850062E-15,1.52655665885958E-16));
#1538=DIRECTION('center_axis',(-1.52655665885958E-16,-1.3213420162452E-29,
-1.));
#1539=DIRECTION('ref_axis',(-1.,-4.44089209850062E-15,1.52655665885958E-16));
#1540=DIRECTION('',(1.52655665885958E-16,1.3213420162452E-29,1.));
#1541=DIRECTION('center_axis',(1.52655665885958E-16,1.3213420162452E-29,
1.));
#1542=DIRECTION('ref_axis',(-1.,-4.44089209850062E-15,1.52655665885958E-16));
#1543=DIRECTION('center_axis',(-1.52655665885958E-16,-1.3213420162452E-29,
-1.));
#1544=DIRECTION('ref_axis',(-1.,-4.44089209850062E-15,1.52655665885958E-16));
#1545=DIRECTION('center_axis',(-1.52655665885958E-16,-1.3213420162452E-29,
-1.));
#1546=DIRECTION('ref_axis',(-1.,-4.44089209850062E-15,1.52655665885958E-16));
#1547=DIRECTION('center_axis',(-1.52655665885958E-16,-1.3213420162452E-29,
-1.));
#1548=DIRECTION('ref_axis',(-1.,-4.44089209850062E-15,1.52655665885958E-16));
#1549=DIRECTION('center_axis',(-1.52655665885958E-16,-1.3213420162452E-29,
-1.));
#1550=DIRECTION('ref_axis',(-1.,-4.44089209850062E-15,1.52655665885958E-16));
#1551=DIRECTION('',(1.52655665885958E-16,1.3213420162452E-29,1.));
#1552=DIRECTION('center_axis',(1.52655665885958E-16,1.3213420162452E-29,
1.));
#1553=DIRECTION('ref_axis',(-1.,-4.44089209850062E-15,1.52655665885958E-16));
#1554=DIRECTION('center_axis',(-1.52655665885958E-16,-1.3213420162452E-29,
-1.));
#1555=DIRECTION('ref_axis',(-1.,-4.44089209850062E-15,1.52655665885958E-16));
#1556=DIRECTION('center_axis',(-1.52655665885958E-16,-1.3213420162452E-29,
-1.));
#1557=DIRECTION('ref_axis',(-1.,-4.44089209850062E-15,1.52655665885958E-16));
#1558=DIRECTION('center_axis',(-1.52655665885958E-16,-1.3213420162452E-29,
-1.));
#1559=DIRECTION('ref_axis',(-1.,-4.44089209850062E-15,1.52655665885958E-16));
#1560=DIRECTION('center_axis',(-1.52655665885958E-16,-1.3213420162452E-29,
-1.));
#1561=DIRECTION('ref_axis',(-1.,-4.44089209850062E-15,1.52655665885958E-16));
#1562=DIRECTION('',(1.52655665885958E-16,1.3213420162452E-29,1.));
#1563=DIRECTION('center_axis',(1.52655665885958E-16,1.3213420162452E-29,
1.));
#1564=DIRECTION('ref_axis',(-1.,-4.44089209850062E-15,1.52655665885958E-16));
#1565=DIRECTION('center_axis',(-1.52655665885958E-16,-1.3213420162452E-29,
-1.));
#1566=DIRECTION('ref_axis',(-1.,-4.44089209850062E-15,1.52655665885958E-16));
#1567=DIRECTION('center_axis',(-1.52655665885958E-16,-1.3213420162452E-29,
-1.));
#1568=DIRECTION('ref_axis',(-1.,-4.44089209850062E-15,1.52655665885958E-16));
#1569=DIRECTION('center_axis',(-1.52655665885958E-16,-1.3213420162452E-29,
-1.));
#1570=DIRECTION('ref_axis',(-1.,-4.44089209850062E-15,1.52655665885958E-16));
#1571=DIRECTION('center_axis',(-1.52655665885958E-16,-1.3213420162452E-29,
-1.));
#1572=DIRECTION('ref_axis',(-1.,-4.44089209850062E-15,1.52655665885958E-16));
#1573=DIRECTION('',(1.52655665885958E-16,1.3213420162452E-29,1.));
#1574=DIRECTION('center_axis',(1.52655665885958E-16,1.3213420162452E-29,
1.));
#1575=DIRECTION('ref_axis',(-1.,-4.44089209850062E-15,1.52655665885958E-16));
#1576=DIRECTION('center_axis',(-1.52655665885958E-16,-1.3213420162452E-29,
-1.));
#1577=DIRECTION('ref_axis',(-1.,-4.44089209850062E-15,1.52655665885958E-16));
#1578=DIRECTION('center_axis',(-1.52655665885958E-16,-1.3213420162452E-29,
-1.));
#1579=DIRECTION('ref_axis',(-1.,-4.44089209850062E-15,1.52655665885958E-16));
#1580=DIRECTION('',(1.52655665885958E-16,1.3213420162452E-29,1.));
#1581=DIRECTION('center_axis',(-1.52655665885958E-16,-1.3213420162452E-29,
-1.));
#1582=DIRECTION('ref_axis',(-1.,-4.44089209850062E-15,1.52655665885958E-16));
#1583=DIRECTION('center_axis',(-1.52655665885958E-16,-1.3213420162452E-29,
-1.));
#1584=DIRECTION('ref_axis',(-1.,-4.44089209850062E-15,1.52655665885958E-16));
#1585=DIRECTION('',(1.52655665885958E-16,1.3213420162452E-29,1.));
#1586=DIRECTION('center_axis',(-1.52655665885958E-16,-1.3213420162452E-29,
-1.));
#1587=DIRECTION('ref_axis',(-1.,-4.44089209850062E-15,1.52655665885958E-16));
#1588=DIRECTION('center_axis',(-1.52655665885958E-16,-1.3213420162452E-29,
-1.));
#1589=DIRECTION('ref_axis',(-1.,-4.44089209850062E-15,1.52655665885958E-16));
#1590=DIRECTION('',(1.52655665885958E-16,1.3213420162452E-29,1.));
#1591=DIRECTION('center_axis',(-1.52655665885958E-16,-1.3213420162452E-29,
-1.));
#1592=DIRECTION('ref_axis',(-1.,-4.44089209850062E-15,1.52655665885958E-16));
#1593=DIRECTION('center_axis',(-1.52655665885958E-16,-1.3213420162452E-29,
-1.));
#1594=DIRECTION('ref_axis',(-1.,-4.44089209850062E-15,1.52655665885958E-16));
#1595=DIRECTION('',(1.52655665885958E-16,1.3213420162452E-29,1.));
#1596=DIRECTION('center_axis',(-1.52655665885958E-16,-1.3213420162452E-29,
-1.));
#1597=DIRECTION('ref_axis',(-1.,-4.44089209850062E-15,1.52655665885958E-16));
#1598=DIRECTION('center_axis',(1.52655665885958E-16,1.3213420162452E-29,
1.));
#1599=DIRECTION('ref_axis',(-1.,-4.44089209850062E-15,1.52655665885958E-16));
#1600=DIRECTION('',(-1.52655665885958E-16,-1.3213420162452E-29,-1.));
#1601=DIRECTION('center_axis',(1.52655665885958E-16,1.3213420162452E-29,
1.));
#1602=DIRECTION('ref_axis',(-1.,-4.44089209850062E-15,1.52655665885958E-16));
#1603=DIRECTION('center_axis',(-1.52655665885958E-16,-1.3213420162452E-29,
-1.));
#1604=DIRECTION('ref_axis',(-1.,-4.44089209850062E-15,1.52655665885958E-16));
#1605=DIRECTION('center_axis',(1.52655665885958E-16,1.3213420162452E-29,
1.));
#1606=DIRECTION('ref_axis',(-1.,-4.44089209850062E-15,1.52655665885958E-16));
#1607=DIRECTION('',(-1.52655665885958E-16,-1.3213420162452E-29,-1.));
#1608=DIRECTION('center_axis',(1.52655665885958E-16,1.3213420162452E-29,
1.));
#1609=DIRECTION('ref_axis',(-1.,-4.44089209850062E-15,1.52655665885958E-16));
#1610=DIRECTION('center_axis',(0.,0.,1.));
#1611=DIRECTION('ref_axis',(1.,0.,0.));
#1612=DIRECTION('center_axis',(0.,0.,-1.));
#1613=DIRECTION('ref_axis',(1.,0.,0.));
#1614=DIRECTION('',(0.,0.,-1.));
#1615=DIRECTION('center_axis',(0.,0.,-1.));
#1616=DIRECTION('ref_axis',(1.,0.,0.));
#1617=DIRECTION('center_axis',(0.,0.,1.));
#1618=DIRECTION('ref_axis',(1.,0.,0.));
#1619=DIRECTION('center_axis',(0.,0.,-1.));
#1620=DIRECTION('ref_axis',(1.,0.,0.));
#1621=DIRECTION('',(0.,0.,-1.));
#1622=DIRECTION('center_axis',(0.,0.,-1.));
#1623=DIRECTION('ref_axis',(1.,0.,0.));
#1624=DIRECTION('center_axis',(0.,0.,1.));
#1625=DIRECTION('ref_axis',(1.,0.,0.));
#1626=DIRECTION('center_axis',(0.,0.,-1.));
#1627=DIRECTION('ref_axis',(1.,0.,0.));
#1628=DIRECTION('',(0.,0.,-1.));
#1629=DIRECTION('center_axis',(0.,0.,-1.));
#1630=DIRECTION('ref_axis',(1.,0.,0.));
#1631=DIRECTION('center_axis',(0.,0.,1.));
#1632=DIRECTION('ref_axis',(1.,0.,0.));
#1633=DIRECTION('center_axis',(0.,0.,-1.));
#1634=DIRECTION('ref_axis',(1.,0.,0.));
#1635=DIRECTION('',(0.,0.,-1.));
#1636=DIRECTION('center_axis',(0.,0.,-1.));
#1637=DIRECTION('ref_axis',(1.,0.,0.));
#1638=DIRECTION('center_axis',(0.,0.,1.));
#1639=DIRECTION('ref_axis',(1.,0.,0.));
#1640=DIRECTION('center_axis',(0.,0.,-1.));
#1641=DIRECTION('ref_axis',(1.,0.,0.));
#1642=DIRECTION('',(0.,0.,-1.));
#1643=DIRECTION('center_axis',(0.,0.,-1.));
#1644=DIRECTION('ref_axis',(1.,0.,0.));
#1645=DIRECTION('center_axis',(0.,0.,1.));
#1646=DIRECTION('ref_axis',(1.,0.,0.));
#1647=DIRECTION('center_axis',(0.,0.,-1.));
#1648=DIRECTION('ref_axis',(1.,0.,0.));
#1649=DIRECTION('',(0.,0.,-1.));
#1650=DIRECTION('center_axis',(0.,0.,-1.));
#1651=DIRECTION('ref_axis',(1.,0.,0.));
#1652=DIRECTION('center_axis',(0.,0.,1.));
#1653=DIRECTION('ref_axis',(1.,0.,0.));
#1654=DIRECTION('center_axis',(0.,0.,-1.));
#1655=DIRECTION('ref_axis',(1.,0.,0.));
#1656=DIRECTION('',(0.,0.,-1.));
#1657=DIRECTION('center_axis',(0.,0.,-1.));
#1658=DIRECTION('ref_axis',(1.,0.,0.));
#1659=DIRECTION('center_axis',(0.,0.,1.));
#1660=DIRECTION('ref_axis',(1.,0.,0.));
#1661=DIRECTION('center_axis',(0.,0.,-1.));
#1662=DIRECTION('ref_axis',(1.,0.,0.));
#1663=DIRECTION('',(0.,0.,-1.));
#1664=DIRECTION('center_axis',(0.,0.,-1.));
#1665=DIRECTION('ref_axis',(1.,0.,0.));
#1666=DIRECTION('center_axis',(0.,-1.,0.));
#1667=DIRECTION('ref_axis',(1.,0.,0.));
#1668=DIRECTION('',(1.,0.,0.));
#1669=DIRECTION('',(0.,0.,1.));
#1670=DIRECTION('',(1.,0.,0.));
#1671=DIRECTION('',(0.,0.,1.));
#1672=DIRECTION('center_axis',(1.,0.,0.));
#1673=DIRECTION('ref_axis',(0.,1.,0.));
#1674=DIRECTION('',(0.,1.,0.));
#1675=DIRECTION('',(0.,1.,0.));
#1676=DIRECTION('',(0.,0.,1.));
#1677=DIRECTION('center_axis',(0.,1.,0.));
#1678=DIRECTION('ref_axis',(-1.,0.,0.));
#1679=DIRECTION('',(1.,0.,0.));
#1680=DIRECTION('',(-1.,0.,0.));
#1681=DIRECTION('',(0.,0.,1.));
#1682=DIRECTION('center_axis',(1.,0.,0.));
#1683=DIRECTION('ref_axis',(0.,1.,0.));
#1684=DIRECTION('',(0.,-1.,0.));
#1685=DIRECTION('',(0.,1.,0.));
#1686=DIRECTION('',(0.,0.,1.));
#1687=DIRECTION('center_axis',(0.,-1.,0.));
#1688=DIRECTION('ref_axis',(1.,0.,0.));
#1689=DIRECTION('',(-1.,0.,0.));
#1690=DIRECTION('',(1.,0.,0.));
#1691=DIRECTION('',(0.,0.,1.));
#1692=DIRECTION('center_axis',(-1.,0.,0.));
#1693=DIRECTION('ref_axis',(0.,-1.,0.));
#1694=DIRECTION('',(0.,1.,0.));
#1695=DIRECTION('',(0.,-1.,0.));
#1696=DIRECTION('',(0.,0.,1.));
#1697=DIRECTION('center_axis',(0.,1.,0.));
#1698=DIRECTION('ref_axis',(-1.,0.,0.));
#1699=DIRECTION('',(1.,0.,0.));
#1700=DIRECTION('',(-1.,0.,0.));
#1701=DIRECTION('',(0.,0.,1.));
#1702=DIRECTION('center_axis',(-1.,0.,0.));
#1703=DIRECTION('ref_axis',(0.,-1.,0.));
#1704=DIRECTION('',(0.,-1.,0.));
#1705=DIRECTION('',(0.,-1.,0.));
#1706=DIRECTION('',(0.,0.,1.));
#1707=DIRECTION('center_axis',(0.,-1.,0.));
#1708=DIRECTION('ref_axis',(1.,0.,0.));
#1709=DIRECTION('',(1.,0.,0.));
#1710=DIRECTION('',(1.,0.,0.));
#1711=DIRECTION('',(0.,0.,1.));
#1712=DIRECTION('center_axis',(-1.,0.,0.));
#1713=DIRECTION('ref_axis',(0.,-1.,0.));
#1714=DIRECTION('',(2.22044604925031E-15,-1.,1.28744564922398E-29));
#1715=DIRECTION('',(-2.22044604925031E-15,1.,-1.28744564922398E-29));
#1716=DIRECTION('',(-2.22044604925031E-15,1.,-1.28744564922398E-29));
#1717=DIRECTION('',(-2.22044604925031E-15,1.,-1.28744564922398E-29));
#1718=DIRECTION('center_axis',(1.,0.,0.));
#1719=DIRECTION('ref_axis',(0.,1.,0.));
#1720=DIRECTION('',(0.,1.,0.));
#1721=DIRECTION('',(-4.44089209850062E-15,1.,-1.25354928220276E-29));
#1722=DIRECTION('',(4.68257330114011E-15,-1.,1.24985988171066E-29));
#1723=DIRECTION('',(0.,1.,0.));
#1724=DIRECTION('center_axis',(0.,0.,1.));
#1725=DIRECTION('ref_axis',(1.,0.,0.));
#1726=DIRECTION('center_axis',(0.,0.,1.));
#1727=DIRECTION('ref_axis',(1.,0.,0.));
#1728=CARTESIAN_POINT('',(0.,0.,0.));
#1729=CARTESIAN_POINT('Origin',(-3.00000000000031,94.5,8.03033008588991));
#1730=CARTESIAN_POINT('',(0.0606601717795097,94.5,9.06066017177982));
#1731=CARTESIAN_POINT('Origin',(-3.00000000000031,94.5,9.06066017177982));
#1732=CARTESIAN_POINT('',(-1.00000000000031,94.5,7.));
#1733=CARTESIAN_POINT('',(-0.469669914110402,94.5,8.03033008588991));
#1734=CARTESIAN_POINT('Origin',(-3.00000000000031,94.5,7.));
#1735=CARTESIAN_POINT('Origin',(-3.00000000000031,94.5,9.));
#1736=CARTESIAN_POINT('',(-7.00000000000016,94.5,10.));
#1737=CARTESIAN_POINT('',(0.99999999999969,94.5,10.));
#1738=CARTESIAN_POINT('Origin',(-3.00000000000031,94.5,10.));
#1739=CARTESIAN_POINT('Origin',(-3.00000000000031,94.5,10.));
#1740=CARTESIAN_POINT('',(-3.13082892944294E-13,94.5,9.));
#1741=CARTESIAN_POINT('Origin',(-3.00000000000031,94.5,8.32667268468473E-16));
#1742=CARTESIAN_POINT('',(-1.00000000000031,94.5,5.27355936696557E-16));
#1743=CARTESIAN_POINT('',(-1.00000000000031,94.5,5.27355936696557E-16));
#1744=CARTESIAN_POINT('Origin',(-3.00000000000031,94.5,8.32667268468473E-16));
#1745=CARTESIAN_POINT('Origin',(36.9999999999997,94.5000000000002,8.03033008588991));
#1746=CARTESIAN_POINT('',(40.0606601717795,94.5000000000002,9.06066017177982));
#1747=CARTESIAN_POINT('Origin',(36.9999999999997,94.5000000000002,9.06066017177982));
#1748=CARTESIAN_POINT('',(38.9999999999997,94.5000000000002,7.));
#1749=CARTESIAN_POINT('',(39.5303300858896,94.5000000000002,8.03033008588991));
#1750=CARTESIAN_POINT('Origin',(36.9999999999997,94.5000000000002,7.));
#1751=CARTESIAN_POINT('Origin',(36.9999999999997,94.5000000000002,8.99999999999999));
#1752=CARTESIAN_POINT('',(40.9999999999997,94.5000000000002,9.99999999999999));
#1753=CARTESIAN_POINT('Origin',(36.9999999999997,94.5000000000002,9.99999999999999));
#1754=CARTESIAN_POINT('',(39.9999999999997,94.5000000000002,8.99999999999999));
#1755=CARTESIAN_POINT('Origin',(36.9999999999997,94.5000000000002,-5.27355936696985E-15));
#1756=CARTESIAN_POINT('',(38.9999999999997,94.5000000000002,-5.57887069874177E-15));
#1757=CARTESIAN_POINT('',(38.9999999999997,94.5000000000002,-5.57887069874177E-15));
#1758=CARTESIAN_POINT('Origin',(36.9999999999997,94.5000000000002,-5.27355936696985E-15));
#1759=CARTESIAN_POINT('Origin',(37.,29.0000000000001,8.03033008588991));
#1760=CARTESIAN_POINT('',(40.0606601717798,29.0000000000002,9.06066017177982));
#1761=CARTESIAN_POINT('Origin',(37.,29.0000000000001,9.06066017177982));
#1762=CARTESIAN_POINT('',(39.,29.0000000000002,6.99999999999999));
#1763=CARTESIAN_POINT('',(39.5303300858899,29.0000000000002,8.03033008588991));
#1764=CARTESIAN_POINT('Origin',(37.,29.0000000000001,6.99999999999999));
#1765=CARTESIAN_POINT('Origin',(37.,29.0000000000001,8.99999999999999));
#1766=CARTESIAN_POINT('',(41.,29.0000000000002,9.99999999999999));
#1767=CARTESIAN_POINT('Origin',(37.,29.0000000000001,9.99999999999999));
#1768=CARTESIAN_POINT('',(40.,29.0000000000002,8.99999999999999));
#1769=CARTESIAN_POINT('Origin',(37.,29.0000000000001,-5.27355936696904E-15));
#1770=CARTESIAN_POINT('',(39.,29.0000000000002,-5.57887069874095E-15));
#1771=CARTESIAN_POINT('',(39.,29.0000000000002,-5.57887069874095E-15));
#1772=CARTESIAN_POINT('Origin',(37.,29.0000000000001,-5.27355936696904E-15));
#1773=CARTESIAN_POINT('Origin',(-3.00000000000001,29.,8.03033008588991));
#1774=CARTESIAN_POINT('',(0.0606601717798161,29.,9.06066017177982));
#1775=CARTESIAN_POINT('Origin',(-3.00000000000001,29.,9.06066017177982));
#1776=CARTESIAN_POINT('',(-1.00000000000001,29.,7.));
#1777=CARTESIAN_POINT('',(-0.4696699141101,29.,8.03033008588991));
#1778=CARTESIAN_POINT('Origin',(-3.00000000000001,29.,7.));
#1779=CARTESIAN_POINT('Origin',(-3.00000000000001,29.,9.));
#1780=CARTESIAN_POINT('',(-7.00000000000001,29.,10.));
#1781=CARTESIAN_POINT('',(0.99999999999999,29.,10.));
#1782=CARTESIAN_POINT('Origin',(-3.00000000000001,29.,10.));
#1783=CARTESIAN_POINT('Origin',(-3.00000000000001,29.,10.));
#1784=CARTESIAN_POINT('',(-1.11022302462516E-14,29.,9.));
#1785=CARTESIAN_POINT('Origin',(-3.00000000000001,29.,8.32667268469292E-16));
#1786=CARTESIAN_POINT('',(-1.00000000000001,29.,5.27355936697376E-16));
#1787=CARTESIAN_POINT('',(-1.00000000000001,29.,5.27355936697376E-16));
#1788=CARTESIAN_POINT('Origin',(-3.00000000000001,29.,8.32667268469292E-16));
#1789=CARTESIAN_POINT('Origin',(-5.03033008589003,44.,5.));
#1790=CARTESIAN_POINT('',(-6.06066017177993,44.,8.16066017177984));
#1791=CARTESIAN_POINT('Origin',(-6.06066017177993,44.,5.));
#1792=CARTESIAN_POINT('',(-4.00000000000013,44.,7.1));
#1793=CARTESIAN_POINT('',(-5.03033008589003,44.,7.63033008588992));
#1794=CARTESIAN_POINT('Origin',(-4.00000000000013,44.,5.));
#1795=CARTESIAN_POINT('Origin',(-6.00000000000009,44.,5.));
#1796=CARTESIAN_POINT('',(-7.00000000000004,44.,9.1));
#1797=CARTESIAN_POINT('Origin',(-7.00000000000004,44.,5.));
#1798=CARTESIAN_POINT('',(-6.00000000000009,44.,8.1));
#1799=CARTESIAN_POINT('Origin',(-7.00000000000009,44.,5.));
#1800=CARTESIAN_POINT('',(40.9999999999999,44.0000000000002,7.09999999999999));
#1801=CARTESIAN_POINT('',(-7.00000000000009,44.,7.1));
#1802=CARTESIAN_POINT('Origin',(40.9999999999999,44.0000000000002,4.99999999999999));
#1803=CARTESIAN_POINT('Origin',(-5.03033008589024,79.5,5.));
#1804=CARTESIAN_POINT('',(-6.06066017178012,79.4999999999999,8.16066017177989));
#1805=CARTESIAN_POINT('Origin',(-6.06066017178012,79.5,5.));
#1806=CARTESIAN_POINT('',(-4.00000000000036,79.5,7.1));
#1807=CARTESIAN_POINT('',(-5.03033008589024,79.5,7.63033008588994));
#1808=CARTESIAN_POINT('Origin',(-4.00000000000036,79.5,5.));
#1809=CARTESIAN_POINT('Origin',(-6.00000000000025,79.5,5.));
#1810=CARTESIAN_POINT('',(-7.00000000000013,79.4999999999999,9.1));
#1811=CARTESIAN_POINT('Origin',(-7.00000000000013,79.4999999999999,5.));
#1812=CARTESIAN_POINT('',(-6.00000000000025,79.5,8.1));
#1813=CARTESIAN_POINT('Origin',(-7.00000000000025,79.4999999999999,5.));
#1814=CARTESIAN_POINT('',(40.9999999999998,79.5000000000002,7.1));
#1815=CARTESIAN_POINT('',(-7.00000000000025,79.4999999999999,7.1));
#1816=CARTESIAN_POINT('Origin',(40.9999999999997,79.5000000000002,5.));
#1817=CARTESIAN_POINT('Origin',(-7.00000000000035,102.75,5.));
#1818=CARTESIAN_POINT('',(-7.00000000000035,102.75,9.));
#1819=CARTESIAN_POINT('Origin',(-7.00000000000035,102.75,5.));
#1820=CARTESIAN_POINT('',(-0.500000000000347,102.75,9.));
#1821=CARTESIAN_POINT('',(-7.00000000000035,102.75,9.));
#1822=CARTESIAN_POINT('Origin',(-0.500000000000349,102.75,5.));
#1823=CARTESIAN_POINT('Origin',(-0.500000000000349,102.75,5.));
#1824=CARTESIAN_POINT('Origin',(16.9999999999997,102.75,9.));
#1825=CARTESIAN_POINT('',(5.99999999999963,107.25,9.));
#1826=CARTESIAN_POINT('',(6.00000012970541,98.25,9.));
#1827=CARTESIAN_POINT('Origin',(5.99999999999966,102.75,9.));
#1828=CARTESIAN_POINT('',(27.9999999999996,107.25,9.));
#1829=CARTESIAN_POINT('',(22.4999999999996,107.25,9.));
#1830=CARTESIAN_POINT('',(27.9999999999997,98.2500000000001,9.));
#1831=CARTESIAN_POINT('Origin',(27.9999999999997,102.75,9.));
#1832=CARTESIAN_POINT('',(11.5000000648525,98.25,9.));
#1833=CARTESIAN_POINT('',(27.9999998153883,106.25,9.));
#1834=CARTESIAN_POINT('',(5.99999999999964,106.25,9.));
#1835=CARTESIAN_POINT('',(22.499999907694,106.25,9.));
#1836=CARTESIAN_POINT('',(5.99999999999967,99.25,9.));
#1837=CARTESIAN_POINT('Origin',(5.99999999999966,102.75,9.));
#1838=CARTESIAN_POINT('',(27.9999999999997,99.2500000000001,9.));
#1839=CARTESIAN_POINT('',(11.4999999999997,99.25,9.));
#1840=CARTESIAN_POINT('Origin',(27.9999999999997,102.75,9.));
#1841=CARTESIAN_POINT('Origin',(27.9999999999996,107.25,10.));
#1842=CARTESIAN_POINT('',(5.99999999999963,107.25,-5.4123372450531E-16));
#1843=CARTESIAN_POINT('',(5.99999999999963,107.25,10.));
#1844=CARTESIAN_POINT('',(27.9999999999996,107.25,-3.89965837399639E-15));
#1845=CARTESIAN_POINT('',(22.4999999999996,107.25,-3.06005221162362E-15));
#1846=CARTESIAN_POINT('',(27.9999999999996,107.25,10.));
#1847=CARTESIAN_POINT('Origin',(5.99999999999966,102.75,10.));
#1848=CARTESIAN_POINT('',(6.0000001297054,98.25,-5.41233744305512E-16));
#1849=CARTESIAN_POINT('',(6.00000012970541,98.25,10.));
#1850=CARTESIAN_POINT('Origin',(5.99999999999965,102.75,-5.41233724505255E-16));
#1851=CARTESIAN_POINT('Origin',(27.9999999999997,102.75,10.));
#1852=CARTESIAN_POINT('',(27.9999999999997,98.2500000000001,-3.89965837399628E-15));
#1853=CARTESIAN_POINT('Origin',(27.9999999999997,102.75,-3.89965837399633E-15));
#1854=CARTESIAN_POINT('',(27.9999999999997,98.2500000000001,10.));
#1855=CARTESIAN_POINT('Origin',(6.00000012970541,98.25,10.));
#1856=CARTESIAN_POINT('',(11.5000000648525,98.25,-1.38083989677813E-15));
#1857=CARTESIAN_POINT('Origin',(5.99999999999966,102.75,10.));
#1858=CARTESIAN_POINT('',(5.99999999999964,106.25,10.));
#1859=CARTESIAN_POINT('',(5.99999999999964,106.25,10.));
#1860=CARTESIAN_POINT('',(5.99999999999967,99.25,10.));
#1861=CARTESIAN_POINT('Origin',(5.99999999999966,102.75,10.));
#1862=CARTESIAN_POINT('',(5.99999999999967,99.25,10.));
#1863=CARTESIAN_POINT('Origin',(5.99999999999967,99.25,10.));
#1864=CARTESIAN_POINT('',(27.9999999999997,99.2500000000001,10.));
#1865=CARTESIAN_POINT('',(11.4999999999997,99.25,10.));
#1866=CARTESIAN_POINT('',(27.9999999999997,99.2500000000001,10.));
#1867=CARTESIAN_POINT('Origin',(27.9999999999997,102.75,10.));
#1868=CARTESIAN_POINT('',(27.9999998153883,106.25,10.));
#1869=CARTESIAN_POINT('Origin',(27.9999999999997,102.75,10.));
#1870=CARTESIAN_POINT('',(27.9999998153883,106.25,10.));
#1871=CARTESIAN_POINT('Origin',(27.9999998153883,106.25,10.));
#1872=CARTESIAN_POINT('',(22.499999907694,106.25,10.));
#1873=CARTESIAN_POINT('Origin',(-7.00000000000039,110.5,1.44328993201211E-15));
#1874=CARTESIAN_POINT('',(-7.00000000000039,110.5,1.44328993201211E-15));
#1875=CARTESIAN_POINT('',(40.9999999999996,110.5,-5.88418203051389E-15));
#1876=CARTESIAN_POINT('',(-7.00000000000039,110.5,1.44328993201211E-15));
#1877=CARTESIAN_POINT('',(-7.00000000000039,110.5,10.));
#1878=CARTESIAN_POINT('',(-7.00000000000039,110.5,1.44328993201211E-15));
#1879=CARTESIAN_POINT('',(40.9999999999996,110.5,9.99999999999999));
#1880=CARTESIAN_POINT('',(-7.00000000000039,110.5,10.));
#1881=CARTESIAN_POINT('',(40.9999999999996,110.5,-5.88418203051389E-15));
#1882=CARTESIAN_POINT('Origin',(26.9999999999997,84.5000000000001,9.));
#1883=CARTESIAN_POINT('',(28.2499999999997,84.5000000000001,9.));
#1884=CARTESIAN_POINT('Origin',(26.9999999999997,84.5000000000001,9.));
#1885=CARTESIAN_POINT('',(27.4999999999997,84.5000000000001,9.));
#1886=CARTESIAN_POINT('Origin',(26.9999999999997,84.5000000000001,9.));
#1887=CARTESIAN_POINT('Origin',(26.9999999999997,84.5000000000001,-3.74700270811014E-15));
#1888=CARTESIAN_POINT('',(28.2499999999997,84.5000000000001,10.));
#1889=CARTESIAN_POINT('',(28.2499999999997,84.5000000000001,-3.93782229046759E-15));
#1890=CARTESIAN_POINT('Origin',(26.9999999999997,84.5000000000001,10.));
#1891=CARTESIAN_POINT('Origin',(26.9999999999999,39.0000000000001,9.));
#1892=CARTESIAN_POINT('',(28.2499999999999,39.0000000000001,9.));
#1893=CARTESIAN_POINT('Origin',(26.9999999999999,39.0000000000001,9.));
#1894=CARTESIAN_POINT('',(27.4999999999999,39.0000000000001,9.));
#1895=CARTESIAN_POINT('Origin',(26.9999999999999,39.0000000000001,9.));
#1896=CARTESIAN_POINT('Origin',(26.9999999999999,39.0000000000001,-3.74700270810958E-15));
#1897=CARTESIAN_POINT('',(28.2499999999999,39.0000000000001,10.));
#1898=CARTESIAN_POINT('',(28.2499999999999,39.0000000000001,-3.93782229046702E-15));
#1899=CARTESIAN_POINT('Origin',(26.9999999999999,39.0000000000001,10.));
#1900=CARTESIAN_POINT('Origin',(6.99999999999973,84.5,9.));
#1901=CARTESIAN_POINT('',(8.24999999999973,84.5,9.));
#1902=CARTESIAN_POINT('Origin',(6.99999999999973,84.5,9.));
#1903=CARTESIAN_POINT('',(7.49999999999973,84.5,9.));
#1904=CARTESIAN_POINT('Origin',(6.99999999999973,84.5,9.));
#1905=CARTESIAN_POINT('Origin',(6.99999999999973,84.5,-6.93889390390983E-16));
#1906=CARTESIAN_POINT('',(8.24999999999973,84.5,10.));
#1907=CARTESIAN_POINT('',(8.24999999999973,84.5,-8.84708972748431E-16));
#1908=CARTESIAN_POINT('Origin',(6.99999999999973,84.5,10.));
#1909=CARTESIAN_POINT('Origin',(6.99999999999994,39.,9.));
#1910=CARTESIAN_POINT('',(8.24999999999993,39.,9.));
#1911=CARTESIAN_POINT('Origin',(6.99999999999994,39.,9.));
#1912=CARTESIAN_POINT('',(7.49999999999994,39.,9.));
#1913=CARTESIAN_POINT('Origin',(6.99999999999994,39.,9.));
#1914=CARTESIAN_POINT('Origin',(6.99999999999994,39.,-6.93889390390413E-16));
#1915=CARTESIAN_POINT('',(8.24999999999993,39.,10.));
#1916=CARTESIAN_POINT('',(8.24999999999993,39.,-8.84708972747861E-16));
#1917=CARTESIAN_POINT('Origin',(6.99999999999994,39.,10.));
#1918=CARTESIAN_POINT('Origin',(26.9999999999999,39.0000000000001,-3.74700270810958E-15));
#1919=CARTESIAN_POINT('',(27.4999999999999,39.0000000000001,-3.82333054105255E-15));
#1920=CARTESIAN_POINT('Origin',(26.9999999999999,39.0000000000001,-3.74700270810958E-15));
#1921=CARTESIAN_POINT('',(27.4999999999999,39.0000000000001,-3.82333054105255E-15));
#1922=CARTESIAN_POINT('Origin',(6.99999999999973,84.5,-6.93889390390983E-16));
#1923=CARTESIAN_POINT('',(7.49999999999973,84.5,-7.70217223333962E-16));
#1924=CARTESIAN_POINT('Origin',(6.99999999999973,84.5,-6.93889390390983E-16));
#1925=CARTESIAN_POINT('',(7.49999999999973,84.5,-7.70217223333962E-16));
#1926=CARTESIAN_POINT('Origin',(6.99999999999994,39.,-6.93889390390413E-16));
#1927=CARTESIAN_POINT('',(7.49999999999994,39.,-7.70217223333393E-16));
#1928=CARTESIAN_POINT('Origin',(6.99999999999994,39.,-6.93889390390413E-16));
#1929=CARTESIAN_POINT('',(7.49999999999994,39.,-7.70217223333393E-16));
#1930=CARTESIAN_POINT('Origin',(26.9999999999997,84.5000000000001,-3.74700270811014E-15));
#1931=CARTESIAN_POINT('',(27.4999999999997,84.5000000000001,-3.82333054105312E-15));
#1932=CARTESIAN_POINT('Origin',(26.9999999999997,84.5000000000001,-3.74700270811014E-15));
#1933=CARTESIAN_POINT('',(27.4999999999997,84.5000000000001,-3.82333054105312E-15));
#1934=CARTESIAN_POINT('Origin',(16.9999999999997,84.5000000000001,-2.22044604925056E-15));
#1935=CARTESIAN_POINT('',(18.9499999999997,84.5000000000001,10.));
#1936=CARTESIAN_POINT('Origin',(16.9999999999997,84.5000000000001,10.));
#1937=CARTESIAN_POINT('',(18.9499999999997,84.5000000000001,-2.51812459772818E-15));
#1938=CARTESIAN_POINT('',(18.9499999999997,84.5000000000001,-2.51812459772818E-15));
#1939=CARTESIAN_POINT('Origin',(16.9999999999997,84.5000000000001,-2.22044604925056E-15));
#1940=CARTESIAN_POINT('Origin',(16.9999999999999,39.0000000000001,-2.22044604924999E-15));
#1941=CARTESIAN_POINT('',(18.9499999999999,39.0000000000001,10.));
#1942=CARTESIAN_POINT('Origin',(16.9999999999999,39.0000000000001,10.));
#1943=CARTESIAN_POINT('',(18.9499999999999,39.0000000000001,-2.51812459772761E-15));
#1944=CARTESIAN_POINT('',(18.9499999999999,39.0000000000001,-2.51812459772761E-15));
#1945=CARTESIAN_POINT('Origin',(16.9999999999999,39.0000000000001,-2.22044604924999E-15));
#1946=CARTESIAN_POINT('Origin',(-2.,11.,0.));
#1947=CARTESIAN_POINT('',(-4.,11.,10.));
#1948=CARTESIAN_POINT('Origin',(-2.,11.,10.));
#1949=CARTESIAN_POINT('',(-4.,11.,0.));
#1950=CARTESIAN_POINT('',(-4.,11.,0.));
#1951=CARTESIAN_POINT('Origin',(-2.,11.,0.));
#1952=CARTESIAN_POINT('Origin',(8.,11.,0.));
#1953=CARTESIAN_POINT('',(6.,11.,10.));
#1954=CARTESIAN_POINT('Origin',(8.,11.,10.));
#1955=CARTESIAN_POINT('',(6.,11.,0.));
#1956=CARTESIAN_POINT('',(6.,11.,0.));
#1957=CARTESIAN_POINT('Origin',(8.,11.,0.));
#1958=CARTESIAN_POINT('Origin',(8.,-38.,0.));
#1959=CARTESIAN_POINT('',(6.00000000000001,-38.,10.));
#1960=CARTESIAN_POINT('Origin',(8.,-38.,10.));
#1961=CARTESIAN_POINT('',(6.,-38.,0.));
#1962=CARTESIAN_POINT('',(6.,-38.,0.));
#1963=CARTESIAN_POINT('Origin',(8.,-38.,0.));
#1964=CARTESIAN_POINT('Origin',(-2.,-38.,0.));
#1965=CARTESIAN_POINT('',(-4.,-38.,10.));
#1966=CARTESIAN_POINT('Origin',(-2.,-38.,10.));
#1967=CARTESIAN_POINT('',(-4.,-38.,0.));
#1968=CARTESIAN_POINT('',(-4.,-38.,0.));
#1969=CARTESIAN_POINT('Origin',(-2.,-38.,0.));
#1970=CARTESIAN_POINT('Origin',(36.,11.,0.));
#1971=CARTESIAN_POINT('',(34.,11.,10.));
#1972=CARTESIAN_POINT('Origin',(36.,11.,10.));
#1973=CARTESIAN_POINT('',(34.,11.,0.));
#1974=CARTESIAN_POINT('',(34.,11.,0.));
#1975=CARTESIAN_POINT('Origin',(36.,11.,0.));
#1976=CARTESIAN_POINT('Origin',(26.,11.,0.));
#1977=CARTESIAN_POINT('',(24.,11.,10.));
#1978=CARTESIAN_POINT('Origin',(26.,11.,10.));
#1979=CARTESIAN_POINT('',(24.,11.,0.));
#1980=CARTESIAN_POINT('',(24.,11.,0.));
#1981=CARTESIAN_POINT('Origin',(26.,11.,0.));
#1982=CARTESIAN_POINT('Origin',(36.,-38.,0.));
#1983=CARTESIAN_POINT('',(34.,-38.,10.));
#1984=CARTESIAN_POINT('Origin',(36.,-38.,10.));
#1985=CARTESIAN_POINT('',(34.,-38.,0.));
#1986=CARTESIAN_POINT('',(34.,-38.,0.));
#1987=CARTESIAN_POINT('Origin',(36.,-38.,0.));
#1988=CARTESIAN_POINT('Origin',(26.,-38.,0.));
#1989=CARTESIAN_POINT('',(24.,-38.,10.));
#1990=CARTESIAN_POINT('Origin',(26.,-38.,10.));
#1991=CARTESIAN_POINT('',(24.,-38.,0.));
#1992=CARTESIAN_POINT('',(24.,-38.,0.));
#1993=CARTESIAN_POINT('Origin',(26.,-38.,0.));
#1994=CARTESIAN_POINT('Origin',(21.,7.,0.));
#1995=CARTESIAN_POINT('',(21.,7.,0.));
#1996=CARTESIAN_POINT('',(41.,7.,0.));
#1997=CARTESIAN_POINT('',(21.,7.,0.));
#1998=CARTESIAN_POINT('',(41.,7.,10.));
#1999=CARTESIAN_POINT('',(41.,7.,0.));
#2000=CARTESIAN_POINT('',(21.,7.,10.));
#2001=CARTESIAN_POINT('',(21.,7.,10.));
#2002=CARTESIAN_POINT('',(21.,7.,0.));
#2003=CARTESIAN_POINT('Origin',(21.,-34.,0.));
#2004=CARTESIAN_POINT('',(21.,-34.,0.));
#2005=CARTESIAN_POINT('',(21.,-42.,0.));
#2006=CARTESIAN_POINT('',(21.,-34.,10.));
#2007=CARTESIAN_POINT('',(21.,-42.,10.));
#2008=CARTESIAN_POINT('',(21.,-34.,0.));
#2009=CARTESIAN_POINT('Origin',(41.,-34.,0.));
#2010=CARTESIAN_POINT('',(41.,-34.,0.));
#2011=CARTESIAN_POINT('',(21.,-34.,0.));
#2012=CARTESIAN_POINT('',(41.,-34.,10.));
#2013=CARTESIAN_POINT('',(21.,-34.,10.));
#2014=CARTESIAN_POINT('',(41.,-34.,0.));
#2015=CARTESIAN_POINT('Origin',(41.,-42.,0.));
#2016=CARTESIAN_POINT('',(41.,-42.,0.));
#2017=CARTESIAN_POINT('',(41.,-34.,0.));
#2018=CARTESIAN_POINT('',(41.,-42.,10.));
#2019=CARTESIAN_POINT('',(41.,-34.,10.));
#2020=CARTESIAN_POINT('',(41.,-42.,0.));
#2021=CARTESIAN_POINT('Origin',(-7.,-42.,0.));
#2022=CARTESIAN_POINT('',(-7.,-42.,0.));
#2023=CARTESIAN_POINT('',(13.,-42.,0.));
#2024=CARTESIAN_POINT('',(-7.,-42.,10.));
#2025=CARTESIAN_POINT('',(13.,-42.,10.));
#2026=CARTESIAN_POINT('',(-7.,-42.,0.));
#2027=CARTESIAN_POINT('Origin',(-7.,-34.,0.));
#2028=CARTESIAN_POINT('',(-7.,-34.,0.));
#2029=CARTESIAN_POINT('',(-7.,-42.,0.));
#2030=CARTESIAN_POINT('',(-7.,-34.,10.));
#2031=CARTESIAN_POINT('',(-7.,-42.,10.));
#2032=CARTESIAN_POINT('',(-7.,-34.,0.));
#2033=CARTESIAN_POINT('Origin',(13.,-34.,0.));
#2034=CARTESIAN_POINT('',(13.,-34.,0.));
#2035=CARTESIAN_POINT('',(-7.,-34.,0.));
#2036=CARTESIAN_POINT('',(13.,-34.,10.));
#2037=CARTESIAN_POINT('',(-7.,-34.,10.));
#2038=CARTESIAN_POINT('',(13.,-34.,0.));
#2039=CARTESIAN_POINT('Origin',(13.,7.,0.));
#2040=CARTESIAN_POINT('',(13.,7.,0.));
#2041=CARTESIAN_POINT('',(13.,7.,0.));
#2042=CARTESIAN_POINT('',(13.,7.,10.));
#2043=CARTESIAN_POINT('',(13.,7.,10.));
#2044=CARTESIAN_POINT('',(13.,7.,0.));
#2045=CARTESIAN_POINT('Origin',(-7.,7.,0.));
#2046=CARTESIAN_POINT('',(-7.,7.,0.));
#2047=CARTESIAN_POINT('',(-7.,7.,0.));
#2048=CARTESIAN_POINT('',(-7.,7.,10.));
#2049=CARTESIAN_POINT('',(-7.,7.,10.));
#2050=CARTESIAN_POINT('',(-7.,7.,0.));
#2051=CARTESIAN_POINT('Origin',(-7.,25.,0.));
#2052=CARTESIAN_POINT('',(-7.00000000000001,29.,1.44328993201313E-15));
#2053=CARTESIAN_POINT('',(-7.00000000000001,29.,10.));
#2054=CARTESIAN_POINT('',(-7.00000000000001,29.,10.));
#2055=CARTESIAN_POINT('',(-7.00000000000001,29.,10.));
#2056=CARTESIAN_POINT('Origin',(41.,7.,0.));
#2057=CARTESIAN_POINT('',(41.,15.,0.));
#2058=CARTESIAN_POINT('',(40.9999999999997,98.5000000000002,9.99999999999999));
#2059=CARTESIAN_POINT('',(40.9999999999997,98.5000000000002,9.99999999999999));
#2060=CARTESIAN_POINT('',(41.,15.,10.));
#2061=CARTESIAN_POINT('Origin',(17.,-8.5,10.));
#2062=CARTESIAN_POINT('Origin',(17.,-8.5,0.));
#2063=UNCERTAINTY_MEASURE_WITH_UNIT(LENGTH_MEASURE(0.01),#2067,
'DISTANCE_ACCURACY_VALUE',
'Maximum model space distance between geometric entities at asserted c
onnectivities');
#2064=UNCERTAINTY_MEASURE_WITH_UNIT(LENGTH_MEASURE(0.01),#2067,
'DISTANCE_ACCURACY_VALUE',
'Maximum model space distance between geometric entities at asserted c
onnectivities');
#2065=(
GEOMETRIC_REPRESENTATION_CONTEXT(3)
GLOBAL_UNCERTAINTY_ASSIGNED_CONTEXT((#2063))
GLOBAL_UNIT_ASSIGNED_CONTEXT((#2067,#2068,#2069))
REPRESENTATION_CONTEXT('','3D')
);
#2066=(
GEOMETRIC_REPRESENTATION_CONTEXT(3)
GLOBAL_UNCERTAINTY_ASSIGNED_CONTEXT((#2064))
GLOBAL_UNIT_ASSIGNED_CONTEXT((#2067,#2068,#2069))
REPRESENTATION_CONTEXT('','3D')
);
#2067=(
LENGTH_UNIT()
NAMED_UNIT(*)
SI_UNIT(.MILLI.,.METRE.)
);
#2068=(
NAMED_UNIT(*)
PLANE_ANGLE_UNIT()
SI_UNIT($,.RADIAN.)
);
#2069=(
NAMED_UNIT(*)
SI_UNIT($,.STERADIAN.)
SOLID_ANGLE_UNIT()
);
#2070=SHAPE_DEFINITION_REPRESENTATION(#2071,#2072);
#2071=PRODUCT_DEFINITION_SHAPE('',$,#2074);
#2072=SHAPE_REPRESENTATION('',(#1221),#2065);
#2073=PRODUCT_DEFINITION_CONTEXT('part definition',#2078,'design');
#2074=PRODUCT_DEFINITION('gripper','gripper v11',#2075,#2073);
#2075=PRODUCT_DEFINITION_FORMATION('',$,#2080);
#2076=PRODUCT_RELATED_PRODUCT_CATEGORY('gripper v11','gripper v11',(#2080));
#2077=APPLICATION_PROTOCOL_DEFINITION('international standard',
'automotive_design',2009,#2078);
#2078=APPLICATION_CONTEXT(
'Core Data for Automotive Mechanical Design Process');
#2079=PRODUCT_CONTEXT('part definition',#2078,'mechanical');
#2080=PRODUCT('gripper','gripper v11',$,(#2079));
#2081=PRESENTATION_STYLE_ASSIGNMENT((#2082));
#2082=SURFACE_STYLE_USAGE(.BOTH.,#2083);
#2083=SURFACE_SIDE_STYLE('',(#2084));
#2084=SURFACE_STYLE_FILL_AREA(#2085);
#2085=FILL_AREA_STYLE('Steel - Satin',(#2086));
#2086=FILL_AREA_STYLE_COLOUR('Steel - Satin',#2087);
#2087=COLOUR_RGB('Steel - Satin',0.627450980392157,0.627450980392157,0.627450980392157);
ENDSEC;
END-ISO-10303-21;
